<?xml version="1.0" encoding="utf-8"?>
<!-- Generator: Adobe Illustrator 26.5.0, SVG Export Plug-In . SVG Version: 6.00 Build 0)  -->
<svg version="1.1" xmlns="http://www.w3.org/2000/svg" xmlns:xlink="http://www.w3.org/1999/xlink" x="0px" y="0px"
	 viewBox="0 0 860.8 500" style="enable-background:new 0 0 860.8 500;" xml:space="preserve">
<style type="text/css">
	.st0{fill:#E5E5E5;}
	.st1{fill:none;}
	.st2{opacity:0.25;enable-background:new    ;}
	.st3{font-family:'ArimaKoshi-Regular';}
	.st4{font-size:21px;}
	.st5{font-size:11px;}
	.st6{fill:#F0F0F0;}
	.st7{fill:#E0E0E0;}
	.st8{fill:#455A64;}
	.st9{fill:#0096A1;}
	.st10{opacity:0.1;}
	.st11{fill:#263238;}
	.st12{fill:#37474F;}
	.st13{opacity:0.2;}
	.st14{fill:#EBEBEB;}
	.st15{fill:#FAFAFA;}
	.st16{opacity:0.5;fill:#FFFFFF;enable-background:new    ;}
	.st17{opacity:0.8;fill:#FFFFFF;enable-background:new    ;}
	.st18{opacity:0.65;fill:#FFFFFF;enable-background:new    ;}
	.st19{opacity:0.85;}
	.st20{fill:#FFFFFF;}
	.st21{opacity:0.5;}
	.st22{opacity:0.25;}
	.st23{opacity:0.2;enable-background:new    ;}
	.st24{fill:#FFA8A7;}
	.st25{opacity:0.15;enable-background:new    ;}
	.st26{fill:#F28F8F;}
	.st27{opacity:0.1;enable-background:new    ;}
	.st28{fill:#E6E6E6;}
	.st29{fill:#B16668;}
	.st30{opacity:0.4;fill:#FFFFFF;enable-background:new    ;}
	.st31{fill:#9A4A4D;}
	.st32{opacity:0.35;enable-background:new    ;}
	.st33{opacity:0.8;}
	.st34{opacity:0.3;enable-background:new    ;}
</style>
<g id="Layer_2">
	<rect class="st0" width="860.8" height="500"/>
	
		<image style="overflow:visible;" width="400" height="161" xlink:href="../origin/sol-400.png"  transform="matrix(0.5578 0 0 0.5578 12.6311 389.22)">
	</image>
	<rect x="712.9" y="25.7" class="st1" width="57" height="25.2"/>
	<text transform="matrix(1 0 0 1 712.9498 41.0501)" class="st2 st3 st4">V 1.0</text>
	<rect x="740.5" y="472.7" class="st1" width="95.9" height="12.6"/>
	<text transform="matrix(1 0 0 1 740.5367 480.7603)" class="st2 st3 st5">DICM | NDD@2022</text>
</g>
<g id="Layer_1">
	<g id="freepik--Floor--inject-29">
		<ellipse id="freepik--floor--inject-29" class="st6" cx="473.9" cy="341.5" rx="238.1" ry="137.5"/>
	</g>
	<g id="freepik--Shadows--inject-29">
		<ellipse id="freepik--Shadow--inject-29" class="st7" cx="330" cy="328.3" rx="74.7" ry="41.3"/>
		<path id="freepik--shadow--inject-29" class="st7" d="M284.4,396.5l117,67.5c1.2,0.6,2.6,0.6,3.9,0l206.9-119.5
			c0.6-0.2,0.9-0.9,0.7-1.5c-0.1-0.3-0.4-0.6-0.7-0.7l-117-67.5c-1.2-0.6-2.6-0.6-3.9,0L284.4,394.3c-0.6,0.2-0.9,0.9-0.7,1.5
			C283.8,396.1,284,396.4,284.4,396.5z"/>
		
			<ellipse id="freepik--shadow--inject-29_00000008864289954701313290000008427332755312727730_" class="st7" cx="608.6" cy="393.4" rx="63.8" ry="36.9"/>
	</g>
	<g id="freepik--Chair--inject-29">
		<g id="freepik--chair--inject-29">
			<path class="st8" d="M337.2,362.1c-0.9,0-1.7-0.7-1.7-1.7c0,0,0,0,0,0V253.7c0-0.9,0.7-1.7,1.7-1.7c0.9,0,1.7,0.7,1.7,1.7
				c0,0,0,0,0,0v106.8C338.8,361.4,338.1,362.1,337.2,362.1z"/>
			<path class="st8" d="M403.2,323.3c-0.7,0-1.3-0.4-1.6-1l-32.7-82.9c-0.3-0.9,0.1-1.8,0.9-2.2s1.8,0.1,2.2,0.9l0,0l32.7,82.8
				c0.3,0.9-0.1,1.8-0.9,2.2C403.6,323.2,403.4,323.3,403.2,323.3z"/>
			<path class="st8" d="M399.3,313.3c-0.5,0-0.9-0.2-1.2-0.5l-60.9-64.5l-60.8,64.2c-0.6,0.7-1.7,0.8-2.3,0.2s-0.8-1.7-0.2-2.3
				c0,0,0.1-0.1,0.1-0.1l62-65.5c0.3-0.3,0.8-0.5,1.2-0.5l0,0c0.5,0,0.9,0.2,1.2,0.5l62.1,65.8c0.6,0.7,0.6,1.7-0.1,2.3c0,0,0,0,0,0
				C400.1,313.2,399.7,313.3,399.3,313.3z"/>
			<path class="st8" d="M271.1,323.3c-0.2,0-0.4,0-0.6-0.1c-0.9-0.3-1.3-1.3-0.9-2.1c0,0,0,0,0,0l32.7-82.9c0.3-0.9,1.3-1.3,2.2-0.9
				c0.9,0.3,1.3,1.3,0.9,2.2l-32.7,82.9C272.4,322.9,271.8,323.3,271.1,323.3z"/>
			<path class="st9" d="M401,310.8l4.3,11.4c0,0.1,0,0.2,0,0.3v0.2c-0.1,0.3-0.4,0.6-0.6,0.7c-0.8,0.4-1.8,0.4-2.6,0
				c-0.2-0.1-0.4-0.3-0.5-0.5l0,0v-0.1l-4-10.7L401,310.8z"/>
			<path class="st9" d="M273.4,310.8l-4.3,11.4c0,0.1,0,0.2,0,0.3c0,0.1,0,0.1,0,0.2c0.1,0.3,0.3,0.6,0.6,0.7c0.8,0.4,1.8,0.4,2.6,0
				c0.2-0.1,0.4-0.3,0.5-0.5l0,0v-0.1l4.1-10.7L273.4,310.8z"/>
			<path class="st9" d="M339.1,352.2v9.5c0,0.3-0.3,0.6-0.6,0.8c-0.9,0.4-1.9,0.4-2.7,0c-0.3-0.1-0.5-0.4-0.6-0.8v-9.5
				C336.5,351.6,337.9,351.6,339.1,352.2z"/>
			<path class="st9" d="M399.7,243.2c0-2.5-2.2-5.2-6.8-8.2c-8.6-5.6-27.7-16.7-39.7-23.4c0,0-0.1-0.1-0.1-0.1
				c-9.2-5.6-17.8-32.3-24.2-52.5c-2.2-6.9-4.8-10.8-8-12.7c-0.8-0.4-3.5-1.9-4.1-2.3c-6.3-3.8-14.5,0.8-24.7,6.4
				c-9.4,5.2-16.8,11.8-18.3,29.3c-0.9,10.7,0,31.1,2.1,46.6l0,0c3.1,25.9,7,25.9,12.6,30.2c9.6,7.5,31.3,17.9,40.5,21.5
				c16.6,6.5,30.1-3.5,40.2-8.5c9.3-4.7,18.2-10,26.8-15.8c2.5-1.8,3.8-3.7,3.8-5.6C399.7,247.2,399.7,244.1,399.7,243.2z"/>
			<path class="st2" d="M399.7,243.2c0-2.5-2.2-5.2-6.8-8.2c-8.6-5.6-27.7-16.7-39.7-23.4c0,0-0.1-0.1-0.1-0.1
				c-9.2-5.6-17.8-32.3-24.2-52.5c-2.2-6.9-4.8-10.8-8-12.7c-0.8-0.4-3.5-1.9-4.1-2.3c-6.3-3.8-14.5,0.8-24.7,6.4
				c-9.4,5.2-16.8,11.8-18.3,29.3c-0.9,10.7,0,31.1,2.1,46.6l0,0c3.1,25.9,7,25.9,12.6,30.2c9.6,7.5,31.3,17.9,40.5,21.5
				c16.6,6.5,30.1-3.5,40.2-8.5c9.3-4.7,18.2-10,26.8-15.8c2.5-1.8,3.8-3.7,3.8-5.6C399.7,247.2,399.7,244.1,399.7,243.2z"/>
			<path class="st9" d="M320.5,146.2c-6.2-3.3-14.3,1.2-24.3,6.6c-6.4,3.5-11.8,7.7-15.1,15.4l-4.2-2.4c3.3-7.7,8.8-11.9,15.1-15.4
				c10.2-5.6,18.5-10.1,24.7-6.4L320.5,146.2z"/>
			<path class="st9" d="M392.9,235.1c-5.6-3.6-5.7-4.5-40-23.5c0.1,0,0.1,0,0.2,0.1c-9.2-5.6-17.8-32.3-24.2-52.5
				c-6.5-20.6-17.3-14.6-32.6-6.2c-9.5,5.2-16.8,11.8-18.3,29.3s1.8,61,7.7,66.3c6.5,7.2,32.7,20.6,43.2,24.8
				c16.6,6.5,30.1-3.5,40.2-8.5c9.3-4.7,18.2-10,26.8-15.9C401.6,244.7,401.1,240.4,392.9,235.1z"/>
			<path class="st9" d="M353,211.6L353,211.6z"/>
			<g class="st10">
				<path d="M296.2,152.9c15.3-8.4,26.1-14.4,32.6,6.2c6.4,20.3,15,46.9,24.2,52.5c0,0-15.8,0-38.8,12.4
					c-23.8,12.9-27.5,25.5-28.6,24.6c-6-5-9.3-48.8-7.8-66.4C279.4,164.6,286.8,158,296.2,152.9z"/>
			</g>
		</g>
	</g>
	<g id="freepik--Desk--inject-29">
		<g id="freepik--desk--inject-29">
			<polygon class="st8" points="403.4,328.1 298.4,267.5 473.8,166.2 578.8,226.9 			"/>
			<polygon class="st11" points="298.4,267.5 298.4,388.7 303.9,391.9 303.9,309 397.9,363.2 397.9,446.2 403.4,449.4 403.4,328.1 
							"/>
			<polygon points="303.9,391.9 309.5,388.7 309.5,312.1 303.9,309 			"/>
			<polygon class="st12" points="403.4,449.4 409,446.2 409,363.2 573.3,268.4 573.3,351.3 578.8,348.1 578.8,226.9 403.4,328.1 			
				"/>
			<polygon class="st11" points="573.3,351.3 567.8,348.1 567.8,271.6 573.3,268.4 			"/>
			<g class="st13">
				<path d="M393.9,304.2c-5.4,3.1-5.4,8.1,0,11.2s14,3.1,19.4,0s5.4-8.1,0-11.2S399.3,301.1,393.9,304.2z"/>
			</g>
			<g class="st13">
				<path d="M316.3,267.4l38.5,22.3c0.7,0.4,1.5,0.4,2.2,0l28.4-16.4c0.3-0.1,0.5-0.5,0.4-0.8c-0.1-0.2-0.2-0.3-0.4-0.4l-38.6-22.3
					c-0.7-0.3-1.5-0.3-2.2,0l-28.4,16.4C315.7,266.5,315.7,267,316.3,267.4z"/>
			</g>
			<g class="st13">
				<path d="M316.3,271.4l38.5,22.3c0.7,0.4,1.5,0.4,2.2,0l28.4-16.4c0.6-0.4,0.6-0.9,0-1.2l-38.6-22.3c-0.7-0.3-1.5-0.3-2.2,0
					l-28.4,16.4c-0.3,0.1-0.5,0.5-0.4,0.9C316,271.2,316.2,271.3,316.3,271.4z"/>
			</g>
			<path class="st14" d="M316.3,270.1l38.5,22.3c0.7,0.4,1.5,0.4,2.2,0l28.4-16.4c0.6-0.4,0.6-0.9,0-1.2l-38.6-22.3
				c-0.7-0.3-1.5-0.3-2.2,0l-28.4,16.4c-0.3,0.1-0.5,0.5-0.4,0.9C316,269.9,316.2,270,316.3,270.1z"/>
			<path class="st7" d="M344.7,252.4l-27,15.6l37.1,21.5c0.7,0.3,1.5,0.3,2.2,0l27-15.6l-37.2-21.5
				C346.2,252.1,345.4,252.1,344.7,252.4z"/>
			<path class="st15" d="M316.3,266.2l38.5,22.3c0.7,0.4,1.5,0.4,2.2,0l28.4-16.4c0.3-0.1,0.5-0.5,0.4-0.9c-0.1-0.2-0.2-0.3-0.4-0.4
				l-38.6-22.2c-0.7-0.4-1.5-0.4-2.2,0l-28.4,16.4c-0.3,0.1-0.5,0.5-0.4,0.9C316,265.9,316.2,266.1,316.3,266.2z"/>
			<g class="st13">
				<path d="M359.9,247.6l20.9,12.1c0.8,0.4,1.8,0.4,2.6,0l67.3-38.9c0.4-0.1,0.6-0.6,0.5-1c-0.1-0.2-0.3-0.4-0.5-0.5l-20.8-12.1
					c-0.8-0.4-1.8-0.4-2.6,0l-67.3,38.9c-0.4,0.1-0.6,0.6-0.5,1C359.5,247.3,359.7,247.5,359.9,247.6z"/>
			</g>
			<path class="st7" d="M360.6,244.8v-0.5c0.1-0.8,0.5-1.6,1.2-2l61.8-35.7c0.7-0.4,1.6-0.4,2.4,0l19.1,11.1c0.7,0.4,1.1,1.2,1.2,2
				v0.5c-0.1,0.8-0.5,1.6-1.2,2l-61.8,35.7c-0.7,0.4-1.6,0.4-2.4,0l-19.1-11C361.1,246.4,360.7,245.6,360.6,244.8z"/>
			<path class="st15" d="M361.8,243.6l19.1,11.1c0.7,0.4,1.6,0.4,2.4,0l61.8-35.7c0.4-0.1,0.6-0.5,0.4-0.9c-0.1-0.2-0.2-0.4-0.4-0.4
				l-19.2-11.1c-0.7-0.4-1.6-0.4-2.4,0l-61.8,35.7c-0.4,0.1-0.6,0.6-0.4,0.9C361.4,243.4,361.6,243.6,361.8,243.6z"/>
			<path class="st14" d="M412.5,310.6c4.7-4.8,7.5-16.9,2.9-20.7h-23.5c-4.6,3.8-1.8,15.9,2.9,20.7l0.1,0.1l0.2,0.2l0.4,0.4l0.1,0.1
				l0.4,0.3c0.2,0.1,0.4,0.3,0.6,0.4c4.4,2.3,9.7,2.3,14.1,0l0,0c0.2-0.1,0.4-0.3,0.6-0.4l0.3-0.2l0.1-0.1c0.1-0.1,0.3-0.2,0.4-0.4
				l0.2-0.2L412.5,310.6z"/>
			<path class="st15" d="M393.9,288.3c-5.4,3.1-5.4,8.1,0,11.2s14,3.1,19.4,0s5.4-8.1,0-11.2S399.3,285.2,393.9,288.3z"/>
			<path class="st14" d="M397.7,290.5c-3.3,1.9-3.3,4.9,0,6.8c3.7,1.9,8.1,1.9,11.8,0c3.3-1.9,3.3-4.9,0-6.8
				C405.8,288.6,401.4,288.6,397.7,290.5z"/>
			<path class="st7" d="M409.5,293.7c-3.7-1.9-8.1-1.9-11.8,0c-0.8,0.4-1.5,1-2,1.8c0.5,0.8,1.2,1.4,2,1.8c3.7,1.9,8.1,1.9,11.8,0
				c0.8-0.4,1.5-1,2-1.8C411,294.8,410.3,294.2,409.5,293.7z"/>
			<path class="st9" d="M398.4,295.5c-1.7-1.7-3.1-3.6-4.3-5.7c-2-3.5-2.3-8.2-1.3-8.7s5.2,4.1,5.2,4.1c-0.4-2-0.5-4-0.4-6
				c0.2-3.1,0.9-5.9,1.8-6.5s2.9,3.4,3.7,6.2s1.4,5.2,1.4,5.2c0.3-2.2,0.9-4.4,1.5-6.5c1-3,2-3.6,2.7-3.3s1.2,1.7,1.4,5.6
				c0.1,1.9,0,3.8-0.2,5.6c0,0,1.5-1.6,3.1-3.2c1.8-1.7,2.6-2,3.1-1.6c0.5,0.4,0.7,3-2.1,8c-1.4,2.5-3.1,4.9-5.2,6.9
				C408.8,295.5,405,298,398.4,295.5z"/>
			<path class="st9" d="M500.9,238.4l5-60.2c0.1-2-0.8-3.9-2.5-5c-1.8-0.9-3.9-0.8-5.7,0.1l-66,38.1c-1.8,1.2-2.9,3-3.2,5.1l-5,60.2
				c-0.1,2,0.8,3.9,2.5,5c1.8,0.9,3.9,0.8,5.7-0.1l66-38.1C499.4,242.3,500.6,240.5,500.9,238.4z"/>
			<path class="st16" d="M500.9,238.4l5-60.2c0.1-2-0.8-3.9-2.5-5c-1.8-0.9-3.9-0.8-5.7,0.1l-66,38.1c-1.8,1.2-2.9,3-3.2,5.1
				l-5,60.2c-0.1,2,0.8,3.9,2.5,5c1.8,0.9,3.9,0.8,5.7-0.1l66-38.1C499.4,242.3,500.6,240.5,500.9,238.4z"/>
			<path class="st9" d="M500.9,238.4l5-60.2c0.1-2-0.8-3.9-2.5-5c-1.8-0.9-3.9-0.8-5.7,0.1l-66,38.1c-0.9,0.5-1.6,1.3-2.1,2.2
				l10.2,5.9v57.4l57.9-33.4C499.4,242.3,500.6,240.5,500.9,238.4z"/>
			<path class="st17" d="M500.9,238.4l5-60.2c0.1-2-0.8-3.9-2.5-5c-1.8-0.9-3.9-0.8-5.7,0.1l-66,38.1c-0.9,0.5-1.6,1.3-2.1,2.2
				l10.2,5.9v57.4l57.9-33.4C499.4,242.3,500.6,240.5,500.9,238.4z"/>
			<path class="st9" d="M429,279.9l5-60.2c0.3-2.1,1.5-3.9,3.2-5.1l66-38.1c1.6-0.9,2.8-0.2,2.7,1.7l-5,60.2
				c-0.3,2.1-1.5,3.9-3.2,5.1l-66,38.1C430,282.5,428.9,281.8,429,279.9z"/>
			<path class="st18" d="M429,279.9l5-60.2c0.3-2.1,1.5-3.9,3.2-5.1l66-38.1c1.6-0.9,2.8-0.2,2.7,1.7l-5,60.2
				c-0.3,2.1-1.5,3.9-3.2,5.1l-66,38.1C430,282.5,428.9,281.8,429,279.9z"/>
			<path class="st9" d="M463,231.6c0.3-3.1,2.4-6.7,4.8-8.1c2.4-1.4,4.2,0,3.9,3.1s-2.4,6.7-4.8,8.1
				C464.5,236,462.8,234.6,463,231.6z"/>
			<polygon class="st9" points="464.6,249.8 480.8,240.3 478.1,238.8 461.8,248.2 			"/>
			<g class="st19">
				<polygon class="st20" points="464.6,249.8 480.8,240.3 478.1,238.8 461.8,248.2 				"/>
			</g>
			<path class="st9" d="M488.3,268l-19.7,11.4c-0.4,0.2-0.8,0.3-1.3,0.3c-0.4,0-0.7-0.1-1.1-0.3l0,0l-8.7-5h0
				c-0.7-0.5-1.1-1.2-1.1-2V272c0-0.8,0.5-1.1,1.2-0.7l5.2,3l1.2,0.7l-0.3-1.3l-1.8-25.5l2.8,1.6l16.2-9.4l8.4,25.6
				C489.4,266.8,489,267.6,488.3,268z"/>
			<g class="st21">
				<path class="st20" d="M488.3,268l-19.7,11.4c-0.4,0.2-0.8,0.3-1.3,0.3c-0.4,0-0.7-0.1-1.1-0.3l0,0l-8.7-5h0
					c-0.7-0.5-1.1-1.2-1.1-2V272c0-0.8,0.5-1.1,1.2-0.7l5.2,3l1.2,0.7l-0.3-1.3l-1.8-25.5l2.8,1.6l16.2-9.4l8.4,25.6
					C489.4,266.8,489,267.6,488.3,268z"/>
			</g>
			<polygon class="st9" points="456.7,271.1 463.5,267.2 464.8,276.3 			"/>
			<g class="st22">
				<polygon points="456.7,271.1 463.5,267.2 464.8,276.3 				"/>
			</g>
			<path class="st9" d="M464.6,249.8l-2.8-1.6l1.8,25.4c0.2,0.7-0.3,1-0.9,0.6l-5.2-3c-0.7-0.4-1.2-0.1-1.2,0.7v0.5
				c0,0.8,0.5,1.5,1.1,2h0.1l8.7,5l0,0c0.3,0.2,0.7,0.3,1.1,0.3L464.6,249.8z"/>
			<g class="st22">
				<path class="st20" d="M464.6,249.8l-2.8-1.6l1.8,25.4c0.2,0.7-0.3,1-0.9,0.6l-5.2-3c-0.7-0.4-1.2-0.1-1.2,0.7v0.5
					c0,0.8,0.5,1.5,1.1,2h0.1l8.7,5l0,0c0.3,0.2,0.7,0.3,1.1,0.3L464.6,249.8z"/>
			</g>
			<g id="freepik--Pencil--inject-29">
				<polygon id="freepik--shadow--inject-29_00000040558588357435178900000000880497510899657657_" class="st23" points="
					390.7,266.4 393.8,268.2 417.8,254.1 420.4,251 414.9,252.5 				"/>
				<path class="st24" d="M415.1,250.3l5.1-1c0.1,0,0.2,0,0.2,0.1c0,0,0,0.1,0,0.1l-3.5,3.9L415.1,250.3z"/>
				<path class="st11" d="M420.4,249.6c0.1-0.1,0-0.2,0-0.2c0,0-0.1,0-0.1,0l-1,0.2l0,0c0.3,0.2,0.4,0.5,0.4,0.8v0.1L420.4,249.6z"
					/>
				<path class="st9" d="M397.9,264.4l0.4-0.2l0.5-0.3l18.1-10.4c0.2-0.6,0.1-1.2-0.1-1.7c-0.3-0.7-0.9-1.3-1.6-1.5L397,260.7
					l-1,0.5C396.7,261,398.5,264.1,397.9,264.4z"/>
				<path class="st14" d="M399.4,263.5l0.9-0.5c0.3-0.1,0.1-0.8-0.2-1.5c-0.4-0.9-1.3-1.8-1.6-1.6l-0.7,0.4l-0.2,0.1
					c0.4-0.2,1.2,0.7,1.6,1.6C399.5,262.7,399.7,263.3,399.4,263.5L399.4,263.5L399.4,263.5z"/>
				<path class="st9" d="M399.7,263.4c0.6-0.3-1.2-3.5-1.8-3.2l-0.9,0.5c0.6-0.3,2.5,2.8,1.8,3.2L399.7,263.4z"/>
				<path class="st14" d="M397.9,264.4l0.9-0.5c0.6-0.3-1.1-3.4-1.8-3.2l0,0l-0.9,0.5C396.7,261,398.5,264.1,397.9,264.4z"/>
				<path class="st25" d="M420.4,249.4l-0.2-0.1l-3.7,2l-19.2,11c0-0.1-0.1-0.1-0.1,0c0.5,0.9,1,1.9,0.6,2.1l0.4-0.2l0.5-0.3
					l18.1-10.4l0,0l3.5-3.9C420.4,249.6,420.4,249.5,420.4,249.4z"/>
				<path class="st26" d="M393.9,266.7l3.9-2.2c0.3-0.1,0.1-0.8-0.2-1.5c-0.4-0.9-1.3-1.8-1.6-1.7l0,0l-3.9,2.2
					c-0.8,0.5-0.1,2.1,0.8,2.9C393.2,266.7,393.6,266.8,393.9,266.7z"/>
				<path class="st27" d="M394.2,265.5c-0.2-0.9-0.8-1.6-1.6-1.9c-0.2-0.1-0.4,0-0.6,0.1c-0.6,0.5,0.1,2.1,0.9,2.8
					c0.3,0.3,0.6,0.4,1,0.3C394.2,266.5,394.3,266.1,394.2,265.5z"/>
			</g>
		</g>
	</g>
	<g id="freepik--speech-bubble--inject-29">
		<g id="freepik--speach-bubble--inject-29">
			<path class="st8" d="M532.9,79.8c-0.2-0.1-0.4-0.2-0.6-0.2h-11.4l-4.7,2.7v16.3l4.7-2.7l4.1-4.7v11.5l4.7-2.7L542,86.8
				c0.5-0.5,0.4-1.3-0.1-1.8c-0.1,0-0.1-0.1-0.2-0.1L532.9,79.8z"/>
			<path class="st12" d="M525,102.8l4.7-2.7l12.4-13.3c0.5-0.5,0.4-1.3-0.1-1.8c-0.2-0.2-0.5-0.3-0.8-0.3h-11.4l-4.7,2.7V102.8z"/>
			<path class="st12" d="M529.7,71.2c-0.2-3.2-1.8-6.1-4.5-7.8l0,0c-2.8-1.4-6.2-1.4-9.1,0l-34.4,19.7c-2.7,1.7-4.4,4.7-4.5,7.8
				v37.1c0.2,3.2,1.9,6.1,4.5,7.8l0,0c2.8,1.4,6.2,1.4,9.1,0l34.8-20c4.1-2.3,4.1-4.7,4.1-7.5L529.7,71.2z"/>
			<path class="st11" d="M477.2,128.1c0.2,3.2,1.9,6.1,4.5,7.8l0,0c2.6,1.3,5.6,1.4,8.3,0.4c-2.1,0.8-3.8-0.4-3.8-3V96.2
				c0.1-1.6,0.5-3.1,1.3-4.5l-9.1-5.2c-0.8,1.3-1.3,2.9-1.3,4.5L477.2,128.1z"/>
			<path class="st8" d="M529.6,70c-0.5-1.9-2.3-2.5-4.4-1.3l-34.4,19.7c-1.3,0.8-2.4,2-3.2,3.4l-9-5.2c0.8-1.4,1.9-2.6,3.2-3.4
				l34.4-19.7c2.9-1.4,6.2-1.4,9.1,0l0,0C527.5,64.9,529.1,67.3,529.6,70z"/>
			<polygon class="st9" points="512.5,116.1 504.4,120.8 504.4,88.2 512.5,83.6 			"/>
			<polygon class="st9" points="520.6,89.7 520.6,100.5 496.3,114.6 496.3,103.8 			"/>
		</g>
	</g>
	<g id="freepik--Character--inject-29">
		<g id="freepik--character--inject-29">
			<path class="st28" d="M603.2,116.7c8,0.2,10.3,3.4,15.1,10.3s21.2,33,21.2,33l23.2,8.9l-3.1,13.6c0,0-31-5.3-33.1-6.4
				s-17.2-26.1-17.2-26.1L603.2,116.7z"/>
			<path class="st6" d="M597.1,116.9c7.6-1.9,10.9,2.3,13.4,7c11.5,21,16.1,147,16.1,147s-25.5,10.2-44.5-1.8L597.1,116.9z"/>
			<path class="st29" d="M621.5,333.5l-4.8,18.2c0,0-5.5,3.2-10.3,0c-3.8-2.5-3.5-5.5-3.5-5.5l0.2-2.7l0.5-21.1L621.5,333.5z"/>
			<path class="st11" d="M598.5,356c-1.3,2.9-2.1,11.4-2.1,11.4s0.8,3.1,5.1,5.9l4.2-11.2L598.5,356z"/>
			<polygon points="601.6,373.4 612.5,371.8 616.7,363.1 604,366.9 			"/>
			<path class="st11" d="M617.5,348.5l0.6-2.2c1.7,0.1,1.5,3.4,1.6,4.4c0.4,2.8,0.7,5.5,1.1,8.2c0.4,3,1.1,6,2.1,8.9
				c1,2.8,1.6,5.7,3.3,8.2s4.7,3.9,7.1,5.5c0.6,0.4,1.2,0.9,1.5,1.5c0.5,1.2-0.2,2.6-1.2,3.6c-1.7,1.6-3.8,2.6-6.1,2.9
				c-2.3,0.3-4.6,0.3-6.9,0c-4-0.4-7.9-1.9-11.2-4.2c-3.2-2.3-3.9-6.9-4.4-10.5c-0.4-3-0.2-6.5-1.4-9.3s-4.8-6.5-5.1-9.5
				c-0.1-2.6,0.4-5.1,1.6-7.4c1.3-2.5,2.2-5.6,3.1-5.2l-0.2,1.8c0-0.1,0.8,3.5,6,4.7C611.4,350.6,616,350.6,617.5,348.5z"/>
			<path class="st29" d="M609.7,368.2c0.1,3.4,0,4.8,0,6.3c0.1,2.8,0.9,4.7,1.5,7.4c0.3,1.1,0.7,2.2,1.1,3.2c0.5,1.2,1.5,2.8,0.9,4
				c-0.3,0.5-0.7,1-1.1,1.4c-2.1,1.8-4.8,2.7-7.5,2.5c-1.4,0-2.9-0.4-4.1-1.2c-2.4-1.6-3.4-4.5-4.7-6.9c-1.4-2.6-0.6-4-0.8-6.9
				c-0.3-3.8-0.8-7.6-1.5-11.4C598.8,360.8,603.2,366.6,609.7,368.2z"/>
			<path class="st9" d="M617.7,202c7.8,27.2,21,73.5,17.3,87.9c-2.8,10.8-15,50.2-15,50.2c-4.7,0.7-14.3,1.7-18.1-6.5
				c-1-13.4-4.2-104.3-4.2-104.3L617.7,202z"/>
			<path class="st30" d="M617.7,202c7.8,27.2,21,73.5,17.3,87.9c-2.8,10.8-15,50.2-15,50.2c-4.7,0.7-14.3,1.7-18.1-6.5
				c-1-13.4-4.2-104.3-4.2-104.3L617.7,202z"/>
			<path class="st2" d="M597.7,229.2c5-4.7,9.6-9.7,13.8-15.1c0,0-1,6.4-9.9,15.3c0,0,14.9,57.4,14.8,66.5s-5,42-5,42L597.7,229.2z"
				/>
			<path class="st9" d="M617.7,202c-6.4,13.2-8.9,18.5-20,27.2c0,0,13.6,56.6,14.2,67.5c1,18.2-1.3,59.1-2.2,71.5
				c-2.1,2.8-12.4,3.2-15.6,0.9c-1.5-5.7-6.5-25.9-8.8-44.1c-1.7-13.4,0.5-25.4,0.8-28.9c-7.2-18.4-23.4-45.2-29.3-64.5
				c-1-3.3-1.6-6.8-1.8-10.2c-1.3-12.2,3.7-21.5,6.6-28L617.7,202"/>
			<g class="st21">
				<path class="st20" d="M617.7,202c-6.4,13.2-8.9,18.5-20,27.2c0,0,13.6,56.6,14.2,67.5c1,18.2-1.3,59.1-2.2,71.5
					c-2.1,2.8-12.4,3.2-15.6,0.9c-1.5-5.7-6.5-25.9-8.8-44.1c-1.7-13.4,0.5-25.4,0.8-28.9c-7.2-18.4-23.4-45.2-29.3-64.5
					c-1-3.3-1.6-6.8-1.8-10.2c-1.3-12.2,3.7-21.5,6.6-28L617.7,202"/>
			</g>
			<path class="st11" d="M592.5,387.4c-0.8,3.1-0.1,11.6-0.1,11.6s1.3,2.9,6.1,4.9l2.2-11.8L592.5,387.4z"/>
			<polygon points="598.5,403.9 609,400.5 611.6,391.2 599.8,397 			"/>
			<path class="st12" d="M609.6,376.7l0.1-2.2c1.4,0.7,4.5,12.2,8.7,20.2c3.8,7.2,11.5,11.3,14,14.5c3.3,4.2-3.2,9.6-13.6,7.3
				c-5.2-1.2-13-4.5-15.1-8c-2.1-3.5-2.8-9.9-4.5-12.5s-5.8-5.6-6.7-8.5c-0.7-2.7-0.6-5.4,0.1-8.1c0.8-2.6,0.8-5.4,2.1-5.6l0.2,2.1
				c0.7,1.4,3.4,3.1,8.7,3.4C606.1,379.3,608.5,379,609.6,376.7z"/>
			<path class="st11" d="M591.2,94.1l-5.2,17.8c-14.6,0-23.6-14.2-23.6-28.8l0,0c0-14.7,9.3-26.9,24-26.9h4.8
				c14.7,0,26.6,9.7,26.6,24.4l0,0C617.7,90.1,605.8,94.1,591.2,94.1z"/>
			<path class="st11" d="M620.4,67c1.1-1.8,1.7-4,1.5-6.1c-0.1-2.2-1.3-4.2-3.1-5.4c-2.7-1.7-6.5-0.9-9,1.1c-0.4-4-3.9-6.9-7.9-6.6
				c-2.4,0.2-4.6,1.5-6.7,2.8c-3.6,1.8-7.4,3-11.4,3.5l4.5,1.7c-1.2,1.9-1.5,4.3-0.8,6.4c0.2,0.4,0.4,0.8,0.7,1.2
				c6,9,16.5,14.1,27.3,13.2c1.5,0,3-0.4,4.2-1.2c0.8-0.5,1.4-1.2,1.9-2c0.9-1.4,1.4-3,1.3-4.7C622.9,69.3,621.9,67.8,620.4,67z"/>
			<path class="st8" d="M579.8,119l-9.6,1c-6.3,1.6-9.2,4.3-9.9,10c-0.3,2.6-1.9,9.6,0.3,18.4c2,7.9,7.4,27.3,7.4,27.3
				s-6.9,17.4-10.2,26.3c22.6,14.7,50.5,8.9,59.8,0c-0.8-8.4-3.8-16.3-4.4-23.8c0,0,0.5-11.7,1.4-16.8c7.1-7.8,6.2-15.2,3-21.3
				c-5.9-11.1-14.9-20.9-17.7-20.8L579.8,119z"/>
			<path class="st7" d="M597,112.7c2.9,0.7,5.1,1.9,6.2,4c1.2,2.1,10.2,16.4,10.2,16.4s-7.3-9.6-12.8-12.5c-1.1-0.7-2.4-1.1-3.7-1.2
				V112.7z"/>
			<path class="st15" d="M579.8,119c0,0,10,20.9,11.8,34.9c1.8,14.1-2,62.1-2,77.3c0,18.4,0.1,48.7,0.1,48.7s-11.4,0-19.2-2.2
				c-5.7-1.6-12.5-4.6-16.6-9.5c0,0-1.1-37.6,1.2-55.5c2.2-17,11.3-37.9,11.3-37.9l-11.6-44.2c0,0,0.5-7.6,7.7-9.7
				C569.2,118.8,579.8,119,579.8,119z"/>
			<path class="st14" d="M570.4,128.1l-11.8,17.3l7.7,29.3c0,0-7.1,15.1-9.8,29.7c7.1-20.2,13.6-26.2,13.6-26.2l-4.2-17.1
				c0,0,1.5-5.4,3.5-14.5C571.5,137.4,571.1,132.1,570.4,128.1z"/>
			<path class="st9" d="M576.9,144.4c0-0.9-0.1-2.8-0.2-5.1c-0.7-11.6-1.1-22.1,2.8-23l0.3,1.6c-2.9,0.6-1.9,15.6-1.6,21.3
				c0.2,2.4,0.3,4.3,0.2,5.3L576.9,144.4z"/>
			<path class="st14" d="M579.8,112.7c-1.5,0-2.8,0.8-3.5,2.2c-0.9,1.6-2.9,4.3-2.9,4.3s-0.1,10.7,1,13.4
				c0.9,2.4,12.2,11.3,12.2,11.3s-1.1,9.4-1.2,12.7c-0.1,3.3,5.7,15.2,6.4,21.6c0,0,1.2-15.5,0.3-22.7c-1.6-12.6-9.5-31.3-12.3-36.5
				V112.7z"/>
			<path class="st8" d="M574.5,183.3h-0.1v-1.1c1.4-0.1,2.7-0.6,3.8-1.4c-1.2-0.8-2.2-1.7-3.1-2.8c-1.8-2.4-5.9-19.4-4.6-23.4
				c1-3.3,4.3-10.7,7.2-10.8h0.1c2.9,0,6.7,6.9,8,10.1c1.6,3.9-1,21.2-2.6,23.7c-0.8,1.2-1.8,2.2-2.9,3.1c1.2,0.7,2.5,1.1,3.9,1.1
				l0.1,1.1c-1.8,0-3.5-0.5-5-1.4C577.9,182.5,576.2,183.1,574.5,183.3z M577.7,144.8L577.7,144.8c-1.7,0.1-4.8,5.5-6.2,10
				c-1.2,3.6,2.7,20.1,4.4,22.4c0.9,1.1,2,2,3.2,2.8c1.2-0.9,2.2-1.9,3-3.1c1.5-2.4,4-19.1,2.5-22.7
				C582.9,150,579.4,144.8,577.7,144.8z"/>
			<path class="st11" d="M585.9,182.2c0,0.9-0.7,1.7-1.6,1.7c-0.9,0-1.7-0.7-1.7-1.6c0-0.9,0.7-1.7,1.6-1.7
				C585.1,180.6,585.8,181.3,585.9,182.2z"/>
			<path class="st11" d="M576.1,182.6c0,0.9-0.7,1.7-1.6,1.7s-1.7-0.7-1.7-1.6c0-0.9,0.7-1.7,1.6-1.7
				C575.3,181,576,181.7,576.1,182.6C576.1,182.6,576.1,182.6,576.1,182.6z"/>
			<path class="st9" d="M586,161.3l-1-0.1c-0.2,0-0.4-0.2-0.3-0.4c0,0,0,0,0,0c0.2-3.2,0.1-5.6-0.3-6.5c-1.7-4.1-5.2-9.3-6.7-9.3
				c-1.5,0.1-4.6,5.5-5.9,9.8c-0.3,1-0.2,3.3,0.3,6.5c0,0.2-0.1,0.4-0.3,0.4l-1,0.1c-0.2,0-0.4-0.1-0.4-0.3c0,0,0,0,0,0
				c-0.5-3.6-0.6-6-0.2-7.3c0.7-2.3,4.1-10.9,7.5-11c3.4-0.1,7.5,8.1,8.4,10.3c0.5,1.2,0.6,3.7,0.4,7.3
				C586.4,161.2,586.2,161.3,586,161.3z"/>
			<path class="st29" d="M546.6,248.5c1.7,1.6,2.7,3.8,4.5,7.1c1.8,3.2,10.6,3.5,11.3-5.6c0.5-6.9-1.9-9.2-6.7-14.5
				c-5-5.6-7-6.5-6.8-11.8c0.1-2.6,4-39.8,4-39.8l12.7-35.1c0,0,4.6-16.4,2.3-27.8c0,0-8.2-0.7-14.1,5.2
				c-6.8,6.8-14.5,40.4-16.2,47.2c-2.4,8.6-3.5,17.5-3.2,26.5c0.4,10.9,0.4,33.7,1.9,38.7C537.9,243.7,541.9,244.1,546.6,248.5z"/>
			<path class="st6" d="M568.6,119.6c0,0-8.8-0.6-13.9,3.7s-8.3,15.9-12.1,27.7s-7.1,23.2-8.4,31.4c-1,6.9,1,43.2,1,43.2
				s5.8,2.1,13.8-1.7l4.9-39.7l14.7-39.9C571.3,136.2,571.3,127.5,568.6,119.6z"/>
			<path class="st29" d="M602.7,69.6c6.7,0.7,12.3,7.8,11.9,23.9c-0.3,13.7-4.8,17-7,18s-6.5,1.1-10.7,0.4v7.4
				c0,0,4.8,10.6,2.8,14.4c-11.4-4.7-19.9-14.7-19.9-14.7v-16.9c0,0-2.8,3.3-7.4,0.3c-4.6-3.1-4.8-10.6-2.1-13.3s8.4-1.8,9.5,1.9
				c0,0,4-0.1,11.4-5.3C596.8,81.8,600.9,76.1,602.7,69.6z"/>
			<path class="st11" d="M596.1,88.2c0.1,1-0.7,1.9-1.7,2c0,0,0,0-0.1,0c-1,0.1-2-0.7-2-1.7c-0.1-1,0.7-2,1.7-2
				C595.1,86.4,596,87.1,596.1,88.2C596.1,88.2,596.1,88.2,596.1,88.2z"/>
			<path class="st31" d="M598,101l5.4,1.7c-0.4,1.5-1.9,2.4-3.4,2c0,0-0.1,0-0.1,0C598.4,104.1,597.6,102.5,598,101z"/>
			<path class="st11" d="M612.2,84l-3.7-2.6c0.6-1,2-1.3,3-0.7c0,0,0.1,0,0.1,0.1C612.6,81.5,612.9,82.9,612.2,84z"/>
			<path class="st11" d="M610.9,87.9c0,1-0.8,1.8-1.8,1.8s-1.8-0.8-1.8-1.8c0-1,0.8-1.8,1.7-1.8C610,86,610.9,86.8,610.9,87.9
				C610.9,87.9,610.9,87.9,610.9,87.9z"/>
			<polygon class="st31" points="601.7,86.8 601.9,97.8 607.7,96 			"/>
			<path class="st31" d="M597,111.9c-4.4-0.6-13.4-3.9-14.8-7.5c0.6,1.8,1.7,3.4,3.2,4.6c2.7,2.3,11.7,4.9,11.7,4.9L597,111.9z"/>
			<polygon class="st9" points="670.4,155.5 627,176.2 615,227.9 616,228.9 657.3,208.1 671.4,156.5 			"/>
			<polygon class="st32" points="627.9,177.2 616,228.9 615,227.9 627,176.2 			"/>
			<polygon class="st2" points="671.4,156.5 627.9,177.2 616,228.9 657.3,208.1 			"/>
			<g class="st13">
				<path d="M650.9,197.6c0.4,1,3.7,3.3,8.6,2.9l0.8-3L650.9,197.6z"/>
			</g>
			<g class="st10">
				<path d="M658.3,167.1l0.4-1.7c0.2-1-2.4-0.5-5.7,1.1l-6.4,3c-3.4,1.6-6.2,3.6-6.4,4.6l-0.4,1.7L658.3,167.1z"/>
			</g>
			<path class="st12" d="M660.9,159c0.1-0.6-0.9-0.5-2.3,0.2l-2.5,1.2c0,0,0.8-3.8-4.9-1.3s-6.8,6.8-6.8,6.8l-2.7,1.4
				c-1.5,0.7-2.9,1.8-3,2.4l-0.3,1.1l22.4-10.6C660.7,160.1,660.8,159.6,660.9,159z"/>
			<path class="st12" d="M658.6,162.6c-2,0.9-2.9,1.4-3.2,2.9c-0.3,1.7-0.5,2.9-0.5,2.9l-9.9,4.7c0,0,0.5-2.1,0.6-3
				s-0.2-1.2-1.8-0.5l-0.6-1.7l16-7.5L658.6,162.6z"/>
			<path class="st12" d="M658.9,167.1c0,0,0.2-0.8,0.4-1.7s-2.3-0.5-5.7,1.1l-6.4,3c-3.3,1.6-6.2,3.6-6.4,4.6l-0.4,1.7L658.9,167.1z
				"/>
			<path class="st29" d="M666.6,174.2c0,0-1.5,5.7-1.9,7.1s-7.5,4.7-11.1,5.2c-6.8,0.9-7.6,2.3-6,7.2c1.5,4.5,6,6.1,12.1,5.4
				c2.9-0.3,6.9-2.9,8.4-7.4c2-5.7,0.9-11.8,1.7-15.1S668.3,172.2,666.6,174.2z"/>
		</g>
	</g>
	<g id="freepik--Certificates--inject-29">
		<g id="freepik--Diploma--inject-29">
			<g id="freepik--Window--inject-29">
				<polygon class="st8" points="274.8,115.7 276.9,116.9 327.6,87.6 325.6,86.4 				"/>
				<polygon class="st9" points="325.6,86.4 276.9,114.5 276.9,72.3 325.6,44.2 				"/>
				<g class="st33">
					<polygon class="st20" points="325.6,86.4 276.9,114.5 276.9,72.3 325.6,44.2 					"/>
				</g>
				<path class="st12" d="M329.7,39.5l-54.8,31.6v49.3l54.8-31.7L329.7,39.5z M327.7,87.6l-50.8,29.3V72.3L327.6,43L327.7,87.6z"/>
				<polygon class="st11" points="327.6,87.6 325.6,86.4 325.6,44.2 327.6,43 				"/>
				<polygon class="st8" points="329.7,39.5 327.6,38.3 272.8,69.9 274.8,71.1 				"/>
				<polygon class="st11" points="272.8,69.9 274.8,71.1 274.8,120.4 272.8,119.2 				"/>
			</g>
			<path class="st9" d="M316,79.3c1.9-1.1,3.4-0.2,3.4,2c-0.1,2.4-1.4,4.6-3.4,5.9c-1.9,1.1-3.4,0.2-3.4-2
				C312.7,82.8,314,80.6,316,79.3z"/>
			<path class="st23" d="M288.3,70.4l25.8-14.9c0.7-0.4,1.3-0.1,1.3,0.7v0.1c0,0.9-0.5,1.8-1.3,2.2l-25.8,14.9
				c-0.7,0.4-1.3,0.1-1.3-0.8v-0.1C287.1,71.7,287.6,70.9,288.3,70.4z"/>
			<g class="st13">
				<path d="M284.3,82.1l34-19.6c0.7-0.4,1.3-0.2,1.3,0.4c-0.1,0.8-0.6,1.5-1.3,1.9l-34,19.6c-0.7,0.4-1.3,0.2-1.3-0.4
					C283.1,83.2,283.6,82.5,284.3,82.1z"/>
				<path d="M284.3,86.8l34-19.6c0.7-0.4,1.3-0.2,1.3,0.4c-0.1,0.8-0.6,1.5-1.3,1.9l-34,19.6c-0.7,0.4-1.3,0.2-1.3-0.4
					C283.1,87.9,283.6,87.2,284.3,86.8z"/>
				<path d="M284.3,91.5l34-19.6c0.7-0.4,1.3-0.2,1.3,0.4c-0.1,0.8-0.6,1.5-1.3,1.9l-34,19.6c-0.7,0.4-1.3,0.2-1.3-0.4
					C283.1,92.6,283.6,91.9,284.3,91.5z"/>
			</g>
			<path class="st34" d="M309.9,89.3c-0.3,0.1-0.6,0.2-0.9,0.2c-0.7,0-0.7-0.7-0.6-1.2c0-0.2-0.3-0.6-0.5-0.3
				c-0.4,0.8-1,1.5-1.5,2.3c-0.3,0.5-0.8,1.5-1.5,1.4c-0.3-0.1-0.4-0.4-0.4-0.8c0.4-0.6,0.5-1.4,0.4-2.1c0-0.2-0.4-0.5-0.5-0.2
				c-0.3,0.6-0.4,1.3-0.4,2c-0.3,0.6-0.7,1.1-1.1,1.6c-0.2,0.3-0.4,0.7-0.7,1c-0.1,0.1-0.2,0.2-0.3,0.3c-0.1,0-0.2-0.1-0.2-0.3
				c0-0.2,0-0.5,0.1-0.7l0,0c0,0,0,0,0-0.1l0,0c0-0.2-0.3-0.6-0.4-0.3c-0.4,1.2-1.1,2.4-2,3.3l-0.1,0.1c0-0.1,0-0.3,0-0.4
				c0-0.3-0.1-0.6-0.2-0.9c-0.1-0.2-0.3-0.4-0.5-0.2c-0.6,1.1-1.4,2.2-2.3,3.1c-0.1,0.1-0.3,0.2-0.5,0.3c-0.2-0.1,0.1-0.9,0.1-1
				c0.1-0.4,0.2-0.7,0.3-1.1c0.1-0.3,0.2-0.6,0.3-0.9c0-0.3-0.4-0.7-0.5-0.3c0,0.2-0.2,0.5-0.3,1c-0.6,1.1-1.2,2.1-2,3.1
				c-0.7,1.1-1.6,1.9-2.6,2.6c-0.3,0.2-0.9,0.4-1.2,0.2s-0.3-0.7-0.3-1c0-0.8,0.1-1.6,0.3-2.3c1.1-0.6,2.1-1.3,2.9-2.1
				c0.9-0.7,1.6-1.5,2.2-2.5c0.3-0.6,0.5-1.4-0.2-1.8c-0.5-0.2-1.2,0.1-1.6,0.4c-0.6,0.3-1.1,0.8-1.6,1.3c-0.9,1.1-1.6,2.3-2,3.7
				c-0.1,0.2-0.1,0.5-0.2,0.8c-1.2,0.6-2.5,0.8-3.7,0.6c-0.1,0-0.1,0.2,0,0.2c1.2,0.3,2.5,0.1,3.7-0.3c-0.3,1.4-0.5,3.3,0.8,3.7
				s2.9-1.3,3.6-2.2c0.5-0.7,1-1.5,1.4-2.3c0-0.1,0.1-0.1,0.1-0.2c0,0.7,0.1,1.1,0.8,1c0.7-0.1,1.2-1,1.6-1.5c0.4-0.5,0.6-1,1-1.5
				c0.1,0.6,0.2,1.3,0.7,1.2s1-1.1,1.3-1.5c0.3-0.4,0.5-0.7,0.6-1.1c0,0.1,0.1,0.1,0.1,0.2c0.5,0.5,1,0,1.3-0.4
				c0.4-0.6,0.9-1.2,1.3-1.8c0.1,0.3,0.3,0.5,0.6,0.6c0.7,0.3,1.4-0.3,1.8-0.8c0.5-0.7,1-1.4,1.4-2.2c0.1,0.3,0.2,0.5,0.5,0.7
				c0.5,0.3,1.2,0.2,1.7-0.1C310.4,89.7,310.2,89.2,309.9,89.3z M294.1,92.2c0.3-0.2,1-0.5,1.1,0.1c0,0.4-0.2,0.7-0.5,1
				c-0.6,0.8-1.3,1.5-2,2.1c-0.8,0.7-1.6,1.3-2.5,1.9C290.7,95.1,292.1,93.2,294.1,92.2z"/>
		</g>
		<g id="freepik--diploma--inject-29">
			<g id="freepik--window--inject-29">
				<polygon class="st8" points="354.8,115.7 356.9,116.9 407.6,87.6 405.6,86.4 				"/>
				<polygon class="st9" points="405.6,86.4 356.9,114.5 356.9,72.3 405.6,44.2 				"/>
				<g class="st33">
					<polygon class="st20" points="405.6,86.4 356.9,114.5 356.9,72.3 405.6,44.2 					"/>
				</g>
				<path class="st12" d="M409.7,39.5l-54.8,31.6v49.3l54.8-31.7L409.7,39.5z M407.7,87.6l-50.8,29.3V72.3L407.6,43L407.7,87.6z"/>
				<polygon class="st11" points="407.6,87.6 405.6,86.4 405.6,44.2 407.6,43 				"/>
				<polygon class="st8" points="409.7,39.5 407.6,38.3 352.8,69.9 354.8,71.1 				"/>
				<polygon class="st11" points="352.8,69.9 354.8,71.1 354.8,120.4 352.8,119.2 				"/>
			</g>
			<path class="st9" d="M396,79.3c1.9-1.1,3.4-0.2,3.4,2c-0.1,2.4-1.4,4.6-3.4,5.9c-1.9,1.1-3.4,0.2-3.4-2
				C392.7,82.8,394,80.6,396,79.3z"/>
			<path class="st23" d="M368.3,70.4l25.8-14.9c0.7-0.4,1.3-0.1,1.3,0.7v0.1c0,0.9-0.5,1.7-1.3,2.2l-25.8,14.9
				c-0.7,0.4-1.3,0.1-1.3-0.8v-0.1C367.1,71.7,367.6,70.9,368.3,70.4z"/>
			<g class="st13">
				<path d="M364.3,82.1l34-19.6c0.7-0.4,1.3-0.2,1.3,0.4c-0.1,0.8-0.6,1.5-1.3,1.9l-34,19.6c-0.7,0.4-1.3,0.2-1.3-0.4
					C363.1,83.2,363.6,82.5,364.3,82.1z"/>
				<path d="M364.3,86.8l34-19.6c0.7-0.4,1.3-0.2,1.3,0.4c-0.1,0.8-0.6,1.5-1.3,1.9l-34,19.6c-0.7,0.4-1.3,0.2-1.3-0.4
					C363.1,87.9,363.6,87.2,364.3,86.8z"/>
				<path d="M364.3,91.5l34-19.6c0.7-0.4,1.3-0.2,1.3,0.4c-0.1,0.8-0.6,1.5-1.3,1.9l-34,19.6c-0.7,0.4-1.3,0.2-1.3-0.4
					C363.1,92.6,363.6,91.9,364.3,91.5z"/>
			</g>
			<path class="st34" d="M389.9,89.3c-0.3,0.1-0.6,0.2-0.9,0.2c-0.7,0-0.7-0.7-0.6-1.2c0-0.2-0.3-0.6-0.5-0.3
				c-0.4,0.8-1,1.5-1.5,2.3c-0.3,0.5-0.8,1.5-1.5,1.4c-0.3-0.1-0.4-0.4-0.4-0.8c0.4-0.6,0.5-1.4,0.4-2.1c0-0.2-0.4-0.5-0.5-0.2
				c-0.3,0.6-0.4,1.3-0.4,2c-0.3,0.6-0.7,1.1-1.1,1.6c-0.2,0.3-0.4,0.7-0.7,1c-0.1,0.1-0.2,0.2-0.3,0.3c-0.1,0-0.2-0.1-0.2-0.3
				c0-0.2,0-0.5,0.1-0.7l0,0c0,0,0,0,0-0.1l0,0c0-0.2-0.3-0.6-0.4-0.3c-0.4,1.2-1.1,2.4-2,3.3l-0.1,0.1c0-0.1,0-0.3,0-0.4
				c0-0.3-0.1-0.6-0.2-0.9c-0.1-0.2-0.3-0.4-0.5-0.2c-0.6,1.1-1.4,2.2-2.3,3.1c-0.1,0.1-0.3,0.2-0.5,0.3c-0.1-0.1,0.1-0.9,0.1-1
				c0.1-0.4,0.2-0.7,0.3-1.1c0.1-0.3,0.2-0.6,0.3-0.9c0-0.3-0.4-0.7-0.5-0.3c0,0.2-0.2,0.5-0.3,1c-0.6,1.1-1.2,2.1-2,3.1
				c-0.7,1.1-1.6,1.9-2.6,2.6c-0.3,0.2-0.9,0.4-1.2,0.2c-0.3-0.2-0.3-0.7-0.3-1c0-0.8,0.1-1.6,0.3-2.3c1.1-0.6,2.1-1.3,2.9-2.1
				c0.9-0.7,1.6-1.5,2.2-2.5c0.3-0.6,0.5-1.4-0.2-1.8c-0.5-0.2-1.2,0.1-1.6,0.4c-0.6,0.3-1.1,0.8-1.6,1.2c-0.9,1.1-1.6,2.3-2,3.7
				c-0.1,0.2-0.1,0.5-0.2,0.8c-1.2,0.6-2.5,0.8-3.7,0.6c-0.1,0-0.1,0.2,0,0.2c1.2,0.3,2.5,0.1,3.7-0.3c-0.3,1.4-0.5,3.3,0.8,3.7
				s2.9-1.3,3.6-2.2c0.5-0.7,1-1.5,1.4-2.3c0-0.1,0.1-0.1,0.1-0.2c0,0.7,0.1,1.1,0.8,1c0.7-0.1,1.2-1,1.6-1.5s0.6-1,1-1.5
				c0.1,0.6,0.2,1.3,0.7,1.2s1-1.1,1.3-1.5s0.5-0.7,0.6-1.1c0,0.1,0.1,0.1,0.1,0.2c0.5,0.5,1,0,1.3-0.4c0.4-0.6,0.9-1.2,1.3-1.8
				c0.1,0.3,0.3,0.5,0.6,0.6c0.7,0.3,1.4-0.3,1.8-0.8c0.5-0.7,1-1.4,1.4-2.2c0.1,0.3,0.2,0.5,0.5,0.7c0.5,0.3,1.2,0.2,1.7-0.1
				C390.4,89.7,390.2,89.2,389.9,89.3z M374.1,92.1c0.3-0.2,1-0.5,1.1,0.1c0,0.4-0.2,0.7-0.4,1c-0.6,0.8-1.3,1.5-2,2.1
				c-0.8,0.7-1.6,1.3-2.5,1.9C370.7,95.1,372.1,93.2,374.1,92.1z"/>
		</g>
	</g>
</g>
</svg>
