<?xml version="1.0" encoding="utf-8"?>
<!-- Generator: Adobe Illustrator 26.3.1, SVG Export Plug-In . SVG Version: 6.00 Build 0)  -->
<svg version="1.1" xmlns="http://www.w3.org/2000/svg" xmlns:xlink="http://www.w3.org/1999/xlink" x="0px" y="0px"
	 viewBox="0 0 1600 1200" style="enable-background:new 0 0 1600 1200;" xml:space="preserve">
<style type="text/css">
	.st0{fill:#00A9B1;}
	.st1{fill:#B2B6BB;}
	.st2{opacity:0.1;}
	.st3{opacity:0.1;enable-background:new    ;}
	.st4{fill:#DADDDF;}
	.st5{fill:#F4F4F4;}
	.st6{fill:#FFFFFF;}
	.st7{opacity:0.2;fill:#00A9B1;enable-background:new    ;}
	.st8{fill:#00A9B1;stroke:#00A6B1;stroke-miterlimit:10;}
	.st9{fill:#4D61FC;}
	.st10{opacity:0.3;fill:#3F4249;enable-background:new    ;}
	.st11{fill:#868A91;}
	.st12{fill:#606266;}
	.st13{opacity:0.3;enable-background:new    ;}
	.st14{opacity:0.15;enable-background:new    ;}
	.st15{fill:#3F4249;}
	.st16{fill:none;stroke:#FFFFFF;stroke-width:1.4;stroke-linecap:round;stroke-linejoin:round;}
	.st17{opacity:0.2;enable-background:new    ;}
	.st18{display:none;opacity:0.2;enable-background:new    ;}
	.st19{opacity:0.1;fill:none;stroke:#000000;stroke-width:0.89;stroke-miterlimit:10;enable-background:new    ;}
	.st20{fill:#FC9D9D;}
	.st21{fill:#21252B;}
	.st22{opacity:0.15;}
	.st23{opacity:0.5;enable-background:new    ;}
	.st24{opacity:0.2;fill:none;stroke:#000000;stroke-width:0.92;stroke-miterlimit:10;enable-background:new    ;}
	.st25{fill:#FFFFFF;stroke:#DADDDF;stroke-miterlimit:10;}
	.st26{opacity:0.6;fill:#FFFFFF;enable-background:new    ;}
	.st27{opacity:0.2;}
	.st28{fill:#263238;}
	.st29{fill:#7F3E3B;}
	.st30{fill:#00BEB4;}
	.st31{opacity:0.4;fill:#FFFFFF;enable-background:new    ;}
	.st32{opacity:0.7;fill:#FFFFFF;enable-background:new    ;}
	.st33{fill:#630F0F;}
</style>
<g id="Layer_2">
	<rect class="st0" width="1600" height="563.4"/>
</g>
<g id="Layer_1">
	<g id="Layer_1_00000047754412284994745290000000181220506580598177_">
		<g id="Layer_1_00000018218623362395173100000003558926123060753557_">
			<path class="st1" d="M1184,993.9h7V757.7c0-1-1.6-1.8-3.5-1.8h-69.8c-1.9,0-3.5,0.8-3.5,1.8v233.8h6.9V763.4h62.8L1184,993.9
				L1184,993.9z"/>
			<g class="st2">
				<path class="st3" d="M1184,993.9h7V757.7c0-1-1.6-1.8-3.5-1.8h-69.8c-1.9,0-3.5,0.8-3.5,1.8v233.8h6.9V763.4h62.8L1184,993.9
					L1184,993.9z"/>
			</g>
			<path class="st1" d="M1095.2,1109.3H1220v-14.8h-124.8V1109.3z"/>
			<path class="st3" d="M1095.2,1109.3H1220v-14.8h-124.8V1109.3z"/>
			<path class="st1" d="M1179,993.9h7V757.7c0-1-1.6-1.8-3.5-1.8h-69.8c-1.9,0-3.5,0.8-3.5,1.8v233.8h6.9V763.4h62.8L1179,993.9
				L1179,993.9z"/>
			<path class="st4" d="M1125.3,904.2h-72.1v84.7h72.1V904.2z"/>
			<path class="st5" d="M1067.6,930.3h43.3v-12.4h-43.3V930.3z"/>
			<path class="st4" d="M1238,904.2h-72.1v84.7h72.1V904.2z"/>
			<path class="st5" d="M1182,976.7h43.3v-55.5H1182V976.7z"/>
			<path class="st1" d="M1150.2,1109.3h13.1V990h-13.1V1109.3z"/>
			<g class="st2">
				<path class="st3" d="M1150.2,1109.3h13.1V990h-13.1V1109.3z"/>
			</g>
			<path class="st1" d="M1142.2,1109.3h13.1V990h-13.1V1109.3z"/>
			<path class="st1" d="M1088.4,1109.3h124.8v-14.8h-124.8V1109.3z"/>
			<path class="st4" d="M1238,787.9h-72.1v84.7h72.1V787.9z"/>
			<path class="st5" d="M1181.3,815.5h43.3v-12.4h-43.3V815.5z"/>
			<path class="st1" d="M1045.4,886.1h234.2v-14.8h-234.2V886.1z"/>
			<path class="st3" d="M1045.4,886.1h234.2v-14.8h-234.2V886.1z"/>
			<path class="st1" d="M1045.4,1003.1h234.2v-14.8h-234.2V1003.1z"/>
			<path class="st3" d="M1045.4,1003.1h234.2v-14.8h-234.2V1003.1z"/>
			<path class="st4" d="M1131.6,787.9h-72.1v84.7h72.1V787.9z"/>
			<path class="st5" d="M1073.9,814h43.3v-12.4h-43.3V814z"/>
			<path class="st5" d="M1073.9,836.5h43.3v-12.4h-43.3V836.5z"/>
			<path class="st1" d="M1037.4,1003.2h233.3l0.4-14.8h-233.7L1037.4,1003.2L1037.4,1003.2z"/>
			<path class="st1" d="M1037.4,886.1h234.2v-14.8h-234.2V886.1z"/>
			<path class="st1" d="M360.8,1108.4H723V354H360.8V1108.4z"/>
			<path class="st4" d="M360.8,1108.4h355V354h-355V1108.4z"/>
			<path class="st1" d="M697.2,1108.4V371.1H379.5v737.3H697.2z"/>
			<path class="st3" d="M606,462H477v48h129V462z"/>
			<path class="st6" d="M456.9,708.7c-16.5-4.5-33,10.1-49.4,5.5c-3.5-0.9-6.4-5.6-6.4-9.1s2.9-4.5,6.4-3.6
				c16.5,4.5,33-10.1,49.4-5.5c3.5,0.9,6.3,5.6,6.3,9.1C463.2,708.6,460.3,709.6,456.9,708.7z"/>
			<path class="st3" d="M382.4,1108.4V371.1H378v737.3H382.4z"/>
			<path class="st5" d="M599.9,462h-129v48h129V462z"/>
			<path class="st7" d="M288.6,897c-0.9,0-1.8,0.2-2.6,0.6c-0.8,0.4-1.5,1-2.1,1.7c-7.6,9.8-9.1,30.4-6,35.7
				c3.7,6.3-0.1,8.6,0.8,14.2c0.7,4.6,7.2,8.1,9.6,9.3c0.3,0.1,0.6,0.2,0.9,0.2s0.6-0.1,0.9-0.2c2.5-1.2,9.4-4.9,10-9.6
				c0.7-5.7-3.2-7.9,0.3-14.3c3-5.4,0.8-26-7.1-35.5c-0.6-0.7-1.3-1.2-2.1-1.6C290.4,897.2,289.5,897,288.6,897"/>
			<path class="st7" d="M342.3,953.2c-0.7-0.6-1.5-1-2.3-1.3c-0.9-0.2-1.8-0.3-2.7-0.1c-12.2,2.3-27,16.7-28.2,22.8
				c-1.4,7.2-5.8,6.3-8.9,11.2c-2.5,4,0,10.9,1.1,13.4c0.1,0.3,0.3,0.5,0.5,0.7s0.5,0.4,0.8,0.4c2.7,0.8,10.3,2.5,13.8-0.6
				c4.3-3.8,2.8-8,9.7-10.5c5.8-2.1,17.8-18.9,18.2-31.3c0-0.9-0.2-1.8-0.5-2.6C343.6,954.5,343,953.8,342.3,953.2"/>
			<path class="st7" d="M233.2,966.5c-0.6,0.5-1,1.1-1.4,1.8c-0.3,0.7-0.5,1.4-0.5,2.2c0.2,10.3,10.1,24.4,14.9,26.2
				c5.7,2.1,4.4,5.6,8,8.8c2.9,2.6,8.9,1.4,11.1,0.9c0.3-0.1,0.5-0.2,0.7-0.3c0.2-0.2,0.4-0.4,0.5-0.6c1-2.1,3.5-8.1,1.4-11.4
				c-2.5-4.1-6.2-3.4-7.3-9.4c-0.9-5.1-13.2-17.2-23.2-19.2c-0.7-0.1-1.5-0.1-2.2,0.1C234.5,965.6,233.8,966,233.2,966.5"/>
			<path class="st8" d="M324.8,989.5c-0.5-0.4-1.1-0.6-1.8-0.7c-0.6-0.1-1.3-0.1-1.9,0.1c-8.6,2.5-18.2,14-18.7,18.4
				c-0.5,5.3-3.7,5-5.6,8.7c-1.5,3,0.8,7.8,1.7,9.5c0.1,0.2,0.3,0.4,0.4,0.5c0.2,0.1,0.4,0.2,0.6,0.3c2,0.4,7.6,1.1,9.9-1.4
				c2.8-3,1.5-6,6.2-8.2c4-1.9,11.5-14.9,10.9-23.9c-0.1-0.7-0.2-1.3-0.6-1.8C325.8,990.3,325.4,989.8,324.8,989.5"/>
			<path class="st0" d="M260.4,927.8c-0.7,0.2-1.4,0.6-1.9,1.1c-0.6,0.5-1,1.1-1.3,1.8c-3.7,9.6,0,26.4,3.8,29.9
				c4.5,4.1,2,6.8,4,11.2c1.7,3.5,7.7,4.7,9.9,5.1c0.3,0,0.5,0,0.8-0.1c0.2-0.1,0.5-0.2,0.7-0.4c1.7-1.6,6.3-6.2,5.6-10
				c-0.8-4.7-4.4-5.5-3.2-11.5c1.1-5-5.6-20.9-14.2-26.6c-0.6-0.4-1.3-0.7-2.1-0.8C261.9,927.5,261.1,927.6,260.4,927.8"/>
			<path class="st0" d="M320.2,930.1c-0.7-0.3-1.4-0.5-2.1-0.6c-0.7,0-1.5,0.1-2.2,0.4c-9.4,4.2-18.6,18.7-18.4,23.8
				c0.2,6.1-3.5,6.2-5,10.8c-1.3,3.7,2.1,8.8,3.4,10.6c0.2,0.2,0.4,0.4,0.6,0.5s0.5,0.2,0.7,0.2c2.3,0.1,8.8,0.1,11.1-3.1
				c2.8-3.9,0.8-7,5.9-10.3c4.3-2.8,10.8-18.7,8.8-28.8c-0.2-0.7-0.5-1.4-0.9-2C321.5,930.9,320.9,930.4,320.2,930.1"/>
			<path class="st8" d="M286.9,932.3c-0.8,0-1.5,0.1-2.2,0.4c-0.7,0.3-1.3,0.8-1.8,1.3c-6.6,7.9-8.5,25-6.1,29.5
				c2.9,5.3-0.4,7.1,0.2,11.9c0.5,3.9,5.8,7,7.7,8c0.2,0.1,0.5,0.2,0.7,0.2c0.3,0,0.5-0.1,0.7-0.2c2.1-0.9,8-3.8,8.6-7.7
				c0.8-4.7-2.4-6.6,0.7-11.9c2.6-4.4,1.5-21.6-4.8-29.8c-0.5-0.6-1-1.1-1.7-1.4C288.4,932.4,287.6,932.2,286.9,932.3"/>
			<path class="st7" d="M259.4,1009.2c-0.5,0.3-0.9,0.8-1.2,1.3c-0.3,0.5-0.5,1.1-0.5,1.7c-0.5,8.1,6.3,19.7,10,21.4
				c4.3,2,3.1,4.6,5.7,7.4c2.1,2.2,6.9,1.7,8.6,1.4c0.2,0,0.4-0.1,0.6-0.2s0.3-0.3,0.4-0.4c0.9-1.6,3.2-6.1,1.8-8.8
				c-1.7-3.3-4.6-3.1-5.1-7.8c-0.4-4-9.2-14.3-16.9-16.5c-0.6-0.2-1.2-0.2-1.7-0.1C260.4,1008.7,259.9,1008.9,259.4,1009.2"/>
			<path class="st9" d="M288.3,1053.6l-0.6-0.2c0.1-0.5,14.9-49.1,37.2-62.7l0.3,0.5C303.1,1004.8,288.4,1053.1,288.3,1053.6"/>
			<path class="st9" d="M287.4,1053.6c-2-12.4-27.1-42.2-27.3-42.5l0.5-0.4c1,1.2,25.4,30.2,27.5,42.8L287.4,1053.6z"/>
			<path class="st9" d="M288.1,1053.5l-0.6-0.1l3-25.5c1.6-14.4,7.8-27.9,17.6-38.6l32.6-35.2l0.5,0.4l-32.6,35.2
				c-9.8,10.6-15.9,24-17.5,38.2L288.1,1053.5z"/>
			<path class="st9" d="M287.3,1053.6c-0.2-0.6-16.9-59.1-52.9-85.8l0.4-0.5c36.2,26.8,53,85.6,53.1,86.1L287.3,1053.6z"/>
			<path class="st9" d="M286.8,935.3h-0.6l1.4,118.2h0.6L286.8,935.3z"/>
			<path class="st9" d="M287.2,1015.2c-0.6-37.5,31.7-83.5,32-84l0.5,0.4c-0.3,0.5-32.5,46.3-31.9,83.6H287.2z"/>
			<path class="st9" d="M287.2,1017c-0.8-14.4-27-86.8-27.2-87.5l0.6-0.2c0.3,0.7,26.5,73.3,27.3,87.7H287.2z"/>
			<path class="st9" d="M288.4,898.6h-0.6l1.3,33.7h0.6L288.4,898.6z"/>
			<path class="st9" d="M260.8,1019.3l-0.2,0.6l9.5,4l0.2-0.6L260.8,1019.3z"/>
			<path class="st9" d="M235.8,977.8l-0.2,0.6l16.6,6.8l0.2-0.6L235.8,977.8z"/>
			<path class="st9" d="M258,939.3l-0.5,0.4l11.1,14.2l0.5-0.4L258,939.3z"/>
			<path class="st9" d="M292.5,948.3l-5.7,20.3l0.6,0.2l5.7-20.3L292.5,948.3z"/>
			<path class="st9" d="M307.9,937.2l-2.3,17l0.6,0.1l2.3-17L307.9,937.2z"/>
			<path class="st9" d="M321.5,975.6l-0.6-0.2c1.6-6.1,3.9-15.5,4-15.9h0.6C325.5,959.8,322.7,970.8,321.5,975.6"/>
			<path class="st9" d="M321.2,1002.5l-14.1,8.4l0.3,0.5l14.1-8.4L321.2,1002.5z"/>
			<g>
				<g>
					<path class="st10" d="M288.3,1053.6l-0.6-0.2c0.1-0.5,14.9-49.1,37.2-62.7l0.3,0.5C303.1,1004.8,288.5,1053.1,288.3,1053.6"/>
					<path class="st10" d="M288.1,1053.5l-0.6-0.1l3-25.5c1.6-14.4,7.8-27.9,17.6-38.6l32.6-35.2l0.5,0.4l-32.6,35.2
						c-9.8,10.6-15.9,24-17.5,38.2L288.1,1053.5z"/>
					<path class="st10" d="M287.3,1053.6c-0.2-0.6-16.9-59.1-52.9-85.8l0.4-0.5c36.2,26.8,53,85.6,53.1,86.1L287.3,1053.6z"/>
					<path class="st10" d="M286.8,935.3h-0.6l1.4,118.2h0.6L286.8,935.3z"/>
					<path class="st10" d="M287.2,1015.2c-0.6-37.5,31.7-83.5,32-84l0.5,0.4c-0.3,0.5-32.5,46.3-31.9,83.6H287.2z"/>
					<path class="st10" d="M287.2,1017c-0.8-14.4-27-86.8-27.2-87.5l0.6-0.2c0.3,0.7,26.5,73.3,27.3,87.7H287.2z"/>
					<path class="st10" d="M288.4,898.6h-0.6l1.3,33.7h0.6L288.4,898.6z"/>
					<path class="st10" d="M260.8,1019.3l-0.2,0.6l9.5,4l0.2-0.6L260.8,1019.3z"/>
					<path class="st10" d="M235.8,977.8l-0.2,0.6l16.6,6.8l0.2-0.6L235.8,977.8z"/>
					<path class="st10" d="M258,939.3l-0.5,0.4l11.1,14.2l0.5-0.4L258,939.3z"/>
					<path class="st10" d="M292.5,948.3l-5.7,20.3l0.6,0.2l5.7-20.3L292.5,948.3z"/>
					<path class="st10" d="M307.9,937.2l-2.3,17l0.6,0.1l2.3-17L307.9,937.2z"/>
					<path class="st10" d="M321.5,975.6l-0.6-0.2c1.6-6.1,3.9-15.5,4-15.9h0.6C325.5,959.8,322.7,970.8,321.5,975.6"/>
					<path class="st10" d="M321.2,1002.5l-14.1,8.4l0.3,0.5l14.1-8.4L321.2,1002.5z"/>
				</g>
			</g>
			<path class="st11" d="M299.5,1108.2h-23c-1.6,0-3.2-0.3-4.7-0.9s-2.8-1.5-4-2.7c-1.1-1.1-2-2.5-2.7-4c-0.6-1.5-0.9-3.1-0.9-4.7
				v-41.6h47.5v41.6c0,1.6-0.3,3.2-0.9,4.7s-1.5,2.8-2.7,4c-1.1,1.1-2.5,2-4,2.7C302.7,1107.8,301.1,1108.2,299.5,1108.2"/>
			<path class="st12" d="M288.3,1108.2h11.2c1.6,0,3.2-0.3,4.7-0.9s2.8-1.5,4-2.7c1.1-1.1,2-2.5,2.7-4c0.6-1.5,0.9-3.1,0.9-4.7
				v-36.5l-47.4,0.6l-0.1,2h34.9v34.7C299.1,1096.7,301.6,1108.1,288.3,1108.2"/>
			<path class="st11" d="M312.9,1060h-50.4c-0.4,0-0.7-0.2-1-0.4c-0.3-0.3-0.4-0.6-0.4-1v-2.9c0-0.4,0.1-0.7,0.4-1s0.6-0.4,1-0.4
				h50.4c0.4,0,0.7,0.1,1,0.4s0.4,0.6,0.4,1v2.9c0,0.4-0.1,0.7-0.4,1C313.6,1059.8,313.3,1060,312.9,1060z"/>
			<path class="st12" d="M314.3,1058.6v-2.9c0-0.2-0.1-0.4-0.1-0.6c-0.1-0.2-0.2-0.3-0.3-0.5c-0.1-0.1-0.3-0.2-0.5-0.3
				c-0.2-0.1-0.4-0.1-0.6-0.1h-10v5.7h10c0.2,0,0.4,0,0.6-0.1s0.3-0.2,0.5-0.3c0.1-0.1,0.3-0.3,0.3-0.5
				C314.2,1059,314.3,1058.8,314.3,1058.6"/>
			<g class="st2">
				<g class="st2">
					<g class="st2">
						<g class="st2">
							<path class="st3" d="M1025.3,435.3h-54.4v50.9h54.4V435.3z"/>
						</g>
					</g>
				</g>
			</g>
			<path class="st1" d="M1314.7,358H892v280.3h422.7V358z"/>
			<path class="st4" d="M1321,358h-6.3v280.3h6.3V358z"/>
			<path class="st13" d="M1321,358h-6.3v280.3h6.3V358z"/>
			<path class="st4" d="M1304.1,369.1h-400v259.2h400V369.1z"/>
			<path class="st13" d="M911.9,369.1h-7.7v259.2h7.7V369.1z"/>
			<path class="st6" d="M928.9,521.6h197.2V384.9H928.9V521.6z"/>
			<path class="st0" d="M1044.7,480.3h69.4v-5.4h-69.4V480.3z"/>
			<path class="st0" d="M1044.7,491.9h69.4v-5.4h-69.4V491.9z"/>
			<path class="st0" d="M1044.7,503.7h69.4v-5.4h-69.4V503.7z"/>
			<path class="st6" d="M1069.7,424.5c1.3-0.6,2.5-1.3,3.8-1.8c1.3-0.6,2.7-0.9,4.1-0.9c1.3-0.1,2.5,0.2,3.6,0.9
				c1.1,0.7,1.9,1.7,2.5,2.8c1.1,2.3,1.7,4.7,1.6,7.2c0.1,3.8-0.1,7.7-0.2,11.5c0,3.4-0.1,6.8,1.1,10.1c0.2,0.9,0.7,1.6,1.3,2.3
				c0.6,0.6,1.4,1.1,2.2,1.3c0.5,0.1,1,0.2,1.6,0.2c6.2,0,12.4,0,18.5,0c0.3,0,0.6,0,0.8-0.1c0.3-0.1,0.5-0.2,0.7-0.5
				c0.2-0.2,0.3-0.4,0.4-0.7c0.1-0.3,0.1-0.6,0.1-0.8c0-4-0.6-8-1.7-11.9c-0.8-2.8-2.4-5.3-4.6-7.1c-1-0.7-2.1-1.3-3.3-1.7
				c-2.4-0.7-4.8-1.5-7.1-2.5c-1.3-0.6-2.5-1.5-3.4-2.7c-0.3-0.5-0.5-1.1-0.6-1.7s0-1.2,0.1-1.8c0.1-0.2,0.2-0.3,0.3-0.4
				c2.8-3,4.4-7,4.5-11.1c0.1-1.7,0-3.3-0.3-5c-0.3-1.3-0.9-2.5-1.7-3.6c-0.8-1-1.8-1.9-3-2.5c-2.1-1.2-4.4-2-6.9-2.3
				c-2.4-0.3-4.9,0-7.2,0.7c-1.1,0.3-2.1,0.8-3,1.5c-0.8,0.7-1.5,1.7-1.9,2.8c-0.2,0.8-0.3,1.6-0.3,2.5c0.1,2.2-0.6,4.4-2.1,6.1
				c-0.9,1-1.6,2-2.4,3c-0.2,0.3-0.4,0.6-0.6,1c-0.1,0.4-0.2,0.7-0.1,1.1c0,0.4,0.2,0.7,0.4,1.1c0.2,0.3,0.5,0.6,0.8,0.8
				c0.3,0.2,0.7,0.3,1.1,0.3c0.6,0.1,0.9,0.3,0.8,0.9C1069.6,423.8,1069.6,424.1,1069.7,424.5L1069.7,424.5z"/>
			<path class="st6" d="M1084.1,458.1c-1.3-2.1-2.1-4.5-2.3-7c-0.2-2.2-0.3-4.3-0.2-6.5c0-2.9,0.3-5.8,0.2-8.7
				c-0.1-2.3-0.3-4.5-0.6-6.7c-0.1-0.8-0.4-1.6-0.8-2.3c-0.3-0.6-0.7-1.1-1.3-1.4c-0.6-0.3-1.2-0.4-1.8-0.3c-1.5,0.2-3,0.7-4.3,1.5
				c-0.7,0.4-1.4,0.8-2.2,1.2c0.4,0.7,1,1.3,1.7,1.8s1.5,0.8,2.3,1c0.1,0.7-0.1,1.4-0.4,1.9s-0.9,1-1.5,1.3
				c-1.4,0.5-2.8,0.8-4.3,0.8c-1.6,0-3.2,0.4-4.7,1.1s-2.7,1.7-3.8,2.9c-1.4,1.7-2.4,3.7-3,5.9c-1,3.4-1.6,6.8-1.8,10.3
				c0,0.4-0.1,0.7-0.1,1.1c-0.1,0.3,0,0.6,0,0.8c0.1,0.3,0.2,0.5,0.4,0.7c0.2,0.2,0.4,0.4,0.7,0.5c0.2,0.1,0.5,0.1,0.8,0.1
				c1.8,0,3.7,0,5.5,0L1084.1,458.1L1084.1,458.1z"/>
			<path class="st6" d="M1158.2,595.6h129.6V436.7h-129.6V595.6z"/>
			<path class="st7" d="M1184.5,516.2h79.2v-69h-79.2V516.2z"/>
			<path class="st0" d="M1170.6,533.8h104.8v-5.9h-104.8V533.8z"/>
			<path class="st0" d="M1170.6,545.9h104.8V540h-104.8V545.9z"/>
			<path class="st0" d="M1170.6,558h104.8v-5.8h-104.8V558z"/>
			<path class="st0" d="M1170.6,570.1h104.8v-5.9h-104.8V570.1z"/>
			<path class="st0" d="M1170.6,582.2h104.8v-5.9h-104.8V582.2z"/>
			<path class="st5" d="M1042.3,537.6h-78.6v78.6h78.6V537.6z"/>
			<path class="st0" d="M1008.7,552.4h-11.4v48.9h11.4V552.4z"/>
			<path class="st0" d="M1027.4,582.6v-11.4h-48.9v11.4H1027.4z"/>
			<path class="st14" d="M661,1075.1v-0.3c-0.1-0.9,0.2-1.8,0.7-2.5c0.6-0.7,1.4-1.2,2.3-1.3l17.8-2.6l-0.2-3.4h-29.5l2.7,28.9
				l23.8-2.6l-7.9-3.1c-2.6-1.1-4.9-2.9-6.6-5.2C662.3,1080.7,661.3,1078,661,1075.1L661,1075.1z"/>
			<path class="st14" d="M562.8,1086.2l0.6-12.8c0.1-0.8,0.4-1.6,0.9-2.2s1.3-1,2.1-1.1l17.7-2.7l0.4-3.5l-27.7,0.1l-0.1,29.4
				L562.8,1086.2z"/>
			<path class="st15" d="M729.3,1104.2v-1.2c0-1.9-0.7-3.6-2.1-4.9c-1.3-1.3-3.1-2.1-4.9-2.1h-9.8c-2.1,0-4.1-0.8-5.5-2.2l-25-23.8
				l-7.8,10.2c-0.6,0.8-1.4,1.4-2.3,1.9c-0.9,0.5-1.9,0.7-2.9,0.7s-2-0.2-2.9-0.6s-1.7-1-2.4-1.8c-0.6-0.8-1.4-1.4-2.3-1.8
				c-0.9-0.4-1.8-0.7-2.8-0.7h-5.2v25.7L729.3,1104.2z"/>
			<path d="M729.3,1104.2v3.8h-76v-4.2L729.3,1104.2z"/>
			<path d="M677,1076.4l16.9,13.7c0.9,0.7,2,1.1,3.2,1s2.3-0.6,3.1-1.4l1.3-1.3L682,1070c-0.5-0.1-1-0.1-1.5,0.1s-0.9,0.5-1.2,0.9
				l-2,2.9c-0.3,0.3-0.4,0.7-0.5,1.1s0,0.8,0.2,1.2V1076.4z"/>
			<path class="st15" d="M578,1074.4h2c0.9,0,1.8,0.3,2.5,0.9s1.1,1.4,1.2,2.4l0.4,7.7c0.1,2.4,0.7,4.7,1.8,6.8l0.7,1.4
				c1.3,2.7,2,5.6,2,8.6v1.4h-38.9c0-3.8,1.2-7.5,3.3-10.6c1.6-2.3,2.6-5,2.9-7.9l0.9-7.7c0.2-0.8,0.6-1.6,1.3-2.2
				c0.7-0.5,1.5-0.8,2.4-0.8h1.4"/>
			<path d="M550,1103.4h38.8v3.7H550V1103.4z"/>
			<path d="M572.9,1070.8h-5.7c-0.7,0-1.4,0.1-2,0.4s-1.2,0.7-1.6,1.2c-0.5,0.5-0.8,1.1-1,1.8c-0.2,0.7-0.3,1.3-0.2,2l1.3,10.4
				c0.2,1.6,1,3,2.1,4c1.2,1,2.7,1.6,4.2,1.6c1.6,0,3.1-0.6,4.3-1.6c1.2-1.1,1.9-2.5,2.1-4.1l1.2-10.4c0.1-0.7,0-1.4-0.1-2
				c-0.2-0.7-0.5-1.2-1-1.8c-0.4-0.5-1-0.9-1.6-1.2C574.2,1071,573.5,1070.8,572.9,1070.8z"/>
			<path class="st16" d="M580.3,1077.8h-20.6"/>
			<path class="st16" d="M579.7,1082.7h-19.3"/>
			<path class="st16" d="M579.1,1087.4h-18.3"/>
			<path class="st16" d="M696.3,1081.3l-7.5,7.1"/>
			<path class="st16" d="M692.3,1077.6l-7.8,7.3"/>
			<path class="st16" d="M688.1,1074.1l-7.7,7.2"/>
			<path class="st7" d="M672,726.8l11,337.7h-32l-29.5-276.9c-0.1-0.9-0.5-1.7-1.1-2.2c-0.6-0.6-1.5-0.9-2.3-0.9
				c-0.9,0-1.7,0.3-2.4,0.9c-0.7,0.6-1.1,1.4-1.2,2.3l-27.7,276.9h-31.9V724.9L672,726.8z"/>
			<path class="st17" d="M554.2,1057.6h14.4l-0.3,6.9h-14.2L554.2,1057.6z"/>
			<path class="st18" d="M650.8,1063l-29.3-275.3c-0.1-0.9-0.5-1.6-1.1-2.2c-0.6-0.6-1.5-0.9-2.3-0.9h4c4.1,0,8,1.6,11,4.3
				s5,6.4,5.5,10.5l31,261.5L650.8,1063z"/>
			<path class="st17" d="M581.2,727.5l-12.7,330l-13.7-0.1v-330L581.2,727.5z"/>
			<path class="st6" d="M640.3,595.2l-80.1,22.3l-7.5,62.9l-0.4,127.1h64.1l3-24.6l2.6,24.6h55.3l-2.4-139.7L640.3,595.2z"/>
			<path class="st6" d="M674.6,654.5l0.2,13.2l4.1,8.5L674.6,654.5z"/>
			<path class="st6" d="M683.2,648.2l-104.8-19.9l-0.7-20.5l1.6,42.1h8.3v28.4l-30.7,3.9c-2.5,0.3-5.1,0.1-7.6-0.5
				c-2.5-0.7-4.8-1.9-6.8-3.4c-2-1.6-3.7-3.6-4.9-5.8s-2-4.7-2.3-7.2l-7.5-76.6c-0.5-5.5,0.8-11,3.9-15.6c3.1-4.6,7.6-8,12.9-9.6
				c38.8-11.8,41.4-11.6,41.4-11.6l42-0.2l41,7.3c4,0.6,7.8,2.4,10.9,5c3.1,2.7,5.3,6.2,6.5,10.1l24.6,84
				c4.3,14.2-8.7,27.9-23.1,24.3l-4.2-1.3L683.2,648.2z"/>
			<path class="st15" d="M596.3,612.3c-1.5-6.8-2.7-13.6-3.6-20.5l1.6-0.2c0.8,6.8,2,13.6,3.5,20.4L596.3,612.3z"/>
			<path class="st7" d="M590.9,612.4c0.1,1.2,0.5,2.3,1.3,3.2c0.7,0.9,1.7,1.6,2.9,2c1.1,0.4,2.3,0.4,3.5,0.1c1.1-0.3,2.2-1,2.9-1.9
				c0.8-0.9,1.3-2,1.4-3.2c0.1-1.2-0.1-2.4-0.6-3.4c-0.5-1.1-1.4-1.9-2.4-2.5s-2.2-0.8-3.4-0.8c-0.8,0.1-1.6,0.3-2.3,0.6
				c-0.7,0.4-1.3,0.9-1.9,1.5c-0.5,0.6-0.9,1.3-1.2,2.1C590.9,610.8,590.8,611.6,590.9,612.4z"/>
			<path class="st7" d="M593.3,612.2c0.1,0.7,0.3,1.4,0.8,2c0.4,0.6,1,1,1.7,1.2s1.4,0.2,2.1,0c0.7-0.2,1.3-0.6,1.8-1.1
				s0.8-1.2,0.9-1.9c0.1-0.7,0-1.4-0.4-2.1c-0.3-0.6-0.8-1.2-1.5-1.5c-0.6-0.4-1.3-0.5-2.1-0.5c-1,0.1-1.8,0.5-2.5,1.3
				C593.5,610.3,593.2,611.2,593.3,612.2L593.3,612.2z"/>
			<path class="st19" d="M614.9,612.2c0,0,8.4,77.8,4.4,172.4"/>
			<path class="st0" d="M586.4,551.7l-5.3,1.2l33.8,57.5l16.8-58.1l-10.6-2.3"/>
			<path class="st20" d="M574.1,625.3c1.2,0.2,5.4,0.2,6.9,1.4l2.3,1.7l4.8,0.9l-1.3,20.8l-15.6,1.8l-1.7-26.9L574.1,625.3z"/>
			<path class="st3" d="M655.3,642.8l-0.5-44c0-0.2,0.1-0.4,0.2-0.5c0.1-0.1,0.3-0.2,0.5-0.3c0.2,0,0.4,0,0.5,0.1
				c0.2,0.1,0.3,0.3,0.3,0.5l13.4,47.1L655.3,642.8z"/>
			<path class="st20" d="M627.1,502.7c0,0-36.7-23-38,5.1l-0.5,7.3l-2.5,36.9c0,0.7,0.2,1.3,0.5,1.9c0.3,0.6,0.8,1.1,1.4,1.4
				l20.2,13.7c0.3,0.2,0.7,0.3,1,0.2c0.4,0,0.7-0.2,1-0.4l15.7-13.5c0.5-0.4,1-1,1.2-1.6c0.3-0.6,0.3-1.3,0.3-2l-2.4-21.9
				c0.5-2.2,0.7-4.4,0.7-6.6C626,512.4,627.1,502.7,627.1,502.7z"/>
			<path class="st21" d="M642.7,491.8c0-2.5-0.7-4.9-2.1-6.9c-1.4-2.1-3.3-3.6-5.6-4.6c-2.3-0.9-4.8-1.2-7.2-0.7s-4.6,1.7-6.4,3.4
				c-1.7,1.7-2.9,4-3.4,6.4s-0.2,4.9,0.7,7.2c0.9,2.3,2.5,4.2,4.6,5.6c2,1.4,4.5,2.1,6.9,2.1c1.6,0,3.3-0.3,4.8-0.9s2.9-1.5,4-2.7
				c1.2-1.2,2.1-2.5,2.7-4S642.7,493.4,642.7,491.8L642.7,491.8z"/>
			<path class="st20" d="M631.2,482.7c0,0,13,54.6-15,58.3c-24.3,3.2-27-34.5-27-34.5l1-24.5L631.2,482.7z"/>
			<path class="st21" d="M629.5,486l-24.8,1.8c-0.7,0-1.5,0.2-2.1,0.6c-0.7,0.3-1.3,0.8-1.7,1.4c-0.5,0.6-0.8,1.2-1.1,1.9
				c-0.2,0.7-0.3,1.5-0.2,2.2s0,1.5-0.2,2.2s-0.6,1.4-1.1,1.9c-0.5,0.6-1.1,1-1.7,1.4c-0.7,0.3-1.4,0.5-2.1,0.6
				c-0.2,0-0.4,0.1-0.6,0.1c-0.2,0.1-0.4,0.2-0.5,0.4c-0.1,0.2-0.2,0.3-0.3,0.5s-0.1,0.4-0.1,0.6l0.3,5.4c0,0.3-0.1,0.6-0.3,0.8
				c-0.2,0.2-0.5,0.4-0.7,0.4c-0.5,0-1.2-0.4-1.2-0.9l-1-5.1l-1-1.7l-6,3.7c0,0-9.5-14.5-4.9-27.7c2.6-7.5,10-10.2,13.7-10.8
				c0.6-0.1,1.1-0.2,1.6-0.6c0.5-0.3,0.9-0.7,1.1-1.2c1.5-2.4,4.9-6.7,12.8-6.4c2.2,0,4.3,0.6,6.3,1.6c1.9,1.1,3.5,2.6,4.7,4.4
				c0.5,0.8,1.2,1.4,2.1,1.6c0.9,0.3,1.8,0.2,2.6-0.2c1.7-0.7,3.5-1.1,5.3-0.9c1.8,0.1,3.6,0.7,5.1,1.7
				C641.3,470.8,638.1,484.7,629.5,486z"/>
			<path class="st14" d="M588.4,516.8c0,0,2.4,0.1,3.7-0.9l-4,6.1L588.4,516.8z"/>
			<path class="st20" d="M589.7,502.1c-0.2-0.7-0.6-1.3-1.1-1.9c-0.5-0.5-1.1-0.9-1.8-1.2c-0.7-0.3-1.4-0.4-2.1-0.3
				c-0.7,0.1-1.4,0.3-2.1,0.6c-6.1,2.7-4.9,16.6,5.5,17.4c5.4,0.4,4.4-2.7,3.4-6.9L589.7,502.1z"/>
			<path class="st14" d="M582.2,503.2c0.9-0.6,1.9-0.9,2.9-0.7c0.5,0.1,1,0.3,1.4,0.7c0.4,0.3,0.8,0.7,1,1.1c0.6,1.2,1,2.5,1,3.9
				l0.2,1.2c0,0.4-0.2,0.7-0.5,0.7s-0.7-0.2-0.7-0.5l-0.2-1.3c0-1.1-0.4-2.2-0.9-3.1c-0.5-0.7-0.9-1.3-1.5-1.3
				c-0.4-0.1-0.7-0.1-1.1,0c-0.3,0.1-0.7,0.3-0.9,0.5c-0.4,0.1-0.7,0.1-0.9-0.2C581.9,503.6,582,503.3,582.2,503.2z"/>
			<path class="st14" d="M626.8,545.4l-0.9-8.8c-2.4,2.4-9.1,5.9-16.6,4.2c-3.8-1.1-7.2-3.2-9.8-6.1c0,0-0.1-0.1-0.2-0.1
				c-0.1,0-0.1,0-0.2,0c-0.1,0-0.1,0-0.2,0c-0.1,0-0.1,0.1-0.2,0.1c-0.1,0.1-0.1,0.2-0.1,0.4c0,0.1,0.1,0.3,0.1,0.4
				c3.4,3.8,8,6.2,13,6.9C616.1,545.3,621.5,546.4,626.8,545.4L626.8,545.4z"/>
			<g class="st22">
				<path class="st14" d="M618.2,530c-1.2,0-2.3,0.1-3.5,0.3c-0.2,0-0.4-0.1-0.5-0.2c-0.1-0.1-0.2-0.3-0.2-0.5s0.1-0.4,0.2-0.5
					c0.1-0.1,0.3-0.2,0.5-0.2c1.1,0,2.2-0.1,3.2-0.3c0.1,0,0.2,0,0.3,0s0.2,0.1,0.2,0.2c0.1,0.1,0.1,0.2,0.2,0.2c0,0.1,0,0.2,0,0.3
					C618.9,529.3,618.5,529.8,618.2,530z"/>
			</g>
			<g class="st22">
				<path class="st14" d="M619.3,526.6c-6.2,0.9-8.9-2.3-9.8-4c0-0.1-0.1-0.2-0.1-0.2c0-0.1,0-0.2,0-0.3c0-0.2,0.1-0.3,0.3-0.4
					c0.2-0.1,0.3-0.1,0.5-0.1s0.3,0.1,0.4,0.3c0.9,1.7,4,5.1,11.3,2.7c0.1,0,0.2-0.1,0.3-0.1s0.2,0,0.3,0s0.2,0.1,0.2,0.1
					c0.1,0.1,0.1,0.1,0.2,0.2c0,0.1,0.1,0.2,0.1,0.3s0,0.2,0,0.3s-0.1,0.2-0.1,0.2c-0.1,0.1-0.1,0.1-0.2,0.2
					C621.5,526.2,620.4,526.5,619.3,526.6L619.3,526.6z"/>
			</g>
			<path d="M614.8,508.2c0-0.4-0.1-0.9-0.4-1.2c-0.2-0.4-0.6-0.6-1-0.8c-0.4-0.2-0.8-0.2-1.3-0.1c-0.4,0.1-0.8,0.3-1.1,0.6
				c-0.3,0.3-0.5,0.7-0.6,1.1s0,0.9,0.1,1.3c0.2,0.4,0.5,0.7,0.8,1c0.4,0.2,0.8,0.4,1.2,0.4c0.3,0,0.6,0,0.8-0.2
				c0.3-0.1,0.5-0.3,0.7-0.5s0.4-0.5,0.5-0.7C614.8,508.8,614.8,508.5,614.8,508.2L614.8,508.2z"/>
			<path class="st6" d="M614.1,507.5c0-0.1,0-0.2,0-0.2c0-0.1,0-0.2-0.1-0.2c0-0.1-0.1-0.1-0.2-0.2c-0.1,0-0.2-0.1-0.2-0.1
				c-0.1,0-0.2,0-0.2,0.1c-0.1,0-0.1,0.1-0.2,0.2c0,0.1-0.1,0.1-0.1,0.2s0,0.2,0,0.2c0,0.1,0,0.2,0,0.2c0,0.1,0,0.2,0.1,0.2
				c0,0.1,0.1,0.1,0.2,0.2c0.1,0,0.2,0.1,0.2,0.1c0.1,0,0.2,0,0.2-0.1c0.1,0,0.1-0.1,0.2-0.2c0-0.1,0.1-0.1,0.1-0.2
				S614.1,507.6,614.1,507.5L614.1,507.5z"/>
			<path d="M632.1,508.2c0-0.4-0.1-0.9-0.4-1.2c-0.2-0.4-0.6-0.6-1-0.8c-0.4-0.2-0.8-0.2-1.3-0.1c-0.4,0.1-0.8,0.3-1.1,0.6
				c-0.3,0.3-0.5,0.7-0.6,1.1s0,0.9,0.1,1.3c0.2,0.4,0.4,0.7,0.8,1c0.4,0.2,0.8,0.4,1.2,0.4c0.3,0,0.6,0,0.8-0.2
				c0.3-0.1,0.5-0.3,0.7-0.5s0.4-0.5,0.5-0.7C632.1,508.8,632.1,508.5,632.1,508.2L632.1,508.2z"/>
			<path class="st6" d="M631.4,507.5c0-0.1-0.1-0.2-0.2-0.3c-0.1-0.1-0.2-0.1-0.3-0.1s-0.2,0-0.3,0.1s-0.2,0.2-0.2,0.3
				c0,0.1,0.1,0.2,0.2,0.3c0.1,0.1,0.2,0.1,0.3,0.1s0.2,0,0.3-0.1C631.3,507.7,631.3,507.6,631.4,507.5L631.4,507.5z"/>
			<g class="st22">
				<path class="st14" d="M621.1,521.1l-2.9,0.2c-0.4,0-0.7-0.2-0.7-0.5s0.2-0.7,0.5-0.7l2.9-0.2c0.2,0,0.4-0.1,0.5-0.1
					c0.2-0.1,0.3-0.2,0.4-0.3c0.1-0.1,0.2-0.3,0.3-0.5s0.1-0.4,0.1-0.5c0-0.2-0.1-0.4-0.1-0.5c-0.1-0.2-0.2-0.3-0.3-0.4
					c-0.1-0.1-0.3-0.2-0.5-0.3s-0.3-0.1-0.5-0.1c-0.4,0-0.7-0.2-0.7-0.5s0.2-0.7,0.5-0.7c0.7,0,1.4,0.2,1.9,0.6
					c0.5,0.4,0.9,1.1,1,1.8c0.1,0.3,0,0.7-0.1,1s-0.2,0.6-0.5,0.9c-0.2,0.3-0.5,0.5-0.8,0.6C621.8,521,621.5,521.1,621.1,521.1
					L621.1,521.1z"/>
			</g>
			<path d="M635.2,502.5h-30.8c-0.9,0-1.7,0.3-2.3,1c-0.6,0.6-0.9,1.4-1,2.3v2.5c0,2.3,0.9,4.6,2.6,6.2c1.6,1.6,3.9,2.6,6.2,2.6
				s4.6-0.9,6.2-2.6c1.6-1.6,2.6-3.9,2.6-6.2v-2.5c0-0.4,0-0.7-0.2-1.1c-0.1-0.3-0.3-0.7-0.6-0.9h3.5c-0.5,0.6-0.7,1.3-0.7,2v2.5
				c0,2.3,0.9,4.6,2.6,6.2c1.6,1.6,3.9,2.6,6.2,2.6s4.6-0.9,6.2-2.6c1.6-1.6,2.6-3.9,2.6-6.2v-2.5c0-0.4,0-0.9-0.1-1.3
				s-0.4-0.8-0.7-1.1c-0.3-0.3-0.7-0.5-1.1-0.7C636,502.5,635.6,502.4,635.2,502.5L635.2,502.5z M617.6,505.6v2.5
				c-0.1,2-0.9,3.8-2.3,5.2c-1.4,1.4-3.3,2.1-5.2,2.1c-2,0-3.8-0.8-5.2-2.1c-1.4-1.4-2.2-3.2-2.3-5.2v-2.5c0-0.5,0.2-1,0.6-1.4
				c0.4-0.4,0.9-0.6,1.4-0.6h11c0.5,0.1,1,0.3,1.4,0.7C617.2,504.6,617.5,505.1,617.6,505.6L617.6,505.6z M637.3,508.2
				c0,1-0.1,2-0.5,3c-0.4,0.9-0.9,1.8-1.6,2.5c-0.7,0.7-1.5,1.3-2.5,1.7c-0.9,0.4-1.9,0.6-2.9,0.6s-2-0.2-2.9-0.6
				c-0.9-0.4-1.8-1-2.5-1.7s-1.3-1.6-1.6-2.5c-0.4-0.9-0.5-2-0.5-3v-2.5c0-0.5,0.2-1,0.6-1.4s0.9-0.6,1.4-0.6h11.1
				c0.5,0,1,0.2,1.4,0.6s0.6,0.9,0.6,1.4L637.3,508.2z"/>
			<path class="st20" d="M643.5,636.9l16.6-13.6c1.7-1.4,3.9-2.2,6.2-2.2h14.9c0.3,0,0.5,0,0.8,0.1s0.5,0.2,0.7,0.4s0.4,0.4,0.5,0.6
				c0.1,0.2,0.2,0.5,0.2,0.8v0.2c0,0.5-0.2,1-0.5,1.4s-0.8,0.6-1.3,0.7l-14.9,0.8l17.9,2.4c0.3,0.1,0.6,0.2,0.9,0.4
				c0.3,0.2,0.5,0.5,0.6,0.8s0.2,0.6,0.2,1c0,0.3-0.1,0.7-0.3,1s-0.4,0.6-0.7,0.7c-0.3,0.2-0.7,0.3-1,0.3h-0.1l-4.3-0.3
				c0.2,0,0.5,0.1,0.7,0.2c0.2,0.1,0.4,0.3,0.6,0.4c0.2,0.2,0.3,0.4,0.4,0.6c0.1,0.2,0.1,0.5,0.1,0.7c-0.1,0.5-0.3,0.9-0.7,1.3
				c-0.4,0.3-0.8,0.5-1.3,0.5l-11.6,0.3l7.1,2.2c0.3,0.1,0.6,0.4,0.8,0.7s0.3,0.7,0.2,1.1c-0.1,0.4-0.2,0.7-0.5,0.9s-0.6,0.4-1,0.4
				l-8.9-0.8c0,0-2.2,12.1-17.1,11.9l-3.7,1.9l-5.5-16.8L643.5,636.9z"/>
			<path class="st6" d="M569.8,630.4l1.4,21.6l70.6-14.9l6.7,19.4l-88,38.4c-2.5,1.1-5.1,1.6-7.8,1.4c-2.7-0.2-5.3-0.9-7.6-2.3
				c-2.3-1.4-4.3-3.2-5.7-5.5s-2.3-4.8-2.6-7.5l-3.8-39L569.8,630.4z"/>
			<path class="st3" d="M563.9,653.9h0.2l15.3-3.8l-9.8-47.7c0-0.1-0.1-0.3-0.2-0.4c-0.1-0.1-0.3-0.1-0.4-0.1
				c-0.1,0-0.3,0.1-0.4,0.2c-0.1,0.1-0.2,0.2-0.2,0.4l2.6,43.9l-7.4,6C562.7,653,563.2,653.9,563.9,653.9z"/>
			<path class="st3" d="M680.3,646.1v1.7L588,629.2l0.2-1.2L680.3,646.1z"/>
			<path class="st3" d="M678.8,679.2l0.1,1.2l-49-15.1l1.8-1.2L678.8,679.2z"/>
			<path class="st14" d="M667.4,630.3l12.6,1.4v1l-12.8-1.4L667.4,630.3z"/>
			<path class="st6" d="M588.1,629.2l95,19.2l2.5,33.5l-100.8-32.7l2,0.9L588.1,629.2z"/>
			<path class="st3" d="M575.4,554.4l-0.5,20.4l8-0.9l-5.3,7.1l38.2,31.1L578,553.7L575.4,554.4z"/>
			<path class="st3" d="M579.2,650.1l38.1,20.2l14.4-6.2l-44.9-14l0.1-1.6L579.2,650.1z"/>
			<path class="st3" d="M527.9,588.7l5.2,53.3l3.8,38.9c0.2,2.5,1,4.8,2.3,7c1.3,2.1,3,4,5,5.4s4.3,2.3,6.8,2.8s4.9,0.3,7.3-0.3
				c-3.3-0.9-6.3-2.8-8.6-5.4c-2.2-2.6-3.6-5.9-4-9.3l-6-47.4l-5.2-53.3c-0.4-4.3,0.4-8.6,2.2-12.6c-3.1,2.5-5.5,5.7-7.1,9.4
				C528,580.7,527.5,584.7,527.9,588.7L527.9,588.7z"/>
			<path class="st3" d="M552.2,807.3h21.9l0.3-102.1c0.1-2.2,0.8-4.4,1.9-6.3c1.2-1.9,2.8-3.5,4.7-4.7l50.7-30.1L572,689.8
				l-13.8,5.9c-1.9,0.4-3.8,0.6-5.7,0.6L552.2,807.3z"/>
			<path class="st1" d="M636.3,595.9c-0.4,22,1.6,26.8,3.9,28.8c1.7,1.3,3.7,2.3,5.8,2.7l0.3-1.5l-0.1,0.8l0.1-0.8
				c-1.9-0.4-3.6-1.2-5.1-2.4c-1.7-1.4-3.8-5.8-3.4-27.6H636.3z"/>
			<path class="st0" d="M644,625.5l-0.3,1c-0.2,0.6,0.2,1.2,0.8,1.4l3,0.8c0.6,0.2,1.2-0.2,1.4-0.8l0.3-1c0.2-0.6-0.2-1.2-0.8-1.4
				l-3-0.8C644.7,624.5,644.1,624.9,644,625.5z"/>
			<path class="st1" d="M649.9,593.2c7.9,14.6,10.9,22.9,9.6,26.1c-0.8,1.7-2,3.3-3.4,4.5l1,1.2c1.7-1.4,3-3.1,3.9-5.1
				c1.6-3.8-1.2-11.8-9.7-27.4L649.9,593.2z"/>
			<path class="st0" d="M654,625.9l0.7,0.8c0.4,0.5,1.1,0.5,1.6,0.1l2.3-2.1c0.5-0.4,0.5-1.1,0.1-1.6l-0.7-0.8
				c-0.4-0.5-1.1-0.5-1.6-0.1l-2.3,2.1C653.6,624.7,653.6,625.4,654,625.9z"/>
			<path class="st7" d="M651.6,591.7c-1.5-3.3-3.2-6.5-5.1-9.5c-1-1.3-2.4-2.3-3.9-2.9c-0.3,0-0.8-2.6-1.2-4.8
				c-0.3-1.9-0.7-4.2-1.3-4.7c-0.3-0.2-0.7-0.3-1.1-0.2c-0.4,0.1-0.7,0.3-1,0.6c-0.4,0.7,0.1,2.9,0.5,4.8c0.5,2.2,0.9,4.8,0.6,4.9
				c-1.1,1.2-1.9,2.6-2.4,4.2c-0.6,3.6-1,7.3-1.1,11c0,2.3,0.9,2.4,1.5,2.5c1,0.1,1.4-0.7,1.5-3.3c0.2-4.1,0-11,2.7-11.7
				c2.8-0.4,5.5,6.3,7.3,9.9c1.1,2.3,1.7,2.4,2.6,2C651.9,594.1,652.5,593.7,651.6,591.7z"/>
			<path class="st15" d="M637.4,562.1l-1.4,0.4l2.2,7.1l1.4-0.4L637.4,562.1z"/>
			<path class="st6" d="M577,554l-0.3,19.1h8l-5.3,7.1l35.6,30.2l-33.8-57.8L577,554z"/>
			<path class="st3" d="M637.1,552.5l5,17.8l-7.1,1l6.2,5.1L615,612.1l19.8-59.7L637.1,552.5z"/>
			<path class="st6" d="M635.6,552.5l4.5,16.7l-6.9,1.8l6.2,5.1l-24.1,34.4l16.5-58.2L635.6,552.5z"/>
			<path class="st3" d="M669.1,746.1l-17.3,5.6l-17.3-5.6v-38h34.7v38H669.1z"/>
			<path class="st6" d="M667.3,744.6l-15.5,5.3l-15.6-5.3v-36.4h31.1V744.6z"/>
			<path class="st20" d="M888.2,1085.4l-49.3,11.8l16.8-18.4c2.8-3.1,5.7-7.1,5-11.2l-0.9-15.3l27.1-5.7L888.2,1085.4z"/>
			<path class="st14" d="M882.1,1068.5l-0.1-0.3c0-0.4-0.2-0.8-0.3-1.2c-0.2-0.4-0.5-0.7-0.8-1s-0.7-0.5-1.1-0.6
				c-0.4-0.1-0.8-0.2-1.3-0.1l-17.9,1.4l-0.5-3.2l26.5-5.6l1.5,26.5l-22.1,2.2l6.5-4.4C877,1079.1,882.8,1073.8,882.1,1068.5z"/>
			<path class="st15" d="M889.7,1075.9l4.1,19.3c0.2,0.7,0.2,1.5,0,2.2c-0.1,0.7-0.4,1.5-0.8,2.1c-0.4,0.6-0.9,1.2-1.6,1.6
				c-0.6,0.4-1.3,0.7-2.1,0.9l-27.5,5.9h-40c-0.3,0.1-0.6,0.1-0.9,0c-0.3-0.1-0.6-0.2-0.9-0.4c-0.3-0.2-0.5-0.4-0.7-0.7
				c-0.2-0.3-0.3-0.6-0.4-0.9c-0.5-2.2-0.2-4.6,0.7-6.7s2.5-3.9,4.5-5l19.1-3.2l12.2-15.3c0.8-0.9,1.9-1.6,3.1-1.8s2.5,0,3.5,0.6
				l9.9,5.4c0.7,0.4,1.5,0.6,2.3,0.6s1.6-0.2,2.3-0.6l9.9-5.6c0.3-0.2,0.6-0.3,1-0.3c0.3,0,0.7,0.1,1,0.2s0.6,0.4,0.8,0.6
				C889.5,1075.2,889.7,1075.6,889.7,1075.9L889.7,1075.9z"/>
			<path class="st23" d="M889.4,1102l-27.8,5.9h-39.8c-0.3,0.1-0.6,0.1-0.9,0c-0.3-0.1-0.6-0.2-0.9-0.4c-0.3-0.2-0.5-0.4-0.7-0.7
				c-0.2-0.3-0.3-0.6-0.4-0.9c-0.2-0.8-0.3-1.6-0.2-2.4l40.2-0.1l34.9-7.4c0.1,1.4-0.3,2.7-1.1,3.8
				C892,1101,890.8,1101.7,889.4,1102L889.4,1102z"/>
			<path class="st6" d="M857.5,1083.4c0.1,0,0.1,0,0.2-0.1c0.1,0,0.1-0.1,0.1-0.2c0.1-0.1,0.1-0.3,0.1-0.5s-0.1-0.3-0.2-0.4
				l-4.9-3.4c-0.1-0.1-0.3-0.1-0.4,0c-0.1,0-0.2,0.1-0.3,0.2s-0.1,0.3-0.1,0.4s0.1,0.3,0.2,0.4l4.9,3.4
				C857.1,1083.4,857.3,1083.5,857.5,1083.4L857.5,1083.4z"/>
			<path class="st6" d="M854.9,1086.6c0.1,0,0.1,0,0.2-0.1c0.1,0,0.1-0.1,0.1-0.2c0.1-0.1,0.1-0.3,0.1-0.5s-0.1-0.3-0.2-0.4
				l-4.9-3.4c-0.1-0.1-0.3-0.1-0.5-0.1s-0.3,0.1-0.4,0.2c-0.1,0.1-0.1,0.3-0.1,0.5c0,0.1,0.1,0.3,0.2,0.4l4.9,3.4
				C854.5,1086.6,854.7,1086.6,854.9,1086.6z"/>
			<path class="st6" d="M852.2,1089.7c0.1,0,0.1,0,0.2-0.1c0.1,0,0.1-0.1,0.1-0.2c0.1-0.1,0.1-0.3,0.1-0.5s-0.1-0.3-0.2-0.4
				l-4.9-3.4c-0.1-0.1-0.3-0.1-0.5-0.1s-0.3,0.1-0.4,0.2c-0.1,0.1-0.1,0.3-0.1,0.5s0.1,0.3,0.2,0.4l4.9,3.4
				C851.8,1089.7,852,1089.7,852.2,1089.7z"/>
			<path class="st0" d="M850.8,758.5l-17,147.8l23,156.6h34.1l-12-156.6l26.7-99.5l-3.7-51.6L850.8,758.5z"/>
			<path class="st20" d="M951.2,1091.1l-50.7,1.3l20.2-14.5c3.4-2.4,4.6-6.2,4.8-10.4l-1-15.9l27.7,0.1L951.2,1091.1z"/>
			<path class="st14" d="M945.6,1072.6v-0.3c0.1-0.4,0-0.9-0.1-1.3s-0.3-0.8-0.6-1.1c-0.3-0.3-0.6-0.6-1-0.8
				c-0.4-0.2-0.8-0.3-1.2-0.4l-17.8-2.3l0.2-3.2h27.1l-0.8,26.9l-22.1-2.4l7.3-2.9c2.5-1,4.6-2.7,6.2-4.8
				C944.4,1077.8,945.4,1075.2,945.6,1072.6L945.6,1072.6z"/>
			<path class="st17" d="M892.7,1089.7c0,0-17.5,4.8-16.1,15l18.4-4.7L892.7,1089.7z"/>
			<path class="st15" d="M954.7,1082.1v19.8c0,0.8-0.1,1.5-0.4,2.2c-0.3,0.7-0.7,1.3-1.2,1.9c-0.5,0.5-1.2,1-1.9,1.2
				c-0.7,0.3-1.4,0.4-2.2,0.4h-67.3c-0.3,0-0.6-0.1-0.9-0.2c-0.3-0.1-0.6-0.3-0.8-0.5s-0.4-0.5-0.5-0.8s-0.2-0.6-0.2-0.9
				c0-2.3,0.7-4.5,2.1-6.4c1.3-1.9,3.2-3.3,5.4-4l15.2-5l19.3-14.9c1-0.8,2.2-1.1,3.4-1.1s2.4,0.5,3.3,1.3l8.6,7.3
				c0.6,0.5,1.4,0.9,2.2,1.1s1.6,0.2,2.4-0.1l10.8-3.4c0.3-0.1,0.7-0.2,1-0.1s0.7,0.2,1,0.4c0.3,0.2,0.5,0.5,0.6,0.8
				C954.7,1081.4,954.8,1081.8,954.7,1082.1L954.7,1082.1z"/>
			<path class="st23" d="M949,1107.7h-67.3c-0.3,0-0.6-0.1-0.9-0.2c-0.3-0.1-0.6-0.3-0.8-0.5s-0.4-0.5-0.5-0.8s-0.2-0.6-0.2-0.9
				c0-0.8,0.1-1.6,0.3-2.4h75.1c-0.2,1.4-0.8,2.6-1.9,3.5C951.7,1107.2,950.4,1107.7,949,1107.7z"/>
			<path class="st6" d="M921.6,1082.8c0.1,0,0.1,0,0.2,0c0.1,0,0.1-0.1,0.2-0.1c0.1-0.1,0.1-0.3,0.1-0.4c0-0.2,0-0.3-0.1-0.4
				l-4.1-4.4c-0.1-0.1-0.3-0.1-0.4-0.1s-0.3,0.1-0.4,0.1c-0.1,0.1-0.2,0.3-0.2,0.4c0,0.2,0.1,0.3,0.2,0.4l4.1,4.4
				C921.3,1082.8,921.5,1082.8,921.6,1082.8L921.6,1082.8z"/>
			<path class="st6" d="M918.4,1085.4c0.1,0,0.2,0,0.2-0.1c0.1,0,0.1-0.1,0.2-0.1c0.1-0.1,0.1-0.3,0.1-0.4c0-0.2-0.1-0.3-0.1-0.4
				l-4.1-4.4c-0.1-0.1-0.3-0.1-0.4-0.1c-0.2,0-0.3,0.1-0.4,0.1c-0.1,0.1-0.2,0.3-0.2,0.4c0,0.2,0.1,0.3,0.2,0.4l4.1,4.4
				C918.1,1085.3,918.2,1085.4,918.4,1085.4L918.4,1085.4z"/>
			<path class="st6" d="M915.1,1087.8c0.1,0,0.1,0,0.2,0c0.1,0,0.1-0.1,0.2-0.2c0.1-0.1,0.2-0.3,0.2-0.4c0-0.2-0.1-0.3-0.2-0.4
				l-4.1-4.4c-0.1-0.1-0.3-0.1-0.4-0.1c-0.2,0-0.3,0.1-0.4,0.1c-0.1,0.1-0.2,0.3-0.2,0.4c0,0.2,0.1,0.3,0.2,0.4l4.1,4.4
				C914.8,1087.8,914.9,1087.8,915.1,1087.8L915.1,1087.8z"/>
			<path class="st17" d="M897.1,805.2l-30.2,102l12.5,155.7h12.3L879,908.5l25.7-98l-1.1-5.1c-0.2-0.7-0.6-1.4-1.1-1.9
				c-0.6-0.5-1.3-0.7-2-0.8c-0.7,0-1.5,0.2-2.1,0.7C897.8,803.9,897.3,804.5,897.1,805.2L897.1,805.2z"/>
			<path class="st0" d="M955.2,752.3v310.6h-33l-29.6-307.3L955.2,752.3z"/>
			<path class="st17" d="M849.6,769.7l105.6-9.5l0.3-5.8l-105,7.6L849.6,769.7z"/>
			<path class="st0" d="M913.2,572.9l-36.9-0.9l-34.9,11c-3.3,0.8-6.2,2.6-8.4,5.2c-2.2,2.6-3.6,5.7-3.9,9.1l-6.2,59.5l26.2,3.2
				L847,762.2l110.5-6.5l3.9-101.3l15.7-2.8L964,592.1c-0.7-3.4-2.5-6.4-5-8.7s-5.7-3.9-9.1-4.4L913.2,572.9z"/>
			<path class="st21" d="M877.9,560.5c-1.5,1-3.3,1.4-5,1.1c-8.1-0.5-14.3-1-15.7-9.1c-2.1-12.7-2-41.2,6.6-58.3
				c7.3,2.9,8.5,4.4,8.5,4.4s10-4.1,10.2-4.2C882.4,494.3,891.1,549.9,877.9,560.5z"/>
			<path class="st21" d="M902.3,549.8l-0.7-68.6c3.4-0.9,9.4,3.2,11.2,4.8c14.4,13.6,20.4,43.9,20.5,64.6c0.1,8-4.9,9.5-12.5,11.8
				s-16.7,3.9-20.4,0.3C898.6,560.8,902.3,549.8,902.3,549.8z"/>
			<path class="st20" d="M912.2,572.8l-4-40.9l-30.1,13l-1.5,27.7l13.5,21.1c0.2,0.4,0.5,0.6,0.9,0.9c0.4,0.2,0.8,0.3,1.2,0.4
				c0.4,0,0.8,0,1.2-0.2s0.7-0.4,1-0.7L912.2,572.8z"/>
			<path class="st14" d="M877.5,554.5l0.5-6.7l11.3,2.3l-0.1,0.1c3-0.4,5.9-1.4,8.6-2.8c0.2-0.1,0.4-0.1,0.6-0.1s0.4,0.2,0.5,0.4
				s0.1,0.4,0.1,0.6c-0.1,0.2-0.2,0.4-0.4,0.5c-3,1.7-6.3,2.7-9.8,3.1c-0.4,0-0.9,0.1-1.3,0.1C883.3,555,877.5,554.5,877.5,554.5z"
				/>
			<path class="st21" d="M884.6,679.9l-2.5-1.5l-15.7,27.2l2.5,1.5L884.6,679.9z"/>
			<path class="st20" d="M887.3,550.1h1.5c11.3-0.2,20.6-10.5,20.3-22l-0.6-29.2c0-1.8-0.8-3.6-2.1-4.9s-3.1-2-4.9-2l-26.8,0.3
				c-1.2,0-2.3,0.3-3.4,0.8c-1.1,0.5-2,1.2-2.9,2c-0.8,0.9-1.4,1.9-1.9,3c-0.4,1.1-0.6,2.3-0.6,3.4l0.5,27.2
				C866.9,540.1,875.5,550.6,887.3,550.1z"/>
			<path class="st6" d="M888.6,535.5l-0.6,1.2c-0.4,0.7-1,1.3-1.7,1.8s-1.5,0.7-2.3,0.8s-1.7-0.1-2.4-0.4c-0.8-0.3-1.4-0.8-2-1.5
				l-1-1.3c-0.2-0.3-0.1-0.7,0.2-0.6l9.4-0.5C888.5,534.9,888.7,535.2,888.6,535.5z"/>
			<path class="st21" d="M889.8,524.5c-0.4,0.1-0.9,0-1.3-0.1c-0.4-0.2-0.8-0.5-1-0.9s-0.4-0.8-0.4-1.3s0.1-0.9,0.4-1.3
				s0.6-0.7,1-0.8c0.4-0.2,0.9-0.2,1.3-0.1c0.4,0.1,0.8,0.3,1.2,0.6c0.3,0.3,0.5,0.7,0.6,1.2c0.1,0.6,0,1.2-0.4,1.7
				C891,524.1,890.4,524.4,889.8,524.5z"/>
			<path class="st6" d="M888.5,522.9c-0.1,0-0.1,0-0.2,0c-0.1,0-0.1,0-0.2-0.1l-0.1-0.1c0,0-0.1-0.1-0.1-0.2c0-0.1,0-0.1,0-0.2
				c0-0.1,0-0.1,0.1-0.2l0.1-0.1c0,0,0.1-0.1,0.2-0.1c0.1,0,0.1,0,0.2,0c0.1,0,0.1,0,0.2,0.1l0.1,0.1c0,0,0.1,0.1,0.1,0.2
				c0,0.1,0,0.2-0.1,0.3C888.7,522.9,888.6,522.9,888.5,522.9z"/>
			<path class="st21" d="M872.3,525c-0.4,0.1-0.9,0-1.3-0.2c-0.4-0.2-0.8-0.5-1-0.9s-0.4-0.8-0.4-1.3s0.1-0.9,0.4-1.3
				c0.3-0.4,0.6-0.7,1-0.8c0.4-0.2,0.9-0.2,1.3-0.1c0.4,0.1,0.8,0.3,1.2,0.6c0.3,0.3,0.5,0.7,0.6,1.2c0.1,0.3,0.1,0.6,0,0.9
				c-0.1,0.3-0.2,0.6-0.4,0.8s-0.4,0.5-0.6,0.6C872.9,524.8,872.6,524.9,872.3,525L872.3,525z"/>
			<path class="st6" d="M870.9,523.3c-0.1,0-0.1,0-0.2,0c-0.1,0-0.1,0-0.2-0.1l-0.1-0.1c0,0-0.1-0.1-0.1-0.2c0-0.1,0-0.2,0-0.2
				c0-0.1,0.1-0.1,0.2-0.2c0.1,0,0.2-0.1,0.2-0.1c0.1,0,0.2,0,0.2,0.1c0.1,0,0.1,0.1,0.2,0.2c0,0.1,0,0.2,0,0.2
				c0,0.1-0.1,0.2-0.1,0.2C871,523.2,871,523.3,870.9,523.3L870.9,523.3z"/>
			<g class="st22">
				<path class="st14" d="M881.9,531.8l3-0.3c0.3,0,0.7-0.4,0.6-0.7c-0.1-0.3-0.4-0.7-0.7-0.6l-3,0.3c-0.2,0-0.4,0-0.5,0
					c-0.2,0-0.3-0.1-0.5-0.2c-0.1-0.1-0.2-0.2-0.3-0.4s-0.1-0.3-0.2-0.5c0-0.2,0-0.4,0-0.5c0-0.2,0.1-0.3,0.2-0.5
					c0.1-0.1,0.2-0.2,0.4-0.3s0.3-0.1,0.5-0.2c0.3,0,0.7-0.4,0.6-0.7c-0.1-0.3-0.4-0.7-0.7-0.6c-0.7,0.1-1.4,0.4-1.8,1
					c-0.5,0.5-0.7,1.3-0.6,2c0,0.3,0.2,0.7,0.3,0.9c0.2,0.3,0.4,0.5,0.7,0.8c0.3,0.2,0.6,0.4,0.9,0.4
					C881.2,531.8,881.5,531.8,881.9,531.8L881.9,531.8z"/>
			</g>
			<path class="st20" d="M889.2,694.5l-13.8-7.4l-10.6,0.1l31.7,24.8L889.2,694.5z"/>
			<path class="st21" d="M860.7,505.8l-1.2,0.1c6.2-31.1,38.8-33.9,53.4-19.8c8.8,8.6,13.6,23.4,13.6,23.4
				c-2.1,5.9-8.8,11-10.7,15.1c-0.8,1.8-3.6-6.1-5.1-7c-0.2-0.1-1.8,1.8-2.9,3.1c-0.1,0.2-0.3,0.3-0.6,0.4c-0.2,0.1-0.5,0.1-0.7,0.1
				s-0.5-0.2-0.6-0.3c-0.2-0.2-0.3-0.4-0.3-0.6c-0.9-3.7-1.1-7.6-0.6-11.4l0.4-3.4c-7.5-1.7-30.2-8.2-35.2-9.3
				c-1.2-0.3-2.1,1.6-2.4,2.8l-2.5,18.2l-3.3-9L860.7,505.8z"/>
			<path class="st20" d="M906.2,532c0,0,9.7,2.4,13.3-7s-8.1-13.1-11.5-3.6l-3,10.5L906.2,532z"/>
			<path class="st14" d="M917.3,519.2c-0.4-0.4-0.8-0.7-1.3-0.9s-1-0.3-1.6-0.3c-0.5,0-1.1,0.2-1.5,0.5c-0.5,0.3-0.9,0.6-1.2,1.1
				c-0.9,1.1-1.4,2.3-1.7,3.7l-0.2,1c-0.1,0.8,1.1,1.2,1.3,0.3l0.2-1.1c0.2-1.1,0.7-2.1,1.3-3c0.2-0.3,0.5-0.5,0.8-0.7
				s0.6-0.3,1-0.3c0.7,0.1,1.4,0.4,1.9,0.9c0.1,0.1,0.3,0.2,0.4,0.2s0.3-0.1,0.4-0.2c0.1-0.2,0.2-0.3,0.2-0.5
				C917.5,519.6,917.5,519.4,917.3,519.2L917.3,519.2z"/>
			<path class="st4" d="M818.3,700l25.3,15.2l-20.9-19.7L818.3,700z"/>
			<path class="st6" d="M862.2,521.9c0,1.2,0.2,2.4,0.6,3.5c0.4,1.1,1.1,2.1,1.9,3c0.8,0.9,1.8,1.5,2.9,2c1.1,0.5,2.3,0.7,3.5,0.7
				s2.4-0.2,3.5-0.6c1.1-0.4,2.1-1.1,3-1.9c0.9-0.8,1.5-1.8,2-2.9c0.5-1.1,0.7-2.3,0.7-3.5c0-1.7-0.4-3.3-1.2-4.7
				c1.5-0.5,3-0.6,4.5-0.2c-0.4,0.9-0.6,1.9-0.5,2.9c0,1.8,0.5,3.6,1.5,5.1s2.4,2.7,4,3.4s3.5,0.9,5.2,0.6c1.8-0.3,3.4-1.2,4.7-2.4
				s2.2-2.9,2.6-4.6c0.4-1.8,0.2-3.6-0.4-5.2c-0.7-1.7-1.8-3.1-3.3-4.1s-3.2-1.6-5-1.6c-1.7,0-3.3,0.5-4.7,1.3
				c-1.4,0.9-2.6,2.1-3.4,3.6c-1.9-0.6-3.8-0.5-5.6,0.3c-0.8-1.1-1.9-2-3.1-2.6c-1.2-0.6-2.5-0.9-3.9-1c-2.4,0-4.7,0.9-6.5,2.6
				C863.3,517.2,862.3,519.5,862.2,521.9L862.2,521.9z M884.4,520.2c0-1.6,0.5-3.1,1.4-4.4c0.9-1.3,2.1-2.3,3.6-2.9
				c1.5-0.6,3-0.7,4.6-0.4c1.5,0.3,2.9,1.1,4,2.2c1.1,1.1,1.8,2.5,2.1,4.1c0.3,1.5,0.1,3.1-0.5,4.6c-0.6,1.4-1.7,2.7-3,3.5
				s-2.8,1.3-4.4,1.3c-2.1,0-4.1-0.9-5.5-2.4C885.1,524.3,884.3,522.3,884.4,520.2z M863.5,521.8c0-1.6,0.5-3.1,1.4-4.4
				c0.9-1.3,2.1-2.3,3.6-2.9c1.5-0.6,3-0.7,4.6-0.4s2.9,1.1,4,2.2c1.1,1.1,1.8,2.5,2.1,4.1c0.3,1.5,0.1,3.1-0.5,4.6
				c-0.6,1.4-1.7,2.7-3,3.5s-2.8,1.3-4.4,1.3c-1,0-2.1-0.2-3-0.6c-1-0.4-1.8-1-2.5-1.7s-1.3-1.6-1.7-2.6
				C863.7,523.9,863.5,522.8,863.5,521.8L863.5,521.8z"/>
			<path class="st9" d="M909.5,530.9c-0.4,0-0.8,0-1.2-0.2s-0.6-0.5-0.8-0.8c-0.2-0.4-0.3-0.8-0.2-1.1c0-0.4,0.2-0.8,0.5-1.1
				s0.6-0.5,1-0.6s0.8-0.1,1.2,0s0.7,0.4,1,0.7c0.2,0.3,0.4,0.7,0.4,1.1c0,0.5-0.1,1-0.5,1.4C910.5,530.6,910,530.9,909.5,530.9z"/>
			<path class="st14" d="M908.5,530.5c0.6,0.1,1.1,0,1.6-0.4c0.5-0.3,0.8-0.8,0.9-1.4c0.1-0.4,0-0.8-0.1-1.2
				c0.2,0.2,0.4,0.5,0.5,0.8s0.1,0.6,0.1,0.9c0,0.3-0.1,0.5-0.2,0.7c-0.1,0.2-0.3,0.4-0.5,0.6c-0.2,0.2-0.5,0.3-0.7,0.3
				c-0.3,0.1-0.5,0.1-0.8,0c-0.4-0.1-0.8-0.3-1-0.6C908.1,530.5,908.2,530.5,908.5,530.5z"/>
			<path class="st14" d="M908.2,532.2l-3.4-0.4l3.4,8.1V532.2z"/>
			<path class="st21" d="M867.8,499.4c18-5.4,17.1,16.2,35.8,11.3c17.5-4.6-0.3-21.2-0.3-21.2l-15.9-0.9l-20.9,4.2L867.8,499.4z"/>
			<path class="st21" d="M908.2,532.2c0,0-1.5,18.4-9.9,31.5c0,0,13.1,1.8,22.7-1.4C929.9,559.5,908.2,532.2,908.2,532.2z"/>
			<path class="st17" d="M961.3,681L938,617.8l-3,0.9c-0.6,0.2-1.1,0.5-1.4,1.1c-0.3,0.5-0.4,1.1-0.3,1.7l10.8,65.2l-0.6,69.8
				l14.1-1L961.3,681z"/>
			<path class="st4" d="M973.9,641.8l8.5,42.4c0.6,2.8,0,5.8-1.6,8.2s-4.1,4.1-6.9,4.7l-80,13l-5.1-15.2l62.6-20.3l-5.5-25.8
				L973.9,641.8z"/>
			<path class="st4" d="M850.7,702.4l-1.6-42.5l-21.4-2.6l-0.2,43.6"/>
			<path class="st14" d="M840.4,658.7v39.4l10.2,0.2l-1.9-38.9L840.4,658.7z"/>
			<path class="st0" d="M934.8,618.5L944,659l34.1-7.4l-9.6-39.3L934.8,618.5z"/>
			<path class="st9" d="M808,676.6l-2.9-4.2h36.2l3,4.2H808z"/>
			<path class="st15" d="M911.4,722.1h-59l-57.1-47h59.1L911.4,722.1z"/>
			<path class="st13" d="M911.4,722.1h-59l-57.1-47h59.1L911.4,722.1z"/>
			<path class="st15" d="M911.4,722.1h-1.8v1.4h1.8V722.1z"/>
			<path class="st13" d="M911.4,722.1h-1.8v1.4h1.8V722.1z"/>
			<path class="st15" d="M794.4,676.5v-1.4h2.5l0.3,1.8L794.4,676.5z"/>
			<path class="st13" d="M794.4,676.5v-1.4h2.5l0.3,1.8L794.4,676.5z"/>
			<path class="st15" d="M911.4,723.5h-57.3l-59.9-47h60L911.4,723.5z"/>
			<path class="st17" d="M848.7,659.4V625c0-0.2,0-0.4-0.1-0.6c-0.1-0.2-0.2-0.3-0.3-0.5c-0.1-0.1-0.3-0.2-0.5-0.3s-0.4-0.1-0.6-0.1
				l0,0c-0.4,0-0.7,0.1-1,0.4c-0.3,0.2-0.4,0.6-0.5,0.9l-4.4,34.2L848.7,659.4z"/>
			<path class="st20" d="M799.3,681.8c0,0,1.1,14,17.2,18.4l6.2-4.6l-13.8-14L799.3,681.8z"/>
			<path class="st14" d="M799.3,681.8c0,0,1.1,14,17.2,18.4l6.2-4.6l-13.8-14L799.3,681.8z"/>
			<path class="st20" d="M809.8,681.4l-9.7,0.3c-0.6,0-1.1,0.2-1.5,0.6l0,0c-0.3,0.2-0.5,0.5-0.6,0.9c-0.1,0.3-0.2,0.7-0.2,1.1
				c0,0.4,0.1,0.7,0.3,1s0.4,0.6,0.7,0.8l0,0c0.6,0.4,1.2,0.8,1.9,0.9c0.7,0.2,1.4,0.2,2.1,0.1l10.5-2c0.2-0.1,0.5-0.2,0.6-0.4
				s0.3-0.4,0.4-0.6l0,0c0-0.2,0-0.5-0.1-0.7s-0.2-0.4-0.4-0.6l0,0C812.6,681.9,811.3,681.4,809.8,681.4L809.8,681.4z"/>
			<path class="st20" d="M813.7,685.2l-10.5,2.8c-0.5,0.1-1,0.4-1.4,0.8l0,0c-0.2,0.3-0.4,0.6-0.5,0.9c-0.1,0.3-0.1,0.7-0.1,1.1
				c0.1,0.4,0.2,0.7,0.4,1s0.5,0.5,0.8,0.7l0,0c0.6,0.4,1.3,0.6,2,0.7s1.4,0,2.1-0.2l11.1-4.7c0.2-0.1,0.5-0.2,0.6-0.4
				c0.2-0.2,0.2-0.5,0.3-0.7l0,0c0-0.2,0-0.5-0.2-0.7c-0.1-0.2-0.3-0.4-0.5-0.5l0,0C816.5,685.2,815.1,684.9,813.7,685.2
				L813.7,685.2z"/>
			<path class="st20" d="M818,688.5l-10.2,4c-0.5,0.2-1,0.5-1.3,0.9l0,0c-0.2,0.3-0.3,0.6-0.4,1c-0.1,0.4,0,0.7,0,1.1
				c0.1,0.3,0.3,0.7,0.5,0.9c0.2,0.3,0.5,0.5,0.9,0.6l0,0c0.7,0.3,1.4,0.4,2.1,0.4s1.4-0.2,2.1-0.4l10.5-5.9
				c0.2-0.1,0.4-0.3,0.6-0.5c0.1-0.2,0.2-0.5,0.2-0.7s-0.1-0.5-0.2-0.7c-0.1-0.2-0.3-0.4-0.6-0.5l0,0
				C820.8,688.2,819.4,688.1,818,688.5z"/>
			<path class="st20" d="M820.7,691.9l-6.6,5.3c-0.4,0.2-0.6,0.6-0.8,1l0,0c-0.1,0.3-0.1,0.5-0.1,0.8s0.1,0.5,0.3,0.8
				c0.2,0.2,0.4,0.4,0.6,0.6c0.2,0.1,0.5,0.2,0.8,0.3l0,0c0.5,0.1,1.1,0,1.6-0.2s1-0.5,1.4-0.8l6.4-6.7c0.1-0.1,0.2-0.3,0.3-0.5
				c0-0.2,0-0.4,0-0.6c-0.1-0.2-0.2-0.3-0.3-0.4c-0.1-0.1-0.3-0.2-0.5-0.2C822.7,691.1,821.6,691.3,820.7,691.9z"/>
			<path class="st14" d="M893.8,710.1l80-13c2.8-0.6,5.3-2.3,6.9-4.7s2.2-5.4,1.6-8.2l-1.8-9.1c0,0,1.7,13.8-12.1,17.5L893,707.5
				L893.8,710.1z"/>
			<path class="st17" d="M940.3,762.2l8.1,300.7h6.9v-303L940.3,762.2z"/>
			<path class="st24" d="M871.3,573.3l17.8,28.3c0.3,0.4,0.7,0.8,1.1,1.1c0.5,0.3,1,0.4,1.5,0.5c0.5,0,1.1-0.1,1.5-0.3
				c0.5-0.2,0.9-0.5,1.2-1l22.9-28.6"/>
			<path class="st25" d="M825.7,507.2c4.6-5.1,7.2-11.8,7.3-18.7c0-16.8-15.5-30.5-34.5-30.5S764,471.7,764,488.5
				s15.5,30.5,34.5,30.5c6.6,0,13.1-1.7,18.8-4.9L830,520L825.7,507.2z"/>
			<path class="st1" d="M1380.7,1111.1h-1193c-0.4,0-0.8-0.2-1.1-0.4c-0.3-0.3-0.4-0.7-0.4-1.1s0.2-0.8,0.4-1.1
				c0.3-0.3,0.7-0.4,1.1-0.4h1193c0.4,0,0.8,0.2,1.1,0.4s0.4,0.7,0.4,1.1s-0.2,0.8-0.4,1.1S1381.1,1111.1,1380.7,1111.1z"/>
			<path class="st26" d="M1044.7,480.3h69.4v-5.4h-69.4V480.3z"/>
			<path class="st26" d="M1044.7,491.9h69.4v-5.4h-69.4V491.9z"/>
			<path class="st26" d="M1044.7,503.7h69.4v-5.4h-69.4V503.7z"/>
			<path class="st26" d="M1184.5,516.2h79.2v-69h-79.2V516.2z"/>
			<path class="st26" d="M1170.6,533.8h104.8v-5.9h-104.8V533.8z"/>
			<path class="st26" d="M1170.6,545.9h104.8V540h-104.8V545.9z"/>
			<path class="st26" d="M1170.6,558h104.8v-5.8h-104.8V558z"/>
			<path class="st26" d="M1170.6,570.1h104.8v-5.9h-104.8V570.1z"/>
			<path class="st26" d="M1170.6,582.2h104.8v-5.9h-104.8V582.2z"/>
			<g>
				<path class="st7" d="M1008.7,552.4h-11.4v48.9h11.4V552.4z"/>
				<path class="st7" d="M1027.4,582.6v-11.4h-48.9v11.4H1027.4z"/>
			</g>
			<g>
				<g class="st27">
					<path class="st7" d="M320.2,930.1c-0.7-0.3-1.4-0.5-2.1-0.6c-0.7,0-1.5,0.1-2.2,0.4c-9.4,4.2-18.6,18.7-18.4,23.8
						c0.2,6.1-3.5,6.2-5,10.8c-1.3,3.7,2.1,8.8,3.4,10.6c0.2,0.2,0.4,0.4,0.6,0.5s0.5,0.2,0.7,0.2c2.3,0.1,8.8,0.1,11.1-3.1
						c2.8-3.9,0.8-7,5.9-10.3c4.3-2.8,10.8-18.7,8.8-28.8c-0.2-0.7-0.5-1.4-0.9-2C321.5,930.9,320.9,930.4,320.2,930.1"/>
				</g>
			</g>
		</g>
		<g id="Layer_2_00000079483828694966496690000007610306390353262478_">
			<g id="freepik--character-2--inject-101">
				<path class="st28" d="M798.5,468.3c0.1-0.2,0.3-0.4,0.5-0.3c0.1,0,0.1,0.1,0.2,0.1l0,0c0.2,0.3,0.3,0.7,0.1,1.1
					c-0.2,0.3-0.4,0.6-0.7,0.8c-0.2,0.2-0.5,0.3-0.7,0.3c-0.3,0-0.7-0.4-0.7-1.1c0-0.3,0.1-0.6,0.1-0.9s-0.1-0.6-0.2-0.8
					c0.1,0,0.2,0.1,0.3,0.2c0-0.2-0.1-0.4-0.3-0.4c0.2-0.2,0.5-0.2,0.8-0.1c0.2,0.1,0.4,0.4,0.4,0.6c0.1-0.2,0.1-0.4,0.1-0.5
					c-0.1-0.2-0.3-0.3-0.4-0.3c0.4-0.1,0.8,0.2,0.7,0.7C798.7,467.9,798.6,468.1,798.5,468.3z"/>
				<path class="st28" d="M798.5,468.3c0.1-0.2,0.3-0.4,0.5-0.3c0.1,0,0.1,0.1,0.2,0.1l0,0c0.2,0.3,0.3,0.7,0.1,1.1
					c-0.2,0.3-0.4,0.6-0.7,0.8c-0.2,0.2-0.5,0.3-0.7,0.3c-0.3,0-0.7-0.4-0.7-1.1c0-0.3,0.1-0.6,0.1-0.9s-0.1-0.6-0.2-0.8
					c0.1,0,0.2,0.1,0.3,0.2c0-0.2-0.1-0.4-0.3-0.4c0.2-0.2,0.5-0.2,0.8-0.1c0.2,0.1,0.4,0.4,0.4,0.6c0.1-0.2,0.1-0.4,0.1-0.5
					c-0.1-0.2-0.3-0.3-0.4-0.3c0.4-0.1,0.8,0.2,0.7,0.7C798.7,467.9,798.6,468.1,798.5,468.3z"/>
				<path class="st17" d="M798.5,468.3c0.1-0.2,0.3-0.4,0.5-0.3c0.1,0,0.1,0.1,0.2,0.1l0,0c0.2,0.3,0.3,0.7,0.1,1.1
					c-0.2,0.3-0.4,0.6-0.7,0.8c-0.2,0.2-0.5,0.3-0.7,0.3c-0.3,0-0.7-0.4-0.7-1.1c0-0.3,0.1-0.6,0.1-0.9s-0.1-0.6-0.2-0.8
					c0.1,0,0.2,0.1,0.3,0.2c0-0.2-0.1-0.4-0.3-0.4c0.2-0.2,0.5-0.2,0.8-0.1c0.2,0.1,0.4,0.4,0.4,0.6c0.1-0.2,0.1-0.4,0.1-0.5
					c-0.1-0.2-0.3-0.3-0.4-0.3c0.4-0.1,0.8,0.2,0.7,0.7C798.7,467.9,798.6,468.1,798.5,468.3z"/>
				<g id="freepik--freepik--character-1--inject-22--inject-101">
					<polygon class="st29" points="800.1,510.1 801.4,510.2 801.4,508.8 800.2,508.8 					"/>
					<path class="st28" d="M801.5,509.9h-1.4c-0.1,0-0.1,0-0.1,0.1l-0.3,1.1c0,0.1,0,0.2,0.1,0.2l0,0l0,0c0.5,0,0.7,0,1.3,0
						c0.4,0,1.4,0.1,1.9,0.1s0.6-0.5,0.4-0.6c-1-0.2-1.5-0.5-1.8-0.8C801.6,510,801.5,509.9,801.5,509.9z"/>
					<polygon class="st17" points="801.4,508.6 801.4,509.3 800.2,509.2 800.2,508.6 					"/>
					<path class="st30" d="M803.7,483.1c0.3,1.5-0.2,8.8-0.7,12c-0.6,4.3-1.4,13.8-1.4,13.8l-1.7-0.1c0,0-0.2-10.1,0.2-13.6
						c-0.1-4.4-0.5-12.1-0.5-12.1L803.7,483.1L803.7,483.1z"/>
					<path class="st17" d="M803.7,483.1c0.3,1.5-0.2,8.8-0.7,12c-0.6,4.3-1.4,13.8-1.4,13.8l-1.7-0.1c0,0-0.2-10.1,0.2-13.6
						c-0.1-4.4-0.5-12.1-0.5-12.1L803.7,483.1L803.7,483.1z"/>
					<path class="st17" d="M799.9,487.9c0-1.1,0.8-2.1,1.1,0c0.2,1.3-0.3,3.7-0.8,5.4C800,491.5,799.9,489.6,799.9,487.9z"/>
					<polygon class="st29" points="791,507.2 791.9,507.8 792.8,506.4 791.9,505.8 					"/>
					<path class="st28" d="M792.1,507.7l-1-1H791l0,0l-0.8,0.7c-0.1,0.1-0.1,0.2,0,0.3l0,0l0,0c0.4,0.3,0.6,0.5,1,0.9
						c0.3,0.3,0.6,0.6,1,1s0.7,0,0.6-0.2c-0.6-0.8-0.5-1.1-0.5-1.5C792.2,507.9,792.1,507.8,792.1,507.7z"/>
					<polygon class="st17" points="792.8,506.4 792.4,507 791.5,506.4 791.9,505.8 					"/>
					<path class="st30" d="M801.2,484.8c0,0-1.6,9.5-2.5,13c-0.7,2.6-5.9,9-5.9,9l-1.3-0.8c0,0,2-5.1,4.7-8.5
						c0.2-4-0.2-10.6,1.4-12.7H801.2z"/>
					<path class="st17" d="M801.2,484.8c0,0-1.6,9.5-2.5,13c-0.7,2.6-5.9,9-5.9,9l-1.3-0.8c0,0,2-5.1,4.7-8.5
						c0.2-4-0.2-10.6,1.4-12.7H801.2z"/>
					<path class="st29" d="M802.9,475.8c0.1,0.8,0.3,1.6,0.4,2.4c0.2,0.8,0.4,1.6,0.6,2.3v0.2l0.1,0.2c0,0.1,0.1,0.2,0.1,0.3
						c0.1,0.2,0.2,0.4,0.3,0.6c0.2,0.4,0.4,0.7,0.7,1.1c0.5,0.7,1,1.3,1.5,1.9c0.1,0.2,0.3,0.2,0.5,0.1s0.2-0.3,0.1-0.5l0,0
						c-0.4-0.6-0.8-1.3-1.2-2c-0.2-0.3-0.4-0.7-0.5-1c-0.1-0.2-0.1-0.3-0.2-0.5c0-0.1-0.1-0.2-0.1-0.2v-0.1v-0.1
						c-0.2-0.7-0.3-1.5-0.5-2.3c-0.1-0.8-0.3-1.5-0.4-2.3l0,0c-0.1-0.4-0.4-0.6-0.8-0.6C803.1,475.1,802.9,475.5,802.9,475.8
						L802.9,475.8L802.9,475.8z"/>
					<path class="st29" d="M807,484.1l0.9,0.6l-1.1,0.6c0,0-0.4-0.5-0.3-1.1L807,484.1z"/>
					<path class="st29" d="M807.9,485.8l-0.5,0.1c-0.1,0-0.3,0-0.3-0.1l-0.3-0.5l1.1-0.6l0.2,0.8
						C808.2,485.6,808.1,485.8,807.9,485.8z"/>
					<path class="st30" d="M804.2,475.1c0.2-0.1,0.9,2.2,0.9,2.2l-1.8,1.6c0,0-0.5-2.4-0.8-3.1C802.3,475,803.5,474.5,804.2,475.1z"
						/>
					<path class="st30" d="M804.5,475.7c0,2.5-0.5,4.4-0.7,6.2c0,0.2-0.1,0.9,0.1,2.4c0.2,1.2,0.2,2.5,0.2,3.7l-7.8-0.5
						c0.3-3.4,1.9-5.4,1.9-5.9c0-1.4-0.2-2.8-0.8-5.6c-0.1-0.6,0.3-1.3,0.9-1.4h0.1c0.3-0.1,0.7-0.1,1.1-0.1c0.8-0.1,1.7-0.1,2.5,0
						c0.6,0.1,1.2,0.2,1.7,0.2C804.1,474.9,804.4,475.3,804.5,475.7z"/>
					<path class="st6" d="M799.3,478.5h1.6c0.1,0,0.1-0.1,0.1-0.1l0,0l0,0l-0.1-0.8c0-0.1-0.1-0.1-0.2-0.1h-1.6
						c-0.1,0-0.1,0-0.1,0.1l0,0l0,0l0.1,0.8C799.2,478.4,799.3,478.5,799.3,478.5z"/>
					<path class="st31" d="M802,474.6c0,0,0.9,0.6-0.1,2.2c-0.8-0.8-1.6-1.5-2.4-2.2H802z"/>
					<path class="st30" d="M798.9,483.4h-0.2h-0.1l0.1-0.6c0,0,0,0,0.1,0h0.2h0.1L798.9,483.4L798.9,483.4z"/>
					<path class="st30" d="M803.3,483.4h-0.2H803l0.1-0.6c0,0,0,0,0.1,0h0.2h0.1L803.3,483.4C803.4,483.4,803.3,483.4,803.3,483.4z"
						/>
					<path class="st30" d="M801.1,483.4h-0.2h-0.1l0.1-0.6c0,0,0,0,0.1,0h0.2h0.1L801.1,483.4C801.2,483.4,801.1,483.4,801.1,483.4z
						"/>
					<path class="st28" d="M799.4,485.1l3.1,0.5c0.1,0,0.2-0.1,0.3-0.2l1.3-4.6c0-0.1,0-0.2-0.1-0.2l0,0l-3.1-0.5
						c-0.1,0-0.2,0.1-0.3,0.2l-1.3,4.6C799.2,485,799.2,485.1,799.4,485.1L799.4,485.1z"/>
					<path class="st28" d="M801.8,480.6l0.7,0.1c0.2,0,0.3-0.1,0.3-0.2l0.1-0.4l-1.3-0.2l-0.1,0.4
						C801.6,480.4,801.7,480.6,801.8,480.6L801.8,480.6z"/>
					<path class="st32" d="M801.8,480.6l0.7,0.1c0.2,0,0.3-0.1,0.3-0.2l0.1-0.4l-1.3-0.2l-0.1,0.4
						C801.6,480.4,801.7,480.6,801.8,480.6L801.8,480.6z"/>
					<path class="st28" d="M800.6,480h0.2c-0.1,0-0.2,0.1-0.3,0.2l-1.3,4.6c0,0.1,0,0.2,0.1,0.2l0,0h-0.1c-0.1,0-0.2-0.1-0.2-0.2
						l0,0l1.3-4.6C800.4,480.1,800.5,480,800.6,480z"/>
					<path class="st32" d="M800.6,480h0.2c-0.1,0-0.2,0.1-0.3,0.2l-1.3,4.6c0,0.1,0,0.2,0.1,0.2l0,0h-0.1c-0.1,0-0.2-0.1-0.2-0.2
						l0,0l1.3-4.6C800.4,480.1,800.5,480,800.6,480z"/>
					<path class="st29" d="M796.9,476.3c-0.3,0.6-0.5,1.2-0.7,1.9c-0.1,0.3-0.2,0.6-0.3,1c-0.1,0.3-0.2,0.7-0.2,1c0,0.1,0,0.2,0,0.3
						c0,0.1,0,0.2,0,0.3v0.1v0.1v0.1l0,0l0,0l0,0l0,0l0,0c0.1,0.1,0.2,0.3,0.3,0.4c0.2,0.3,0.5,0.5,0.7,0.8c0.3,0.2,0.6,0.5,0.9,0.6
						c0.2,0.1,0.3,0.2,0.5,0.2c0.1,0,0.2,0.1,0.3,0.1h0.1c0.1,0,0.1,0,0.2,0l0.1-0.7h-0.1l-0.1-0.1c-0.1,0-0.1-0.1-0.2-0.1
						c-0.1-0.1-0.2-0.2-0.4-0.3c-0.2-0.2-0.4-0.4-0.6-0.6c-0.1-0.1-0.2-0.2-0.3-0.4c-0.1-0.1-0.2-0.2-0.2-0.4
						c-0.1-0.1-0.2-0.3-0.2-0.4l0,0l0,0l0,0l0,0l0,0c0,0,0,0,0,0.1l0,0l0,0l0,0c0-0.1,0-0.1,0-0.2c0.1-0.3,0.2-0.6,0.3-0.9
						s0.2-0.6,0.3-0.9c0.2-0.6,0.5-1.2,0.7-1.8L796.9,476.3z"/>
					<path class="st29" d="M798.4,483.2l1.2,0.5l0.2-1.2c0,0-0.7-0.2-1.2,0.2L798.4,483.2z"/>
					<path class="st29" d="M800.4,483.6l0.2-0.4c0.1-0.2,0-0.4-0.2-0.4l-0.5-0.2l-0.2,1.2l0.3,0.1
						C800.1,483.8,800.3,483.7,800.4,483.6z"/>
					<path class="st30" d="M799.6,475.4c0.3,1.4-1.9,3.9-1.9,3.9l-1.9-2c0,0,0.9-1.8,2-2.4C798.7,474.5,799.5,474.7,799.6,475.4z"/>
					<path class="st29" d="M799.8,471.8c0.2,0.8,0.3,2.3-0.2,2.8c0.8,0.4,1.6,0.9,2.3,1.5c0.6-1.1,0.2-1.5,0.2-1.5
						c-0.9-0.2-0.9-0.9-0.7-1.5L799.8,471.8z"/>
					<path class="st17" d="M799.9,471.9c0,0.5,0.1,1,0.3,1.4c0.2,0.3,0.5,0.4,1,0.5c0-0.2,0-0.5,0.1-0.7L799.9,471.9z"/>
					<path class="st29" d="M798.5,470.8c0.4,1.3,0.5,1.8,1.3,2.3c1.2,0.8,2.7,0,2.7-1.4c0-1.2-0.6-3.1-2-3.3c-1-0.2-1.9,0.5-2.1,1.5
						C798.4,470.2,798.4,470.5,798.5,470.8L798.5,470.8z"/>
					<path class="st28" d="M799.3,468.2c0.8-0.8,1.8-0.5,2.3-0.2s0.9,0.7,1,1.3c0.1,0.2,0,0.7-0.4,0.8c-0.1-0.3-0.3-0.5-0.5-0.7
						c-0.3-0.3-0.9-0.3-1.1-0.2c-0.2,0.5-0.5,1-0.9,1.5c-0.4,0.4-0.9,0.7-1.4,0.6c-0.5-0.6-0.6-1.5-0.3-2.3
						C798.3,468.3,799.3,468.2,799.3,468.2z"/>
					<path class="st29" d="M798.2,471.5c0.1,0.3,0.2,0.5,0.5,0.6c0.3,0.2,0.5-0.1,0.5-0.4s-0.2-0.7-0.5-0.7c-0.2,0-0.4,0.2-0.5,0.4
						l0,0V471.5z"/>
					<path class="st28" d="M800.5,470.7c0,0.1,0.1,0.2,0.2,0.2c0.1,0,0.1-0.1,0.1-0.2s-0.1-0.2-0.2-0.2
						C800.5,470.5,800.5,470.6,800.5,470.7z"/>
					<path class="st28" d="M801.7,470.4c0,0.1,0.1,0.2,0.2,0.2c0.1,0,0.1-0.1,0.1-0.2s-0.1-0.2-0.2-0.2
						C801.7,470.2,801.7,470.3,801.7,470.4z"/>
					<path class="st28" d="M801.7,470.2l0.2-0.1C802,470.1,801.9,470.3,801.7,470.2z"/>
					<path class="st33" d="M801.4,470.7c0.2,0.2,0.3,0.4,0.5,0.6c-0.1,0.1-0.2,0.2-0.4,0.2L801.4,470.7z"/>
					<path class="st28" d="M801.3,471.9C801.3,471.9,801.3,471.8,801.3,471.9C801.3,471.8,801.3,471.8,801.3,471.9L801.3,471.9
						c-0.3,0-0.6,0-0.8-0.2c0,0,0,0-0.1,0l0,0C800.7,471.9,801,472,801.3,471.9L801.3,471.9z"/>
					<path class="st28" d="M800.1,470.4L800.1,470.4c0.1-0.2,0.2-0.3,0.4-0.3c0,0,0.1,0,0.1-0.1c0,0,0-0.1-0.1-0.1l0,0
						c-0.2,0.1-0.4,0.2-0.4,0.4C800,470.3,800,470.4,800.1,470.4L800.1,470.4z"/>
					<path class="st28" d="M802,469.9L802,469.9v-0.1c-0.2-0.1-0.4-0.2-0.5-0.2c0,0-0.1,0-0.1,0.1l0,0l0.1,0.1
						C801.7,469.8,801.8,469.8,802,469.9L802,469.9z"/>
					<path class="st28" d="M800.5,470.5l0.2-0.1C800.8,470.4,800.7,470.6,800.5,470.5z"/>
				</g>
			</g>
		</g>
	</g>
	<g id="Layer_2_00000098923442381530258780000014054632544994290866_">
		
			<image style="overflow:visible;enable-background:new    ;" width="400" height="161" xlink:href="../origin/clinica/sol-400.png"  transform="matrix(0.4758 0 0 0.4758 932.3447 391.5421)">
		</image>
	</g>
</g>
</svg>
