<svg xmlns="http://www.w3.org/2000/svg" viewBox="0 0 500 500"><path d="M101.53 432.38c82.45 43.09 216.14 43.09 298.59 0s82.45-113 0-156.06-216.14-43.1-298.59 0-82.45 112.96 0 156.06Z" style="fill:#f5f5f5"/><path d="m245.86 386.89 3.8 2.19a4.79 4.79 0 0 0 4.33 0l101.28-58.48a1.32 1.32 0 0 0 0-2.5l-3.79-2.19a4.79 4.79 0 0 0-4.33 0l-101.29 58.48a1.32 1.32 0 0 0 0 2.5Zm165.02-8.23c-12.54 6.71-32.88 6.71-45.42 0s-12.54-17.58 0-24.29 32.88-6.71 45.42 0 12.54 17.63 0 24.29Z" style="fill:#e0e0e0"/><path d="M403.11 338.5s1.16-10.17 6.22-18.06 12-12.81 18.48-13.32 11.72 5.45 4.79 9.54-19.26 8.28-24.93 23.6Z" style="fill:#0096a1"/><path d="M403.11 338.5s1.16-10.17 6.22-18.06 12-12.81 18.48-13.32 11.72 5.45 4.79 9.54-19.26 8.28-24.93 23.6Z" style="opacity:.1"/><path d="M405 335.86h-.07a.34.34 0 0 1-.19-.45c6.84-16.85 19.86-23.89 25.79-25.25a.34.34 0 1 1 .16.67c-5.81 1.34-18.58 8.25-25.31 24.84a.35.35 0 0 1-.38.19Z" style="fill:#fff"/><path d="M439.65 336.06c-.59 1.32-2 2-3.38 2.55s-2.8 1.12-3.53 2.38c-1.46 2.52.94 6.08-.63 8.54a4.56 4.56 0 0 1-3.09 1.79c-1 .19-2 .18-3 .27a13.54 13.54 0 0 1-1.44-.11 6.58 6.58 0 0 0-4.18.44c-2 1.13-2.63 3.67-3.85 5.62a9.52 9.52 0 0 1-6.77 4.25 6.65 6.65 0 0 1-3.5-.23l-.19-.12a5.18 5.18 0 0 1-.36-.42v-.06c-.36-1.31.22-2.68.25-4a1.93 1.93 0 0 0 0-.24c-.05-1.58-.1-3.14-.13-4.71a251.2 251.2 0 0 1-.09-8.68c0-1.87-.21-3.93.59-5.7.88-1.94 3.07-2 3.89-3.89.33-.77.51-1.58.83-2.35a6.72 6.72 0 0 1 5.73-4c3.82-.19 7.24 2.9 11.06 2.62a29.46 29.46 0 0 0 2.92-.56c3.09-.58 6.67.3 8.41 2.92a4 4 0 0 1 .46 3.69Z" style="fill:#0096a1"/><path d="M405.33 354.92a.32.32 0 0 1-.23-.4c5.27-19.8 26.13-22.66 31-22.31a.32.32 0 0 1 .3.35.31.31 0 0 1-.34.3c-4.78-.34-25.18 2.46-30.34 21.83a.33.33 0 0 1-.39.23Z" style="fill:#fff"/><path d="M428.51 344.89a.32.32 0 0 1-.17-.09 17.36 17.36 0 0 0-14.2-4 .32.32 0 0 1-.37-.27.33.33 0 0 1 .28-.37 18 18 0 0 1 14.75 4.18.33.33 0 0 1-.29.55Z" style="fill:#fff"/><path d="M266.32 244.39v10L93.75 354l-5.31 3a9.28 9.28 0 0 1-4.06-7.34V181.91a1.81 1.81 0 0 1 .25-.85 1.85 1.85 0 0 1 .62-.65l39.33-22.71c.48-.27 3.28.9 3.74 1.18l.3.17a3 3 0 0 1 .69.61 2.45 2.45 0 0 1 .5.83l3.56 10.28 128-76.26a2 2 0 0 1 1.68 0l2.38 1.38a1.79 1.79 0 0 1 .61.64 1.74 1.74 0 0 1 .25.86v147Z" style="fill:#263238"/><path d="M266.32 254.35 88.44 357V183.25l40.87-23.59a2.45 2.45 0 0 1 .5.83l3.56 10.28.68 1.95 132-76.22a1.74 1.74 0 0 1 .25.86Z" style="fill:#37474f"/><path d="m129.31 159.66-40.87 23.59-3.81-2.19a1.85 1.85 0 0 1 .62-.65l39.33-22.71a1.87 1.87 0 0 1 1.71 0l2.33 1.34a3 3 0 0 1 .69.62ZM266.06 96.5l-132 76.22-.68-1.95 128-76.26a2 2 0 0 1 1.68 0l2.38 1.38a1.79 1.79 0 0 1 .62.61Z" style="fill:#455a64"/><path d="M143.09 286.37a4.2 4.2 0 0 1-1.85-3.33V117.78a4.32 4.32 0 0 1 2-3.4l97.62-56.3a3.69 3.69 0 0 1 5.65 3.26V226.6a4.34 4.34 0 0 1-2 3.4l-97.61 56.3a4.2 4.2 0 0 1-3.81.07Z" style="fill:#fafafa"/><path d="m146.9 286.3 97.62-56.3a4.34 4.34 0 0 0 2-3.4V61.34c0-1.25-.88-1.76-2-1.14l-97.63 56.31a4.34 4.34 0 0 0-2 3.4v165.26c.04 1.25.92 1.76 2.01 1.13Z" style="fill:#f0f0f0"/><path d="m157.59 123.07 73.72-42.56c.95-.55 1.73-.11 1.73 1v.69a3.85 3.85 0 0 1-1.73 3l-73.72 42.56c-1 .55-1.73.1-1.73-1v-.69a3.83 3.83 0 0 1 1.73-3Zm0 11.71 73.72-42.56c.95-.55 1.73-.1 1.73 1v.69a3.83 3.83 0 0 1-1.73 3l-73.72 42.56c-1 .55-1.73.1-1.73-1v-.69a3.85 3.85 0 0 1 1.73-3Zm0 11.71 73.72-42.56c.95-.55 1.73-.1 1.73 1v.69a3.83 3.83 0 0 1-1.73 3l-73.72 42.56c-1 .56-1.73.11-1.73-1v-.69a3.85 3.85 0 0 1 1.73-3Zm0 11.71 73.72-42.55c.95-.56 1.73-.11 1.73 1v.69a3.86 3.86 0 0 1-1.73 3l-73.72 42.56c-1 .55-1.73.1-1.73-1v-.7a3.86 3.86 0 0 1 1.73-3Zm0 11.72 73.72-42.56c.95-.55 1.73-.11 1.73 1v.69a3.85 3.85 0 0 1-1.73 3l-73.72 42.56c-1 .55-1.73.1-1.73-1v-.69a3.83 3.83 0 0 1 1.73-3Zm0 11.8 73.72-42.56c.95-.56 1.73-.11 1.73 1v.69a3.86 3.86 0 0 1-1.73 3l-73.72 42.56c-1 .55-1.73.1-1.73-1v-.69a3.83 3.83 0 0 1 1.73-3Zm0 11.71 73.72-42.56c.95-.55 1.73-.11 1.73 1v.69a3.85 3.85 0 0 1-1.73 3l-73.72 42.56c-1 .55-1.73.1-1.73-1v-.69a3.83 3.83 0 0 1 1.73-3Zm0 11.71 73.72-42.56c.95-.55 1.73-.1 1.73 1v.69a3.83 3.83 0 0 1-1.73 3l-73.72 42.56c-1 .55-1.73.11-1.73-1v-.69a3.85 3.85 0 0 1 1.73-3Zm0 11.71 73.72-42.56c.95-.55 1.73-.1 1.73 1v.71a3.83 3.83 0 0 1-1.73 3l-73.72 42.56c-1 .56-1.73.11-1.73-1v-.69a3.86 3.86 0 0 1 1.73-3.02Zm0 11.72L231.31 186c.95-.56 1.73-.11 1.73 1v.69a3.86 3.86 0 0 1-1.73 3l-73.72 42.56c-1 .55-1.73.1-1.73-1v-.69a3.83 3.83 0 0 1 1.73-2.99Zm0 11.76 73.72-42.56c.95-.55 1.73-.1 1.73 1v.69a3.85 3.85 0 0 1-1.73 3L157.59 245c-1 .55-1.73.1-1.73-1v-.69a3.83 3.83 0 0 1 1.73-2.98Zm0 11.67 73.72-42.56c.95-.55 1.73-.1 1.73 1v.69a3.83 3.83 0 0 1-1.73 3l-73.72 42.56c-1 .55-1.73.11-1.73-1V255a3.85 3.85 0 0 1 1.73-3Zm0 11.75 73.72-42.56c.95-.55 1.73-.1 1.73 1v.7a3.86 3.86 0 0 1-1.73 3l-73.72 42.55c-1 .56-1.73.11-1.73-1v-.69a3.86 3.86 0 0 1 1.73-3Zm-10.95 22.68a3.67 3.67 0 0 1-5.39-3.39V117.79a4.08 4.08 0 0 1 .57-1.94l3.69 2.13a4 4 0 0 0-.58 1.93v165.26c0 1.15.75 1.67 1.71 1.26Z" style="fill:#e0e0e0"/><path d="M156.91 294.21a4.2 4.2 0 0 1-1.85-3.33V125.62a4.32 4.32 0 0 1 2-3.4l97.62-56.3a3.69 3.69 0 0 1 5.65 3.26v165.26a4.34 4.34 0 0 1-2 3.4l-97.62 56.3a4.2 4.2 0 0 1-3.8.07Z" style="fill:#fafafa"/><path d="m160.72 294.14 97.62-56.3a4.34 4.34 0 0 0 2-3.4V69.18c0-1.25-.88-1.76-2-1.14l-97.63 56.31a4.34 4.34 0 0 0-2 3.4V293c.04 1.26.92 1.77 2.01 1.14Z" style="fill:#f0f0f0"/><path d="m171.41 130.91 73.72-42.56c1-.55 1.73-.11 1.73 1V90a3.85 3.85 0 0 1-1.73 3l-73.72 42.6c-1 .55-1.73.1-1.73-1v-.69a3.83 3.83 0 0 1 1.73-3Zm0 11.71 73.72-42.56c1-.55 1.73-.1 1.73 1v.69a3.83 3.83 0 0 1-1.73 3l-73.72 42.56c-1 .55-1.73.11-1.73-1v-.69a3.85 3.85 0 0 1 1.73-3Zm0 11.71 73.72-42.56c1-.55 1.73-.1 1.73 1v.69a3.83 3.83 0 0 1-1.73 3L171.41 159c-1 .56-1.73.11-1.73-1v-.69a3.85 3.85 0 0 1 1.73-2.98Zm0 11.72 73.72-42.56c1-.56 1.73-.11 1.73 1v.69a3.86 3.86 0 0 1-1.73 3l-73.72 42.56c-1 .55-1.73.1-1.73-1v-.69a3.83 3.83 0 0 1 1.73-3Zm0 11.71 73.72-42.56c1-.55 1.73-.11 1.73 1v.69a3.85 3.85 0 0 1-1.73 3l-73.72 42.56c-1 .55-1.73.1-1.73-1v-.69a3.83 3.83 0 0 1 1.73-3Zm0 11.8L245.13 147c1-.56 1.73-.11 1.73 1v.69a3.86 3.86 0 0 1-1.73 3l-73.72 42.56c-1 .55-1.73.1-1.73-1v-.69a3.83 3.83 0 0 1 1.73-3Zm0 11.71 73.72-42.56c1-.55 1.73-.11 1.73 1v.69a3.85 3.85 0 0 1-1.73 3L171.41 206c-1 .55-1.73.1-1.73-1v-.69a3.83 3.83 0 0 1 1.73-3.04Zm0 11.73 73.72-42.56c1-.55 1.73-.1 1.73 1v.69a3.83 3.83 0 0 1-1.73 3l-73.72 42.56c-1 .55-1.73.11-1.73-1V216a3.85 3.85 0 0 1 1.73-3Zm0 11.69 73.72-42.56c1-.55 1.73-.1 1.73 1v.69a3.83 3.83 0 0 1-1.73 3l-73.72 42.56c-1 .56-1.73.11-1.73-1v-.69a3.86 3.86 0 0 1 1.73-3Zm0 11.72 73.72-42.56c1-.56 1.73-.11 1.73 1v.69a3.86 3.86 0 0 1-1.73 3l-73.72 42.56c-1 .55-1.73.1-1.73-1v-.69a3.83 3.83 0 0 1 1.73-3Zm0 11.76 73.72-42.56c1-.55 1.73-.1 1.73 1v.69a3.83 3.83 0 0 1-1.73 3l-73.72 42.56c-1 .55-1.73.1-1.73-1v-.69a3.83 3.83 0 0 1 1.73-3Zm0 11.71 73.72-42.56c1-.55 1.73-.1 1.73 1v.68a3.83 3.83 0 0 1-1.73 3l-73.72 42.56c-1 .55-1.73.11-1.73-1v-.69a3.85 3.85 0 0 1 1.73-2.99Zm0 11.71L245.13 229c1-.55 1.73-.1 1.73 1v.7a3.86 3.86 0 0 1-1.73 3l-73.72 42.55c-1 .56-1.73.11-1.73-1v-.69a3.86 3.86 0 0 1 1.73-2.97Zm-10.95 22.68a3.67 3.67 0 0 1-5.39-3.39V125.63a4.08 4.08 0 0 1 .57-1.94l3.69 2.13a4 4 0 0 0-.58 1.93V293c0 1.16.75 1.68 1.71 1.27Z" style="fill:#e0e0e0"/><path d="m302.65 117-28.52 123.5-2.63 11.36a13.13 13.13 0 0 1-5.45 7.37L96.83 356.89a8.87 8.87 0 0 1-4 1.07 8.22 8.22 0 0 1-4.39-.92l.87-3.77.09-.37.95-4.13 4.14-17.92 26.22-113.54a1.81 1.81 0 0 1 .16-.42c.07-.13.15-.26.23-.38v-.06a2.54 2.54 0 0 1 .66-.62l144.55-83.43 31.63-18.26a1.91 1.91 0 0 1 1.74 0l2.33 1.34a1.47 1.47 0 0 1 .64 1.52Z" style="fill:#37474f"/><path d="M302.68 116.71c0-.35-.28-.46-.67-.23l-176.15 101.7a2.26 2.26 0 0 0-.66.62l-4.06-2.35a2.54 2.54 0 0 1 .66-.62l176.14-101.69a1.91 1.91 0 0 1 1.74 0l2.33 1.34a1.49 1.49 0 0 1 .67 1.23Z" style="fill:#455a64"/><path d="M125.2 218.8a3.23 3.23 0 0 0-.3.49 2.28 2.28 0 0 0-.13.36L99.7 328.23l-5.28 22.88-.67 2.89-.92 4a8.22 8.22 0 0 1-4.39-.92l.87-3.77.09-.37.95-4.13 4.14-17.92 26.22-113.54a1.81 1.81 0 0 1 .16-.42c.07-.13.15-.26.23-.38v-.06Z" style="fill:#263238"/><path d="M94.64 346.56a1.13 1.13 0 0 1 .54 1.23L93.75 354l-.75 3.09a1.13 1.13 0 0 1-1.16.87 7.49 7.49 0 0 1-3.43-.92 9.28 9.28 0 0 1-4.06-7.34v-7.12a1.12 1.12 0 0 1 1.69-1l1.81 1a1.15 1.15 0 0 1 .56 1v3.54a1.12 1.12 0 0 0 2.22.25l.3-1.31a1.13 1.13 0 0 1 1.66-.72Z" style="fill:#263238"/><path d="m132 320.17-9.63-5.56-.1-.06c-4.79-2.71-11.36-2.31-18.63 1.89-6.81 3.92-13 10.47-17.69 18-5.41 8.72-8.81 18.82-8.81 27.87 0 8.44 3 14.37 7.73 17.14l9.78 5.58c4.83 3.08 11.65 2.81 19.21-1.56 14.64-8.45 26.51-29 26.51-45.91 0-8.72-3.22-14.78-8.37-17.39Z" style="fill:#0096a1"/><path d="m94.46 385-9.59-5.48c-4.78-2.77-7.73-8.7-7.73-17.14 0-9.05 3.4-19.14 8.81-27.86l10.23 5.9c-5.41 8.72-8.8 18.8-8.8 27.84-.03 8.06 2.67 13.83 7.08 16.74Z" style="opacity:.1"/><path d="M131.8 320.06c-4.72-2.29-11-1.71-17.94 2.28s-13 10.49-17.71 18.07l-10.23-5.9c4.68-7.58 10.89-14.12 17.69-18 7.27-4.2 13.84-4.6 18.63-1.9l.1.06Z" style="fill:#fff;opacity:.4"/><path d="M117.52 355.67V365a3.09 3.09 0 0 1-.32 1.37 2.06 2.06 0 0 1-.77 1l-5.11 2.95a.59.59 0 0 1-.77-.06 1.36 1.36 0 0 1-.32-1v-9.29l-6.29 3.62a.58.58 0 0 1-.77-.05 1.36 1.36 0 0 1-.32-1v-6.3a3.31 3.31 0 0 1 .32-1.38 2.15 2.15 0 0 1 .77-.94l6.29-3.63V341a3.31 3.31 0 0 1 .32-1.38 2.08 2.08 0 0 1 .77-.94l5.11-3a.6.6 0 0 1 .77.05 1.34 1.34 0 0 1 .32 1V346l6.25-3.6a.58.58 0 0 1 .77.05 1.36 1.36 0 0 1 .32 1v6.3a3.31 3.31 0 0 1-.32 1.38 2.15 2.15 0 0 1-.77.94Z" style="fill:#fff"/><path d="m374.56 211.19-11.69-.33c-.78-.67-13.05-14.52-13.05-14.52s-4.42 7-4.49 7.41 12 13.39 13.23 14.7a3.62 3.62 0 0 0 2.85 1.4c3.17.19 15 1 15 1Z" style="fill:#b16668"/><path d="M249.79 386.71a4.21 4.21 0 0 1-1.84-3.33V228a4.34 4.34 0 0 1 2-3.4l97.62-56.31a4.26 4.26 0 0 1 3.81-.07 4.21 4.21 0 0 1 1.84 3.34v155.37a4.34 4.34 0 0 1-2 3.41l-97.62 56.3a4.23 4.23 0 0 1-3.81.07Z" style="fill:#0096a1"/><path d="m253.05 386.86.2-.06a.35.35 0 0 1-.14.06 3 3 0 0 1-.36.12h-.2a3.5 3.5 0 0 1-.45.07 4.53 4.53 0 0 1-.52 0 3.67 3.67 0 0 1-1.79-.42 3.33 3.33 0 0 1-1-1 4.21 4.21 0 0 1-.81-2.34V228a3.32 3.32 0 0 1 .15-1 4.09 4.09 0 0 1 .18-.49 4.3 4.3 0 0 1 .24-.48l3.68 2.13-.09.15a4 4 0 0 0-.49 1.78v155.42a2.1 2.1 0 0 0 .08.59 1.22 1.22 0 0 0 .38.6 1.14 1.14 0 0 0 .4.19h.23a.84.84 0 0 0 .27 0 .07.07 0 0 0 .04-.03Z" style="opacity:.15"/><path d="M353.15 171.14c-.16-1-1-1.33-1.93-.77l-97.63 56.3a4.19 4.19 0 0 0-1.39 1.47l-3.68-2.14a3.91 3.91 0 0 1 1.39-1.46l97.62-56.31a4.26 4.26 0 0 1 3.81-.07 4.19 4.19 0 0 1 1.81 2.98Z" style="fill:#fff;opacity:.30000000000000004"/><path d="m264.3 233.24 73.7-42.56c1-.56 1.73-.11 1.73 1v.69a3.84 3.84 0 0 1-1.73 3l-73.72 42.56c-1 .55-1.73.1-1.73-1v-.69a3.82 3.82 0 0 1 1.75-3Zm0 14.33L338 205c1-.56 1.73-.11 1.73 1v.69a3.82 3.82 0 0 1-1.73 3l-73.72 42.56c-1 .55-1.73.1-1.73-1v-.69a3.82 3.82 0 0 1 1.75-2.99Zm0 14.33 73.7-42.56c1-.55 1.73-.11 1.73 1v.66a3.82 3.82 0 0 1-1.73 3l-73.72 42.56c-1 .55-1.73.1-1.73-1v-.69a3.82 3.82 0 0 1 1.75-2.97Zm0 14.33 73.7-42.56c1-.55 1.73-.11 1.73 1v.69a3.82 3.82 0 0 1-1.73 3l-73.72 42.56c-1 .55-1.73.1-1.73-1v-.69a3.82 3.82 0 0 1 1.75-3Zm0 14.33L338 248c1-.55 1.73-.11 1.73 1v.69a3.82 3.82 0 0 1-1.73 3l-73.72 42.56c-1 .55-1.73.1-1.73-1v-.69a3.82 3.82 0 0 1 1.75-3Zm0 14.33 73.7-42.56c1-.55 1.73-.11 1.73 1v.67a3.82 3.82 0 0 1-1.73 3l-73.72 42.56c-1 .55-1.73.1-1.73-1v-.69a3.82 3.82 0 0 1 1.75-2.98Zm0 14.33 73.7-42.56c1-.55 1.73-.11 1.73 1v.69a3.82 3.82 0 0 1-1.73 3l-73.72 42.56c-1 .55-1.73.1-1.73-1v-.69a3.82 3.82 0 0 1 1.75-3Zm0 14.33L338 291c1-.55 1.73-.1 1.73 1v.69a3.82 3.82 0 0 1-1.73 3l-73.72 42.56c-1 .55-1.73.1-1.73-1v-.69a3.82 3.82 0 0 1 1.75-3.01Zm0 14.33 73.7-42.56c1-.55 1.73-.1 1.73 1v.68a3.81 3.81 0 0 1-1.73 3l-73.72 42.56c-1 .55-1.73.1-1.73-1v-.69a3.82 3.82 0 0 1 1.75-2.99Zm0 14.33 73.7-42.56c1-.55 1.73-.1 1.73 1v.69a3.81 3.81 0 0 1-1.73 3l-73.71 42.56c-1 .55-1.73.1-1.73-1v-.69a3.83 3.83 0 0 1 1.74-3Z" style="fill:#fafafa"/><path d="M376.73 209.16h13.88a17.94 17.94 0 0 0 17.94-17.94 15.91 15.91 0 0 0-15.91-15.91 15.91 15.91 0 0 0-15.91 15.91Z" style="fill:#263238"/><path d="m405 181.58 3.85-2.07a2.12 2.12 0 0 0-2.91-1 2.29 2.29 0 0 0-.94 3.07Z" style="fill:#263238"/><path d="m404.73 182 4.1 1.53a2.13 2.13 0 0 0-1.2-2.83 2.31 2.31 0 0 0-2.9 1.3Z" style="fill:#263238"/><path d="m391 222.39-19.33-.83c-1.67-2.35-1.67-8.56.09-10.56l21.39.58Z" style="fill:#0096a1"/><path d="M379.25 342.31a38.55 38.55 0 0 1 .16 3.89v7.61H386v-4.46a36.89 36.89 0 0 1 .5-6Z" style="fill:#b16668"/><path d="M379.4 350.55v-.95c-.18 1.44-4.3 6.86-6.92 9.25-2.09 1.91-4.94 4.11-5.67 6.24s3.37 3.08 6.07 2.81a10.93 10.93 0 0 0 6.8-3.56 32.71 32.71 0 0 0 2.93-4.36c.8-1.08 4.4-3.3 4.84-4.56a8.17 8.17 0 0 0-.38-3.47c-.31-1.17-.64-2.46-1-2.35v.72a5.26 5.26 0 0 1-3.31 1.12c-1.01.04-3.36-.15-3.36-.89Z" style="fill:#263238"/><path d="M386 350.32a5.26 5.26 0 0 1-3.31 1.12c-1 0-3.32-.15-3.32-.89v-.95c-.18 1.44-4.3 6.86-6.92 9.25-.5.46-1.05.93-1.6 1.42-1.11 1.24-.79 2.32 1.82 2.54s4.91-1.35 6.89-3.78 6.44-8.71 6.44-8.71Zm13.48 3.21c.13 1.6.13 3.27.16 4v7.61h6.62v-4.46a36.88 36.88 0 0 1 .49-6Z" style="fill:#b16668"/><path d="M399.63 361.87v-.95c-.19 1.44-4.3 6.86-6.93 9.25-2.09 1.91-4.94 4.11-5.66 6.23s3.36 3.09 6.07 2.82a10.9 10.9 0 0 0 6.79-3.56 33 33 0 0 0 2.94-4.36c.8-1.08 4.4-3.3 4.83-4.56a7.86 7.86 0 0 0-.38-3.47c-.3-1.17-.64-2.46-1-2.35v.72a5.26 5.26 0 0 1-3.31 1.12c-.98.04-3.36-.15-3.35-.89Z" style="fill:#263238"/><path d="M406.25 361.64a5.26 5.26 0 0 1-3.31 1.12c-1 0-3.32-.15-3.31-.89v-.95c-.19 1.44-4.3 6.86-6.93 9.25-.5.46-1 .93-1.59 1.42-1.11 1.24-.79 2.32 1.82 2.54s4.9-1.35 6.88-3.78 6.44-8.71 6.44-8.71Z" style="fill:#b16668"/><path d="M379.25 345.45c-1.42-11.67-3.74-31.85-4.42-36.26-.63-4.08.95-39 1.92-50.12l34.5-1.85c2.62 11.24.06 26.4-.83 35.87-.88 9.21-2 20-2 20s2.69 9.39 2 16.86c-.46 4.71-2.57 18.92-3.57 25a8.16 8.16 0 0 1-7.57-.1c.11 1.29-1.23-15.74-2-22.62-1.1-9.55-1.52-16.51-2.5-22.09-1.23-7-1.65-34.22-1.65-34.22l-4 30.93a74.92 74.92 0 0 1 .63 10c0 6.91-2.55 22.61-3.35 28.48-1.73 1.23-5.25 1.6-7.16.12Z" style="fill:#455a64"/><path d="M393.12 275.9s-6.31-2.21-9.9-5.51a17.75 17.75 0 0 0 7.39 6.47l.06 18.1 2.45-19.06" style="fill:#37474f"/><path d="M398.14 211.74s9.37 1.08 10.49 1.58c-5.71 6.25.37 11.43.37 11.43l-4.35 19.14c3.75 4.79 5.89 8.49 6.79 14.2-4 7.08-26.57 8.06-34.84 2.79.72-9.87 2.33-16.94 1.79-19.91-3.93-12.12-2.71-14.66-2.34-17.43.72-5.41 6.09-10.12 9.16-12.1h2.86Z" style="fill:#f0f0f0"/><path d="M382 183.1c-1.68 1-3.76 5.22-3.55 14.08.17 7.51 2.61 9.36 3.83 9.9s3.58.21 5.87-.18v4.51s-3.17 3.68-3 5.75 4.57 2.55 7.54.53a24.05 24.05 0 0 0 5.46-5.95l-.05-10.36s1.34 1.31 3.63-.69c1.89-1.65 2.52-4.44 1-5.93a3.29 3.29 0 0 0-5.23 1s-1.27-3.53-6.55-5.26c-4.73-1.5-7.32-3.31-8.95-7.4Z" style="fill:#b16668"/><path d="M387.3 195.29a1 1 0 0 0 .89 1 1 1 0 0 0 1-.94.95.95 0 1 0-1.89-.09Z" style="fill:#263238"/><path d="m387.05 201.66-2.19.7a1.12 1.12 0 0 0 1.42.78 1.2 1.2 0 0 0 .77-1.48Z" style="fill:#9a4a4d"/><path d="m379.56 192.39 1.91-1.32a1.12 1.12 0 0 0-1.59-.33 1.23 1.23 0 0 0-.32 1.65Zm10.49.7-1.91-1.32a1.12 1.12 0 0 1 1.59-.33 1.23 1.23 0 0 1 .32 1.65ZM380 194.61a1 1 0 0 0 .89 1 1 1 0 0 0 1-.93.95.95 0 1 0-1.89-.09Z" style="fill:#263238"/><path style="fill:#9a4a4d" d="m384.45 194.07-.15 5.68-2.99-.92 3.14-4.76zm3.66 12.83c2.41-.31 7.38-1.74 8.16-3.7a5.08 5.08 0 0 1-1.75 2.5c-1.48 1.27-6.41 2.71-6.41 2.71Z"/><path style="fill:#e0e0e0" d="m406.59 235.34-7.99 11.67 6.05-3.12 1.94-8.55z"/><path d="m402.89 215.87-18.75 19.39s-18.41-1.81-24.66-3.6c-2-.57-3.56-3.27-4-5.54a2.85 2.85 0 0 0-2.19-2.51v4.55c-.16 1.15-.72 1.74-2.36 1.78-6.32.14-9.25-1.78-10 1.65-.49 2.19.46 4.68 4.63 5.83 5.86 1.6 9.1.8 12.66 1.69 2.75.68 21.94 4.33 25.71 5.15 2 .44 3.51.3 5.68-1.84S408 225.08 408 225.08c5-5 3.52-10.13.74-11.66-1.74-.95-3.64.17-5.85 2.45Z" style="fill:#b16668"/><path d="M408.63 213.32c1.21.49 2.69 1.78 2.81 5.12s-2.35 6.38-5.26 9.86-3.79 4.4-3.79 4.4-7.36-2.68-8.61-8.15c0 0 5.55-5.88 7.21-7.76s4.72-4.79 7.64-3.47Z" style="fill:#0096a1"/><path d="m370.63 86.78 6.95 4a7.22 7.22 0 0 1-.06-.92v-2c0-3.58 2.52-5 5.62-3.24a11 11 0 0 1 3.35 3.22c.51-4.51 4-6.18 8.34-3.71 4.64 2.69 8.41 9.21 8.41 14.57v3a7.85 7.85 0 0 1-.72 3.49l5.78 3.33a6.92 6.92 0 0 1 3.12 5.4c0 2-1.4 2.8-3.12 1.8L370.63 94a6.89 6.89 0 0 1-3.12-5.4c0-2.01 1.4-2.82 3.12-1.82ZM340.88 107l5.24 3v-2.22c0-2.7 1.9-3.8 4.24-2.44a8.09 8.09 0 0 1 2.53 2.43c.38-3.4 3-4.67 6.29-2.8a14 14 0 0 1 6.35 11v2.27a6 6 0 0 1-.54 2.64l4.36 2.51a5.21 5.21 0 0 1 2.35 4.08c0 1.5-1.05 2.11-2.35 1.36l-28.43-16.42a5.2 5.2 0 0 1-2.36-4.07c-.04-1.45 1.02-2.06 2.32-1.34Z" style="fill:#ebebeb"/></svg>