<?xml version="1.0" encoding="UTF-8"?><svg id="Layer_1" xmlns="http://www.w3.org/2000/svg" viewBox="0 0 403.3 373.64"><defs><style>.cls-1,.cls-2,.cls-3,.cls-4{fill:#0096a1;}.cls-5{fill:#ebebeb;}.cls-6{fill:#f28f8f;}.cls-7{fill:#f0f0f0;}.cls-8{fill:#e6e6e6;}.cls-9{fill:#f5f5f5;}.cls-10,.cls-11,.cls-12,.cls-13,.cls-14,.cls-15,.cls-16,.cls-17,.cls-18{fill:#fff;}.cls-19{fill:#ffa8a7;}.cls-20{fill:#fafafa;}.cls-21{fill:#e0e0e0;}.cls-22{fill:#b16668;}.cls-23{fill:#37474f;}.cls-24{fill:#455a64;}.cls-25{fill:#263238;}.cls-2,.cls-11,.cls-3,.cls-12,.cls-13,.cls-26,.cls-14,.cls-15,.cls-16,.cls-17,.cls-18,.cls-4,.cls-27,.cls-28,.cls-29,.cls-30,.cls-31,.cls-32{isolation:isolate;}.cls-2,.cls-11,.cls-30{opacity:.2;}.cls-3,.cls-12,.cls-33,.cls-29{opacity:.3;}.cls-13,.cls-28{opacity:.15;}.cls-26{opacity:.1;}.cls-14{opacity:.5;}.cls-15{opacity:.55;}.cls-16{opacity:.6;}.cls-17,.cls-32{opacity:.45;}.cls-18,.cls-31{opacity:.25;}.cls-4{opacity:.4;}.cls-27{opacity:.05;}.cls-34{opacity:.65;}</style></defs><path class="cls-20" d="M59.06,174.9c-78.75,45.46-78.75,119.18,0,164.64,78.75,45.46,206.43,45.47,285.18,0,78.74-45.47,78.75-119.18,0-164.64-78.75-45.46-206.43-45.47-285.18,0h0Z"/><path class="cls-21" d="M305.98,216.37c-19.49,11.25-19.49,29.49,0,40.74,19.49,11.25,51.08,11.25,70.57,0,19.49-11.25,19.49-29.5,0-40.74s-51.08-11.27-70.57,0Zm-242.81-14.84c-11.55,6.69-11.55,17.53,0,24.22,11.55,6.69,30.4,6.69,41.95-.02,11.55-6.72,11.59-17.53,0-24.22-11.59-6.69-30.36-6.67-41.95,.02Zm51.85-28.35c-11.24,6.49-11.24,17.01,0,23.51,11.24,6.49,29.46,6.49,40.7,0s11.25-17.01,0-23.51-29.44-6.49-40.7,0h0Zm261.87,112.37l-3.98-2.3c-.92-.47-2.01-.44-2.9,.07l-73.3,43.46c-4-2.33-9.54-3.78-15.68-3.78-12.23,0-22.14,5.78-22.14,12.92s9.9,12.92,22.14,12.92,22.13-5.78,22.13-12.92c-.07-2.38-1.07-4.64-2.79-6.29l76.44-42.46c.87-.4,.89-1.16,.07-1.63Z"/><path class="cls-5" d="M13.93,182.59c0,1.23,.83,2.48,2.48,3.41l21.39,12.38c3.7,1.88,8.08,1.88,11.78,0l54.55-31.49c1.65-.94,2.48-2.18,2.48-3.41v-31.25c0-1.23-.83-2.48-2.48-3.4l-21.39-12.38c-3.7-1.88-8.08-1.88-11.78,0l-54.59,31.53c-1.65,.94-2.48,2.17-2.48,3.41l.03,31.2Z"/><path class="cls-8" d="M16.38,147.98l27.28-15.74v67.52c-2.05,.04-4.08-.45-5.89-1.41l-21.39-12.38c-1.65-.94-2.48-2.18-2.48-3.41v-31.17c.03-1.24,.85-2.47,2.48-3.41h0Z"/><path class="cls-9" d="M82.72,116.49l21.38,12.38c1.65,.94,2.48,2.17,2.48,3.41s-.83,2.48-2.48,3.4l-54.55,31.48c-3.7,1.88-8.08,1.88-11.78,0l-21.39-12.38c-1.65-.94-2.48-2.17-2.48-3.4s.83-2.48,2.48-3.41l54.55-31.48c3.7-1.88,8.09-1.88,11.79,0Z"/><path class="cls-5" d="M17.87,150.97c0,1.06,.7,2.14,2.12,2.95l18.56,10.73c3.22,1.63,7.02,1.63,10.24,0l52.31-30.16c1.42-.83,2.12-1.89,2.12-2.95v-60.17c0-1.07-.7-2.14-2.12-2.95l-18.56-10.73c-3.21-1.63-7.02-1.63-10.23,0l-52.32,30.17c-1.42,.83-2.12,1.88-2.12,2.95v60.16Z"/><path class="cls-20" d="M94.86,84.02l-43.21,24.93-4.08,7.05v41.67l4.08,2.36,43.21-24.93,4.08-7.07v-41.63l-4.08-2.36Z"/><path class="cls-8" d="M19.99,87.86l23.67,10.95v67.06c-1.78,.03-3.54-.39-5.12-1.22l-18.56-10.7c-1.42-.83-2.12-1.89-2.12-2.95v-60.18c0-1.07,.7-2.14,2.12-2.95Z"/><path class="cls-26" d="M19.99,87.86l52.32-30.16c3.21-1.63,7.02-1.63,10.23,0l18.56,10.73c1.42,.83,2.12,1.88,2.12,2.95v9.26l-53.63,30.98c-3.7,1.88-8.08,1.88-11.78,0l-19.93-11.49v-9.31c0-1.07,.7-2.14,2.12-2.95h0Z"/><path class="cls-9" d="M82.54,57.69l18.56,10.73c1.42,.83,2.12,1.88,2.12,2.95s-.7,2.14-2.12,2.95l-52.32,30.16c-3.21,1.63-7.02,1.63-10.23,0l-18.56-10.73c-1.41-.83-2.12-1.88-2.12-2.95s.7-2.14,2.12-2.95l52.32-30.16c3.22-1.63,7.02-1.63,10.23,0Z"/><path class="cls-5" d="M13.93,90.41c0,1.24,.83,2.48,2.48,3.41l21.39,12.38c3.7,1.88,8.08,1.88,11.78,0l54.55-31.49c1.65-.94,2.48-2.17,2.48-3.41v-31.27c0-1.24-.83-2.48-2.48-3.41l-21.39-12.38c-3.7-1.88-8.08-1.88-11.78,0L16.38,55.76c-1.65,.94-2.48,2.17-2.48,3.41l.03,31.25Z"/><path class="cls-8" d="M16.38,55.76l27.28-15.73V107.54c-2.05,.04-4.08-.45-5.89-1.41l-21.39-12.38c-1.65-.94-2.48-2.17-2.48-3.41v-31.17c.03-1.24,.85-2.47,2.48-3.42Z"/><path class="cls-9" d="M82.72,24.28l21.38,12.38c1.65,.94,2.48,2.17,2.48,3.41s-.83,2.48-2.48,3.4l-54.55,31.46c-3.7,1.88-8.08,1.88-11.78,0l-21.39-12.38c-1.65-.94-2.48-2.17-2.48-3.4s.83-2.48,2.48-3.41l54.55-31.46c3.7-1.88,8.09-1.88,11.79,0Z"/><path class="cls-5" d="M44.16,36.59v12.57c0,2.29,1.51,4.57,4.53,6.32,6.04,3.48,15.82,3.48,21.86,0,3.02-1.75,4.53-4.03,4.53-6.32v-12.57h-30.92Z"/><path class="cls-9" d="M48.69,42.91c6.04,3.49,15.82,3.49,21.86,0s6.04-9.14,0-12.62-15.82-3.49-21.86,0-6.04,9.14,0,12.62Z"/><path class="cls-21" d="M43.65,9.22v28.11c0,2.36,1.56,4.72,4.68,6.52,6.23,3.6,16.34,3.6,22.57,0,3.12-1.8,4.68-4.13,4.68-6.52V9.22h-31.93Z"/><path class="cls-26" d="M43.65,9.22v28.11c0,2.36,1.56,4.72,4.68,6.52,6.23,3.6,16.34,3.6,22.57,0,3.12-1.8,4.68-4.13,4.68-6.52V9.22h-31.93Z"/><path class="cls-21" d="M48.33,15.74c6.23,3.61,16.34,3.61,22.57,0s6.24-9.43,0-13.04-16.34-3.6-22.57,0-6.24,9.44,0,13.04Z"/><path class="cls-1" d="M154.57,181.39v-18.61h-38.44v18.61c0,3.3,1.49,6.35,5.64,8.75,7.52,4.34,19.71,4.34,27.23,0,4.15-2.38,5.57-5.59,5.57-8.75Z"/><path class="cls-1" d="M116.13,181.39c0,3.3,1.49,6.35,5.64,8.75,7.52,4.34,19.71,4.34,27.23,0,4.13-2.4,5.57-5.59,5.57-8.75"/><path class="cls-28" d="M149.01,184.14c-7.52,4.35-19.71,4.35-27.23,0-4.13-2.39-5.64-5.44-5.64-8.75v1.49c0,3.3,1.49,6.36,5.64,8.75,7.52,4.34,19.71,4.34,27.23,0,4.13-2.39,5.57-5.59,5.57-8.75v-1.49c0,3.15-1.42,6.35-5.57,8.75Z"/><path class="cls-23" d="M110.95,42.77c.1-1.83,1.07-3.51,2.61-4.51l43.66-25.21c1.44-.83,2.6-.16,2.6,1.5v11.1l-48.87,28.22v-11.1Z"/><path class="cls-24" d="M161.31,162.78l-1.49-137.13-48.87,28.22-1.48,108.91c0,3.83,2.52,7.66,7.59,10.58,10.12,5.84,26.53,5.84,36.65,0,5.03-2.91,7.59-6.75,7.59-10.58h0Z"/><path class="cls-24" d="M161.31,162.78l-1.49-137.13-48.87,28.22-1.48,108.91c0,3.83,2.52,7.66,7.59,10.58,10.12,5.84,26.53,5.84,36.65,0,5.03-2.91,7.59-6.75,7.59-10.58h0Z"/><path class="cls-30" d="M117.07,173.37c10.12,5.84,26.53,5.84,36.65,0,1.76-.99,3.36-2.25,4.73-3.74-5.19,4.4-12.01,6.36-18.75,5.38-8.73-1.29-15.21-7.26-18.65-32.31s-5.4-84.7-6.21-94.12,1.19-11.74,7.34-15.3l-8.61,4.95c-1.54,1-2.5,2.68-2.61,4.51v11.1l-1.48,108.91c0,3.86,2.52,7.69,7.59,10.61h0Z"/><path class="cls-1" d="M134.2,122.59c-1.65,0-3,.77-3,1.92s1.34,2.21,3,2.24c6.85,.15,13.78-1.25,18.98-4.27,5-2.89,7.57-6.6,7.57-10.41l-.05-4.21c0,3.78-2.48,7.57-7.52,10.45-5.2,3.04-12.13,4.44-18.98,4.27Z"/><path class="cls-10" d="M148.73,101.32c1.39-.83,2.36,.35,2.87,2.36,.41,2.01,.64,4.05,.7,6.11,.04,1.21,.98,1.34,1.82-.57,.94-2.43,1.43-5.02,1.44-7.63,.1-3.99-.43-5.16-.23-7.62,.21-2.64,1.2-5.38,1-8.52s-1.48-6.22-4.06-5.5-3.3,3.15-4.65,3.93-2.32-.67-4.8,1.53-3.3,6.49-3.09,9.64,1.44,4.6,1.96,6.82c.49,2.06,.14,3.75,.72,7.33,.44,2.71,1.25,4.64,2.27,5.49s1.87-.32,1.76-1.49c-.2-2.15-.23-4.31-.09-6.46,.23-2.43,1-4.6,2.38-5.4h0Z"/><path class="cls-1" d="M161.31,162.78c0,3.84-2.52,7.66-7.59,10.59-10.12,5.84-26.53,5.84-36.65,0-2.23-1.22-4.18-2.91-5.69-4.95-1.2-1.63-1.87-3.6-1.9-5.63l.31-22.78c.18,3.64,2.68,7.24,7.49,10.02,10.01,5.78,26.25,5.78,36.26,0,5.01-2.9,7.52-6.68,7.52-10.48l.25,23.23Z"/><path class="cls-16" d="M161.31,162.78c0,3.84-2.52,7.66-7.59,10.59-10.12,5.84-26.53,5.84-36.65,0-2.23-1.22-4.18-2.91-5.69-4.95-1.2-1.63-1.87-3.6-1.9-5.63l.31-22.78c.18,3.64,2.68,7.24,7.49,10.02,10.01,5.78,26.25,5.78,36.26,0,5.01-2.9,7.52-6.68,7.52-10.48l.25,23.23Z"/><path class="cls-4" d="M158.44,169.62c-5.19,4.4-12.01,6.36-18.75,5.38-7.43-1.11-13.28-5.64-16.97-22.61-1.89-.6-3.72-1.4-5.45-2.38-4.81-2.78-7.31-6.38-7.49-10.02l-.31,22.78c.03,2.03,.7,3.99,1.9,5.63,1.52,2.04,3.46,3.73,5.69,4.95,10.12,5.84,26.53,5.84,36.65,0h.07c.4-.24,.83-.49,1.16-.73l.28-.19c.4-.26,.77-.54,1.12-.83,.36-.29,.7-.59,1.02-.88l.1-.09c.36-.36,.68-.68,.97-1.01h0Z"/><path class="cls-1" d="M60.86,138.08c0-3.38,2.24-6.76,6.7-9.34,8.94-5.16,23.42-5.16,32.35,0,4.46,2.58,6.7,5.96,6.7,9.34v72.3c0,3.38-2.24,6.76-6.7,9.34-8.94,5.16-23.42,5.16-32.35,0-4.46-2.58-6.7-5.96-6.7-9.34v-72.3Z"/><path class="cls-3" d="M98.59,218.68c-8.25,4.13-21.51,4.13-29.7,0-8.19-4.13-8.2-10.81,0-14.93,8.2-4.13,21.52-4.13,29.7,0,8.18,4.13,8.18,10.81,0,14.93Z"/><path class="cls-30" d="M97.95,217.26c-7.85,4.53-20.58,4.53-28.43,0s-7.85-11.88,0-16.41,20.63-4.54,28.43,0c7.81,4.54,7.85,11.88,0,16.41Z"/><path class="cls-1" d="M99.91,147.42c-8.94,5.16-23.42,5.16-32.35,0-8.94-5.16-8.94-13.52,0-18.68s23.42-5.16,32.35,0,8.93,13.52,0,18.68Z"/><path class="cls-11" d="M99.91,147.42c-8.94,5.16-23.42,5.16-32.35,0-8.94-5.16-8.94-13.52,0-18.68s23.42-5.16,32.35,0,8.93,13.52,0,18.68Z"/><path class="cls-30" d="M97.95,146.28c-7.85,4.54-20.58,4.54-28.43,0-7.85-4.54-7.85-11.87,0-16.41s20.63-4.53,28.43,0c7.81,4.53,7.85,11.88,0,16.41Z"/><path class="cls-24" d="M73.15,104.13l-2.48-1.04,15.68,110.56c.08,1.07,.74,2.02,1.72,2.48l2.37,1.01h.09c.09,.04,.19,.08,.29,.11l.3,.07h.64c.7-.05,1.38-.26,1.97-.63,.91-.55,1.64-1.35,2.12-2.3,.49-.9,.7-1.93,.59-2.95l-15.82-111.62-7.48,4.32Z"/><path class="cls-23" d="M73.15,104.13l15.68,110.56c.08,1.06,.7,2,1.65,2.48h.09c.09,.04,.19,.08,.29,.11l.3,.07h.64c.7-.05,1.38-.26,1.97-.63,.91-.55,1.64-1.35,2.12-2.3,.49-.9,.7-1.93,.59-2.95l-15.86-111.65-7.48,4.32Z"/><path d="M75.47,75.88c-1.5-.54-3.18-.34-4.5,.55-3.61,2.31-5.63,6.45-5.23,10.73l1.72,12.09c.34,1.77,1.57,3.24,3.25,3.88l2.48,1.04,7.48-4.32c1.38-2.68,1.89-5.72,1.46-8.7l-1.44-10.14c-.11-1.73-1.15-3.27-2.71-4.03l-2.5-1.09Z"/><path class="cls-23" d="M73.15,104.13l7.48-4.32c1.38-2.68,1.89-5.72,1.46-8.7l-1.44-10.14c-.56-3.92-3.8-5.49-7.24-3.5-3.61,2.32-5.63,6.45-5.22,10.73l1.72,12.09c.34,1.77,1.57,3.24,3.25,3.88v-.03Z"/><path class="cls-21" d="M80.5,94.02c-.12-.03-.24-.01-.35,.06-.28,.16-.44,.46-.41,.78,0,.11,.07,.22,.17,.27l6.93,3.55,1.08-2.08-7.43-2.58Z"/><path class="cls-26" d="M86.84,98.67l.38-.73c-2.22-.89-5.95-2.48-6.6-2.8s-.83-.63-.66-.93c-.16,.17-.24,.4-.22,.64,0,.11,.07,.22,.17,.27l6.93,3.55Z"/><path class="cls-5" d="M86.51,98.17c.07,.53,.54,.72,1.02,.44,.51-.31,.8-.87,.77-1.47-.07-.54-.53-.73-1.02-.44-.51,.3-.81,.87-.77,1.47Z"/><path class="cls-21" d="M80.23,92.06c-.12-.03-.24-.01-.35,.06-.29,.17-.46,.49-.41,.83,0,.11,.07,.21,.17,.26l6.93,3.54,1.08-2.08-7.43-2.61Z"/><path class="cls-26" d="M86.57,96.75l.37-.73c-2.21-.89-5.94-2.48-6.6-2.8s-.83-.63-.66-.93c-.16,.17-.24,.41-.22,.64,0,.11,.07,.21,.17,.26l6.94,3.55Z"/><path class="cls-5" d="M86.24,96.24c.07,.53,.53,.73,1.02,.44,.5-.32,.79-.88,.77-1.47-.07-.53-.53-.73-1.03-.44-.51,.31-.8,.88-.76,1.47Z"/><path class="cls-21" d="M79.95,90.16c-.12-.04-.25-.02-.35,.05-.29,.17-.45,.49-.4,.83,0,.11,.07,.21,.17,.26l6.93,3.54,1.08-2.08-7.43-2.6Z"/><path class="cls-26" d="M86.3,94.82l.37-.73c-2.21-.89-5.94-2.48-6.6-2.8s-.83-.63-.66-.92c-.16,.17-.24,.4-.22,.64,0,.11,.07,.21,.17,.26l6.94,3.55Z"/><path class="cls-5" d="M85.96,94.31c.02,.35,.32,.61,.67,.58,.13,0,.26-.06,.36-.15,.5-.32,.79-.88,.77-1.47-.07-.53-.54-.73-1.03-.44-.51,.31-.8,.87-.77,1.47Z"/><path class="cls-1" d="M79.67,88.24c-.12-.03-.24-.02-.35,.05-.28,.18-.44,.49-.41,.83,.02,.11,.08,.21,.17,.27l6.93,3.54,1.08-2.08-7.43-2.61Z"/><path class="cls-26" d="M86.02,92.89l.38-.72c-2.21-.9-5.94-2.48-6.6-2.81s-.83-.63-.66-.92c-.16,.17-.25,.4-.23,.64,.02,.11,.08,.21,.17,.27l6.94,3.54Z"/><path class="cls-1" d="M85.69,92.38c.07,.53,.54,.73,1.03,.44,.51-.31,.8-.88,.76-1.47-.07-.53-.53-.73-1.02-.44-.5,.32-.79,.88-.77,1.47Z"/><path class="cls-12" d="M85.69,92.38c.07,.53,.54,.73,1.03,.44,.51-.31,.8-.88,.76-1.47-.07-.53-.53-.73-1.02-.44-.5,.32-.79,.88-.77,1.47Z"/><path class="cls-1" d="M79.4,86.29c-.12-.04-.24-.02-.35,.05-.28,.17-.44,.49-.41,.83,0,.11,.07,.22,.17,.27l6.93,3.54,1.08-2.08-7.43-2.61Z"/><path class="cls-26" d="M85.75,90.96l.38-.72c-2.22-.9-5.95-2.48-6.6-2.8s-.83-.64-.66-.93c-.16,.17-.24,.4-.22,.64,0,.11,.07,.22,.17,.27l6.93,3.54Z"/><path class="cls-1" d="M85.42,90.46c.07,.52,.54,.72,1.03,.43,.51-.31,.8-.88,.76-1.47-.07-.53-.53-.73-1.02-.44-.51,.31-.81,.88-.77,1.48Z"/><path class="cls-12" d="M85.42,90.46c.07,.52,.54,.72,1.03,.43,.51-.31,.8-.88,.76-1.47-.07-.53-.53-.73-1.02-.44-.51,.31-.81,.88-.77,1.48Z"/><path class="cls-1" d="M79.13,84.37c-.12-.04-.24-.02-.35,.05-.29,.17-.46,.49-.41,.83,0,.11,.07,.22,.17,.27l6.93,3.55,1.08-2.08-7.43-2.62Z"/><path class="cls-26" d="M85.48,89.04l.38-.73c-2.22-.9-5.95-2.48-6.6-2.8s-.83-.64-.66-.93c-.16,.17-.24,.4-.22,.64,0,.11,.07,.22,.17,.27l6.93,3.55Z"/><path class="cls-1" d="M85.15,88.52c.03,.35,.33,.6,.67,.58,.13,0,.25-.06,.35-.14,.5-.32,.8-.88,.77-1.48-.07-.53-.53-.72-1.03-.44-.5,.32-.79,.88-.76,1.48Z"/><path class="cls-12" d="M85.15,88.52c.03,.35,.33,.6,.67,.58,.13,0,.25-.06,.35-.14,.5-.32,.8-.88,.77-1.48-.07-.53-.53-.72-1.03-.44-.5,.32-.79,.88-.76,1.48Z"/><path class="cls-21" d="M78.86,82.44c-.12-.03-.24-.01-.35,.05-.29,.17-.46,.49-.41,.83,0,.11,.07,.22,.17,.27l6.93,3.55,1.08-2.08-7.43-2.62Z"/><path class="cls-26" d="M85.2,87.11l.37-.73c-2.21-.89-5.94-2.48-6.6-2.8s-.83-.64-.66-.93c-.16,.17-.24,.4-.22,.64,0,.11,.07,.22,.17,.27l6.94,3.55Z"/><path class="cls-5" d="M84.87,86.59c.07,.53,.53,.72,1.02,.44,.5-.32,.8-.88,.77-1.48-.07-.53-.53-.72-1.03-.44-.5,.32-.79,.88-.76,1.48Z"/><path class="cls-21" d="M78.58,80.51c-.12-.03-.24-.01-.35,.06-.29,.17-.45,.49-.4,.83,0,.11,.07,.21,.17,.26l6.93,3.55,1.08-2.08-7.43-2.62Z"/><path class="cls-26" d="M84.93,85.18l.37-.73c-2.21-.89-5.94-2.48-6.6-2.8s-.83-.63-.66-.93c-.16,.17-.24,.41-.22,.64,0,.11,.07,.21,.17,.26l6.94,3.55Z"/><path class="cls-5" d="M84.59,84.64c.08,.53,.54,.72,1.03,.44,.5-.32,.79-.88,.77-1.47-.07-.53-.54-.73-1.03-.44-.51,.31-.81,.87-.77,1.47Z"/><path class="cls-21" d="M78.31,78.58c-.12-.04-.25-.02-.35,.05-.28,.17-.44,.49-.41,.83,.01,.11,.08,.21,.17,.26l6.93,3.54,1.08-2.08-7.43-2.6Z"/><path class="cls-26" d="M84.65,83.24l.38-.73c-2.21-.89-5.94-2.48-6.6-2.8s-.83-.63-.66-.93c-.17,.17-.25,.41-.23,.64,.01,.11,.08,.21,.17,.26l6.94,3.55Z"/><path class="cls-5" d="M84.32,82.73c.07,.53,.54,.73,1.03,.44,.51-.31,.8-.88,.76-1.47-.07-.53-.53-.73-1.02-.44-.51,.31-.8,.87-.77,1.47Z"/><path class="cls-21" d="M78.86,98.1c-.12-.04-.24-.02-.35,.05-.28,.17-.44,.49-.41,.83,0,.11,.07,.22,.17,.27l6.93,3.54,1.08-2.08-7.43-2.61Z"/><path class="cls-26" d="M85.2,102.79l.38-.72c-2.22-.9-5.95-2.48-6.6-2.81s-.83-.63-.66-.92c-.16,.17-.24,.4-.22,.64,0,.11,.07,.22,.17,.27l6.93,3.54Z"/><path class="cls-5" d="M84.87,102.24c.02,.34,.31,.6,.65,.59,.14,0,.27-.06,.37-.15,.51-.31,.81-.87,.77-1.47-.07-.53-.53-.73-1.02-.44-.51,.31-.81,.87-.77,1.47Z"/><path class="cls-21" d="M78.59,96.19c-.12-.04-.24-.02-.35,.05-.29,.17-.46,.49-.41,.83,0,.11,.07,.22,.17,.27l6.93,3.54,1.08-2.08-7.43-2.61Z"/><path class="cls-26" d="M84.93,100.82l.37-.72c-2.21-.9-5.94-2.48-6.6-2.8s-.83-.64-.66-.93c-.16,.17-.24,.4-.22,.64,0,.11,.07,.22,.17,.27l6.94,3.54Z"/><path class="cls-5" d="M84.6,100.32c.03,.35,.33,.6,.67,.58,.13,0,.25-.06,.35-.14,.5-.32,.8-.88,.77-1.48-.07-.53-.53-.73-1.03-.44-.5,.32-.79,.88-.76,1.48Z"/><path class="cls-21" d="M78.31,94.23c-.11-.03-.24-.01-.34,.05-.29,.17-.46,.49-.41,.83,0,.11,.07,.22,.17,.27l6.93,3.55,1.08-2.08-7.43-2.62Z"/><path class="cls-26" d="M84.66,98.9l.37-.73c-2.21-.89-5.94-2.48-6.6-2.8s-.83-.64-.66-.93c-.16,.17-.24,.4-.22,.64,0,.11,.07,.22,.17,.27l6.94,3.55Z"/><path class="cls-5" d="M84.33,98.38c.07,.53,.53,.72,1.02,.44,.5-.32,.8-.88,.77-1.48-.07-.53-.54-.72-1.03-.44-.51,.31-.8,.88-.76,1.48Z"/><path class="cls-21" d="M78.03,92.3c-.12-.03-.24-.01-.35,.06-.27,.17-.43,.47-.41,.78,.01,.11,.08,.22,.18,.27l6.93,3.55,1.08-2.08-7.43-2.58Z"/><path class="cls-26" d="M84.38,96.97l.38-.73c-2.21-.89-5.94-2.48-6.6-2.8s-.83-.63-.66-.93c-.16,.17-.25,.4-.23,.64,.01,.11,.08,.22,.18,.27l6.93,3.55Z"/><path class="cls-5" d="M84.05,96.45c.07,.53,.54,.72,1.03,.44,.5-.32,.79-.88,.77-1.47-.07-.54-.54-.73-1.03-.44-.51,.31-.81,.87-.77,1.47Z"/><path class="cls-1" d="M77.76,90.41c-.12-.03-.24-.01-.35,.06-.29,.17-.46,.49-.41,.83,0,.11,.07,.21,.17,.26l6.93,3.54,1.08-2.08-7.43-2.61Z"/><path class="cls-26" d="M84.11,95.03l.38-.73c-2.21-.89-5.94-2.48-6.6-2.8s-.83-.63-.66-.93c-.16,.18-.24,.41-.22,.64,0,.11,.07,.21,.17,.26l6.93,3.55Z"/><path class="cls-1" d="M83.78,94.54c.07,.53,.54,.73,1.03,.44,.51-.31,.8-.88,.76-1.47-.07-.53-.53-.73-1.02-.44-.51,.31-.81,.87-.77,1.47Z"/><path class="cls-12" d="M83.78,94.54c.07,.53,.54,.73,1.03,.44,.51-.31,.8-.88,.76-1.47-.07-.53-.53-.73-1.02-.44-.51,.31-.81,.87-.77,1.47Z"/><path class="cls-1" d="M77.49,88.44c-.12-.04-.25-.02-.35,.05-.29,.17-.46,.49-.41,.83,0,.11,.07,.22,.17,.27l6.93,3.54,1.08-2.08-7.43-2.61Z"/><path class="cls-26" d="M83.83,93.1l.38-.73c-2.22-.89-5.95-2.48-6.6-2.8s-.83-.63-.66-.92c-.16,.17-.24,.4-.22,.64,0,.11,.07,.22,.17,.27l6.93,3.54Z"/><path class="cls-1" d="M83.5,92.59c.02,.34,.31,.6,.65,.59,.14,0,.27-.06,.37-.15,.51-.31,.81-.87,.77-1.47-.07-.53-.53-.73-1.02-.44-.51,.31-.81,.87-.77,1.47Z"/><path class="cls-12" d="M83.5,92.59c.02,.34,.31,.6,.65,.59,.14,0,.27-.06,.37-.15,.51-.31,.81-.87,.77-1.47-.07-.53-.53-.73-1.02-.44-.51,.31-.81,.87-.77,1.47Z"/><path class="cls-1" d="M77.22,86.52c-.12-.04-.24-.02-.35,.05-.29,.17-.46,.49-.41,.83,0,.11,.07,.22,.17,.27l6.93,3.54,1.08-2.08-7.43-2.61Z"/><path class="cls-26" d="M83.56,91.17l.37-.72c-2.21-.9-5.94-2.48-6.6-2.81s-.83-.63-.66-.92c-.16,.17-.24,.4-.22,.64,0,.11,.07,.22,.17,.27l6.94,3.54Z"/><path class="cls-1" d="M83.23,90.66c.02,.34,.31,.6,.65,.59,.14,0,.27-.06,.37-.15,.5-.32,.79-.88,.77-1.47-.07-.53-.53-.73-1.03-.44-.51,.31-.8,.88-.76,1.47Z"/><path class="cls-12" d="M83.23,90.66c.02,.34,.31,.6,.65,.59,.14,0,.27-.06,.37-.15,.5-.32,.79-.88,.77-1.47-.07-.53-.53-.73-1.03-.44-.51,.31-.8,.88-.76,1.47Z"/><path class="cls-21" d="M76.94,84.59c-.12-.03-.24-.02-.35,.05-.29,.17-.45,.49-.4,.83,0,.11,.07,.22,.17,.27l6.93,3.54,1.08-2.08-7.43-2.61Z"/><path class="cls-26" d="M83.29,89.24l.37-.72c-2.21-.9-5.94-2.48-6.6-2.8s-.83-.64-.66-.93c-.16,.17-.24,.4-.22,.64,0,.11,.07,.22,.17,.27l6.94,3.54Z"/><path class="cls-5" d="M82.96,88.76c.07,.52,.53,.72,1.02,.44,.5-.32,.8-.88,.77-1.48-.07-.53-.54-.73-1.03-.44-.51,.31-.8,.88-.76,1.48Z"/><path class="cls-21" d="M76.66,82.66c-.12-.03-.24-.02-.35,.05-.28,.18-.44,.49-.41,.83,.02,.11,.08,.21,.18,.27l6.93,3.55,1.08-2.08-7.43-2.62Z"/><path class="cls-26" d="M83.01,87.32l.38-.73c-2.21-.89-5.94-2.48-6.6-2.8s-.83-.64-.66-.93c-.16,.17-.25,.4-.23,.64,.02,.11,.08,.21,.18,.27l6.93,3.55Z"/><path class="cls-5" d="M82.68,86.81c.07,.52,.54,.72,1.03,.44,.5-.32,.79-.88,.76-1.48-.07-.53-.53-.72-1.02-.44-.5,.32-.8,.88-.77,1.48Z"/><path class="cls-21" d="M76.39,80.73c-.12-.03-.24-.01-.35,.05-.28,.17-.44,.49-.41,.83,0,.11,.07,.22,.17,.27l6.93,3.55,1.08-2.08-7.43-2.62Z"/><path class="cls-26" d="M82.74,85.39l.38-.73c-2.21-.89-5.95-2.48-6.6-2.8s-.83-.64-.66-.93c-.16,.17-.24,.4-.22,.64,0,.11,.07,.22,.17,.27l6.93,3.55Z"/><path class="cls-5" d="M82.41,84.88c.07,.53,.54,.72,1.03,.44,.5-.32,.79-.88,.76-1.48-.07-.53-.53-.72-1.02-.44-.5,.32-.8,.88-.77,1.48Z"/><path class="cls-21" d="M76.12,78.8c-.12-.03-.24-.01-.35,.06-.29,.17-.46,.49-.41,.83,0,.11,.07,.21,.17,.26l6.93,3.54,1.08-2.08-7.43-2.61Z"/><path class="cls-26" d="M82.46,83.46l.38-.73c-2.22-.89-5.95-2.48-6.6-2.8s-.83-.63-.66-.93c-.16,.17-.24,.41-.22,.64,0,.11,.07,.21,.17,.26l6.93,3.55Z"/><path class="cls-5" d="M82.13,82.99c.07,.53,.54,.72,1.02,.44,.51-.31,.8-.87,.77-1.47-.07-.53-.53-.73-1.02-.44-.51,.3-.81,.87-.77,1.47Z"/><path class="cls-21" d="M76.9,100.27c-.12-.03-.24-.01-.35,.06-.29,.17-.46,.49-.41,.83,0,.12,.07,.22,.17,.27l6.93,3.55,1.08-2.08-7.43-2.62Z"/><path class="cls-26" d="M83.25,104.93l.38-.73c-2.22-.89-5.95-2.48-6.6-2.8s-.83-.63-.66-.93c-.16,.17-.24,.4-.22,.64,0,.12,.07,.22,.17,.27l6.93,3.55Z"/><path class="cls-5" d="M82.92,104.44c.07,.53,.54,.72,1.03,.44,.5-.32,.79-.88,.76-1.47-.07-.53-.53-.73-1.02-.44-.51,.3-.81,.87-.77,1.47Z"/><path class="cls-21" d="M76.63,98.34c-.12-.03-.24-.01-.35,.06-.29,.17-.46,.49-.41,.83,0,.11,.07,.21,.17,.26l6.93,3.54,1.08-2.08-7.43-2.61Z"/><path class="cls-26" d="M82.98,103l.38-.73c-2.22-.89-5.95-2.48-6.6-2.8s-.83-.63-.66-.93c-.16,.17-.24,.41-.22,.64,0,.11,.07,.21,.17,.26l6.93,3.55Z"/><path class="cls-5" d="M82.65,102.49c.02,.34,.31,.6,.65,.59,.14,0,.27-.06,.37-.15,.51-.31,.81-.87,.77-1.47-.07-.53-.53-.73-1.03-.44-.51,.31-.8,.88-.76,1.47Z"/><path class="cls-21" d="M76.36,96.4c-.12-.04-.25-.02-.35,.05-.29,.17-.46,.49-.41,.83,0,.11,.07,.22,.17,.27l6.93,3.54,1.08-2.08-7.43-2.61Z"/><path class="cls-26" d="M82.7,101.07l.37-.73c-2.21-.89-5.94-2.48-6.6-2.8s-.83-.63-.66-.92c-.16,.17-.24,.4-.22,.64,0,.11,.07,.22,.17,.27l6.94,3.54Z"/><path class="cls-5" d="M82.37,100.55c.07,.53,.53,.73,1.02,.44,.5-.32,.79-.88,.77-1.47-.07-.53-.54-.73-1.03-.44-.51,.31-.8,.88-.76,1.47Z"/><path class="cls-21" d="M76.08,94.48c-.12-.03-.24-.02-.35,.05-.29,.17-.45,.49-.4,.83,0,.11,.07,.22,.17,.27l6.93,3.54,1.08-2.08-7.43-2.61Z"/><path class="cls-26" d="M82.43,99.14l.37-.72c-2.21-.9-5.94-2.48-6.6-2.81s-.83-.63-.66-.92c-.16,.17-.24,.4-.22,.64,0,.11,.07,.22,.17,.27l6.94,3.54Z"/><path class="cls-5" d="M82.09,98.67c.07,.53,.54,.73,1.03,.44,.5-.32,.79-.88,.77-1.47-.07-.53-.54-.73-1.03-.44-.5,.32-.79,.88-.77,1.47Z"/><path class="cls-1" d="M75.81,92.55c-.12-.03-.24-.02-.35,.05-.28,.18-.44,.49-.41,.83,.02,.11,.08,.21,.17,.27l6.93,3.54,1.08-2.08-7.43-2.61Z"/><path class="cls-26" d="M82.15,97.2l.38-.72c-2.21-.9-5.94-2.48-6.6-2.8s-.83-.64-.66-.93c-.16,.17-.25,.4-.23,.64,.02,.11,.08,.21,.17,.27l6.94,3.54Z"/><path class="cls-1" d="M81.82,96.7c.07,.52,.54,.72,1.03,.44,.5-.32,.79-.88,.76-1.48-.07-.53-.53-.73-1.02-.44-.5,.32-.8,.88-.77,1.48Z"/><path class="cls-12" d="M81.82,96.7c.07,.52,.54,.72,1.03,.44,.5-.32,.79-.88,.76-1.48-.07-.53-.53-.73-1.02-.44-.5,.32-.8,.88-.77,1.48Z"/><path class="cls-1" d="M75.53,90.62c-.12-.04-.24-.02-.35,.05-.28,.17-.44,.49-.41,.83,0,.11,.07,.22,.17,.27l6.93,3.55,1.08-2.08-7.43-2.62Z"/><path class="cls-26" d="M81.88,95.28l.38-.73c-2.22-.89-5.95-2.48-6.6-2.8s-.83-.64-.66-.93c-.16,.17-.24,.4-.22,.64,0,.11,.07,.22,.17,.27l6.93,3.55Z"/><path class="cls-1" d="M81.55,94.77c.07,.52,.54,.72,1.03,.44,.5-.32,.79-.88,.76-1.48-.07-.53-.53-.72-1.02-.44-.51,.31-.81,.88-.77,1.48Z"/><path class="cls-12" d="M81.55,94.77c.07,.52,.54,.72,1.03,.44,.5-.32,.79-.88,.76-1.48-.07-.53-.53-.72-1.02-.44-.51,.31-.81,.88-.77,1.48Z"/><path class="cls-1" d="M75.26,88.69c-.12-.03-.24-.01-.35,.05-.29,.17-.46,.49-.41,.83,0,.11,.07,.22,.17,.27l6.93,3.55,1.08-2.08-7.43-2.62Z"/><path class="cls-26" d="M81.61,93.35l.38-.73c-2.22-.89-5.95-2.48-6.6-2.8s-.83-.64-.66-.93c-.16,.17-.24,.4-.22,.64,0,.11,.07,.22,.17,.27l6.93,3.55Z"/><path class="cls-1" d="M81.28,92.84c.07,.53,.54,.72,1.02,.44,.5-.32,.8-.88,.77-1.48-.07-.53-.53-.72-1.03-.44-.5,.32-.79,.88-.76,1.48Z"/><path class="cls-12" d="M81.28,92.84c.07,.53,.54,.72,1.02,.44,.5-.32,.8-.88,.77-1.48-.07-.53-.53-.72-1.03-.44-.5,.32-.79,.88-.76,1.48Z"/><path class="cls-21" d="M74.99,86.76c-.12-.03-.24-.01-.34,.06-.29,.17-.46,.49-.41,.83,0,.11,.07,.21,.17,.26l6.93,3.54,1.08-2.08-7.43-2.61Z"/><path class="cls-26" d="M81.33,91.42l.37-.73c-2.21-.89-5.94-2.48-6.6-2.8s-.83-.63-.66-.93c-.16,.17-.24,.41-.22,.64,0,.11,.07,.21,.17,.26l6.94,3.55Z"/><path class="cls-5" d="M81,90.91c.07,.53,.53,.73,1.02,.44,.5-.32,.79-.88,.77-1.47-.07-.53-.54-.73-1.03-.44-.51,.31-.8,.88-.76,1.47Z"/><path class="cls-21" d="M74.71,84.83c-.12-.04-.25-.02-.35,.05-.29,.17-.45,.49-.4,.83,0,.11,.07,.21,.17,.26l6.93,3.54,1.08-2.08-7.43-2.6Z"/><path class="cls-26" d="M81.06,89.49l.37-.73c-2.21-.89-5.94-2.48-6.6-2.8s-.83-.63-.66-.92c-.16,.17-.24,.4-.22,.64,0,.11,.07,.21,.17,.26l6.94,3.55Z"/><path class="cls-5" d="M80.72,88.98c.07,.53,.54,.73,1.03,.44,.5-.32,.79-.88,.77-1.47-.07-.53-.54-.73-1.03-.44-.51,.31-.8,.87-.77,1.47Z"/><path class="cls-21" d="M74.44,82.91c-.12-.04-.25-.02-.35,.05-.28,.18-.44,.49-.41,.83,.02,.11,.08,.21,.17,.27l6.93,3.54,1.08-2.08-7.43-2.61Z"/><path class="cls-26" d="M80.78,87.56l.38-.72c-2.21-.9-5.94-2.48-6.6-2.81s-.83-.63-.66-.92c-.16,.17-.25,.4-.23,.64,.02,.11,.08,.21,.17,.27l6.94,3.54Z"/><path class="cls-5" d="M80.45,87.05c.07,.53,.54,.73,1.03,.44,.51-.31,.8-.88,.76-1.47-.07-.53-.53-.73-1.02-.44-.5,.32-.79,.88-.77,1.47Z"/><path class="cls-21" d="M74.16,80.98c-.12-.04-.24-.02-.35,.05-.28,.17-.44,.49-.41,.83,0,.11,.07,.22,.17,.27l6.93,3.54,1.08-2.08-7.43-2.61Z"/><path class="cls-26" d="M80.51,85.63l.38-.72c-2.22-.9-5.95-2.48-6.6-2.8s-.83-.64-.66-.93c-.16,.17-.24,.4-.22,.64,0,.11,.07,.22,.17,.27l6.93,3.54Z"/><path class="cls-5" d="M80.18,85.12c.07,.53,.54,.73,1.03,.44,.51-.31,.8-.88,.76-1.47-.07-.53-.53-.73-1.02-.44-.51,.31-.81,.87-.77,1.47Z"/><path class="cls-21" d="M73.89,79.04c-.12-.03-.24-.01-.35,.05-.29,.17-.46,.49-.41,.83,0,.11,.07,.22,.17,.27l6.93,3.55,1.08-2.08-7.43-2.62Z"/><path class="cls-26" d="M80.24,83.71l.38-.73c-2.22-.89-5.95-2.48-6.6-2.8s-.83-.64-.66-.93c-.16,.17-.24,.4-.22,.64,0,.11,.07,.22,.17,.27l6.93,3.55Z"/><path class="cls-5" d="M79.91,83.19c.07,.53,.54,.72,1.02,.44,.5-.32,.8-.88,.77-1.48-.07-.53-.53-.72-1.03-.44-.5,.32-.79,.88-.76,1.48Z"/><path class="cls-21" d="M74.73,100.47c-.12-.03-.24-.01-.35,.06-.28,.17-.45,.49-.41,.83,.01,.11,.08,.22,.18,.27l6.93,3.55,1.08-2.08-7.43-2.62Z"/><path class="cls-26" d="M81.08,105.13l.38-.73c-2.21-.89-5.94-2.48-6.6-2.8s-.83-.63-.66-.93c-.16,.17-.25,.4-.23,.64,.01,.11,.08,.22,.18,.27l6.93,3.55Z"/><path class="cls-5" d="M80.75,104.62c.07,.53,.54,.72,1.03,.44,.51-.31,.8-.88,.76-1.47-.07-.54-.53-.73-1.02-.44-.51,.31-.81,.87-.77,1.47Z"/><path class="cls-21" d="M74.46,98.54c-.12-.03-.24-.01-.35,.06-.29,.17-.46,.49-.41,.83,0,.11,.07,.21,.17,.26l6.93,3.54,1.08-2.08-7.43-2.61Z"/><path class="cls-26" d="M80.81,103.2l.38-.73c-2.21-.89-5.95-2.48-6.6-2.8s-.83-.63-.66-.93c-.16,.18-.24,.41-.22,.64,0,.11,.07,.21,.17,.26l6.93,3.55Z"/><path class="cls-5" d="M80.48,102.69c.07,.53,.54,.73,1.03,.44,.51-.31,.8-.88,.76-1.47-.07-.53-.53-.73-1.02-.44-.51,.3-.81,.87-.77,1.47Z"/><path class="cls-21" d="M74.19,96.61c-.12-.04-.25-.02-.35,.05-.29,.17-.46,.49-.41,.83,0,.11,.07,.21,.17,.26l6.93,3.54,1.08-2.08-7.43-2.6Z"/><path class="cls-26" d="M80.53,101.27l.38-.73c-2.22-.89-5.95-2.48-6.6-2.8s-.83-.63-.66-.92c-.16,.17-.24,.4-.22,.64,0,.11,.07,.21,.17,.26l6.93,3.55Z"/><path class="cls-5" d="M80.2,100.76c.02,.34,.31,.6,.65,.59,.14,0,.27-.06,.37-.15,.51-.31,.81-.87,.77-1.47-.07-.53-.53-.73-1.02-.44-.51,.31-.81,.87-.77,1.47Z"/><path class="cls-21" d="M73.92,94.69c-.12-.04-.24-.02-.35,.05-.29,.17-.46,.49-.41,.83,0,.11,.07,.22,.17,.27l6.93,3.54,1.08-2.08-7.43-2.61Z"/><path class="cls-26" d="M80.26,99.34l.37-.72c-2.21-.9-5.94-2.48-6.6-2.81s-.83-.63-.66-.92c-.16,.17-.24,.4-.22,.64,0,.11,.07,.22,.17,.27l6.94,3.54Z"/><path class="cls-5" d="M79.93,98.83c.07,.53,.53,.73,1.02,.44,.5-.32,.79-.88,.77-1.47-.07-.53-.53-.73-1.03-.44-.51,.31-.8,.88-.76,1.47Z"/><path class="cls-1" d="M73.64,92.76c-.12-.03-.24-.02-.35,.05-.29,.17-.45,.49-.4,.83,0,.11,.07,.22,.17,.27l6.93,3.54,1.08-2.08-7.43-2.61Z"/><path class="cls-26" d="M79.99,97.41l.37-.72c-2.21-.9-5.94-2.48-6.6-2.8s-.83-.64-.66-.93c-.16,.17-.24,.4-.22,.64,0,.11,.07,.22,.17,.27l6.94,3.54Z"/><path class="cls-1" d="M79.65,96.91c.03,.35,.34,.61,.69,.58,.12-.01,.24-.06,.34-.14,.5-.32,.8-.88,.77-1.48-.07-.53-.54-.73-1.03-.44-.5,.32-.8,.88-.77,1.48Z"/><path class="cls-12" d="M79.65,96.91c.03,.35,.34,.61,.69,.58,.12-.01,.24-.06,.34-.14,.5-.32,.8-.88,.77-1.48-.07-.53-.54-.73-1.03-.44-.5,.32-.8,.88-.77,1.48Z"/><path class="cls-1" d="M73.36,90.83c-.12-.03-.24-.02-.35,.05-.28,.18-.44,.49-.41,.83,.02,.11,.08,.21,.18,.27l6.93,3.55,1.08-2.08-7.43-2.62Z"/><path class="cls-26" d="M79.71,95.49l.38-.73c-2.21-.89-5.94-2.48-6.6-2.8s-.83-.64-.66-.93c-.16,.17-.25,.4-.23,.64,.02,.11,.08,.21,.18,.27l6.93,3.55Z"/><path class="cls-1" d="M79.38,94.98c.07,.52,.54,.72,1.03,.44,.5-.32,.79-.88,.76-1.48-.07-.53-.53-.72-1.02-.44-.5,.32-.8,.88-.77,1.48Z"/><path class="cls-12" d="M79.38,94.98c.07,.52,.54,.72,1.03,.44,.5-.32,.79-.88,.76-1.48-.07-.53-.53-.72-1.02-.44-.5,.32-.8,.88-.77,1.48Z"/><path class="cls-1" d="M73.09,88.9c-.12-.03-.24-.01-.35,.05-.28,.17-.44,.49-.41,.83,0,.11,.07,.22,.17,.27l6.93,3.55,1.08-2.08-7.43-2.62Z"/><path class="cls-26" d="M79.44,93.56l.38-.73c-2.22-.89-5.95-2.48-6.6-2.8s-.83-.64-.66-.93c-.16,.17-.24,.4-.22,.64,0,.11,.07,.22,.17,.27l6.93,3.55Z"/><path class="cls-1" d="M79.11,93.05c.07,.53,.54,.72,1.03,.44,.5-.32,.79-.88,.76-1.48-.07-.53-.53-.72-1.02-.44-.51,.31-.81,.88-.77,1.48Z"/><path class="cls-12" d="M79.11,93.05c.07,.53,.54,.72,1.03,.44,.5-.32,.79-.88,.76-1.48-.07-.53-.53-.72-1.02-.44-.51,.31-.81,.88-.77,1.48Z"/><path class="cls-21" d="M72.82,86.97c-.12-.03-.24-.01-.35,.06-.29,.17-.46,.49-.41,.83,0,.11,.07,.21,.17,.26l6.93,3.54,1.08-2.08-7.43-2.61Z"/><path class="cls-26" d="M79.16,91.63l.38-.73c-2.22-.89-5.95-2.48-6.6-2.8s-.83-.63-.66-.93c-.16,.17-.24,.41-.22,.64,0,.11,.07,.21,.17,.26l6.93,3.55Z"/><path class="cls-5" d="M78.83,91.12c.07,.53,.54,.72,1.02,.44,.51-.31,.8-.87,.77-1.47-.07-.53-.53-.73-1.03-.44-.51,.31-.8,.88-.76,1.47Z"/><path class="cls-21" d="M72.55,85.03c-.12-.04-.25-.02-.35,.05-.29,.17-.46,.49-.41,.83,0,.11,.07,.21,.17,.26l6.93,3.54,1.08-2.08-7.43-2.6Z"/><path class="cls-26" d="M78.89,89.7l.37-.73c-2.21-.89-5.94-2.48-6.6-2.8s-.83-.63-.66-.92c-.16,.17-.24,.4-.22,.64,0,.11,.07,.21,.17,.26l6.94,3.55Z"/><path class="cls-5" d="M78.56,89.18c.07,.53,.53,.73,1.02,.44,.5-.32,.79-.88,.77-1.47-.07-.53-.53-.73-1.03-.44-.51,.31-.8,.88-.76,1.47Z"/><path class="cls-21" d="M72.27,83.11c-.12-.04-.25-.02-.35,.05-.29,.17-.45,.49-.4,.83,0,.11,.07,.22,.17,.27l6.93,3.54,1.08-2.08-7.43-2.61Z"/><path class="cls-26" d="M78.62,87.77l.37-.72c-2.21-.9-5.94-2.48-6.6-2.81s-.83-.63-.66-.92c-.16,.17-.24,.4-.22,.64,0,.11,.07,.22,.17,.27l6.94,3.54Z"/><path class="cls-5" d="M78.28,87.25c.02,.35,.32,.61,.67,.58,.13,0,.26-.06,.36-.15,.5-.32,.79-.88,.77-1.47-.07-.53-.54-.73-1.03-.44-.5,.32-.79,.88-.77,1.47Z"/><path class="cls-21" d="M71.99,81.18c-.12-.03-.24-.02-.35,.05-.28,.18-.44,.49-.41,.83,.02,.11,.08,.21,.17,.27l6.93,3.54,1.08-2.08-7.43-2.61Z"/><path class="cls-26" d="M78.34,85.84l.38-.72c-2.21-.9-5.94-2.48-6.6-2.81s-.83-.63-.66-.92c-.16,.17-.25,.4-.23,.64,.02,.11,.08,.21,.17,.27l6.94,3.54Z"/><path class="cls-5" d="M78.01,85.32c.07,.53,.54,.73,1.03,.44,.51-.31,.8-.88,.76-1.47-.07-.53-.53-.73-1.02-.44-.5,.32-.79,.88-.77,1.47Z"/><path class="cls-21" d="M72.23,98.79c-.12-.04-.24-.02-.35,.05-.28,.17-.44,.49-.41,.83,0,.11,.07,.22,.17,.27l6.93,3.55,1.08-2.08-7.43-2.62Z"/><path class="cls-26" d="M78.58,103.45l.38-.73c-2.22-.89-5.95-2.48-6.6-2.8s-.83-.64-.66-.93c-.16,.17-.24,.4-.22,.64,0,.11,.07,.22,.17,.27l6.93,3.55Z"/><path class="cls-5" d="M78.25,102.94c.07,.52,.54,.72,1.03,.44,.5-.32,.79-.88,.76-1.48-.07-.53-.53-.72-1.02-.44-.51,.31-.81,.88-.77,1.48Z"/><path class="cls-21" d="M71.96,96.86c-.12-.03-.24-.01-.35,.05-.29,.17-.46,.49-.41,.83,0,.11,.07,.22,.17,.27l6.93,3.55,1.08-2.08-7.43-2.62Z"/><path class="cls-26" d="M78.31,101.52l.37-.73c-2.21-.89-5.94-2.48-6.6-2.8s-.83-.63-.66-.93c-.16,.17-.24,.4-.22,.64,0,.11,.07,.22,.17,.27l6.94,3.55Z"/><path class="cls-5" d="M77.98,101.01c.07,.53,.54,.72,1.02,.44,.5-.32,.8-.88,.77-1.48-.07-.53-.53-.72-1.03-.43-.51,.31-.8,.88-.76,1.47Z"/><path class="cls-21" d="M71.69,94.93c-.12-.03-.24-.01-.34,.06-.29,.17-.46,.49-.41,.83,0,.11,.07,.21,.17,.26l6.93,3.54,1.08-2.08-7.43-2.61Z"/><path class="cls-26" d="M78.03,99.59l.37-.73c-2.21-.89-5.94-2.48-6.6-2.8s-.83-.63-.66-.93c-.16,.17-.24,.41-.22,.64,0,.11,.07,.21,.17,.26l6.94,3.55Z"/><path class="cls-5" d="M77.7,99.08c.07,.53,.53,.72,1.02,.44,.5-.32,.79-.88,.77-1.47-.07-.53-.54-.73-1.03-.44-.51,.31-.8,.88-.76,1.47Z"/><path class="cls-1" d="M71.41,93c-.12-.04-.25-.02-.35,.05-.29,.17-.45,.49-.4,.83,0,.11,.07,.21,.17,.26l6.93,3.54,1.09-2.08-7.44-2.6Z"/><path class="cls-26" d="M77.75,97.66l.38-.73c-2.21-.89-5.94-2.48-6.6-2.8s-.83-.63-.66-.92c-.16,.17-.24,.4-.22,.64,0,.11,.07,.21,.17,.26l6.93,3.55Z"/><path class="cls-1" d="M77.42,97.15c.07,.53,.54,.73,1.03,.44,.5-.32,.79-.88,.77-1.47-.07-.53-.54-.73-1.03-.44-.51,.31-.8,.87-.77,1.47Z"/><path class="cls-12" d="M77.42,97.15c.07,.53,.54,.73,1.03,.44,.5-.32,.79-.88,.77-1.47-.07-.53-.54-.73-1.03-.44-.51,.31-.8,.87-.77,1.47Z"/><path class="cls-1" d="M71.14,91.07c-.12-.03-.24-.02-.35,.05-.28,.17-.44,.49-.41,.83,.02,.11,.08,.21,.17,.27l6.93,3.54,1.08-2.08-7.43-2.61Z"/><path class="cls-26" d="M77.48,95.73l.38-.72c-2.21-.9-5.94-2.48-6.6-2.81s-.83-.63-.66-.92c-.16,.17-.25,.4-.23,.64,.02,.11,.08,.21,.17,.27l6.94,3.54Z"/><path class="cls-1" d="M77.15,95.22c.07,.53,.54,.73,1.03,.44,.51-.31,.8-.88,.76-1.47-.07-.53-.53-.73-1.02-.44-.5,.32-.79,.88-.77,1.47Z"/><path class="cls-12" d="M77.15,95.22c.07,.53,.54,.73,1.03,.44,.51-.31,.8-.88,.76-1.47-.07-.53-.53-.73-1.02-.44-.5,.32-.79,.88-.77,1.47Z"/><path class="cls-1" d="M70.86,89.14c-.12-.04-.24-.02-.35,.05-.28,.17-.44,.49-.41,.83,0,.11,.07,.22,.17,.27l6.93,3.54,1.08-2.08-7.43-2.61Z"/><path class="cls-26" d="M77.21,93.8l.38-.72c-2.22-.9-5.95-2.48-6.6-2.8s-.83-.64-.66-.93c-.16,.17-.24,.4-.22,.64,0,.11,.07,.22,.17,.27l6.93,3.54Z"/><path class="cls-1" d="M76.88,93.29c.07,.53,.54,.73,1.03,.44,.51-.31,.8-.88,.76-1.47-.07-.53-.53-.73-1.02-.44-.51,.31-.81,.87-.77,1.47Z"/><path class="cls-12" d="M76.88,93.29c.07,.53,.54,.73,1.03,.44,.51-.31,.8-.88,.76-1.47-.07-.53-.53-.73-1.02-.44-.51,.31-.81,.87-.77,1.47Z"/><path class="cls-21" d="M70.59,87.21c-.12-.04-.24-.02-.35,.05-.29,.17-.46,.49-.41,.83,0,.11,.07,.22,.17,.27l6.93,3.55,1.08-2.09-7.43-2.61Z"/><path class="cls-26" d="M76.94,91.87l.37-.73c-2.21-.9-5.94-2.48-6.6-2.8s-.83-.64-.66-.93c-.16,.17-.24,.4-.22,.64,0,.11,.07,.22,.17,.27l6.94,3.55Z"/><path class="cls-5" d="M76.61,91.36c.03,.35,.33,.6,.67,.58,.13,0,.25-.06,.35-.14,.5-.32,.8-.88,.77-1.48-.07-.53-.53-.72-1.03-.44-.5,.32-.79,.88-.76,1.48Z"/><path class="cls-21" d="M70.32,85.28c-.11-.03-.24-.01-.34,.05-.29,.17-.46,.49-.41,.83,0,.11,.07,.22,.17,.27l6.93,3.55,1.08-2.08-7.43-2.62Z"/><path class="cls-26" d="M76.66,89.94l.37-.73c-2.21-.89-5.94-2.48-6.6-2.8s-.83-.64-.66-.93c-.16,.17-.24,.4-.22,.64,0,.11,.07,.22,.17,.27l6.94,3.55Z"/><path class="cls-5" d="M76.33,89.43c.07,.53,.53,.72,1.02,.44,.5-.32,.8-.88,.77-1.48-.07-.53-.54-.72-1.03-.44-.5,.32-.79,.88-.76,1.48Z"/><path class="cls-21" d="M70.04,83.35c-.12-.03-.24-.01-.35,.06-.29,.17-.45,.49-.4,.83,0,.11,.07,.21,.17,.26l6.93,3.55,1.09-2.08-7.44-2.62Z"/><path class="cls-26" d="M76.38,88.01l.38-.73c-2.21-.89-5.94-2.48-6.6-2.8s-.83-.63-.66-.93c-.16,.17-.24,.41-.22,.64,0,.11,.07,.21,.17,.26l6.93,3.55Z"/><path class="cls-5" d="M76.05,87.5c.07,.53,.54,.72,1.03,.44,.5-.32,.79-.88,.77-1.47-.07-.53-.54-.73-1.03-.44-.51,.31-.81,.87-.77,1.47Z"/><path class="cls-3" d="M103.83,137.95c.06,3.02-1.91,6.03-5.88,8.32-7.85,4.53-20.57,4.53-28.42,0-3.99-2.29-5.95-5.31-5.89-8.32h-2.76v72.42c0,3.37,2.24,6.77,6.72,9.34,8.93,5.15,23.41,5.15,32.34,0,4.47-2.57,6.68-5.97,6.68-9.34v-72.42h-2.79Z"/><path class="cls-13" d="M67.55,147.42c.67,.4,1.37,.75,2.1,1.05v72.31c-.33-.17-.66-.3-1-.47s-.74-.38-1.11-.58-.68-.41-1.02-.66-.66-.45-.97-.67-.58-.47-.83-.72-.52-.47-.78-.72v-72.28c1.07,1.07,2.28,1.99,3.6,2.74h0Zm4.81,2.1c1.08,.37,2.18,.66,3.3,.88v72.31c-.47-.08-.92-.2-1.39-.31-.64-.16-1.28-.35-1.91-.58v-72.31Z"/><path class="cls-2" d="M106.61,138.08v72.31c0,3.37-2.24,6.74-6.68,9.34-.78,.44-1.58,.84-2.41,1.19-.69,.31-1.38,.55-2.1,.83s-1.22,.42-1.86,.59c-.78,.21-1.55,.39-2.35,.55-5.15,.99-10.44,.94-15.56-.17-.47-.08-.92-.2-1.39-.31-.64-.16-1.28-.35-1.91-.58-.93-.29-1.84-.64-2.71-1.06-.33-.17-.66-.3-1-.47s-.74-.38-1.11-.58-.68-.41-1.02-.66-.66-.45-.97-.67-.58-.47-.83-.72-.52-.47-.78-.72c-.16-.13-.31-.28-.44-.45,.14,.14,.28,.27,.44,.39,1.71,1.32,3.63,2.32,5.69,2.96,.89,.31,1.79,.57,2.71,.78,1.08,.27,2.19,.47,3.3,.64,3.51,.52,7.07,.47,10.56-.14,7.85-1.55,12.63-6.6,12.63-10.15v-63.02c.35-.17,.72-.36,1.08-.55,1.01-.56,1.95-1.23,2.81-1.99,2.57-2.21,3.87-4.79,3.87-7.35h0Z"/><path class="cls-28" d="M106.61,138.08v72.31c0,3.37-2.24,6.74-6.68,9.34-.78,.44-1.58,.84-2.41,1.19-.69,.31-1.38,.55-2.1,.83s-1.22,.42-1.86,.59c-.78,.21-1.55,.39-2.35,.55,8.6-2.33,11.55-8.21,11.55-10.84v-66.58c2.55-2.24,3.84-4.81,3.84-7.38h0Z"/><path class="cls-19" d="M332.91,215.49l1.25-11.55-13.36,.87s.21,6.26,.39,9.81c.12,2.1-2.74,5.98-2.74,5.98,0,0,6.27,3.3,9.64,2.16s5.14-5.3,5.09-6.2-.26-1.08-.26-1.08Z"/><path class="cls-25" d="M300.74,233.51c-.21,0-.57,2.14,.56,3.07,1.3,1.08,5.16,2.88,10.3,2.35,5.14-.53,7.94-1.95,10.01-3.51s4.99-3.74,7.32-4.17c2.16-.4,4.51-1.27,5.21-1.87s.65-3.34,.65-3.34l-34.05,7.48Z"/><path class="cls-24" d="M332.91,215.46c.38,.02,.69,.29,.77,.66,.14,.75,.28,2.95,.59,4.2,.5,2.18,.63,4.43,.4,6.66-.31,1.39-3.84,2.31-6.09,3.07-2.63,1.01-5.11,2.4-7.34,4.13-2.43,1.8-7.53,3.63-10.87,3.55-3.95-.09-8.38-1.35-9.37-3.07-1.23-2.11-2.11-4.57,3.8-6.98,1.11-.46,5.05-2.52,6.39-3.3,3.63-2.04,6.19-3.91,7.9-7.59,.14-.45,.43-.85,.83-1.11,.37-.14,.77-.16,1.15-.07,1.95,.23,3.88,.6,5.78,1.11,.83,.35,1.89,.78,1.86,1.71-.02,.33-.1,.65-.24,.95-.07,.19-.13,.44,.05,.55s.4,0,.55-.13c.6-.53,1.15-1.11,1.65-1.72,.28-.31,.59-.59,.94-.83,.35-.18,.69-.37,1.01-.59,.31-.34,.24-.75,.26-1.19h0Z"/><path class="cls-23" d="M321.24,234.17c1.04-.76,2.14-1.49,3.23-2.15s-6.96,3.76-9.71,1.96c-1.77-1.16-.9-2.53-.83-2.97s-6.23-3.66-7.97-3.88c-.49,.25-.9,.44-1.16,.54-5.91,2.41-5.02,4.87-3.8,6.98,.99,1.72,4.19,3.09,9.3,3.18,3.32,.06,8.5-1.86,10.92-3.66Z"/><path class="cls-23" d="M314.42,229.73c-3.66,1.28-2.12,1.94-1.11,2.09s7.21-3.05,11-5.73c3.95-2.79,6.46-5.87,7.93-6.89,.54-.39,1.14-.83,1.65-1.3-.08-.74-.15-1.42-.21-1.77-.07-.37-.39-.64-.77-.66,0,.44,.05,.83-.31,1.17-.33,.21-.67,.41-1.01,.59-.35,.24-.66,.51-.94,.83-.5,.62-1.05,1.2-1.65,1.72-3.2,3.72-10.91,8.67-14.58,9.96h0Z"/><path class="cls-25" d="M313.58,231.33c.08,0,.16-.03,.23-.07,.14-.1,.18-.3,.07-.45,0,0-.01-.01-.02-.02-1.01-1.18-5.84-4.03-8.53-3.8-.19,0-.34,.14-.35,.33,0,.19,.14,.34,.33,.35,.03,0,.05,0,.08,0,2.48-.21,7.1,2.62,7.9,3.55,.07,.08,.17,.13,.28,.13Zm3.21-1.76c.08,0,.16-.03,.22-.07,.14-.1,.18-.29,.09-.43,0,0-.01-.02-.02-.03-1.01-1.19-5.84-4.03-8.53-3.8-.18,0-.33,.15-.32,.34,0,0,0,.02,0,.03,.03,.19,.2,.32,.39,.3,2.48-.2,7.1,2.62,7.9,3.56,.07,.08,.17,.13,.28,.12h0Zm3.21-1.66c.08,0,.16-.03,.22-.07,.14-.1,.18-.3,.07-.45,0,0-.01-.01-.02-.02-1.01-1.18-5.83-4.03-8.52-3.8-.19,0-.33,.17-.32,.35,0,0,0,0,0,0,.02,.19,.19,.33,.38,.31,0,0,0,0,0,0,2.48-.21,7.1,2.62,7.9,3.55,.07,.08,.17,.13,.28,.13Zm2.98-1.91c.08,0,.16-.02,.22-.07,.14-.1,.18-.3,.07-.45,0,0-.01-.01-.02-.02-1.01-1.18-5.85-4.03-8.52-3.8-.19,0-.33,.17-.32,.35,0,0,0,0,0,0,.02,.19,.19,.33,.38,.31,0,0,0,0,0,0,2.48-.21,7.1,2.61,7.9,3.55,.07,.08,.17,.13,.28,.12Zm2.91-1.92c.08,0,.16-.02,.23-.07,.15-.1,.18-.3,.08-.45,0,0-.01-.02-.02-.02-1.39-1.65-6.46-4.07-9.14-3.84-.19,0-.34,.17-.33,.36,0,0,0,0,0,0,.03,.19,.21,.32,.4,.31,2.42-.21,7.27,2.1,8.5,3.58,.07,.08,.17,.13,.28,.13Z"/><path class="cls-19" d="M359.32,221.78l-3.04-10.91,13.6-2.09,.61,10.59s1.44,3.77,.62,5.16-9.9,2.97-10.73,2.06-1.06-4.82-1.06-4.82Z"/><path class="cls-25" d="M360.73,245.62c.44,3.39,1.19,5.58,2.7,7.43s4.13,2.1,6.77,1.15,5.88-2.96,6.45-6.01,.29-5.05-.51-8.14l-15.4,5.59Z"/><path class="cls-24" d="M370.49,219.35c1.09-.07,.87,4.58,1.8,9.08,.98,4.83,2.79,6.6,3.65,10.6,.98,4.51,.83,6.6-.83,9.65s-8.01,6.66-11.48,3.09c-2.83-2.9-3.17-6.5-3.23-11.14,.06-3.93-.11-7.85-.5-11.76-.43-3.42-1.48-6.47-.56-6.98,.11,.5,.21,1.13,.33,1.65s.31,2.24,.92,2.17c.02-.44,0-.87-.07-1.3-.09-.4-.01-.82,.22-1.16,.52-.41,1.11-.72,1.75-.91,1.06-.33,2.95-.75,4.03-.98,.54-.12,1.08-.21,1.65-.28,.46-.07,.93-.07,1.39,0,.26,.03,.48,.17,.62,.39,.07,.16,.1,.34,.09,.52,.02,.32,.09,.63,.2,.93,.05,.13,.17,.28,.32,.23,.11-.06,.17-.18,.16-.31,0-.56-.13-.95-.21-1.59,0-.3-.12-.7-.14-1s-.07-.63-.12-.92h0Z"/><path class="cls-23" d="M375.6,237.76c.15,.64,1.06,4.95-.25,5.95s-2.48-2.3-2.48-2.3c0,0-3.53-.46-8.47,2.16,.31,.68-.32,3.14-1.74,2.83s-2.27-5.29-2.29-5.35c.07,4.45,.47,7.92,3.22,10.73,3.47,3.56,9.81-.06,11.48-3.09s1.82-5.14,.83-9.65c-.07-.44-.17-.86-.31-1.26h0Z"/><path class="cls-23" d="M372.52,241.77c.13,1.65,1.97,.83,1.91-1.52s-1.9-7.76-2.14-11.81c-.4-5.57-.71-9.17-1.8-9.08v.17l.29,2.32c.06,.33,.1,.66,.12,.99,.25,3.4,.38,10,.92,13.07,.36,1.94,.59,3.89,.7,5.86h0Zm-7.5,1.68c-.59-1.87-1.06-3.78-1.41-5.71-.57-3.04-2.48-9.08-3.45-12.38-.25-.59-.42-1.21-.5-1.85-.11-.45-.21-1.03-.31-1.51v-.1c-.66,.38-.4,3.01,0,4.37s.83,2.81,1.3,4.76c1.18,3.84,1.37,9.64,2.13,11.85s2.7,2.15,2.24,.56h0Z"/><path class="cls-25" d="M364.33,243.72c.05-.01,.1-.03,.15-.06,2.54-1.42,5.43-2.08,8.33-1.89,.22,.02,.42-.11,.48-.32,.04-.18-.08-.35-.26-.39-.02,0-.04,0-.06,0-3.11-.21-6.2,.49-8.91,2.03-.17,.09-.24,.3-.15,.48,0,0,0,.02,.01,.03,.1,.12,.26,.17,.4,.13h0Zm-1.13-3.5l.13-.05c2.87-1.5,6.08-2.23,9.32-2.11,.22,.01,.41-.13,.47-.34,.03-.18-.1-.35-.28-.38-.02,0-.04,0-.05,0-3.43-.13-6.83,.64-9.86,2.24-.18,.09-.25,.31-.17,.49,0,0,0,.01,0,.02,.1,.13,.27,.18,.42,.14Zm8.98-5.57c.15-.03,.27-.14,.33-.28,.05-.18-.06-.37-.24-.41-.02,0-.03,0-.05,0-4.95-.83-9.65,2.04-9.84,2.16-.17,.08-.24,.28-.17,.45,0,.02,.02,.03,.03,.05,.14,.16,.37,.2,.55,.08,.04,0,4.6-2.77,9.22-2.03,.06,0,.12,0,.17,0Zm-.49-3.2c.15-.03,.27-.14,.32-.28,.06-.17-.04-.35-.2-.41-.02,0-.04-.01-.07-.01-3.49-.51-7.05,.25-10.02,2.16-.16,.09-.22,.3-.13,.46,0,.01,.02,.03,.03,.04,.15,.15,.39,.17,.56,.04,2.78-1.75,6.1-2.46,9.36-2,.05,0,.1,0,.16,0h0Zm-.56-3.6c.15-.03,.27-.13,.32-.27,.06-.17-.03-.35-.19-.41-.02,0-.05-.01-.07-.02-5.13-.97-9.9,2.13-10.12,2.27-.17,.09-.23,.29-.15,.46,0,.02,.02,.03,.03,.05,.14,.16,.38,.18,.55,.05,.05,0,4.67-3.02,9.44-2.12,.06,.01,.12,.01,.18,0Z"/><path class="cls-1" d="M362.17,106.32c2.56,26.81,3.74,63.53,3.74,63.53,.22,2.04,1.7,5.5,2.85,15.54,1.21,10.59,1.25,25.58,1.25,25.58,0,0-7.13,4.13-13.09,2.19,0,0-5.92-23.46-9.18-35.91-3.09-11.78-7.43-29.7-7.43-29.7l-2.42,18.93s-.26,6.6-.38,11.93c-.16,6.23-3.68,30.12-3.68,30.12,0,0-7.03,4.68-13.27,0,0,0-1.85-34.93-2.15-42.41-.6-14.69-.5-43.21-.3-62.19l44.07,2.38Z"/><path class="cls-14" d="M362.17,106.32c2.56,26.81,3.74,63.53,3.74,63.53,.22,2.04,1.7,5.5,2.85,15.54,1.21,10.59,1.25,25.58,1.25,25.58,0,0-7.13,4.13-13.09,2.19,0,0-5.92-23.46-9.18-35.91-3.09-11.78-7.43-29.7-7.43-29.7l-2.42,18.93s-.26,6.6-.38,11.93c-.16,6.23-3.68,30.12-3.68,30.12,0,0-7.03,4.68-13.27,0,0,0-1.85-34.93-2.15-42.41-.6-14.69-.5-43.21-.3-62.19l44.07,2.38Z"/><path class="cls-3" d="M340.27,147.54l-3.38-19.05s-7.17-.95-10.92-4.25c0,0,2.48,4.4,9.26,6.01l3.34,17.33-.69,18.85,2.39-18.89Z"/><path class="cls-1" d="M370.17,211.29c-1.45,2.02-8.02,4.13-13.36,2.4l-.99-4.13c4.03,1.21,10.97-.12,14.19-2.79l.16,4.51Zm-36.32-2.13c-1.77,1.72-8.44,2.69-13.39,.07l-.27-4.23c3.76,1.91,10.63,1.9,14.26-.16l-.59,4.32Z"/><path class="cls-19" d="M274.26,84.52c1.95,1.11,4.08,2.96,7.43,4.95s10.34,6.33,15.04,8.25,6.6,2.31,11.51-3.77c6.47-7.99,13.04-17.73,13.04-17.73l4.27-20.18c-8.09,.58-9.9,2.76-13.87,8.67-5.53,8.25-12.14,18.31-12.14,18.31,0,0-17.14-5.64-18.98-6.6-1.38-.69-2.48-1.83-3.14-3.23-.54-1.17-1.15-2.3-1.83-3.4-.7-1.17-.97-1.65-1.8-3.09s-1.65-4.05-1.95-4.6c-.46-.6-1.44-.4-2.03,1.33-.24,1.07-.21,2.18,.1,3.23,.19,.95,.65,2.08,.39,2.28s-1.74-.3-3.16-.42-2.73-.54-4.18,.14c-.93,.38-1.37,1.44-1,2.37,.03,.07,.06,.14,.1,.2,.24,.36,.56,.64,.95,.83-.54,.02-1.04,.26-1.39,.67-.54,.86-.39,1.98,.35,2.66-.6,.1-1.03,.62-1.01,1.23,0,.92,.2,1.8,1.15,2.02,0,0-.72,.28-.7,.73-.02,.76,.35,1.47,.99,1.88,.87,.25,1.78,.33,2.67,.23,0,0,.18,.31,1.11,.63,1,.45,2.04,.83,3.09,1.13,1.2,.26,3.46,.43,5,1.3h0Z"/><path class="cls-6" d="M299.53,82.99c2.05,.87,2.85,3.66,3.87,6.6-.18-3.93-1.26-6.66-3.42-7.62l-.45,1.01Z"/><path class="cls-5" d="M320.84,79.01l5.94-26.05c-4.61,.4-10.02,3.47-13.2,8.25-6.4,9.67-14.1,21.4-14.1,21.4-.24-.09-16.65-5.21-16.65-5.21,0,0,.83,2.48,.22,6.91s-2.15,5.78-2.15,5.78c0,0,10.4,5.72,13.75,7.25,5.44,2.48,7.72,2.43,8.52,2.14,1.53-.54,3.3-1.92,6.56-5.95,4.36-5.46,11.11-14.52,11.11-14.52h0Z"/><path class="cls-21" d="M320.84,79.01l2.77-12.01,3-14.08,.17,.21c-3.45,.41-6.7,1.8-9.37,4.02-1.49,1.27-2.78,2.75-3.83,4.4l-2.78,4.24-11.13,16.99-.1,.16-.2-.06-16.63-5.25,.27-.28c.28,1.08,.43,2.19,.45,3.3,.01,1.1-.05,2.21-.19,3.3-.12,1.11-.35,2.2-.68,3.26-.3,1.1-.84,2.12-1.6,2.97v-.31c3.78,2.08,7.56,4.13,11.39,6.12,1.9,1.01,3.87,1.88,5.89,2.6,1,.36,2.04,.62,3.09,.78,.52,.08,1.05,.08,1.57,0,.5-.15,.98-.37,1.43-.65,1.74-1.25,3.3-2.74,4.62-4.43,1.38-1.65,2.7-3.36,4.03-5.05,2.63-3.37,5.24-6.78,7.82-10.23h0Zm0,0c-2.56,3.47-5.15,6.91-7.77,10.33-1.31,1.71-2.62,3.42-3.99,5.1-1.31,1.72-2.86,3.25-4.61,4.53-.46,.31-.97,.54-1.5,.69-.55,.09-1.1,.09-1.65,0-1.08-.16-2.13-.42-3.16-.78-2.04-.72-4.02-1.59-5.93-2.59-3.84-1.96-7.63-4.02-11.42-6.07l-.21-.12,.18-.19c.7-.81,1.2-1.76,1.47-2.8,.31-1.04,.53-2.11,.65-3.19,.13-1.08,.18-2.17,.16-3.26-.01-1.08-.16-2.16-.44-3.2l-.12-.4,.4,.12,16.67,5.19-.3,.1,11.21-16.93,2.81-4.23c1.03-1.65,2.32-3.13,3.81-4.37,2.78-2.25,6.13-3.68,9.68-4.13h.23l-.06,.23-3.09,14.03-3.01,11.95Z"/><path class="cls-6" d="M267.21,78.98c.08,.23,.04,.48-.09,.68-.17,.26-.35,.5-.55,.73-.09,.12-.19,.24-.31,.35-.1,.1-.22,.19-.35,.26l-.83,.45c.32-.03,.64-.1,.95-.21,.17-.05,.32-.14,.45-.26,.12-.12,.24-.23,.35-.35,.21-.25,.39-.53,.53-.83,.06-.17,.08-.35,.06-.53-.02-.11-.07-.21-.15-.29,.24-.11,.47-.24,.68-.38,.37-.19,.68-.48,.9-.83,.08-.2,.12-.41,.12-.62,0-.07,0-.13,0-.2l.21-.45c.37,.78,.92,1.45,1.6,1.97,.82,.66,1.78,1.11,2.81,1.31-2.65-.92-4.2-3.68-3.6-6.42h.06c.12-.11,.2-.24,.24-.4,.08-.28,.04-.57-.09-.83-.12-.24-.28-.46-.48-.64-.78-.68-1.77-1.08-2.81-1.11-.12-.19-.28-.36-.45-.5-.18-.15-.38-.27-.59-.38,.19,.13,.37,.28,.54,.44,.16,.16,.3,.34,.4,.54,.98,.11,1.91,.52,2.64,1.18,.35,.29,.53,.74,.47,1.19-.08,.23-.16,.31-.4,.31h-.75c-.52,0-1.01,.06-1.51,.07-.49,0-.98-.05-1.46-.17-.49-.12-.96-.28-1.44-.44-.48-.15-.95-.34-1.4-.55,.87,.52,1.8,.93,2.77,1.23,.5,.15,1.01,.22,1.53,.22,.52,0,1.01-.06,1.51-.05h.3c.2,.12,.34,.31,.4,.53,.1,.4-.04,.81-.36,1.06-.3,.29-.64,.55-1,.78-.35,.21-.74,.37-1.14,.45-.84,0-1.67-.14-2.48-.39-.83-.18-1.69-.36-2.55-.51,.83,.29,1.65,.53,2.48,.77,.42,.12,.83,.23,1.26,.34,.44,.12,.89,.16,1.34,.13,.28-.07,.56-.16,.83-.28,.27,.03,.53,.14,.73,.33,.12,.12,.19,.29,.17,.46-.02,.18-.06,.36-.14,.52-.22,.29-.5,.52-.83,.69-.3,.22-.64,.37-1.01,.43-.38,0-.75-.06-1.11-.17-.4-.06-.8-.09-1.2-.07-.78,0-1.57,0-2.36,.1,.83,.07,1.58,.11,2.35,.16,.39,.02,.77,.06,1.16,.12,.39,.12,.79,.19,1.2,.2,.12-.04,.24-.09,.35-.15h0Z"/><path class="cls-1" d="M349.25,51.38c2.67,.55,6.07,1.25,9.48,2.19s5.68,1.55,8.75,3.3c-.12,8.31-.99,16.6-2.59,24.75-.59,2.71-2.56,10.21-2.9,15.96-.42,5.97-.26,11.98,.48,17.92,0,0-8.85,6.6-27.76,5.14-14.85-1.11-16.78-6.6-16.78-6.6,0,0,.27-24.75,.66-35.7,.5-14.39,4.86-22.69,8.07-25.2l9.74-1.65,12.85-.12Z"/><path class="cls-7" d="M336.07,50.38v1.17c-3.61,1.69-6.44,4.69-7.91,8.4-2.07,5.2-4.37,17.18-4.88,31.07-1.02,28.17-1.58,50.45-1.58,50.45-2.12,.08-4.23-.22-6.25-.88,0,0,.31-21.36,.83-36.78,.59-18.4,1.78-30.64,2.99-38.13,1.31-8.18,4.83-11.13,6.9-12.73,3.37-.92,7.85-2,9.91-2.57h0Z"/><path class="cls-21" d="M316.26,103.81l.12-6.64c.07-2.22,.16-4.43,.26-6.64,.21-4.43,.52-8.85,.92-13.27,.21-2.2,.45-4.41,.73-6.6s.56-4.39,1.04-6.6c.46-2.19,1.24-4.29,2.33-6.25,1.13-1.93,2.65-3.59,4.47-4.88-1.76,1.34-3.21,3.05-4.25,5-1.03,1.95-1.76,4.04-2.16,6.2-.78,4.34-1.25,8.75-1.65,13.15-.4,4.4-.74,8.82-1.04,13.2l-.41,6.6-.37,6.72Z"/><path class="cls-23" d="M352.55,21.66s2.21,.17,3.66,2.95c.73,1.4,1.25,3.96-.75,11.26-.76,2.85-1.94,5.57-3.51,8.07-.46,.8-1.21,1.39-2.1,1.65l.15-5.62,.21-3.91s-3.15-2.87-3.42-5.68c-.28-1.96,.09-3.95,1.06-5.68l4.7-3.05Z"/><path class="cls-23" d="M353.31,21.84c-.54-3.15-4.55-6.92-12.28-7.33-6.33-.34-9.9,2.99-12.1,6.67-1.3,2.13-1.44,4.77-.37,7.03l19.37-1.01,5.37-5.36Z"/><path class="cls-19" d="M355.12,41.64c-2.91,1.42-4.24-.88-4.24-.88v11.85c-5.59,7.48-20.96,4.5-14.85-1.1v-2.64c-.85-.02-1.69-.1-2.52-.25-2.45-.18-4.48-1.98-4.95-4.4-.45-1.92-.74-3.88-.87-5.85-.17-2.93-.2-5.63,.53-7.66,.52-1.44-.08-3.3,.31-5.1,.31-1.36,.89-2.84,2.14-3.46,3.09-1.53,5.95,.68,10.26,2.36,1.78,.69,6.11,1,7.25,.46-1.5,1.65-1.49,6.91,.73,9.03,.28,.55,.65,1.04,1.11,1.45,.95,.83,1.72-1.3,2.48-2.13,1.35-1.18,3.4-1.05,4.59,.3,.23,.26,.41,.55,.54,.86,1.31,2.61,.25,5.78-2.35,7.09-.04,.02-.08,.04-.12,.06Z"/><path class="cls-6" d="M336.09,48.87c2.85,.09,5.68-.34,8.37-1.28,2-.83,3.76-3.54,4.34-6.21,0,2.15-.94,5.97-3.97,7.56s-6.54,1.65-8.75,1.72v-1.79Z"/><path class="cls-23" d="M341.27,28.1l2.85,1.2c.31-.8-.05-1.71-.83-2.08-.76-.34-1.65,0-1.98,.76-.02,.04-.03,.08-.05,.12Zm-11.57,.53l2.9-1.16c-.27-.78-1.12-1.2-1.91-.93-.02,0-.05,.02-.07,.03-.8,.34-1.21,1.24-.92,2.06Z"/><path class="cls-25" d="M342.53,31.55c-.03,.7-.61,1.24-1.31,1.21s-1.24-.61-1.21-1.31c.03-.69,.61-1.23,1.3-1.21,.7,.02,1.24,.61,1.22,1.3,0,0,0,0,0,0Zm-9.88-.27c-.03,.7-.62,1.24-1.31,1.21s-1.24-.62-1.21-1.31c.03-.7,.61-1.24,1.31-1.21,.7,.03,1.24,.61,1.21,1.31,0,0,0,0,0,0Z"/><path class="cls-6" d="M337.59,28.81l-1.05,8.04-4.24-1.57c1.26-2.53,3.06-4.74,5.29-6.48Z"/><path class="cls-22" d="M338.3,39.37l-3.3,1.09c.22,.88,1.12,1.42,2,1.2,.05-.01,.1-.03,.15-.05,.92-.32,1.43-1.31,1.15-2.24Z"/><path class="cls-6" d="M337.96,39.96c.14-.02,.28-.02,.42,0-.02,.75-.5,1.41-1.2,1.65-.18,.06-.36,.09-.54,.08-.09-.84,.49-1.61,1.33-1.73Z"/><path class="cls-7" d="M350.92,49.94v2.67s-.98,4.54-1.7,8.25c-1.25,6.5-1.25,15.44-1.3,21.84s2.82,59.6,2.82,59.6c0,0,10.51-.07,15.58-2.42-.17-5.44-1.49-23.51-2.35-36.76-.4-6.16,2.19-14.94,2.96-24.71,.89-11.2,.88-21.66,.88-21.66-3.89-1.77-7.92-3.23-12.04-4.36-3.33-1.67-4.85-2.47-4.85-2.47h0Z"/><path class="cls-23" d="M334.61,33.1c.62,.11,1.3,.66,2.86,1.22,2.48,.89,5.99,1.01,7.85,2.2s3.58,4.25,2.38,7.02-2.58,4.02-4.6,4.74c-2.67,.81-5.46,1.19-8.25,1.14-2.1-.07-4.09-.99-5.5-2.55-1.87-1.87-2.52-6.36-2.37-9.38s.19-3.14,1.39-3.21c1.57-.16,3.12-.49,4.63-.98,.51-.21,1.06-.28,1.6-.2h0Z"/><path class="cls-25" d="M345.32,36.53c-1.86-1.2-5.35-1.31-7.85-2.2-1.57-.56-2.24-1.11-2.86-1.22-.54-.08-1.09,0-1.59,.2-1.5,.5-3.05,.84-4.63,1.01-.83,.06-1.11,.12-1.25,1.25,.13-.48,.14-.65,1.78-.83,1.37-.16,2.71-.45,4.02-.89,.63-.25,1.35-.17,1.91,.21,1.62,.67,3.31,1.16,5.04,1.45,2.62,.5,4.95,.66,6.52,2.66,1.45,1.93,1.56,4.55,.28,6.6-1.25,1.82-1.84,2.71-4.86,3.63-2.27,.62-4.6,.97-6.96,1.06,2.79,.06,5.58-.33,8.25-1.14,2.01-.72,3.36-1.87,4.6-4.74s-.55-5.88-2.39-7.05Z"/><path class="cls-28" d="M331.19,42c.08-1.89,0-4.08,.66-4.95,.59-1.16,1.69-2.74,2.05-3.3l.3-.65h-.31l-.32,.06h-.1l-.43,.12c-1.51,.51-3.07,.85-4.65,1.03-1.2,.07-1.24,.23-1.39,3.21s.5,7.51,2.37,9.38c.82,.92,1.86,1.63,3.02,2.05-1.42-1.1-1.3-5.04-1.2-6.96Z"/><path class="cls-20" d="M343.14,45.65c1.8-.21,3.53-1.47,5.08-2.36l2.66-1.56v-.59l-2.94,1.65c-1.51,.83-3.18,2.15-4.88,2.34l.07,.52Z"/><path class="cls-21" d="M342.52,45.86l.95-.16c.16,0,.3-.13,.3-.24v-.22c0-.11-.12-.17-.28-.14l-.95,.15c-.17,0-.3,.13-.31,.24v.22c0,.07,.12,.15,.29,.15Z"/><path class="cls-20" d="M344.29,39.7c1.79-.21,5.38-3.48,6.45-4.13,.24-.11,.44-.28,.57-.5-1.91,0-4.95,4.02-7.09,4.13l.07,.5Z"/><path class="cls-21" d="M343.8,39.83l.88-.12c.13,0,.25-.09,.28-.22v-.23c0-.11-.11-.17-.26-.16l-.88,.11c-.14,0-.26,.1-.29,.23v.21c.02,.12,.11,.19,.26,.17Z"/><path class="cls-19" d="M362.11,129.19c-.22,.2-.4,.43-.54,.68-.15,.26-.12,.6,.08,.83,.11,.09,.23,.15,.37,.18,.9,.21,1.84,.02,2.59-.51,.74-.53,1.37-1.19,1.86-1.95,.16-.27,.38-.49,.64-.65,1.22-.59,.63,1.45,.54,1.93-.25,1.36-.64,2.68-1.16,3.96-.31,1-2.79,3.3-3.36,4.22s-.54,2-.09,2.43,1.42-.21,2.62-1.39c.88-.77,1.71-1.59,2.48-2.48l.92-1.34c-.25,.83-.57,1.64-.97,2.42-.43,.68-2.08,2.38-2.59,3.23-.38,.68-.3,1.52,.2,2.11,.3,.32,.45,.83,2.03-.83,.79-.78,1.52-1.6,2.2-2.48,.85,.2,1.73-.08,2.3-.74,.93-1.11,1.76-2.31,2.48-3.57,.85-.26,1.56-.86,1.96-1.65,.64-1.33,1.47-3.44,2.09-5.15s.25-6.03,.57-9.03c.09-.92,.98-11.3,1.4-17.76,.31-4.83,.05-10.35-.53-12.84-1.36-5.88-1.27-5.15-3.42-13.28-1.39-5.26-2.52-9.02-3.46-11.55-1.42-3.89-2.33-5.62-7.9-7.64-3.07,2.48-4.2,8.52-2.24,20.05,1.47,5.48,3.36,10.84,5.64,16.03,0,0,.83,25.09,.83,25.54,.05,.81-.32,1.6-.97,2.08-.65,.57-1.4,1.03-2.03,1.65-2.05,1.97-2.48,5.17-4.36,7.29l-.18,.21Z"/><path class="cls-6" d="M369.97,139.61c.91-1.07,1.66-2.25,2.25-3.51,.6-1.26,1.06-2.59,1.36-3.95-.5,1.3-1.01,2.59-1.65,3.83-.57,1.26-1.23,2.47-1.96,3.64h0Zm4.74-4.32c.43-.55,.78-1.16,1.04-1.81,.27-.64,.48-1.31,.61-1.99-.33,.61-.59,1.25-.83,1.88l-.83,1.91Zm-5.63-.21c.67-1,1.25-2.07,1.72-3.18-.22,1.63-.95,3.14-2.1,4.32l.39-1.14Z"/><path class="cls-5" d="M365.29,55.65c5.72,2.31,6.73,3.12,7.99,5.14,1.53,2.48,2.25,5.39,5.02,14.92,2.76,9.53,3.66,13.66,3.74,15.68,.18,3.78-.03,7.58-.63,11.32-.51,4.08-1.2,9.13-1.96,15.34-2.83,1.1-9.14-.06-10.54-1.91,0-4.21-.16-7.81-.23-12.57-.09-5.92-.4-10.54-.4-10.54l-5.93-17.8s-3.18-14.98,2.94-19.59h0Z"/><path class="cls-21" d="M376.61,118.73c-3.08,0-6.84-1.01-7.9-2.43l-.05-.07v-.08c0-2.52-.06-4.84-.12-7.3,0-1.65-.08-3.36-.12-5.26-.08-5.59-.37-10.07-.4-10.49l-5.92-17.77c-.14-.64-3.16-15.23,3.02-19.88l.12-.09,.14,.06c5.72,2.32,6.81,3.15,8.11,5.24s2.08,4.69,4.03,11.45c.31,1.07,.65,2.24,1.02,3.53,2.54,8.76,3.66,13.47,3.75,15.76,.17,3.8-.04,7.6-.63,11.36-.19,1.5-.4,3.14-.64,4.95-.4,3.04-.83,6.5-1.33,10.42v.16l-.15,.05c-.95,.31-1.95,.45-2.95,.4Zm-7.43-2.67c1.39,1.65,7.3,2.76,10.03,1.82,.48-3.86,.92-7.26,1.31-10.27,.23-1.78,.45-3.42,.64-4.95,.59-3.73,.8-7.51,.63-11.28-.08-2.24-1.2-6.91-3.73-15.63l-1.02-3.48c-1.94-6.72-2.66-9.23-3.98-11.33-1.22-1.96-2.27-2.76-7.73-4.95-5.78,4.56-2.76,19.11-2.72,19.26l5.93,17.84s.31,4.69,.4,10.54c0,1.9,.07,3.61,.12,5.26,.09,2.38,.09,4.68,.09,7.17h.04Z"/><path class="cls-1" d="M276.82,12.7l4.04-2.32c.16-.09,.39,0,.67,.18,.14,.12,.29,.22,.45,.32,.05,.04,.11,.08,.17,.11l.29,.19,.21,.12,.26,.15,.24,.12,.24,.12,.27,.12,.22,.1,.28,.14,.21,.07,.32,.09,.18,.06,.35,.08h.17l.36,.07h.15l.38,.06h2.13l.46-.07,.39-.07c.08-.09,.17-.17,.27-.23h.05l3.94-2.28c.33-.18,.64-.05,.83,.43,2.57,6.4,8.07,12.89,11.72,14.51l.21,.11,.12,.09h.06c.06,.04,.11,.09,.16,.14,.05,.05,.1,.1,.15,.16,.26,.28,.41,.66,.41,1.05l-.53,14.37c0,4.19-1.78,8.61-5.42,10.73l-4,2.3h-.05c-1.84,1.03-3.97,1.44-6.06,1.19-.79-.13-1.51-.49-2.09-1.04-8-8.25-11.89-19.45-11.89-25.63l-.53-15.03c0-.21,.07-.4,.21-.49h0Z"/><path class="cls-28" d="M297.36,53.75l3.89-2.24c3.63-2.12,5.42-6.54,5.42-10.73l.53-14.37c0-.51-.25-.98-.65-1.29,.08,.08,.16,.16,.24,.24l-3.99,2.31c.26,.28,.41,.65,.41,1.04l-.53,14.38c-.02,4.14-1.78,8.55-5.32,10.66Z"/><path class="cls-12" d="M276.83,12.7c.16-.08,.39,0,.66,.19,3.6,2.75,8.97,2.75,11.7-.43l.05-.06c-2.72,.53-5.54-.13-7.75-1.82-.28-.22-.51-.28-.67-.19l-3.99,2.3Z"/><path class="cls-14" d="M289.56,12.15c.31-.15,.59,0,.77,.45,2.57,6.4,8.06,12.9,11.72,14.51,.28,.13,.52,.31,.72,.54l3.99-2.31c-.08-.08-.16-.16-.24-.24l-.09-.07-.09-.07-.1-.06c-.07,0-.13-.07-.2-.1-3.66-1.65-9.15-8.11-11.72-14.51-.14-.34-.33-.5-.55-.5-.1,0-.19,.03-.27,.07l-3.94,2.29Z"/><path class="cls-1" d="M306.85,35.47l-4,2.3-.44,5.78s4.6,1.58,7.96-.4l4.13-2.41c.36-.19,.7-.41,1.01-.66-2.48,.65-7.05-1.85-8.66-4.61Z"/><path class="cls-14" d="M306.85,35.47l-3.99,2.3c1.61,2.77,6.19,5.26,8.63,4.6-.33,.32-.7,.59-1.1,.83l4.13-2.41c.36-.2,.69-.44,1-.71-2.48,.65-7.05-1.84-8.66-4.61Z"/><path class="cls-1" d="M315.51,40.09c-.29,.27-.61,.51-.95,.72l-4.13,2.41c.4-.23,.76-.51,1.1-.83l3.98-2.3Z"/><path class="cls-28" d="M315.51,40.09c-.29,.27-.61,.51-.95,.72l-4.13,2.41c.4-.23,.76-.51,1.1-.83l3.98-2.3Z"/><path class="cls-10" d="M290.09,37.49c-1.07-.62-1.75,.14-2.03,1.5-.21,1.39-.29,2.79-.24,4.19,0,.83-.67,.89-1.39-.48-.82-1.68-1.31-3.49-1.45-5.35-.26-2.76,.07-3.56-.19-5.27-.29-1.84-1.15-3.78-1.15-5.95s.83-4.23,2.77-3.61,2.62,2.33,3.66,2.94,1.7-.35,3.66,1.29,2.81,4.65,2.81,6.82-.83,3.11-1.15,4.62,.07,2.59-.19,5.05c-.2,1.86-.72,3.15-1.44,3.7s-1.41-.31-1.39-1.12c.05-1.49-.03-2.99-.24-4.46-.3-1.7-.97-3.23-2.05-3.85h0Zm-44.43,17.38c-.07,5.14-2.09,10.06-5.66,13.75l-1.7,1.58c-8.66,7.07-21.41,5.79-28.48-2.87-6.21-7.6-6.07-18.57,.33-26.01l1.65-1.65c8.25-7.54,21.05-6.96,28.59,1.3,3.47,3.8,5.37,8.79,5.29,13.94l-.03-.03Z"/><path class="cls-24" d="M225.41,32.66c-12.13,0-21.97,9.84-21.97,21.97,0,10.72,7.75,19.88,18.32,21.66l2.48,6.36c.26,.66,1,.99,1.65,.73,.33-.13,.6-.39,.73-.73l2.48-6.37c11.96-2.04,20-13.4,17.96-25.36-1.8-10.55-10.94-18.27-21.65-18.27Zm20.26,21.97c0,5.14-1.96,10.08-5.48,13.83l-1.65,1.6c-8.45,7.31-21.23,6.39-28.55-2.06-6.58-7.6-6.58-18.88,0-26.48l1.59-1.65c8.15-7.65,20.96-7.25,28.61,.9,3.53,3.76,5.49,8.71,5.48,13.87h0Z"/><path class="cls-1" d="M221.46,67.63c-.88,0-1.72-.36-2.32-1.01l-7.19-7.69c-1.23-1.25-1.22-3.26,.03-4.49,1.25-1.23,3.26-1.22,4.49,.03,.04,.04,.07,.08,.11,.12l4.67,4.95,11.06-14.03c.96-1.47,2.92-1.89,4.39-.93,1.47,.96,1.89,2.92,.93,4.39-.11,.17-.24,.33-.38,.47l-13.35,16.91c-.57,.73-1.43,1.17-2.36,1.2l-.1,.07Zm111.91,206.03l-108.22,62.56c-1.27,.64-2.78,.64-4.05,0L78.03,253.62c-1.2-.78-1.95-2.08-2.01-3.51v-.46c.08-1.42,.84-2.73,2.03-3.51l108.29-62.5c1.27-.64,2.78-.64,4.05,0l142.99,82.51c1.2,.78,1.95,2.08,2.02,3.51v.48c-.08,1.43-.84,2.73-2.04,3.51Z"/><path class="cls-32" d="M333.37,273.65l-108.22,62.56c-1.27,.64-2.78,.64-4.05,0L78.03,253.62c-1.2-.78-1.95-2.08-2.01-3.51v-.46c.08-1.42,.84-2.73,2.03-3.51l108.29-62.5c1.27-.64,2.78-.64,4.05,0l142.99,82.51c1.2,.78,1.95,2.08,2.02,3.51v.48c-.08,1.43-.84,2.73-2.04,3.51Z"/><path class="cls-1" d="M190.27,183.55c-1.54-.89-3.15-.38-4.69,.52l-106.74,61.62c-1.53,.89-1.54,2.33,0,3.23l141.52,81.68c1.72,1,3.85,1,5.57,0l106.76-61.62c.89-.51,1.2-1.65,.69-2.55-.16-.29-.4-.52-.69-.69l-142.42-82.21Z"/><path class="cls-29" d="M190.27,183.55c-1.54-.89-3.15-.38-4.69,.52l-106.74,61.62c-1.53,.89-1.54,2.33,0,3.23l141.52,81.68c1.72,1,3.85,1,5.57,0l106.76-61.62c.89-.51,1.2-1.65,.69-2.55-.16-.29-.4-.52-.69-.69l-142.42-82.21Z"/><path class="cls-1" d="M333.38,266.15l-.68-.4c.89,.52,1.19,1.67,.67,2.56-.16,.28-.39,.51-.67,.67l-106.76,61.62c-.84,.49-1.8,.75-2.78,.75h-.05v5.34c.72,.02,1.43-.15,2.06-.5l108.22-62.55c1.2-.78,1.95-2.08,2.03-3.51v-.47c-.07-1.43-.83-2.75-2.04-3.52h0Z"/><path class="cls-30" d="M333.38,266.15l-.68-.4c.89,.52,1.19,1.67,.67,2.56-.16,.28-.39,.51-.67,.67l-106.76,61.62c-.84,.49-1.8,.75-2.78,.75h-.05v5.34c.72,.02,1.43-.15,2.06-.5l108.22-62.55c1.2-.78,1.95-2.08,2.03-3.51v-.47c-.07-1.43-.83-2.75-2.04-3.52h0Z"/><path class="cls-31" d="M199.72,191.9c-1.58-.92-3.24-.38-4.83,.54l-100.88,58.25c-1.58,.92-1.59,2.41,0,3.3l126.14,72.82c1.79,1.03,3.99,1.03,5.78,0l100.87-58.18c.91-.54,1.21-1.73,.66-2.64-.16-.27-.39-.5-.66-.66l-1.85-1.07-125.22-72.36Z"/><path class="cls-9" d="M223.85,326.02l100.52-58.04c.49-.34,.8-.89,.83-1.49v-1.11c-.02-.6-.33-1.15-.83-1.49l-127.43-73.56c-.54-.27-1.18-.27-1.72,0l-100.52,58.04c-.49,.34-.8,.89-.83,1.49v1.12c.02,.6,.33,1.15,.83,1.49l127.43,73.56c.54,.27,1.18,.27,1.72,0h0Z"/><path class="cls-21" d="M94.52,248.49c-.09,.07-.16,.15-.23,.23l-.1,.13c-.1,.14-.18,.3-.25,.46-.04,.1-.07,.21-.08,.32,0,.07,0,.14,0,.21v1.11c.02,.6,.33,1.15,.83,1.49l127.42,73.56c.25,.14,.54,.21,.83,.21v-3.14c-.29,0-.57-.08-.83-.21l-127.41-73.53c-.4-.23-.47-.59-.18-.86Z"/><path class="cls-7" d="M324.59,264.04c.26,.26,.18,.61-.21,.83l-100.53,58.04c-.25,.14-.54,.21-.83,.21v3.1c.29,0,.57-.07,.83-.21l100.52-58.03c.49-.34,.8-.89,.83-1.49v-1.12c-.01-.51-.23-.99-.6-1.34h0Z"/><path class="cls-1" d="M227.81,208.15l-30.87-17.83c-.54-.27-1.18-.27-1.72,0l-100.52,58.04c-.49,.34-.8,.89-.83,1.49v1.12c.02,.6,.33,1.15,.83,1.49l28.18,16.27,104.92-60.58Z"/><path class="cls-16" d="M227.81,208.15l-30.87-17.83c-.54-.27-1.18-.27-1.72,0l-100.52,58.04c-.49,.34-.8,.89-.83,1.49v1.12c.02,.6,.33,1.15,.83,1.49l28.18,16.27,104.92-60.58Z"/><path class="cls-1" d="M125.57,267.18l-30.87-17.83c-.4-.23-.47-.59-.18-.83-.09,.07-.16,.15-.23,.23l-.1,.13c-.1,.14-.18,.3-.25,.46-.04,.1-.07,.21-.08,.32,0,.07,0,.14,0,.21v1.11c.02,.6,.33,1.15,.83,1.49l30.89,17.8v-3.1Zm-.54-27.77c-4.03,1.99-8.52,2.85-13,2.48,.88,2.43-1.06,5.44-4.22,7.51,5.54,3.67,11.01,6.5,18.53,7.38,3.75,.43,7.53,.39,11.27-.12,.87-2.07,.95-4.39,.21-6.51-1.52-4.37-6.43-7.53-12.79-10.73Z"/><path class="cls-10" d="M126.37,250.12c.98-.38,2.08-.34,3.04,.12,.97,.39,1.9,.87,2.79,1.42,.48,.3,1.24,.17,1.16-.45-.28-.91-.9-1.68-1.73-2.15-1.39-1.01-2.23-1.23-2.99-1.88s-1.09-1.55-2.39-2.3c-1.53-.92-3.37-1.18-5.09-.71-1.65,.61-1.34,1.34-2.05,1.77s-2,.21-3.05,1.19-.09,2.18,1.22,2.94,2.78,.91,3.99,1.38,1.49,.92,3.25,1.72c1.17,.56,2.44,.9,3.74,1.01,1.08,.04,1.3-.4,.78-.67-.87-.46-1.7-1-2.48-1.61-.7-.65-.92-1.33-.17-1.76h0Z"/><path class="cls-23" d="M162.59,207.35c.53-.37,.82-1.01,.73-1.65-.1-1.75-1.01-3.34-2.48-4.31-.51-.37-1.19-.43-1.77-.17l-39.69,22.91,3.51,6.09,39.68-22.88Z"/><path class="cls-24" d="M121.13,227.2l41.45-23.93c.45,.75,.71,1.6,.73,2.48,0,.09,0,.18,0,.26l-40.8,23.56-1.39-2.37Z"/><path class="cls-25" d="M123.63,228.65c0,1.58-1.11,2.23-2.48,1.44-1.46-.96-2.38-2.56-2.48-4.31,0-1.58,1.11-2.23,2.48-1.44,1.46,.96,2.38,2.56,2.48,4.31Z"/><path class="cls-30" d="M126.29,241.69c-.77,0-1.52-.18-2.19-.55l-10.55-6.1c-.65-.31-1.08-.94-1.13-1.65,.03-.58,.37-1.11,.88-1.38l7.5-4.31c.32-.14,.7,0,.84,.32,.12,.28,.03,.6-.21,.77l-7.5,4.35c-.16,.09-.26,.2-.26,.29s.16,.35,.5,.54l10.55,6.1c.83,.46,1.83,.51,2.71,.14l20.31-11.73c1.56-.92,2.9-2.18,3.9-3.69,.91-1.39,2.12-2.57,3.54-3.45,.86-.54,1.85-.83,2.87-.83,2.26,.04,4.49-.55,6.44-1.72l18.44-10.64c.17-.1,.26-.21,.26-.3s-.16-.35-.5-.54l-10.56-6.1c-.83-.45-1.83-.5-2.71-.14l-6.6,3.8c-.18-.38-.4-.74-.65-1.08l6.6-3.81c1.27-.59,2.74-.54,3.96,.14l10.56,6.1c.65,.3,1.08,.94,1.13,1.65-.03,.59-.37,1.12-.89,1.39l-18.44,10.65c-2.15,1.28-4.61,1.93-7.11,1.88-.77,0-1.53,.23-2.19,.64-1.26,.78-2.33,1.83-3.14,3.07-1.11,1.66-2.58,3.05-4.31,4.07l-20.3,11.69c-.54,.29-1.15,.43-1.77,.41Z"/><path class="cls-24" d="M126.29,240.58c-.77,0-1.52-.18-2.19-.55l-10.55-6.1c-.65-.31-1.08-.94-1.13-1.65,.03-.58,.37-1.11,.88-1.38l7.5-4.35c.32-.14,.7,0,.84,.32,.12,.28,.03,.6-.21,.77l-7.48,4.32c-.16,.09-.26,.21-.26,.29s.16,.35,.5,.54l10.54,6.13c.83,.46,1.83,.51,2.71,.14l20.31-11.69c1.56-.92,2.9-2.18,3.9-3.69,.91-1.39,2.12-2.57,3.54-3.45,.86-.54,1.85-.83,2.87-.83,2.26,.04,4.49-.55,6.44-1.72l18.44-10.64c.17-.1,.26-.21,.26-.3s-.16-.35-.5-.54l-10.56-6.1c-.83-.45-1.83-.5-2.71-.14l-6.6,3.8c-.18-.38-.4-.74-.65-1.08l6.6-3.81c1.27-.59,2.74-.54,3.96,.14l10.56,6.1c.65,.3,1.08,.94,1.13,1.65-.03,.59-.37,1.12-.89,1.39l-18.44,10.64c-2.15,1.28-4.61,1.93-7.11,1.88-.77,0-1.53,.23-2.19,.64-1.26,.78-2.33,1.83-3.14,3.07-1.11,1.66-2.58,3.05-4.31,4.07l-20.3,11.68c-.54,.29-1.15,.44-1.77,.42h0Z"/><path class="cls-1" d="M47.53,252.73l6.66-3.84s3.96-16.45,2.38-31.25c-2.22-20.81-15.92-28.64-21.12-26.85s-6.72,7.85,1.9,20.25c5.07,7.31,11.34,22.55,10.19,41.7Z"/><g class="cls-34"><path class="cls-10" d="M47.53,252.73l6.66-3.84s3.96-16.45,2.38-31.25c-2.22-20.81-15.92-28.64-21.12-26.85s-6.72,7.85,1.9,20.25c5.07,7.31,11.34,22.55,10.19,41.7Z"/></g><path class="cls-10" d="M50.29,244.64h-.07c-.25-.05-.42-.29-.37-.54,3.65-19.21-3.05-40.77-11.36-49.74-.18-.18-.18-.47,0-.65,.18-.18,.47-.18,.65,0,8.46,9.13,15.3,31.06,11.59,50.54-.03,.22-.22,.39-.45,.39Z"/><path class="cls-1" d="M30.8,262.39c-1,.51-3.64-1.76-4.37-2.3-1.26-.95-2.26-2.22-2.89-3.67-.71-1.65-.89-3.48-.51-5.23,.21-.93,.48-1.84,.83-2.72,.3-.88,.6-1.76,.9-2.64,.36-.85,.54-1.76,.53-2.68-.14-1.84-1.7-3.21-3.12-4.39-1.58-1.3-3.19-3-3.08-5.21,.2-1.7,.96-3.29,2.15-4.52,1.12-1.28,2.48-2.39,3.46-3.75,.8-.95,1.25-2.14,1.28-3.37-.06-.76-.28-1.5-.64-2.18-.83-1.41-1.54-2.88-2.13-4.41-.45-1.57-.29-3.48,.97-4.53,1.13-.75,2.51-1.02,3.84-.75,1.24,.22,2.42,.71,3.47,1.42,3.4,2.12,5.19,6.37,8.83,8.05,1.45,.54,2.93,.98,4.44,1.33,1.52,.36,2.82,1.35,3.57,2.72,1.23,2.79-1.47,6.02-.66,8.96,.72,2.6,3.16,3.7,4.44,6.08,.52,1.05,.69,2.23,.48,3.38-.2,1.95-.76,3.84-1.65,5.59-1.02,1.79-2.14,3.51-3.37,5.16,0,0-16.63,9.59-16.77,9.66h0Z"/><g class="cls-33"><path class="cls-10" d="M30.8,262.39c-1,.51-3.64-1.76-4.37-2.3-1.26-.95-2.26-2.22-2.89-3.67-.71-1.65-.89-3.48-.51-5.23,.21-.93,.48-1.84,.83-2.72,.3-.88,.6-1.76,.9-2.64,.36-.85,.54-1.76,.53-2.68-.14-1.84-1.7-3.21-3.12-4.39-1.58-1.3-3.19-3-3.08-5.21,.2-1.7,.96-3.29,2.15-4.52,1.12-1.28,2.48-2.39,3.46-3.75,.8-.95,1.25-2.14,1.28-3.37-.06-.76-.28-1.5-.64-2.18-.83-1.41-1.54-2.88-2.13-4.41-.45-1.57-.29-3.48,.97-4.53,1.13-.75,2.51-1.02,3.84-.75,1.24,.22,2.42,.71,3.47,1.42,3.4,2.12,5.19,6.37,8.83,8.05,1.45,.54,2.93,.98,4.44,1.33,1.52,.36,2.82,1.35,3.57,2.72,1.23,2.79-1.47,6.02-.66,8.96,.72,2.6,3.16,3.7,4.44,6.08,.52,1.05,.69,2.23,.48,3.38-.2,1.95-.76,3.84-1.65,5.59-1.02,1.79-2.14,3.51-3.37,5.16,0,0-16.63,9.59-16.77,9.66h0Z"/></g><path class="cls-10" d="M40.42,257.38c-.24-.02-.42-.24-.4-.48,1.59-17.26-5.59-36.77-11.24-42.62-.17-.16-.18-.43-.02-.59,0,0,.01-.01,.02-.02,.17-.17,.45-.17,.62,0,0,0,0,0,0,0,5.78,5.97,13.09,25.8,11.48,43.31-.02,.24-.22,.41-.46,.4Z"/><path class="cls-10" d="M38.71,236.09s-.09,0-.13,0c-4.04-1.33-8.22-2.22-12.45-2.66-.24-.03-.42-.24-.4-.48,.02-.24,.22-.41,.46-.4,0,0,.01,0,.02,0,4.31,.44,8.55,1.35,12.66,2.71,.22,.08,.34,.32,.27,.54,0,0,0,0,0,0-.07,.17-.24,.28-.43,.26h0Z"/><path class="cls-21" d="M76.45,281.32c8.91-2.62,18.43-2.33,27.17,.83,4.29,1.56,8.29,3.85,11.8,6.77,3.55,2.99,6.6,6.74,8.14,11.18,1.38,4.02,1.33,8.39-.16,12.38-1.59,3.99-4.38,7.39-7.99,9.71-3.55,2.42-8.18,4.53-12.57,3.61-1.67-.24-3.09-1.36-3.72-2.92-.47-1.52-.34-3.15,.38-4.57,1.81-3.8,6.53-5.48,10.39-6.13,4.63-.67,9.35-.23,13.77,1.28,4.47,1.31,8.53,3.75,11.79,7.09,1.55,1.67,2.82,3.57,3.79,5.63,.89,2.11,1.66,4.28,2.28,6.49,1.25,3.96,2.95,7.73,6.5,10.12,3.02,1.96,6.54,2.98,10.14,2.94,3.55,.07,7.04-.99,9.96-3.02,3.3-2.4,5.64-6.88,4.23-10.95-.64-1.79-1.91-3.28-3.57-4.2-1.64-.99-3.65-1.12-5.41-.37-1.8,.94-1.49,3.13-.59,4.6,1.15,1.66,2.77,2.94,4.65,3.67,4.41,1.93,9.28,1.45,13.89,.67,2.43-.41,4.86-.9,7.32-1.15l1.48-.12,.88-.05h.2c3.6,0,5.29,0,8.3,.68l.56,.13c.98,.25,1.94,.56,2.88,.94,2.06,.81,3.95,1.99,5.59,3.48,.18,.17,.23-.21,.1-.34-3.32-3-7.51-4.87-11.96-5.35-4.59-.47-9.22-.24-13.73,.7-5.02,.88-10.44,1.86-15.3-.29-1.89-.83-4.13-2.31-4.63-4.44-.39-1.05,.14-2.22,1.19-2.61,.01,0,.02,0,.03-.01,1.12-.37,2.33-.33,3.42,.11,2.02,.82,3.51,2.58,3.99,4.71,.41,2.36-.14,4.78-1.53,6.72-2.21,3.3-6.04,5.05-9.9,5.51-3.79,.48-7.64-.28-10.96-2.19-1.72-1.02-3.17-2.44-4.24-4.13-1.18-2.01-2.08-4.16-2.69-6.41-.62-2.24-1.41-4.43-2.37-6.54-1.02-2.05-2.33-3.95-3.91-5.61-3.28-3.31-7.33-5.75-11.78-7.12-4.45-1.57-9.21-2.1-13.89-1.55-2.29,.28-4.52,.93-6.6,1.92-1.87,.83-3.48,2.13-4.68,3.79-1.65,2.57-1.91,6.37,.68,8.43,1.64,1.12,3.61,1.65,5.59,1.49,2.25-.13,4.46-.69,6.5-1.65,4.08-1.75,7.62-4.57,10.24-8.16,2.45-3.5,3.64-7.74,3.37-12-.59-9.4-8.04-16.77-15.89-21.05-8.15-4.46-17.54-6.12-26.72-4.71-2.22,.36-4.41,.91-6.53,1.65-.17,.06-.07,.42,.09,.37l.02,.03Z"/><path class="cls-7" d="M30.04,289.78c-3.89,18.91,13.2,29.04,31.65,30.27,1.24,.08,2.48-.2,3.56-.83l33.53-19.36c1.24-.72,2-2.04,2-3.47v-8.55c0-.94-.21-1.86-.62-2.71-11.04-23.56-64.68-22.02-70.13,4.65Z"/><path class="cls-20" d="M99.1,287.53l-33.78,19.5c-8.37-.06-16.7-1.94-23.1-5.63-13.01-7.52-13.01-19.69,0-27.23,13.01-7.54,34.1-7.51,47.11,0,6.4,3.71,9.65,8.52,9.77,13.35h0Z"/><path class="cls-21" d="M65.79,269.45c8.75,0,16.97,1.96,23.1,5.52,5.69,3.3,8.98,7.57,9.31,12.12l-33.1,19.1c-8.49-.1-16.45-2.05-22.44-5.52s-9.32-8.04-9.32-12.86,3.3-9.4,9.33-12.87c6.17-3.56,14.38-5.52,23.1-5.52m0-.83c-8.52,0-17.05,1.87-23.56,5.63-13.01,7.52-13.01,19.69,0,27.23,6.39,3.69,14.72,5.57,23.1,5.63l33.78-19.5c-.12-4.83-3.37-9.64-9.75-13.32s-15.02-5.63-23.56-5.63l-.02-.02Z"/><path class="cls-21" d="M32.63,306.13c-.09-1.37-.09-2.75,0-4.13l.11-1.03c.04-.34,.12-.68,.17-1.01,.12-.68,.27-1.35,.46-2.01,.8-2.65,2.01-5.15,3.59-7.43,1.57-2.27,3.4-4.36,5.45-6.21,2.05-1.84,4.2-3.56,6.45-5.15,4.47-3.26,9.45-5.74,14.74-7.33,2.65-.77,5.35-1.32,8.09-1.65,2.74-.36,5.53-.29,8.25,.21-2.71-.35-5.46-.29-8.16,.17-2.7,.39-5.36,1-7.96,1.82-2.6,.82-5.12,1.85-7.53,3.1-2.41,1.27-4.73,2.7-6.93,4.3-2.24,1.55-4.38,3.23-6.43,5.02-2.03,1.84-3.86,3.89-5.47,6.11-1.6,2.2-2.85,4.63-3.71,7.2-.21,.65-.39,1.3-.54,1.96-.07,.33-.17,.66-.22,1l-.14,1.01c-.15,1.35-.22,2.7-.22,4.05Zm31.01,4.18v7.99c0,.59,.49,1.07,1.08,1.06,.18,0,.36-.05,.52-.14l33.52-19.36c1.24-.72,2-2.04,2-3.47v-8.51c0-.42-.35-.76-.76-.75-.13,0-.26,.04-.37,.1l-33.98,19.62c-1.24,.71-2,2.04-2,3.47Z"/><ellipse class="cls-1" cx="65.79" cy="286.93" rx="14.13" ry="8.16"/><ellipse class="cls-16" cx="65.79" cy="286.93" rx="14.13" ry="8.16"/><path class="cls-16" d="M54.49,291.81c.42,.32,.86,.62,1.31,.89,1.52,.85,3.17,1.47,4.88,1.83l16.24-2.59c1.48-.96,2.52-2.46,2.92-4.17l-25.35,4.04Zm-2.65-3.63c.15,.55,.38,1.07,.69,1.54l27.13-4.32c-.18-.55-.44-1.07-.78-1.53l-27.05,4.31Z"/><path class="cls-24" d="M315.11,318.96c-.46,.22-1,.17-1.41-.13-1.18-.76-1.93-2.04-2-3.45-.05-.51,.17-1,.59-1.3l56.62-34c.65-.36,1.45-.3,2.05,.14,1.65,1.07,2.69,2.86,2.8,4.83,.09,.74-.26,1.46-.89,1.84l-57.75,32.07Z"/><path class="cls-23" d="M311.69,315.36c0-1.28,.89-1.79,2-1.16,1.18,.76,1.92,2.05,2,3.45,0,1.27-.88,1.79-1.99,1.16-1.18-.76-1.93-2.04-2-3.45h0Z"/><path class="cls-1" d="M295.22,328.64c-.71-.46-1.16-1.24-1.21-2.09-.04-.31,.1-.61,.35-.78l18.47-10.73c.27-.11,.58-.08,.83,.08,.71,.46,1.16,1.24,1.21,2.09,.03,.31-.11,.6-.35,.78l-18.47,10.73c-.27,.12-.58,.09-.83-.08h0Z"/><path class="cls-30" d="M295.22,328.64c-.71-.46-1.16-1.24-1.21-2.09-.04-.31,.1-.61,.35-.78l18.47-10.73c.27-.11,.58-.08,.83,.08,.71,.46,1.16,1.24,1.21,2.09,.03,.31-.11,.6-.35,.78l-18.47,10.73c-.27,.12-.58,.09-.83-.08h0Z"/><path class="cls-30" d="M297.54,324.66l-.56-.41-2.61,1.51c1.05,.63,2.03,1.39,2.9,2.26l2.38-1.38c-.07-.07-.12-.15-.2-.22-.58-.64-1.23-1.23-1.91-1.76h0Z"/><path class="cls-28" d="M314.62,315.02l57.35-34.01c-.3-.32-.65-.6-1.02-.83-.6-.44-1.39-.5-2.05-.14l-56.62,34c.46-.22,1-.17,1.41,.13,.36,.22,.67,.51,.93,.84h0Z"/><path class="cls-1" d="M299.62,332.33c0-.07,0-.13,0-.2,0-.08,0-.16,0-.24,0-.19-.03-.39-.06-.58v-.21c-.05-.28-.11-.55-.2-.83,0-.07-.04-.15-.07-.21-.07-.2-.15-.39-.23-.58,0-.07-.06-.13-.1-.2l-.08-.18-.14-.26c-.05-.08-.09-.17-.15-.25l-.16-.25c-.3-.41-.63-.79-1-1.15-.46-.5-.96-.96-1.5-1.37-.6-.47-1.23-.89-1.9-1.26-7.43-4.22-19.34-4.22-26.66,0l-.54,.32c-.65,.41-1.27,.86-1.86,1.37-.17,.15-.33,.3-.48,.45-.39,.37-.74,.77-1.06,1.2l-.17,.22-.21,.31c-.09,.14-.18,.29-.26,.43s-.17,.32-.25,.48l-.1,.21c-.04,.1-.08,.2-.12,.3s-.06,.15-.08,.21c-.18,.51-.29,1.04-.34,1.58v3.46c0,2.8,1.84,5.6,5.55,7.74,7.36,4.25,19.3,4.25,26.66,0,3.72-2.15,5.55-4.95,5.49-7.76-.02-.35-.02-2.11-.02-2.76h0Zm-31.14-5.95c3.76-1.99,7.98-2.99,12.24-2.89,4.28-.1,8.52,.9,12.32,2.89,2.9,1.65,4.5,3.73,4.51,5.85s-1.58,4.13-4.45,5.78c-7.72,3.87-16.82,3.87-24.54,0-2.9-1.65-4.49-3.75-4.49-5.87s1.53-4.1,4.41-5.75Z"/><path class="cls-18" d="M299.62,332.33c0-.07,0-.13,0-.2,0-.08,0-.16,0-.24,0-.19-.03-.39-.06-.58v-.21c-.05-.28-.11-.55-.2-.83,0-.07-.04-.15-.07-.21-.07-.2-.15-.39-.23-.58,0-.07-.06-.13-.1-.2l-.08-.18-.14-.26c-.05-.08-.09-.17-.15-.25l-.16-.25c-.3-.41-.63-.79-1-1.15-.46-.5-.96-.96-1.5-1.37-.6-.47-1.23-.89-1.9-1.26-7.43-4.22-19.34-4.22-26.66,0l-.54,.32c-.65,.41-1.27,.86-1.86,1.37-.17,.15-.33,.3-.48,.45-.39,.37-.74,.77-1.06,1.2l-.17,.22-.21,.31c-.09,.14-.18,.29-.26,.43s-.17,.32-.25,.48l-.1,.21c-.04,.1-.08,.2-.12,.3s-.06,.15-.08,.21c-.18,.51-.29,1.04-.34,1.58v3.46c0,2.8,1.84,5.6,5.55,7.74,7.36,4.25,19.3,4.25,26.66,0,3.72-2.15,5.55-4.95,5.49-7.76-.02-.35-.02-2.11-.02-2.76h0Zm-31.14-5.95c3.76-1.99,7.98-2.99,12.24-2.89,4.28-.1,8.52,.9,12.32,2.89,2.9,1.65,4.5,3.73,4.51,5.85s-1.58,4.13-4.45,5.78c-7.72,3.87-16.82,3.87-24.54,0-2.9-1.65-4.49-3.75-4.49-5.87s1.53-4.1,4.41-5.75Z"/><path class="cls-1" d="M299.62,332.33h-2.11c0,2.1-1.58,4.08-4.45,5.73-3.65,1.95-7.72,2.95-11.86,2.9v5.06c4.5,.03,8.95-1.06,12.92-3.18,3.72-2.15,5.55-4.95,5.49-7.76,0-.32,0-2.09,0-2.74Z"/><path class="cls-1" d="M299.62,332.16c0-.08,0-.16,0-.24,0-.19-.03-.39-.06-.58v-.21c-.05-.28-.11-.55-.2-.83,0-.07-.04-.15-.07-.21-.07-.2-.15-.39-.23-.58,0-.07-.06-.13-.1-.2l-.08-.18-.14-.26c-.05-.08-.09-.17-.15-.25l-.16-.25c-.3-.42-.63-.81-1-1.17-.46-.5-.96-.96-1.5-1.37-.6-.47-1.23-.89-1.9-1.26-7.43-4.22-19.34-4.22-26.66,0l-.54,.32c-.65,.41-1.27,.86-1.86,1.37-.17,.15-.33,.3-.48,.45-.39,.37-.74,.77-1.06,1.2l-.17,.22-.21,.31c-.09,.14-.18,.29-.26,.43s-.17,.32-.25,.48l-.1,.21c-.04,.1-.08,.2-.12,.3s-.06,.15-.08,.21c-.18,.51-.29,1.04-.34,1.58v.54c0,2.79,1.85,5.59,5.55,7.71,7.36,4.25,19.3,4.25,26.66,0,3.63-2.1,5.46-4.83,5.49-7.57,0-.07-.01-.13-.02-.2h0Zm-6.56,5.92c-7.72,3.87-16.82,3.87-24.54,0-2.9-1.65-4.49-3.75-4.49-5.87s1.57-4.13,4.41-5.78c3.76-1.99,7.98-2.99,12.24-2.89,4.28-.1,8.52,.9,12.32,2.89,2.9,1.65,4.5,3.73,4.51,5.85s-1.58,4.13-4.45,5.78v.02Z"/><path class="cls-17" d="M299.62,332.16c0-.08,0-.16,0-.24,0-.19-.03-.39-.06-.58v-.21c-.05-.28-.11-.55-.2-.83,0-.07-.04-.15-.07-.21-.07-.2-.15-.39-.23-.58,0-.07-.06-.13-.1-.2l-.08-.18-.14-.26c-.05-.08-.09-.17-.15-.25l-.16-.25c-.3-.42-.63-.81-1-1.17-.46-.5-.96-.96-1.5-1.37-.6-.47-1.23-.89-1.9-1.26-7.43-4.22-19.34-4.22-26.66,0l-.54,.32c-.65,.41-1.27,.86-1.86,1.37-.17,.15-.33,.3-.48,.45-.39,.37-.74,.77-1.06,1.2l-.17,.22-.21,.31c-.09,.14-.18,.29-.26,.43s-.17,.32-.25,.48l-.1,.21c-.04,.1-.08,.2-.12,.3s-.06,.15-.08,.21c-.18,.51-.29,1.04-.34,1.58v.54c0,2.79,1.85,5.59,5.55,7.71,7.36,4.25,19.3,4.25,26.66,0,3.63-2.1,5.46-4.83,5.49-7.57,0-.07-.01-.13-.02-.2h0Zm-6.56,5.92c-7.72,3.87-16.82,3.87-24.54,0-2.9-1.65-4.49-3.75-4.49-5.87s1.57-4.13,4.41-5.78c3.76-1.99,7.98-2.99,12.24-2.89,4.28-.1,8.52,.9,12.32,2.89,2.9,1.65,4.5,3.73,4.51,5.85s-1.58,4.13-4.45,5.78v.02Z"/><path class="cls-1" d="M297.51,332.24c0,.36-.05,.72-.14,1.06-.44-1.74-1.96-3.42-4.37-4.79-3.8-1.99-8.03-2.98-12.32-2.89-4.26-.1-8.47,.89-12.24,2.89-2.36,1.36-3.84,3-4.27,4.73-.09-.34-.14-.7-.14-1.06,0-2.1,1.57-4.13,4.41-5.78,3.76-1.99,7.98-2.99,12.24-2.89,4.28-.1,8.52,.9,12.32,2.89,2.9,1.63,4.5,3.71,4.51,5.83h0Z"/><path class="cls-18" d="M297.51,332.24c0,.36-.05,.72-.14,1.06-.44-1.74-1.96-3.42-4.37-4.79-3.8-1.99-8.03-2.98-12.32-2.89-4.26-.1-8.47,.89-12.24,2.89-2.36,1.36-3.84,3-4.27,4.73-.09-.34-.14-.7-.14-1.06,0-2.1,1.57-4.13,4.41-5.78,3.76-1.99,7.98-2.99,12.24-2.89,4.28-.1,8.52,.9,12.32,2.89,2.9,1.63,4.5,3.71,4.51,5.83h0Z"/><path class="cls-15" d="M297.48,332.8c-.26,1.9-1.79,3.76-4.41,5.26-7.72,3.87-16.82,3.87-24.54,0-2.65-1.53-4.21-3.41-4.46-5.34,.25-1.91,1.77-3.76,4.37-5.26,3.76-1.99,7.98-2.99,12.24-2.89,4.28-.1,8.52,.9,12.32,2.89,2.66,1.52,4.23,3.39,4.48,5.33h0Z"/><ellipse class="cls-27" cx="224.68" cy="262.71" rx="69.07" ry="39.88"/><path class="cls-21" d="M287.2,270.42c-7.1,0-10.37-13.67-18.89-28.42-3.22-5.57-8.38-11.31-12.44-11.28,0,0-2.8,.33-3.24,1.51s-1.94,7.3-2.52,18.34c-.4,7.5-1.23,13.2-3.75,13.2-3.91,0-5.05-4.76-9.49-17.19-5.97-16.68-16.44-23.61-29.2-23.61s-18.68,6.72-24.31,14.59c-3.75,5.29-7.16,10.82-10.19,16.55-4.74,9.15-7.99,15.35-11.78,15.35,0,0-5.11-25.45,2-45.2,7.1-19.75,31.29-27.23,56.16-27.23s67.65,13.47,67.65,73.39h0Z"/><path class="cls-30" d="M287.2,270.42c-7.1,0-10.37-13.67-18.89-28.42-3.22-5.57-8.38-11.31-12.44-11.28,0,0-2.8,.33-3.24,1.51s-1.94,7.3-2.52,18.34c-.4,7.5-1.23,13.2-3.75,13.2-3.91,0-5.05-4.76-9.49-17.19-5.97-16.68-16.44-23.61-29.2-23.61s-18.68,6.72-24.31,14.59c-3.75,5.29-7.16,10.82-10.19,16.55-4.74,9.15-7.99,15.35-11.78,15.35,0,0-5.11-25.45,2-45.2,7.1-19.75,31.29-27.23,56.16-27.23s67.65,13.47,67.65,73.39h0Z"/><path class="cls-7" d="M224.28,94.26c17.29,0,22.14,6.25,31.49,14.67s15.27,8.1,23.38,9.66,18.09,10.66,15.59,25.91-5.63,21.82-6.86,35.53c-1.23,13.7,.52,21.41,4.95,31.75s4.71,29.42,0,47.07-7.74,11.2-9.3,6.25-5.62-20.43-14.03-29.06c-8.41-8.63-15.27-8.47-23.7,4.86s-12.81,24.79-15.28,37.92-3.43,25.68-7.48,27.23-21.2-14.37-26.19-31.84c-4.98-17.47-8.41-40.11-9.69-44.85s-4.36-4.47-8.73,3.65-10.92,23.1-13.41,31.05-5.61,7.2-8.42-2.71-6.24-28.1,0-45.05c6.24-16.95,7.17-25.78,5.61-33.2s-5.92-15.87-7.8-28.95c-1.87-13.09,.94-24.93,10.92-30.53s21.18-5.78,28.56-12.3c8.09-7.19,13.08-17.04,30.36-17.04h0Z"/><path class="cls-21" d="M172.21,229.95c2.02-4.65,4.13-9.38,4.58-14.42,.66-6.96-1.84-13.87-5.34-19.91-2.81-4.87-6.27-9.32-9.54-13.9-1.77-7.1-5.73-15.3-7.48-27.59-1.23-8.61-.41-16.68,3.12-22.8,2.23-2.57,5-4.62,8.11-6,5.78-2.48,11.55-2.42,17.59-1.36,1.99,.41,4.01,.63,6.04,.65,2.35-.09,4.67-.55,6.88-1.36,2.34-.81,4.54-1.99,6.51-3.49,3.34-2.62,4.47-6.41,6.78-9.76,6-8.7,17.92-10.89,26.62-4.89,.19,.13,.37,.26,.55,.4,4.13,3.07,6.96,7.76,11.46,10.25,3.42,1.89,7.43,2.31,11.15,3.59s7.43,3.96,7.9,7.85c.55,4.53-4.51,5.85-7.79,7.07-7,2.62-13.16,8.68-13.85,16.12-7.58-11.56-23.11-14.79-34.67-7.21-2.64,1.73-4.93,3.95-6.75,6.53-2.41,3.63-4.15,7.68-5.12,11.93-2.94,11.67-2.48,23.94,1.33,35.35,1.75,5.23,4.19,10.23,5.66,15.55,4.46,16.17-.49,33.31-.29,50.08,.11,9.81,1.99,19.52,5.55,28.66,1.94,4.95,4.48,9.9,8.09,13.71-6.6-3.78-18.47-16.79-22.47-30.83-4.95-17.47-8.42-40.08-9.67-44.83s-4.36-4.47-8.73,3.65c-4.36,8.12-10.92,23.1-13.41,31.05-.83,2.52-1.65,4.17-2.53,4.95-1.3-7.16,.49-15.05,2.94-22.11,1.99-5.77,4.35-11.37,6.77-16.93h0Z"/><path class="cls-20" d="M276.36,118.1c.91,.15,1.83,.31,2.79,.49,8.1,1.56,18.09,10.66,15.59,25.91s-5.63,21.82-6.86,35.53c-1.23,13.7,.52,21.41,4.95,31.75s4.71,29.42,0,47.07c-.72,3-1.73,5.92-3.01,8.72,2.52-14.67,5.16-29.52,1.1-43.66-2.34-8.16-6.85-15.68-8.52-23.93-2.05-10.16,.26-20.63,2.72-30.72s5.78-22.66,4.33-32.93c-1.16-8.14-5.29-14.63-13.09-18.23h0Zm-52.43,187.32c2.38-5.28,1.93-28.38,6.05-41.48,6.77-21.53,13.93-28.31,24.13-32.37-2.68,1.65-5.42,4.67-8.35,9.31-8.42,13.32-12.78,24.79-15.27,37.95-2.26,12.07-3.25,23.62-6.55,26.59Z"/><path class="cls-20" d="M285.58,145.11c.38,3.02,.14,6.08-.7,9-.62,2.33-3.3,5.59-4.95,1.79-.34-1.02-.51-2.09-.51-3.17-.17-2.61-1.12-5.12-2.73-7.19-1.64-2.06-4.1-3.31-6.73-3.42-2.66,0-8.47,3.51-9.78,.34-1.15-2.76,2.79-5.52,4.74-6.6,8-4.26,17.33-2.53,20.18,6.97,.21,.74,.37,1.5,.48,2.27h0Zm-41.31,18.74c.17,4.13-.21,14.27-4.79,16.33-6.49,2.92-2.53-7.76-2.35-10.4,.29-4.27-.69-8.94-3.89-11.78-2.36-2.1-5.57-2.91-8.31-4.5-3.98-2.29,.2-7.35,3.51-7.66,9.6-.85,15.49,9.9,15.82,18.01h0Zm-32.43,121.03c-1.31-13.83-.89-27.76,1.24-41.48,.83-5.18,2.12-11.29-.27-16.25-.15,8.83-3.71,16.86-4.54,25.63-.51,5.46-.46,10.95,.15,16.39,.59,5.34,1.74,10.61,3.42,15.71Z"/><path class="cls-21" d="M244.9,126.26c-3.33,1.79-6.93,3.01-10.67,3.59-3.91,.36-7.85-.01-11.62-1.11-4.36-1.11-8.62-2.63-12.99-3.71-4.47-1.09-9.02-1.78-13.61-2.06-2.63-.21-5.26-.24-7.9-.1-2.58,.22-5.14,.63-7.66,1.23-.13,0-.14,.37,0,.38,9.7,.21,19.39,1,28.78,3.6,8.61,2.38,17.14,6.43,26.29,4.85,3.96-.68,7.14-2.6,10.33-4.91,3-2.18,6.08-4.42,9.69-5.46-2.61,.05-5.16,.75-7.43,2.05l-3.22,1.65Z"/><path class="cls-30" d="M244.9,126.26c-3.33,1.79-6.93,3.01-10.67,3.59-3.91,.36-7.85-.01-11.62-1.11-4.36-1.11-8.62-2.63-12.99-3.71-4.47-1.09-9.02-1.78-13.61-2.06-2.63-.21-5.26-.24-7.9-.1-2.58,.22-5.14,.63-7.66,1.23-.13,0-.14,.37,0,.38,9.7,.21,19.39,1,28.78,3.6,8.61,2.38,17.14,6.43,26.29,4.85,3.96-.68,7.14-2.6,10.33-4.91,3-2.18,6.08-4.42,9.69-5.46-2.61,.05-5.16,.75-7.43,2.05l-3.22,1.65Z"/><path class="cls-21" d="M222.41,306.58c-.93-.07-1.83-.36-2.63-.83-7-3.54-19.28-17.21-23.35-31.46-3.43-12-6.11-26.34-7.88-35.83-.83-4.21-1.4-7.53-1.79-9-.31-1.2-.92-2.66-1.96-2.79-.69-.07-2.67,.4-5.97,6.53-4.6,8.56-10.97,23.32-13.38,30.97-1.2,3.84-2.53,5.7-4.08,5.7-1.86,0-3.53-2.79-5.13-8.43-2.71-9.56-6.3-28.16,0-45.31,6.6-17.96,7.02-26.17,5.59-33-.72-3.05-1.61-6.06-2.67-9.01-2.35-6.47-4.06-13.16-5.12-19.97-2.11-14.75,1.84-25.76,11.13-30.98,4.38-2.48,8.97-3.87,13.4-5.24,5.65-1.73,10.99-3.37,15.08-7,1.65-1.48,3.23-3.09,4.74-4.66,5.91-6.13,12.02-12.47,25.91-12.47,15.68,0,21.32,5.16,29.08,12.31,.83,.83,1.76,1.65,2.7,2.48,7.8,7.02,13.2,7.9,19.5,8.93,1.19,.19,2.4,.39,3.68,.64,8.15,1.57,18.48,10.79,15.92,26.4-1.07,6.6-2.24,11.44-3.37,16.15-1.69,6.34-2.87,12.81-3.52,19.35-1.27,14.03,.66,21.6,4.95,31.54,4.59,10.73,4.6,30.21,0,47.36-2.83,10.61-4.88,11.88-6.18,11.91h-.04c-1.87,0-3.07-3.02-3.9-5.66-.15-.47-.32-1.04-.52-1.69-1.9-6.32-5.87-19.46-13.41-27.23-4.13-4.27-7.67-6.1-11.02-5.78-3.86,.4-7.78,3.85-12,10.53-8.06,12.76-12.61,24.06-15.21,37.78-.57,3-1.06,5.95-1.53,8.79-1.6,9.77-2.87,17.47-6.23,18.73-.24,.13-.5,.22-.78,.25h0Zm-37.77-80.74h.26c1.23,.15,2.14,1.3,2.69,3.42,.4,1.51,.99,4.68,1.81,9.08,1.77,9.47,4.44,23.79,7.85,35.76,3.95,13.81,16.21,27.54,22.92,30.92,1.2,.61,2.17,.83,2.71,.63,2.89-1.08,4.18-8.95,5.68-18.06,.47-2.85,.96-5.78,1.53-8.81,2.62-13.84,7.21-25.22,15.34-38.08,4.42-7.01,8.44-10.48,12.63-10.92,3.63-.38,7.36,1.53,11.72,6,7.69,7.88,11.69,21.15,13.62,27.54,.19,.64,.36,1.21,.51,1.65,1.31,4.17,2.4,5.06,3.09,5.06,.89,0,2.77-1.51,5.38-11.28,4.53-16.99,4.54-36.23,0-46.8-4.31-10.07-6.26-17.79-4.95-31.95,.65-6.56,1.83-13.06,3.52-19.44,1.12-4.69,2.29-9.55,3.36-16.09,2.48-15.04-7.43-23.93-15.25-25.42-1.26-.25-2.48-.45-3.66-.64-6.41-1.05-11.95-1.95-19.93-9.13-.94-.85-1.84-1.68-2.71-2.48-7.62-7.01-13.12-12.09-28.5-12.09-13.52,0-19.5,6.21-25.3,12.21-1.52,1.58-3.09,3.21-4.79,4.7-4.23,3.75-9.66,5.43-15.4,7.19-4.39,1.34-8.93,2.74-13.2,5.16-8.95,5.03-12.76,15.73-10.73,30.11,1.05,6.75,2.75,13.38,5.08,19.8,1.07,2.97,1.98,6,2.71,9.08,1.74,8.32,.17,17.7-5.64,33.44-6.22,16.92-2.66,35.32,0,44.78,1.98,7.02,3.68,7.8,4.32,7.81,.63,0,1.87-.67,3.3-5.1,2.42-7.7,8.82-22.53,13.43-31.12,2.5-4.62,4.7-6.97,6.58-6.97v.04Z"/><path class="cls-9" d="M185.78,17.24c-.29,5.91-.14,8.33-6.25,9.28,5.21,.62,5.92,3.93,6.25,9.02,.17-5.09,1.27-8.42,5.67-9.02-5.19-.87-5.36-3.42-5.67-9.28Zm192.6-1.74c-.28,6.39-.87,8.75-6.56,9.75,5.46,.56,6.23,4.13,6.56,9.47,.18-5.35,1.26-9.19,6.53-9.45-5.45-.87-6.06-3.42-6.53-9.78Zm-188.5,59.5c.06,5.11-.17,9.76-7.55,10.91,6.6,.59,7.17,5.08,7.55,11.24,.21-6.16,1.16-10.95,7.24-11.24-6.29-1.05-6.46-3.58-7.24-10.91Zm113.14,30.92c0,4.22-.11,8.29-6.21,9.25,6.45-.09,5.97,3.98,6.28,9.08,.17-5.09,.83-9.13,5.87-9.37-5.2-.87-5.28-2.9-5.93-8.95h0Zm-41.73-79.74c0,1.77,0,3.48-2.61,3.89,2.71,0,2.48,1.65,2.63,3.81,.07-2.15,.26-3.68,2.38-3.78-2.19-.36-2.13-1.37-2.4-3.92ZM120.88,1.31c0,3.65-.16,7.15-5.43,7.93,5.56,0,5.12,3.47,5.35,7.86,.19-4.39,1.2-7.67,5.53-7.85-4.47-.77-4.93-2.7-5.45-7.95h0ZM22.14,23.58c0,3.65-.15,7.15-5.42,7.92,5.56,0,5.11,3.48,5.34,7.87,.19-4.39,1.2-7.67,5.54-7.85-4.48-.77-4.93-2.7-5.45-7.95Z"/><path class="cls-5" d="M287.4,103.54c0,2.09-.42,4.19-3.44,4.66,3.19-.04,3.3,1.88,3.47,4.41,.08-2.52,.78-4.46,3.26-4.59-2.57-.42-2.97-1.49-3.29-4.48ZM199.87,13.77c0,1.82-.36,3.65-3,4.05,2.78,0,2.89,1.65,3.03,3.84,.07-2.19,.67-3.89,2.83-3.99-2.24-.37-2.58-1.3-2.86-3.9h0Zm167.16-3.46c0,2.39-.49,4.8-3.94,5.34,3.66-.05,3.8,2.15,3.98,5.04,.1-2.89,.89-5.11,3.74-5.25-2.95-.49-3.41-1.7-3.77-5.13Zm-193.06,60.16c0,2.62-.53,5.26-4.32,5.85,4.01-.05,4.17,2.37,4.36,5.54,.11-3.17,.97-5.61,4.13-5.78-3.26-.52-3.76-1.85-4.17-5.61h0Z"/><path class="cls-21" d="M249.34,16.51c0,3.42-.09,6.71-5.02,7.48,5.21-.07,4.82,3.22,5.07,7.33,.14-4.13,.5-7.07,4.57-7.27-4.21-.69-4.09-2.64-4.62-7.54Zm-143.05,6.83c0-2.83-.07-5.35-4.13-5.99,4.32,.06,3.99-2.85,4.2-6.26,.12,3.41,.64,6.32,3.99,6.49-3.5,.58-3.59,1.72-4.07,5.77Z"/></svg>