<?xml version="1.0" encoding="UTF-8"?><svg id="Layer_1" xmlns="http://www.w3.org/2000/svg" viewBox="0 0 488.81 452.86"><defs><style>.cls-1,.cls-2,.cls-3,.cls-4{fill:#0096a1;}.cls-5{fill:#ebebeb;}.cls-6{fill:#f28f8f;}.cls-7{fill:#f0f0f0;}.cls-8{fill:#e6e6e6;}.cls-9{fill:#f5f5f5;}.cls-10,.cls-11,.cls-12,.cls-13,.cls-14,.cls-15,.cls-16,.cls-17,.cls-18{fill:#fff;}.cls-19{fill:#ffa8a7;}.cls-20{fill:#fafafa;}.cls-21{fill:#e0e0e0;}.cls-22{fill:#b16668;}.cls-23{fill:#37474f;}.cls-24{fill:#455a64;}.cls-25{fill:#263238;}.cls-2,.cls-11,.cls-3,.cls-12,.cls-13,.cls-26,.cls-14,.cls-15,.cls-16,.cls-17,.cls-18,.cls-4,.cls-27,.cls-28,.cls-29,.cls-30,.cls-31,.cls-32{isolation:isolate;}.cls-2,.cls-11,.cls-30{opacity:.2;}.cls-3,.cls-12,.cls-33,.cls-29{opacity:.3;}.cls-13,.cls-28{opacity:.15;}.cls-26{opacity:.1;}.cls-14{opacity:.5;}.cls-15{opacity:.55;}.cls-16{opacity:.6;}.cls-17,.cls-32{opacity:.45;}.cls-18,.cls-31{opacity:.25;}.cls-4{opacity:.4;}.cls-27{opacity:.05;}.cls-34{opacity:.65;}</style></defs><path class="cls-20" d="M71.59,211.98c-95.45,55.1-95.45,144.45,0,199.55,95.45,55.1,250.2,55.11,345.64,0s95.45-144.45,0-199.55-250.2-55.11-345.64,0h0Z"/><path class="cls-21" d="M370.86,262.24c-23.62,13.63-23.62,35.74,0,49.38s61.91,13.64,85.53,0,23.62-35.75,0-49.38-61.91-13.66-85.53,0Zm-294.29-17.99c-14,8.11-14,21.25,0,29.36s36.84,8.11,50.84-.03,14.05-21.25,0-29.36-36.8-8.08-50.84,.03Zm62.84-34.36c-13.62,7.87-13.62,20.62,0,28.49s35.71,7.86,49.33,0,13.63-20.62,0-28.49-35.68-7.86-49.33,0h0Zm317.39,136.19l-4.82-2.79c-1.11-.57-2.44-.53-3.52,.09l-88.84,52.68c-4.85-2.83-11.56-4.58-19-4.58-14.82,0-26.83,7-26.83,15.66s12,15.66,26.83,15.66,26.82-7,26.82-15.66c-.08-2.89-1.3-5.62-3.38-7.62l92.65-51.46c1.06-.48,1.08-1.41,.09-1.98Z"/><path class="cls-5" d="M16.89,221.3c0,1.49,1,3,3,4.13l25.92,15c4.49,2.28,9.79,2.28,14.28,0l66.12-38.17c2-1.14,3-2.64,3-4.13v-37.87c0-1.49-1-3-3-4.12l-25.92-15c-4.49-2.28-9.79-2.28-14.28,0L19.85,179.35c-2,1.14-3,2.63-3,4.13l.04,37.82Z"/><path class="cls-8" d="M19.85,179.35l33.06-19.08v81.83c-2.49,.05-4.94-.54-7.14-1.71l-25.92-15c-2-1.14-3-2.64-3-4.13v-37.78c.04-1.5,1.03-2.99,3-4.13h0Z"/><path class="cls-9" d="M100.26,141.18l25.91,15c2,1.14,3,2.63,3,4.13s-1,3-3,4.12l-66.12,38.15c-4.49,2.28-9.79,2.28-14.28,0l-25.92-15c-2-1.14-3-2.63-3-4.12s1-3,3-4.13l66.12-38.15c4.49-2.28,9.8-2.28,14.29,0Z"/><path class="cls-5" d="M21.66,182.98c0,1.29,.85,2.59,2.57,3.58l22.49,13c3.9,1.97,8.51,1.97,12.41,0l63.4-36.56c1.72-1,2.57-2.29,2.57-3.58V86.49c0-1.3-.85-2.59-2.57-3.58l-22.49-13c-3.9-1.98-8.5-1.98-12.4,0L24.23,106.48c-1.72,1-2.57,2.28-2.57,3.58v72.92Z"/><path class="cls-20" d="M114.97,101.83l-52.37,30.21-4.95,8.54v50.5l4.95,2.86,52.37-30.22,4.94-8.57v-50.46l-4.94-2.86Z"/><path class="cls-8" d="M24.23,106.48l28.69,13.27v81.28c-2.16,.04-4.29-.47-6.2-1.48l-22.49-12.97c-1.72-1-2.57-2.29-2.57-3.58V110.06c0-1.3,.85-2.59,2.57-3.58Z"/><path class="cls-26" d="M24.23,106.48l63.41-36.56c3.9-1.98,8.5-1.98,12.4,0l22.49,13c1.72,1,2.57,2.28,2.57,3.58v11.22l-65,37.55c-4.49,2.28-9.79,2.28-14.28,0l-24.16-13.93v-11.28c0-1.3,.85-2.59,2.57-3.58h0Z"/><path class="cls-9" d="M100.04,69.92l22.49,13c1.72,1,2.57,2.28,2.57,3.58s-.85,2.59-2.57,3.58l-63.41,36.55c-3.9,1.98-8.5,1.98-12.4,0l-22.49-13c-1.71-1-2.57-2.28-2.57-3.58s.85-2.59,2.57-3.58l63.41-36.56c3.9-1.98,8.51-1.97,12.4,0Z"/><path class="cls-5" d="M16.89,109.58c0,1.5,1,3,3,4.13l25.92,15c4.49,2.28,9.79,2.28,14.28,0l66.12-38.17c2-1.14,3-2.63,3-4.13V48.51c0-1.5-1-3-3-4.13l-25.92-15c-4.49-2.28-9.79-2.28-14.28,0L19.85,67.58c-2,1.14-3,2.63-3,4.13l.04,37.87Z"/><path class="cls-8" d="M19.85,67.58l33.06-19.07v81.83c-2.49,.05-4.94-.54-7.14-1.71l-25.92-15c-2-1.14-3-2.63-3-4.13v-37.78c.04-1.5,1.03-2.99,3-4.14Z"/><path class="cls-9" d="M100.26,29.42l25.91,15c2,1.14,3,2.63,3,4.13s-1,3-3,4.12L60.05,90.8c-4.49,2.28-9.79,2.28-14.28,0l-25.92-15c-2-1.14-3-2.63-3-4.12s1-3,3-4.13L85.97,29.42c4.49-2.28,9.8-2.28,14.29,0Z"/><path class="cls-5" d="M53.52,44.35v15.23c0,2.77,1.83,5.54,5.49,7.66,7.32,4.22,19.18,4.22,26.5,0,3.66-2.12,5.49-4.89,5.49-7.66v-15.23H53.52Z"/><path class="cls-9" d="M59.01,52c7.32,4.23,19.18,4.23,26.5,0s7.32-11.08,0-15.3-19.18-4.23-26.5,0-7.32,11.08,0,15.3Z"/><path class="cls-21" d="M52.91,11.17V45.24c0,2.86,1.89,5.72,5.67,7.9,7.55,4.36,19.8,4.36,27.36,0,3.78-2.18,5.67-5,5.67-7.9V11.17H52.91Z"/><path class="cls-26" d="M52.91,11.17V45.24c0,2.86,1.89,5.72,5.67,7.9,7.55,4.36,19.8,4.36,27.36,0,3.78-2.18,5.67-5,5.67-7.9V11.17H52.91Z"/><path class="cls-21" d="M58.58,19.07c7.55,4.37,19.8,4.37,27.36,0s7.56-11.43,0-15.8-19.81-4.36-27.36,0-7.56,11.44,0,15.8Z"/><path class="cls-1" d="M187.35,219.85v-22.55h-46.59v22.55c0,4,1.8,7.7,6.84,10.61,9.11,5.26,23.89,5.26,33,0,5.03-2.88,6.75-6.78,6.75-10.61Z"/><path class="cls-1" d="M140.76,219.85c0,4,1.8,7.7,6.84,10.61,9.11,5.26,23.89,5.26,33,0,5-2.91,6.75-6.78,6.75-10.61"/><path class="cls-28" d="M180.6,223.18c-9.11,5.27-23.89,5.27-33,0-5-2.9-6.84-6.59-6.84-10.6v1.81c0,4,1.8,7.71,6.84,10.61,9.11,5.26,23.89,5.26,33,0,5-2.9,6.75-6.78,6.75-10.61v-1.81c0,3.82-1.72,7.7-6.75,10.6Z"/><path class="cls-23" d="M134.48,51.84c.12-2.22,1.3-4.25,3.16-5.47l52.92-30.55c1.74-1,3.15-.19,3.15,1.82v13.45l-59.23,34.2v-13.45Z"/><path class="cls-24" d="M195.51,197.29l-1.8-166.2-59.23,34.2-1.79,132c0,4.64,3.06,9.28,9.2,12.82,12.26,7.08,32.15,7.08,44.42,0,6.1-3.53,9.2-8.18,9.2-12.82h0Z"/><path class="cls-24" d="M195.51,197.29l-1.8-166.2-59.23,34.2-1.79,132c0,4.64,3.06,9.28,9.2,12.82,12.26,7.08,32.15,7.08,44.42,0,6.1-3.53,9.2-8.18,9.2-12.82h0Z"/><path class="cls-30" d="M141.89,210.12c12.26,7.08,32.15,7.08,44.42,0,2.14-1.2,4.07-2.72,5.73-4.53-6.29,5.33-14.56,7.71-22.72,6.52-10.58-1.56-18.44-8.8-22.61-39.16s-6.54-102.66-7.53-114.07,1.44-14.23,8.9-18.54l-10.44,6c-1.86,1.22-3.04,3.25-3.16,5.47v13.45l-1.79,132c0,4.68,3.06,9.32,9.2,12.86h0Z"/><path class="cls-1" d="M162.65,148.58c-2,0-3.64,.93-3.64,2.33s1.63,2.68,3.64,2.72c8.3,.18,16.7-1.52,23-5.18,6.06-3.5,9.17-8,9.17-12.62l-.06-5.1c0,4.58-3,9.17-9.11,12.67-6.3,3.68-14.7,5.38-23,5.18Z"/><path class="cls-10" d="M180.27,122.8c1.68-1,2.86,.43,3.48,2.86,.49,2.44,.78,4.91,.85,7.4,.05,1.47,1.19,1.63,2.21-.69,1.14-2.95,1.73-6.09,1.74-9.25,.12-4.83-.52-6.25-.28-9.24,.26-3.2,1.45-6.52,1.21-10.33s-1.79-7.54-4.92-6.67-4,3.82-5.63,4.76-2.81-.81-5.82,1.85-4,7.87-3.75,11.68,1.75,5.57,2.38,8.26c.59,2.5,.17,4.54,.87,8.89,.53,3.29,1.52,5.62,2.75,6.66s2.27-.39,2.13-1.81c-.24-2.6-.28-5.22-.11-7.83,.28-2.95,1.21-5.58,2.89-6.54h0Z"/><path class="cls-1" d="M195.51,197.29c0,4.65-3.06,9.29-9.2,12.83-12.27,7.08-32.16,7.08-44.42,0-2.71-1.48-5.06-3.52-6.9-6-1.46-1.98-2.26-4.36-2.3-6.82l.38-27.61c.22,4.41,3.25,8.77,9.08,12.14,12.13,7,31.81,7,43.95,0,6.07-3.51,9.11-8.1,9.11-12.7l.3,28.16Z"/><path class="cls-16" d="M195.51,197.29c0,4.65-3.06,9.29-9.2,12.83-12.27,7.08-32.16,7.08-44.42,0-2.71-1.48-5.06-3.52-6.9-6-1.46-1.98-2.26-4.36-2.3-6.82l.38-27.61c.22,4.41,3.25,8.77,9.08,12.14,12.13,7,31.81,7,43.95,0,6.07-3.51,9.11-8.1,9.11-12.7l.3,28.16Z"/><path class="cls-4" d="M192.04,205.58c-6.29,5.33-14.56,7.71-22.72,6.52-9-1.34-16.1-6.84-20.57-27.4-2.29-.73-4.5-1.7-6.6-2.88-5.83-3.37-8.86-7.73-9.08-12.14l-.38,27.61c.04,2.46,.84,4.84,2.3,6.82,1.84,2.48,4.19,4.52,6.9,6,12.26,7.08,32.15,7.08,44.42,0h.09c.49-.29,1-.59,1.41-.89l.34-.23c.48-.32,.93-.65,1.36-1,.44-.35,.85-.71,1.24-1.07l.12-.11c.44-.44,.82-.83,1.17-1.23h0Z"/><path class="cls-1" d="M73.77,167.35c0-4.1,2.71-8.19,8.12-11.32,10.83-6.25,28.38-6.25,39.21,0,5.41,3.13,8.12,7.22,8.12,11.32v87.63c0,4.1-2.71,8.19-8.12,11.32-10.83,6.25-28.38,6.25-39.21,0-5.41-3.13-8.12-7.22-8.12-11.32v-87.63Z"/><path class="cls-3" d="M119.5,265.04c-10,5-26.07,5-36,0s-9.94-13.1,0-18.1,26.08-5,36,0,9.91,13.1,0,18.1Z"/><path class="cls-30" d="M118.72,263.32c-9.52,5.49-24.94,5.49-34.46,0s-9.51-14.4,0-19.89,25-5.5,34.46,0c9.46,5.5,9.51,14.4,0,19.89Z"/><path class="cls-1" d="M121.1,178.67c-10.83,6.25-28.38,6.25-39.21,0s-10.83-16.39,0-22.64,28.38-6.25,39.21,0,10.82,16.39,0,22.64Z"/><path class="cls-11" d="M121.1,178.67c-10.83,6.25-28.38,6.25-39.21,0s-10.83-16.39,0-22.64,28.38-6.25,39.21,0,10.82,16.39,0,22.64Z"/><path class="cls-30" d="M118.72,177.29c-9.52,5.5-24.94,5.5-34.46,0s-9.51-14.39,0-19.89,25-5.49,34.46,0c9.46,5.49,9.51,14.4,0,19.89Z"/><path class="cls-24" d="M88.66,126.2l-3-1.26,19,134c.1,1.3,.9,2.45,2.08,3l2.87,1.23h.11c.11,.05,.23,.1,.35,.13l.36,.09h.78c.85-.06,1.67-.32,2.39-.76,1.1-.67,1.99-1.64,2.57-2.79,.6-1.09,.85-2.34,.72-3.58l-19.17-135.29-9.06,5.23Z"/><path class="cls-23" d="M88.66,126.2l19,134c.1,1.28,.85,2.42,2,3h.11c.11,.05,.23,.1,.35,.13l.36,.09h.78c.85-.06,1.67-.32,2.39-.76,1.1-.67,1.99-1.64,2.57-2.79,.6-1.09,.85-2.34,.72-3.58l-19.22-135.32-9.06,5.23Z"/><path d="M91.47,91.96c-1.82-.66-3.85-.41-5.46,.67-4.38,2.8-6.83,7.82-6.34,13l2.08,14.65c.41,2.14,1.9,3.92,3.94,4.7l3,1.26,9.06-5.23c1.68-3.25,2.3-6.93,1.77-10.55l-1.74-12.29c-.14-2.1-1.39-3.97-3.28-4.89l-3.03-1.32Z"/><path class="cls-23" d="M88.66,126.2l9.06-5.23c1.68-3.25,2.3-6.93,1.77-10.55l-1.74-12.29c-.68-4.75-4.6-6.65-8.78-4.24-4.38,2.81-6.82,7.82-6.33,13l2.08,14.65c.41,2.15,1.9,3.92,3.94,4.7v-.04Z"/><path class="cls-21" d="M97.57,113.95c-.14-.04-.3-.01-.42,.07-.34,.19-.53,.56-.5,.95,0,.14,.09,.26,.21,.33l8.4,4.3,1.31-2.52-9-3.13Z"/><path class="cls-26" d="M105.26,119.58l.46-.88c-2.69-1.08-7.21-3-8-3.39s-1-.76-.8-1.13c-.2,.21-.29,.49-.27,.77,0,.14,.09,.26,.21,.33l8.4,4.3Z"/><path class="cls-5" d="M104.86,118.98c.09,.64,.65,.87,1.24,.53,.62-.37,.98-1.06,.93-1.78-.09-.65-.64-.88-1.24-.53-.62,.37-.98,1.06-.93,1.78Z"/><path class="cls-21" d="M97.24,111.58c-.14-.04-.3-.01-.42,.07-.35,.2-.55,.6-.5,1,0,.14,.09,.26,.21,.32l8.4,4.29,1.31-2.52-9-3.16Z"/><path class="cls-26" d="M104.93,117.26l.45-.88c-2.68-1.08-7.2-3-8-3.39s-1-.76-.8-1.13c-.2,.21-.3,.49-.27,.78,0,.14,.09,.26,.21,.32l8.41,4.3Z"/><path class="cls-5" d="M104.53,116.64c.09,.64,.64,.88,1.24,.53,.61-.38,.96-1.06,.93-1.78-.09-.64-.64-.88-1.25-.53-.62,.37-.97,1.06-.92,1.78Z"/><path class="cls-21" d="M96.9,109.27c-.14-.05-.3-.03-.42,.06-.35,.2-.54,.6-.49,1,0,.14,.09,.26,.21,.32l8.4,4.29,1.31-2.52-9.01-3.15Z"/><path class="cls-26" d="M104.6,114.92l.45-.88c-2.68-1.08-7.2-3-8-3.39s-1-.76-.8-1.12c-.2,.21-.29,.49-.27,.77,0,.14,.09,.26,.21,.32l8.41,4.3Z"/><path class="cls-5" d="M104.19,114.3c.03,.42,.39,.74,.81,.71,.16-.01,.32-.07,.44-.18,.61-.38,.96-1.06,.93-1.78-.09-.64-.65-.88-1.25-.53-.62,.37-.98,1.06-.93,1.78Z"/><path class="cls-1" d="M96.57,106.94c-.14-.04-.3-.02-.42,.06-.34,.21-.53,.6-.5,1,.02,.14,.1,.26,.21,.33l8.4,4.29,1.31-2.52-9-3.16Z"/><path class="cls-26" d="M104.26,112.58l.46-.87c-2.68-1.09-7.2-3-8-3.4s-1-.76-.8-1.12c-.2,.2-.3,.49-.28,.77,.02,.14,.1,.26,.21,.33l8.41,4.29Z"/><path class="cls-1" d="M103.86,111.96c.09,.64,.65,.88,1.25,.53,.62-.37,.97-1.06,.92-1.78-.08-.64-.64-.88-1.24-.53-.61,.38-.96,1.06-.93,1.78Z"/><path class="cls-12" d="M103.86,111.96c.09,.64,.65,.88,1.25,.53,.62-.37,.97-1.06,.92-1.78-.08-.64-.64-.88-1.24-.53-.61,.38-.96,1.06-.93,1.78Z"/><path class="cls-1" d="M96.24,104.58c-.14-.04-.3-.02-.42,.06-.34,.21-.54,.6-.5,1,.01,.14,.09,.26,.21,.33l8.4,4.29,1.31-2.52-9-3.16Z"/><path class="cls-26" d="M103.93,110.24l.46-.87c-2.69-1.09-7.21-3-8-3.39s-1-.77-.8-1.13c-.2,.21-.29,.49-.27,.77,.01,.14,.09,.26,.21,.33l8.4,4.29Z"/><path class="cls-1" d="M103.53,109.63c.09,.63,.65,.87,1.25,.52,.61-.38,.97-1.06,.92-1.78-.08-.64-.64-.88-1.24-.53-.62,.38-.98,1.07-.93,1.79Z"/><path class="cls-12" d="M103.53,109.63c.09,.63,.65,.87,1.25,.52,.61-.38,.97-1.06,.92-1.78-.08-.64-.64-.88-1.24-.53-.62,.38-.98,1.07-.93,1.79Z"/><path class="cls-1" d="M95.91,102.26c-.14-.04-.3-.02-.42,.06-.35,.2-.55,.6-.5,1,.01,.14,.09,.26,.21,.33l8.4,4.3,1.31-2.52-9-3.17Z"/><path class="cls-26" d="M103.6,107.91l.46-.88c-2.69-1.09-7.21-3-8-3.39s-1-.77-.8-1.13c-.2,.21-.29,.49-.27,.77,.01,.14,.09,.26,.21,.33l8.4,4.3Z"/><path class="cls-1" d="M103.2,107.29c.03,.42,.4,.73,.82,.7,.16-.01,.3-.07,.42-.17,.61-.39,.97-1.07,.93-1.79-.09-.64-.64-.87-1.25-.53-.61,.39-.96,1.07-.92,1.79Z"/><path class="cls-12" d="M103.2,107.29c.03,.42,.4,.73,.82,.7,.16-.01,.3-.07,.42-.17,.61-.39,.97-1.07,.93-1.79-.09-.64-.64-.87-1.25-.53-.61,.39-.96,1.07-.92,1.79Z"/><path class="cls-21" d="M95.58,99.92c-.14-.04-.29-.02-.42,.06-.35,.2-.55,.6-.5,1,.01,.14,.09,.26,.21,.33l8.4,4.3,1.31-2.52-9-3.17Z"/><path class="cls-26" d="M103.27,105.58l.45-.88c-2.68-1.08-7.2-3-8-3.39s-1-.77-.8-1.13c-.2,.21-.29,.49-.27,.77,.01,.14,.09,.26,.21,.33l8.41,4.3Z"/><path class="cls-5" d="M102.87,104.95c.09,.64,.64,.87,1.24,.53,.61-.39,.97-1.07,.93-1.79-.09-.64-.64-.87-1.25-.53-.61,.39-.96,1.07-.92,1.79Z"/><path class="cls-21" d="M95.24,97.58c-.14-.04-.3-.01-.42,.07-.35,.2-.54,.6-.49,1,0,.14,.09,.26,.21,.32l8.4,4.3,1.31-2.52-9.01-3.17Z"/><path class="cls-26" d="M102.94,103.23l.45-.88c-2.68-1.08-7.2-3-8-3.39s-1-.76-.8-1.13c-.2,.21-.3,.49-.27,.78,0,.14,.09,.26,.21,.32l8.41,4.3Z"/><path class="cls-5" d="M102.53,102.58c.1,.64,.65,.87,1.25,.53,.61-.38,.96-1.06,.93-1.78-.09-.64-.65-.88-1.25-.53-.62,.37-.98,1.06-.93,1.78Z"/><path class="cls-21" d="M94.91,95.24c-.14-.05-.3-.03-.42,.06-.34,.21-.54,.6-.5,1,.02,.13,.09,.25,.21,.32l8.4,4.29,1.31-2.52-9-3.15Z"/><path class="cls-26" d="M102.6,100.89l.46-.88c-2.68-1.08-7.2-3-8-3.39s-1-.76-.8-1.13c-.2,.21-.3,.49-.28,.78,.02,.13,.09,.25,.21,.32l8.41,4.3Z"/><path class="cls-5" d="M102.2,100.27c.09,.64,.65,.88,1.25,.53,.62-.37,.97-1.06,.92-1.78-.08-.64-.64-.88-1.24-.53-.62,.37-.98,1.06-.93,1.78Z"/><path class="cls-21" d="M95.58,118.89c-.14-.04-.3-.02-.42,.06-.34,.21-.54,.6-.5,1,.01,.14,.09,.26,.21,.33l8.4,4.29,1.31-2.52-9-3.16Z"/><path class="cls-26" d="M103.27,124.58l.46-.87c-2.69-1.09-7.21-3-8-3.4s-1-.76-.8-1.12c-.2,.21-.29,.49-.27,.77,.01,.14,.09,.26,.21,.33l8.4,4.29Z"/><path class="cls-5" d="M102.87,123.91c.02,.41,.37,.73,.79,.71,.17,0,.33-.07,.45-.18,.62-.37,.98-1.06,.93-1.78-.08-.64-.64-.88-1.24-.53-.62,.37-.98,1.06-.93,1.78Z"/><path class="cls-21" d="M95.25,116.58c-.14-.04-.3-.02-.42,.06-.35,.2-.55,.6-.5,1,.01,.14,.09,.26,.21,.33l8.4,4.29,1.31-2.52-9-3.16Z"/><path class="cls-26" d="M102.94,122.19l.45-.87c-2.68-1.09-7.2-3-8-3.39s-1-.77-.8-1.13c-.2,.21-.29,.49-.27,.77,.01,.14,.09,.26,.21,.33l8.41,4.29Z"/><path class="cls-5" d="M102.54,121.58c.03,.42,.4,.73,.82,.7,.16-.01,.3-.07,.42-.17,.61-.39,.97-1.07,.93-1.79-.09-.64-.64-.88-1.25-.53-.61,.39-.96,1.07-.92,1.79Z"/><path class="cls-21" d="M94.91,114.21c-.14-.04-.29-.02-.41,.06-.35,.2-.55,.6-.5,1,.01,.14,.09,.26,.21,.33l8.4,4.3,1.31-2.52-9.01-3.17Z"/><path class="cls-26" d="M102.61,119.86l.45-.88c-2.68-1.08-7.2-3-8-3.39s-1-.77-.8-1.13c-.2,.21-.29,.49-.27,.77,.01,.14,.09,.26,.21,.33l8.41,4.3Z"/><path class="cls-5" d="M102.21,119.24c.09,.64,.64,.87,1.24,.53,.61-.39,.97-1.07,.93-1.79-.09-.64-.65-.87-1.25-.53-.62,.38-.97,1.07-.92,1.79Z"/><path class="cls-21" d="M94.58,111.87c-.14-.04-.3-.01-.42,.07-.33,.2-.52,.57-.5,.95,.02,.14,.1,.26,.22,.33l8.4,4.3,1.31-2.52-9.01-3.13Z"/><path class="cls-26" d="M102.27,117.52l.46-.88c-2.68-1.08-7.2-3-8-3.39s-1-.76-.8-1.13c-.2,.2-.3,.49-.28,.77,.02,.14,.1,.26,.22,.33l8.4,4.3Z"/><path class="cls-5" d="M101.87,116.9c.09,.64,.65,.87,1.25,.53,.61-.38,.96-1.06,.93-1.78-.09-.65-.65-.88-1.25-.53-.62,.37-.98,1.06-.93,1.78Z"/><path class="cls-1" d="M94.25,109.58c-.14-.04-.3-.01-.42,.07-.35,.2-.55,.6-.5,1,.01,.14,.09,.26,.21,.32l8.4,4.29,1.31-2.52-9-3.16Z"/><path class="cls-26" d="M101.94,115.18l.46-.88c-2.68-1.08-7.2-3-8-3.39s-1-.76-.8-1.13c-.19,.21-.29,.49-.27,.78,.01,.14,.09,.26,.21,.32l8.4,4.3Z"/><path class="cls-1" d="M101.54,114.58c.09,.64,.65,.88,1.25,.53,.61-.38,.97-1.06,.92-1.78-.08-.64-.64-.88-1.24-.53-.62,.37-.98,1.06-.93,1.78Z"/><path class="cls-12" d="M101.54,114.58c.09,.64,.65,.88,1.25,.53,.61-.38,.97-1.06,.92-1.78-.08-.64-.64-.88-1.24-.53-.62,.37-.98,1.06-.93,1.78Z"/><path class="cls-1" d="M93.92,107.19c-.14-.05-.3-.03-.42,.06-.35,.2-.55,.6-.5,1,.01,.14,.09,.26,.21,.33l8.4,4.29,1.31-2.52-9-3.16Z"/><path class="cls-26" d="M101.61,112.84l.46-.88c-2.69-1.08-7.21-3-8-3.39s-1-.76-.8-1.12c-.2,.21-.29,.49-.27,.77,.01,.14,.09,.26,.21,.33l8.4,4.29Z"/><path class="cls-1" d="M101.21,112.22c.02,.41,.37,.73,.79,.71,.17,0,.33-.07,.45-.18,.62-.37,.98-1.06,.93-1.78-.08-.64-.64-.88-1.24-.53-.62,.37-.98,1.06-.93,1.78Z"/><path class="cls-12" d="M101.21,112.22c.02,.41,.37,.73,.79,.71,.17,0,.33-.07,.45-.18,.62-.37,.98-1.06,.93-1.78-.08-.64-.64-.88-1.24-.53-.62,.37-.98,1.06-.93,1.78Z"/><path class="cls-1" d="M93.59,104.86c-.14-.04-.3-.02-.42,.06-.35,.2-.55,.6-.5,1,.01,.14,.09,.26,.21,.33l8.4,4.29,1.31-2.52-9-3.16Z"/><path class="cls-26" d="M101.28,110.5l.45-.87c-2.68-1.09-7.2-3-8-3.4s-1-.76-.8-1.12c-.2,.21-.29,.49-.27,.77,.01,.14,.09,.26,.21,.33l8.41,4.29Z"/><path class="cls-1" d="M100.88,109.88c.02,.41,.37,.73,.79,.71,.17,0,.33-.07,.45-.18,.61-.38,.96-1.06,.93-1.78-.09-.64-.64-.88-1.25-.53-.61,.38-.97,1.06-.92,1.78Z"/><path class="cls-12" d="M100.88,109.88c.02,.41,.37,.73,.79,.71,.17,0,.33-.07,.45-.18,.61-.38,.96-1.06,.93-1.78-.09-.64-.64-.88-1.25-.53-.61,.38-.97,1.06-.92,1.78Z"/><path class="cls-21" d="M93.25,102.52c-.14-.04-.3-.02-.42,.06-.35,.2-.54,.6-.49,1,.01,.14,.09,.26,.21,.33l8.4,4.29,1.31-2.52-9.01-3.16Z"/><path class="cls-26" d="M100.95,108.16l.45-.87c-2.68-1.09-7.2-3-8-3.39s-1-.77-.8-1.13c-.2,.21-.29,.49-.27,.77,.01,.14,.09,.26,.21,.33l8.41,4.29Z"/><path class="cls-5" d="M100.55,107.58c.09,.63,.64,.87,1.24,.53,.61-.39,.97-1.07,.93-1.79-.09-.64-.65-.88-1.25-.53-.62,.38-.97,1.07-.92,1.79Z"/><path class="cls-21" d="M92.92,100.18c-.14-.04-.3-.02-.42,.06-.34,.21-.53,.6-.5,1,.02,.14,.1,.26,.22,.33l8.4,4.3,1.31-2.52-9.01-3.17Z"/><path class="cls-26" d="M100.61,105.83l.46-.88c-2.68-1.08-7.2-3-8-3.39s-1-.77-.8-1.13c-.2,.2-.3,.49-.28,.77,.02,.14,.1,.26,.22,.33l8.4,4.3Z"/><path class="cls-5" d="M100.21,105.21c.09,.63,.65,.87,1.25,.53,.61-.39,.96-1.07,.92-1.79-.08-.64-.64-.87-1.24-.53-.61,.39-.97,1.07-.93,1.79Z"/><path class="cls-21" d="M92.59,97.84c-.14-.04-.29-.02-.42,.06-.34,.21-.54,.6-.5,1,.01,.14,.09,.26,.21,.33l8.4,4.3,1.31-2.52-9-3.17Z"/><path class="cls-26" d="M100.28,103.49l.46-.88c-2.68-1.08-7.21-3-8-3.39s-1-.77-.8-1.13c-.19,.21-.29,.49-.27,.77,.01,.14,.09,.26,.21,.33l8.4,4.3Z"/><path class="cls-5" d="M99.88,102.87c.09,.64,.65,.87,1.25,.53,.61-.39,.96-1.07,.92-1.79-.08-.64-.64-.87-1.24-.53-.61,.39-.97,1.07-.93,1.79Z"/><path class="cls-21" d="M92.26,95.5c-.14-.04-.3-.01-.42,.07-.35,.2-.55,.6-.5,1,0,.14,.09,.26,.21,.32l8.4,4.29,1.31-2.52-9-3.16Z"/><path class="cls-26" d="M99.95,101.15l.46-.88c-2.69-1.08-7.21-3-8-3.39s-1-.76-.8-1.13c-.2,.21-.3,.49-.27,.78,0,.14,.09,.26,.21,.32l8.4,4.3Z"/><path class="cls-5" d="M99.55,100.58c.09,.64,.65,.87,1.24,.53,.62-.37,.98-1.06,.93-1.78-.08-.64-.64-.88-1.24-.53-.62,.37-.98,1.06-.93,1.78Z"/><path class="cls-21" d="M93.21,121.52c-.14-.04-.3-.01-.42,.07-.35,.2-.55,.6-.5,1,0,.14,.09,.27,.21,.33l8.4,4.3,1.31-2.52-9-3.18Z"/><path class="cls-26" d="M100.9,127.17l.46-.88c-2.69-1.08-7.21-3-8-3.39s-1-.76-.8-1.13c-.19,.21-.29,.49-.27,.77,0,.14,.09,.27,.21,.33l8.4,4.3Z"/><path class="cls-5" d="M100.5,126.58c.09,.64,.65,.87,1.25,.53,.6-.39,.95-1.06,.92-1.78-.08-.64-.64-.88-1.24-.53-.62,.37-.98,1.06-.93,1.78Z"/><path class="cls-21" d="M92.88,119.18c-.14-.04-.3-.01-.42,.07-.35,.2-.55,.6-.5,1,0,.14,.09,.26,.21,.32l8.4,4.29,1.31-2.52-9-3.16Z"/><path class="cls-26" d="M100.57,124.83l.46-.88c-2.69-1.08-7.21-3-8-3.39s-1-.76-.8-1.13c-.2,.21-.3,.49-.27,.78,0,.14,.09,.26,.21,.32l8.4,4.3Z"/><path class="cls-5" d="M100.17,124.21c.02,.41,.37,.73,.79,.71,.17,0,.33-.07,.45-.18,.62-.37,.98-1.06,.93-1.78-.09-.64-.64-.88-1.25-.53-.62,.37-.97,1.06-.92,1.78Z"/><path class="cls-21" d="M92.55,116.84c-.14-.05-.3-.03-.42,.06-.35,.2-.55,.6-.5,1,.01,.14,.09,.26,.21,.33l8.4,4.29,1.31-2.52-9-3.16Z"/><path class="cls-26" d="M100.24,122.49l.45-.88c-2.68-1.08-7.2-3-8-3.39s-1-.76-.8-1.12c-.2,.21-.29,.49-.27,.77,.01,.14,.09,.26,.21,.33l8.41,4.29Z"/><path class="cls-5" d="M99.84,121.87c.09,.64,.64,.88,1.24,.53,.61-.38,.96-1.06,.93-1.78-.09-.64-.65-.88-1.25-.53-.61,.38-.97,1.06-.92,1.78Z"/><path class="cls-21" d="M92.21,114.51c-.14-.04-.3-.02-.42,.06-.35,.2-.54,.6-.49,1,.01,.14,.09,.26,.21,.33l8.4,4.29,1.31-2.52-9.01-3.16Z"/><path class="cls-26" d="M99.91,120.15l.45-.87c-2.68-1.09-7.2-3-8-3.4s-1-.76-.8-1.12c-.2,.21-.29,.49-.27,.77,.01,.14,.09,.26,.21,.33l8.41,4.29Z"/><path class="cls-5" d="M99.5,119.58c.09,.64,.65,.88,1.25,.53,.61-.38,.96-1.06,.93-1.78-.09-.64-.65-.88-1.25-.53-.61,.38-.96,1.06-.93,1.78Z"/><path class="cls-1" d="M91.88,112.17c-.14-.04-.3-.02-.42,.06-.34,.21-.53,.6-.5,1,.02,.14,.1,.26,.21,.33l8.4,4.29,1.31-2.52-9-3.16Z"/><path class="cls-26" d="M99.57,117.81l.46-.87c-2.68-1.09-7.2-3-8-3.39s-1-.77-.8-1.13c-.2,.2-.3,.49-.28,.77,.02,.14,.1,.26,.21,.33l8.41,4.29Z"/><path class="cls-1" d="M99.17,117.2c.09,.63,.65,.87,1.25,.53,.61-.39,.96-1.07,.92-1.79-.08-.64-.64-.88-1.24-.53-.61,.39-.97,1.07-.93,1.79Z"/><path class="cls-12" d="M99.17,117.2c.09,.63,.65,.87,1.25,.53,.61-.39,.96-1.07,.92-1.79-.08-.64-.64-.88-1.24-.53-.61,.39-.97,1.07-.93,1.79Z"/><path class="cls-1" d="M91.55,109.83c-.14-.04-.3-.02-.42,.06-.34,.21-.54,.6-.5,1,.01,.14,.09,.26,.21,.33l8.4,4.3,1.31-2.52-9-3.17Z"/><path class="cls-26" d="M99.24,115.48l.46-.88c-2.69-1.08-7.21-3-8-3.39s-1-.77-.8-1.13c-.19,.21-.29,.49-.27,.77,.01,.14,.09,.26,.21,.33l8.4,4.3Z"/><path class="cls-1" d="M98.84,114.86c.09,.63,.65,.87,1.25,.53,.61-.39,.96-1.07,.92-1.79-.08-.64-.64-.87-1.24-.53-.62,.38-.98,1.07-.93,1.79Z"/><path class="cls-12" d="M98.84,114.86c.09,.63,.65,.87,1.25,.53,.61-.39,.96-1.07,.92-1.79-.08-.64-.64-.87-1.24-.53-.62,.38-.98,1.07-.93,1.79Z"/><path class="cls-1" d="M91.22,107.49c-.14-.04-.29-.02-.42,.06-.35,.2-.55,.6-.5,1,0,.14,.09,.26,.21,.33l8.4,4.3,1.31-2.52-9-3.17Z"/><path class="cls-26" d="M98.91,113.14l.46-.88c-2.69-1.08-7.21-3-8-3.39s-1-.77-.8-1.13c-.2,.21-.29,.49-.27,.77,0,.14,.09,.26,.21,.33l8.4,4.3Z"/><path class="cls-1" d="M98.51,112.52c.09,.64,.65,.87,1.24,.53,.61-.39,.97-1.07,.93-1.79-.09-.64-.64-.87-1.25-.53-.61,.39-.96,1.07-.92,1.79Z"/><path class="cls-12" d="M98.51,112.52c.09,.64,.65,.87,1.24,.53,.61-.39,.97-1.07,.93-1.79-.09-.64-.64-.87-1.25-.53-.61,.39-.96,1.07-.92,1.79Z"/><path class="cls-21" d="M90.89,105.15c-.14-.04-.29-.01-.41,.07-.35,.2-.55,.6-.5,1,0,.14,.09,.26,.21,.32l8.4,4.29,1.31-2.52-9.01-3.16Z"/><path class="cls-26" d="M98.58,110.8l.45-.88c-2.68-1.08-7.2-3-8-3.39s-1-.76-.8-1.13c-.2,.21-.3,.49-.27,.78,0,.14,.09,.26,.21,.32l8.41,4.3Z"/><path class="cls-5" d="M98.18,110.18c.09,.64,.64,.88,1.24,.53,.61-.38,.96-1.06,.93-1.78-.09-.64-.65-.88-1.25-.53-.62,.37-.97,1.06-.92,1.78Z"/><path class="cls-21" d="M90.55,102.81c-.14-.05-.3-.03-.42,.06-.35,.2-.54,.6-.49,1,0,.14,.09,.26,.21,.32l8.4,4.29,1.31-2.52-9.01-3.15Z"/><path class="cls-26" d="M98.25,108.46l.45-.88c-2.68-1.08-7.2-3-8-3.39s-1-.76-.8-1.12c-.2,.21-.29,.49-.27,.77,0,.14,.09,.26,.21,.32l8.41,4.3Z"/><path class="cls-5" d="M97.84,107.84c.09,.64,.65,.88,1.25,.53,.61-.38,.96-1.06,.93-1.78-.09-.64-.65-.88-1.25-.53-.62,.37-.98,1.06-.93,1.78Z"/><path class="cls-21" d="M90.22,100.48c-.14-.05-.3-.03-.42,.06-.34,.21-.53,.6-.5,1,.02,.14,.1,.26,.21,.33l8.4,4.29,1.31-2.52-9-3.16Z"/><path class="cls-26" d="M97.91,106.12l.46-.87c-2.68-1.09-7.2-3-8-3.4s-1-.76-.8-1.12c-.2,.2-.3,.49-.28,.77,.02,.14,.1,.26,.21,.33l8.41,4.29Z"/><path class="cls-5" d="M97.51,105.5c.09,.64,.65,.88,1.25,.53,.62-.37,.97-1.06,.92-1.78-.08-.64-.64-.88-1.24-.53-.61,.38-.96,1.06-.93,1.78Z"/><path class="cls-21" d="M89.89,98.14c-.14-.04-.3-.02-.42,.06-.34,.21-.54,.6-.5,1,.01,.14,.09,.26,.21,.33l8.4,4.29,1.31-2.52-9-3.16Z"/><path class="cls-26" d="M97.58,103.78l.46-.87c-2.69-1.09-7.21-3-8-3.39s-1-.77-.8-1.13c-.2,.21-.29,.49-.27,.77,.01,.14,.09,.26,.21,.33l8.4,4.29Z"/><path class="cls-5" d="M97.18,103.16c.09,.64,.65,.88,1.25,.53,.61-.38,.97-1.06,.92-1.78-.08-.64-.64-.88-1.24-.53-.62,.37-.98,1.06-.93,1.78Z"/><path class="cls-21" d="M89.56,95.8c-.14-.04-.29-.02-.42,.06-.35,.2-.55,.6-.5,1,.01,.14,.09,.26,.21,.33l8.4,4.3,1.31-2.52-9-3.17Z"/><path class="cls-26" d="M97.25,101.45l.46-.88c-2.69-1.08-7.21-3-8-3.39s-1-.77-.8-1.13c-.2,.21-.29,.49-.27,.77,.01,.14,.09,.26,.21,.33l8.4,4.3Z"/><path class="cls-5" d="M96.85,100.83c.09,.64,.65,.87,1.24,.53,.61-.39,.97-1.07,.93-1.79-.09-.64-.64-.87-1.25-.53-.61,.39-.96,1.07-.92,1.79Z"/><path class="cls-21" d="M90.58,121.77c-.14-.04-.3-.01-.42,.07-.35,.21-.54,.6-.5,1,.02,.14,.1,.26,.22,.33l8.4,4.3,1.31-2.52-9.01-3.18Z"/><path class="cls-26" d="M98.27,127.42l.46-.88c-2.68-1.08-7.2-3-8-3.39s-1-.76-.8-1.13c-.2,.2-.3,.49-.28,.77,.02,.14,.1,.26,.22,.33l8.4,4.3Z"/><path class="cls-5" d="M97.87,126.8c.09,.64,.65,.87,1.25,.53,.61-.38,.97-1.06,.92-1.78-.08-.65-.64-.88-1.24-.53-.62,.37-.98,1.06-.93,1.78Z"/><path class="cls-21" d="M90.25,119.43c-.14-.04-.3-.01-.42,.07-.35,.2-.55,.6-.5,1,.01,.14,.09,.26,.21,.32l8.4,4.29,1.31-2.52-9-3.16Z"/><path class="cls-26" d="M97.94,125.08l.46-.88c-2.68-1.08-7.21-3-8-3.39s-1-.76-.8-1.13c-.19,.21-.29,.49-.27,.78,.01,.14,.09,.26,.21,.32l8.4,4.3Z"/><path class="cls-5" d="M97.54,124.46c.09,.64,.65,.88,1.25,.53,.61-.38,.97-1.06,.92-1.78-.08-.64-.64-.88-1.24-.53-.62,.37-.98,1.06-.93,1.78Z"/><path class="cls-21" d="M89.92,117.09c-.14-.05-.3-.03-.42,.06-.35,.2-.55,.6-.5,1,0,.14,.09,.26,.21,.32l8.4,4.29,1.31-2.52-9-3.15Z"/><path class="cls-26" d="M97.61,122.74l.46-.88c-2.69-1.08-7.21-3-8-3.39s-1-.76-.8-1.12c-.2,.21-.29,.49-.27,.77,0,.14,.09,.26,.21,.32l8.4,4.3Z"/><path class="cls-5" d="M97.21,122.12c.02,.41,.37,.73,.79,.71,.17,0,.33-.07,.45-.18,.62-.37,.98-1.06,.93-1.78-.09-.64-.64-.88-1.24-.53-.62,.37-.98,1.06-.93,1.78Z"/><path class="cls-21" d="M89.59,114.76c-.14-.04-.3-.02-.42,.06-.35,.2-.55,.6-.5,1,.01,.14,.09,.26,.21,.33l8.4,4.29,1.31-2.52-9-3.16Z"/><path class="cls-26" d="M97.28,120.4l.45-.87c-2.68-1.09-7.2-3-8-3.4s-1-.76-.8-1.12c-.2,.21-.29,.49-.27,.77,.01,.14,.09,.26,.21,.33l8.41,4.29Z"/><path class="cls-5" d="M96.88,119.78c.09,.64,.64,.88,1.24,.53,.61-.38,.96-1.06,.93-1.78-.09-.64-.64-.88-1.25-.53-.61,.38-.97,1.06-.92,1.78Z"/><path class="cls-1" d="M89.25,112.42c-.14-.04-.3-.02-.42,.06-.35,.2-.54,.6-.49,1,.01,.14,.09,.26,.21,.33l8.4,4.29,1.31-2.52-9.01-3.16Z"/><path class="cls-26" d="M96.95,118.06l.45-.87c-2.68-1.09-7.2-3-8-3.39s-1-.77-.8-1.13c-.2,.21-.29,.49-.27,.77,.01,.14,.09,.26,.21,.33l8.41,4.29Z"/><path class="cls-1" d="M96.54,117.45c.04,.42,.41,.74,.84,.7,.15-.01,.3-.07,.41-.17,.61-.39,.97-1.07,.93-1.79-.09-.64-.65-.88-1.25-.53-.61,.39-.97,1.07-.93,1.79Z"/><path class="cls-12" d="M96.54,117.45c.04,.42,.41,.74,.84,.7,.15-.01,.3-.07,.41-.17,.61-.39,.97-1.07,.93-1.79-.09-.64-.65-.88-1.25-.53-.61,.39-.97,1.07-.93,1.79Z"/><path class="cls-1" d="M88.92,110.08c-.14-.04-.3-.02-.42,.06-.34,.21-.53,.6-.5,1,.02,.14,.1,.26,.22,.33l8.4,4.3,1.31-2.52-9.01-3.17Z"/><path class="cls-26" d="M96.61,115.73l.46-.88c-2.68-1.08-7.2-3-8-3.39s-1-.77-.8-1.13c-.2,.2-.3,.49-.28,.77,.02,.14,.1,.26,.22,.33l8.4,4.3Z"/><path class="cls-1" d="M96.21,115.11c.09,.63,.65,.87,1.25,.53,.61-.39,.96-1.07,.92-1.79-.08-.64-.64-.87-1.24-.53-.61,.39-.97,1.07-.93,1.79Z"/><path class="cls-12" d="M96.21,115.11c.09,.63,.65,.87,1.25,.53,.61-.39,.96-1.07,.92-1.79-.08-.64-.64-.87-1.24-.53-.61,.39-.97,1.07-.93,1.79Z"/><path class="cls-1" d="M88.59,107.74c-.14-.04-.29-.02-.42,.06-.34,.21-.54,.6-.5,1,.01,.14,.09,.26,.21,.33l8.4,4.3,1.31-2.52-9-3.17Z"/><path class="cls-26" d="M96.28,113.39l.46-.88c-2.69-1.08-7.21-3-8-3.39s-1-.77-.8-1.13c-.19,.21-.29,.49-.27,.77,.01,.14,.09,.26,.21,.33l8.4,4.3Z"/><path class="cls-1" d="M95.88,112.77c.09,.64,.65,.87,1.25,.53,.61-.39,.96-1.07,.92-1.79-.08-.64-.64-.87-1.24-.53-.62,.38-.98,1.07-.93,1.79Z"/><path class="cls-12" d="M95.88,112.77c.09,.64,.65,.87,1.25,.53,.61-.39,.96-1.07,.92-1.79-.08-.64-.64-.87-1.24-.53-.62,.38-.98,1.07-.93,1.79Z"/><path class="cls-21" d="M88.26,105.4c-.14-.04-.3-.01-.42,.07-.35,.2-.55,.6-.5,1,0,.14,.09,.26,.21,.32l8.4,4.29,1.31-2.52-9-3.16Z"/><path class="cls-26" d="M95.95,111.05l.46-.88c-2.69-1.08-7.21-3-8-3.39s-1-.76-.8-1.13c-.2,.21-.3,.49-.27,.78,0,.14,.09,.26,.21,.32l8.4,4.3Z"/><path class="cls-5" d="M95.55,110.43c.09,.64,.65,.87,1.24,.53,.62-.37,.98-1.06,.93-1.78-.09-.64-.64-.88-1.25-.53-.62,.37-.97,1.06-.92,1.78Z"/><path class="cls-21" d="M87.93,103.06c-.14-.05-.3-.03-.42,.06-.35,.2-.55,.6-.5,1,0,.14,.09,.26,.21,.32l8.4,4.29,1.31-2.52-9-3.15Z"/><path class="cls-26" d="M95.62,108.71l.45-.88c-2.68-1.08-7.2-3-8-3.39s-1-.76-.8-1.12c-.2,.21-.29,.49-.27,.77,0,.14,.09,.26,.21,.32l8.41,4.3Z"/><path class="cls-5" d="M95.22,108.09c.09,.64,.64,.88,1.24,.53,.61-.38,.96-1.06,.93-1.78-.09-.64-.64-.88-1.25-.53-.61,.38-.97,1.06-.92,1.78Z"/><path class="cls-21" d="M87.59,100.73c-.14-.05-.3-.03-.42,.06-.35,.2-.54,.6-.49,1,.01,.14,.09,.26,.21,.33l8.4,4.29,1.31-2.52-9.01-3.16Z"/><path class="cls-26" d="M95.29,106.37l.45-.87c-2.68-1.09-7.2-3-8-3.4s-1-.76-.8-1.12c-.2,.21-.29,.49-.27,.77,.01,.14,.09,.26,.21,.33l8.41,4.29Z"/><path class="cls-5" d="M94.88,105.75c.03,.42,.39,.74,.81,.71,.16-.01,.32-.07,.44-.18,.61-.38,.96-1.06,.93-1.78-.09-.64-.65-.88-1.25-.53-.61,.38-.96,1.06-.93,1.78Z"/><path class="cls-21" d="M87.26,98.39c-.14-.04-.3-.02-.42,.06-.34,.21-.53,.6-.5,1,.02,.14,.1,.26,.21,.33l8.4,4.29,1.31-2.52-9-3.16Z"/><path class="cls-26" d="M94.95,104.03l.46-.87c-2.68-1.09-7.2-3-8-3.4s-1-.76-.8-1.12c-.2,.2-.3,.49-.28,.77,.02,.14,.1,.26,.21,.33l8.41,4.29Z"/><path class="cls-5" d="M94.55,103.41c.09,.64,.65,.88,1.25,.53,.62-.37,.97-1.06,.92-1.78-.08-.64-.64-.88-1.24-.53-.61,.38-.96,1.06-.93,1.78Z"/><path class="cls-21" d="M87.55,119.73c-.14-.04-.3-.02-.42,.06-.34,.21-.54,.6-.5,1,.01,.14,.09,.26,.21,.33l8.4,4.3,1.31-2.52-9-3.17Z"/><path class="cls-26" d="M95.24,125.38l.46-.88c-2.69-1.08-7.21-3-8-3.39s-1-.77-.8-1.13c-.19,.21-.29,.49-.27,.77,.01,.14,.09,.26,.21,.33l8.4,4.3Z"/><path class="cls-5" d="M94.84,124.76c.09,.63,.65,.87,1.25,.53,.61-.39,.96-1.07,.92-1.79-.08-.64-.64-.87-1.24-.53-.62,.38-.98,1.07-.93,1.79Z"/><path class="cls-21" d="M87.22,117.39c-.14-.04-.29-.02-.42,.06-.35,.2-.55,.6-.5,1,0,.14,.09,.26,.21,.33l8.4,4.3,1.31-2.52-9-3.17Z"/><path class="cls-26" d="M94.91,123.04l.45-.88c-2.68-1.08-7.2-3-8-3.39s-1-.76-.8-1.13c-.2,.21-.29,.49-.27,.77,0,.14,.09,.26,.21,.33l8.41,4.3Z"/><path class="cls-5" d="M94.51,122.42c.09,.64,.65,.87,1.24,.53,.61-.39,.97-1.07,.93-1.79-.09-.64-.64-.87-1.25-.52-.62,.37-.97,1.06-.92,1.78Z"/><path class="cls-21" d="M86.89,115.05c-.14-.04-.29-.01-.41,.07-.35,.2-.55,.6-.5,1,0,.14,.09,.26,.21,.32l8.4,4.29,1.31-2.52-9.01-3.16Z"/><path class="cls-26" d="M94.58,120.7l.45-.88c-2.68-1.08-7.2-3-8-3.39s-1-.76-.8-1.13c-.2,.21-.3,.49-.27,.78,0,.14,.09,.26,.21,.32l8.41,4.3Z"/><path class="cls-5" d="M94.18,120.08c.09,.64,.64,.87,1.24,.53,.61-.38,.96-1.06,.93-1.78-.09-.64-.65-.88-1.25-.53-.62,.37-.97,1.06-.92,1.78Z"/><path class="cls-1" d="M86.55,112.71c-.14-.05-.3-.03-.42,.06-.35,.2-.54,.6-.49,1,0,.14,.09,.26,.21,.32l8.4,4.29,1.32-2.52-9.02-3.15Z"/><path class="cls-26" d="M94.24,118.36l.46-.88c-2.68-1.08-7.2-3-8-3.39s-1-.76-.8-1.12c-.2,.21-.29,.49-.27,.77,0,.14,.09,.26,.21,.32l8.4,4.3Z"/><path class="cls-1" d="M93.84,117.74c.09,.64,.65,.88,1.25,.53,.61-.38,.96-1.06,.93-1.78-.09-.64-.65-.88-1.25-.53-.62,.37-.98,1.06-.93,1.78Z"/><path class="cls-12" d="M93.84,117.74c.09,.64,.65,.88,1.25,.53,.61-.38,.96-1.06,.93-1.78-.09-.64-.65-.88-1.25-.53-.62,.37-.98,1.06-.93,1.78Z"/><path class="cls-1" d="M86.22,110.38c-.14-.04-.3-.02-.42,.06-.34,.21-.54,.6-.5,1,.02,.14,.1,.26,.21,.33l8.4,4.29,1.31-2.52-9-3.16Z"/><path class="cls-26" d="M93.91,116.02l.46-.87c-2.68-1.09-7.2-3-8-3.4s-1-.76-.8-1.12c-.2,.2-.3,.49-.28,.77,.02,.14,.1,.26,.21,.33l8.41,4.29Z"/><path class="cls-1" d="M93.51,115.4c.09,.64,.65,.88,1.25,.53,.61-.38,.97-1.06,.92-1.78-.08-.64-.64-.88-1.24-.53-.61,.38-.96,1.06-.93,1.78Z"/><path class="cls-12" d="M93.51,115.4c.09,.64,.65,.88,1.25,.53,.61-.38,.97-1.06,.92-1.78-.08-.64-.64-.88-1.24-.53-.61,.38-.96,1.06-.93,1.78Z"/><path class="cls-1" d="M85.89,108.04c-.14-.04-.3-.02-.42,.06-.34,.21-.54,.6-.5,1,.01,.14,.09,.26,.21,.33l8.4,4.29,1.31-2.52-9-3.16Z"/><path class="cls-26" d="M93.58,113.68l.46-.87c-2.69-1.09-7.21-3-8-3.39s-1-.77-.8-1.13c-.2,.21-.29,.49-.27,.77,.01,.14,.09,.26,.21,.33l8.4,4.29Z"/><path class="cls-1" d="M93.18,113.06c.09,.64,.65,.88,1.25,.53,.61-.38,.97-1.06,.92-1.78-.08-.64-.64-.88-1.24-.53-.62,.37-.98,1.06-.93,1.78Z"/><path class="cls-12" d="M93.18,113.06c.09,.64,.65,.88,1.25,.53,.61-.38,.97-1.06,.92-1.78-.08-.64-.64-.88-1.24-.53-.62,.37-.98,1.06-.93,1.78Z"/><path class="cls-21" d="M85.56,105.7c-.14-.04-.3-.02-.42,.06-.35,.2-.55,.6-.5,1,.01,.14,.09,.26,.21,.33l8.4,4.3,1.31-2.53-9-3.16Z"/><path class="cls-26" d="M93.25,111.35l.45-.88c-2.68-1.09-7.2-3-8-3.39s-1-.77-.8-1.13c-.2,.21-.29,.49-.27,.77,.01,.14,.09,.26,.21,.33l8.41,4.3Z"/><path class="cls-5" d="M92.85,110.73c.03,.42,.4,.73,.82,.7,.16-.01,.3-.07,.42-.17,.61-.39,.97-1.07,.93-1.79-.09-.64-.64-.87-1.25-.53-.61,.39-.96,1.07-.92,1.79Z"/><path class="cls-21" d="M85.23,103.36c-.14-.04-.29-.02-.41,.06-.35,.2-.55,.6-.5,1,.01,.14,.09,.26,.21,.33l8.4,4.3,1.31-2.52-9.01-3.17Z"/><path class="cls-26" d="M92.92,109.01l.45-.88c-2.68-1.08-7.2-3-8-3.39s-1-.77-.8-1.13c-.2,.21-.29,.49-.27,.77,.01,.14,.09,.26,.21,.33l8.41,4.3Z"/><path class="cls-5" d="M92.52,108.39c.09,.64,.64,.87,1.24,.53,.61-.39,.97-1.07,.93-1.79-.09-.64-.65-.87-1.25-.53-.61,.39-.96,1.07-.92,1.79Z"/><path class="cls-21" d="M84.89,101.02c-.14-.04-.3-.01-.42,.07-.35,.2-.54,.6-.49,1,0,.14,.09,.26,.21,.32l8.4,4.3,1.32-2.52-9.02-3.17Z"/><path class="cls-26" d="M92.58,106.67l.46-.88c-2.68-1.08-7.2-3-8-3.39s-1-.76-.8-1.13c-.2,.21-.3,.49-.27,.78,0,.14,.09,.26,.21,.32l8.4,4.3Z"/><path class="cls-5" d="M92.18,106.05c.09,.64,.65,.87,1.25,.53,.61-.38,.96-1.06,.93-1.78-.09-.64-.65-.88-1.25-.53-.62,.37-.98,1.06-.93,1.78Z"/><path class="cls-3" d="M125.85,167.2c.07,3.66-2.31,7.31-7.13,10.09-9.52,5.49-24.93,5.49-34.44,0-4.83-2.78-7.21-6.43-7.14-10.09h-3.35v87.78c0,4.09,2.71,8.21,8.14,11.32,10.82,6.24,28.37,6.24,39.2,0,5.42-3.11,8.1-7.23,8.1-11.32v-87.78h-3.38Z"/><path class="cls-13" d="M81.87,178.67c.82,.48,1.66,.91,2.54,1.27v87.64c-.4-.2-.8-.36-1.21-.57s-.9-.46-1.34-.7-.83-.5-1.24-.8-.8-.54-1.17-.81-.7-.57-1-.87-.63-.57-.94-.87v-87.61c1.3,1.3,2.76,2.41,4.36,3.32h0Zm5.83,2.55c1.31,.44,2.64,.8,4,1.07v87.64c-.57-.1-1.11-.24-1.68-.37-.78-.19-1.55-.43-2.31-.7v-87.64Z"/><path class="cls-2" d="M129.21,167.35v87.64c0,4.08-2.71,8.17-8.1,11.32-.94,.54-1.92,1.02-2.92,1.44-.84,.37-1.67,.67-2.54,1s-1.48,.51-2.25,.71c-.94,.26-1.88,.47-2.85,.67-6.24,1.2-12.65,1.14-18.86-.2-.57-.1-1.11-.24-1.68-.37-.78-.19-1.55-.43-2.31-.7-1.13-.35-2.23-.78-3.29-1.28-.4-.2-.8-.36-1.21-.57s-.9-.46-1.34-.7-.83-.5-1.24-.8-.8-.54-1.17-.81-.7-.57-1-.87-.63-.57-.94-.87c-.19-.16-.37-.34-.53-.54,.17,.17,.34,.32,.53,.47,2.07,1.6,4.41,2.81,6.9,3.59,1.08,.37,2.17,.69,3.28,.94,1.31,.33,2.65,.57,4,.77,4.25,.63,8.57,.57,12.8-.17,9.51-1.88,15.31-8,15.31-12.3v-76.38c.43-.2,.87-.44,1.31-.67,1.22-.68,2.36-1.49,3.41-2.41,3.12-2.68,4.69-5.8,4.69-8.91h0Z"/><path class="cls-28" d="M129.21,167.35v87.64c0,4.08-2.71,8.17-8.1,11.32-.94,.54-1.92,1.02-2.92,1.44-.84,.37-1.67,.67-2.54,1s-1.48,.51-2.25,.71c-.94,.26-1.88,.47-2.85,.67,10.42-2.82,14-9.95,14-13.14v-80.7c3.09-2.71,4.66-5.83,4.66-8.94h0Z"/><path class="cls-19" d="M403.5,261.17l1.51-14-16.19,1.06s.25,7.59,.47,11.89c.14,2.54-3.32,7.25-3.32,7.25,0,0,7.6,4,11.68,2.62s6.23-6.42,6.17-7.51-.32-1.31-.32-1.31Z"/><path class="cls-25" d="M364.5,283.02c-.26,0-.69,2.59,.68,3.72,1.58,1.31,6.25,3.49,12.48,2.85s9.62-2.36,12.13-4.25,6.05-4.53,8.87-5.06c2.62-.49,5.47-1.54,6.32-2.27s.79-4.05,.79-4.05l-41.27,9.06Z"/><path class="cls-24" d="M403.5,261.14c.46,.02,.84,.35,.93,.8,.17,.91,.34,3.58,.72,5.09,.6,2.65,.76,5.37,.48,8.07-.37,1.69-4.65,2.8-7.38,3.72-3.19,1.23-6.19,2.91-8.9,5-2.95,2.18-9.13,4.4-13.18,4.3-4.79-.11-10.16-1.64-11.36-3.72-1.49-2.56-2.56-5.54,4.6-8.46,1.35-.56,6.12-3.06,7.74-4,4.4-2.47,7.5-4.74,9.58-9.2,.17-.55,.52-1.03,1-1.35,.44-.17,.93-.2,1.39-.09,2.36,.28,4.7,.73,7,1.35,1,.43,2.29,.94,2.25,2.07-.03,.4-.12,.79-.29,1.15-.09,.23-.16,.53,.06,.67s.48,0,.67-.16c.72-.64,1.39-1.34,2-2.09,.34-.38,.72-.71,1.14-1,.42-.21,.83-.45,1.23-.71,.38-.41,.29-.91,.32-1.44h0Z"/><path class="cls-23" d="M389.35,283.81c1.26-.92,2.59-1.81,3.92-2.61s-8.43,4.56-11.77,2.37c-2.15-1.41-1.09-3.07-1-3.6s-7.55-4.43-9.66-4.7c-.59,.3-1.09,.53-1.4,.66-7.16,2.92-6.09,5.9-4.6,8.46,1.2,2.08,5.08,3.75,11.27,3.85,4.02,.07,10.3-2.25,13.24-4.43Z"/><path class="cls-23" d="M381.08,278.43c-4.44,1.55-2.57,2.35-1.34,2.53s8.74-3.7,13.33-6.95c4.79-3.38,7.83-7.11,9.61-8.35,.66-.47,1.38-1,2-1.57-.1-.9-.18-1.72-.26-2.15-.09-.45-.47-.78-.93-.8,0,.53,.06,1-.37,1.42-.4,.26-.81,.5-1.23,.71-.42,.29-.8,.62-1.14,1-.61,.75-1.28,1.45-2,2.09-3.88,4.51-13.22,10.51-17.67,12.07h0Z"/><path class="cls-25" d="M380.07,280.37c.1,0,.2-.03,.28-.09,.18-.13,.22-.37,.09-.54,0,0-.01-.02-.02-.03-1.23-1.43-7.08-4.88-10.34-4.61-.23,0-.41,.17-.42,.4,0,.23,.17,.41,.4,.42,.03,0,.07,0,.1,0,3-.25,8.6,3.17,9.57,4.3,.09,.1,.21,.16,.34,.16Zm3.89-2.13c.1,0,.19-.03,.27-.09,.17-.12,.22-.35,.1-.53,0-.01-.02-.02-.02-.03-1.23-1.44-7.08-4.89-10.34-4.61-.22,0-.4,.19-.39,.41,0,.01,0,.02,0,.03,.03,.23,.24,.39,.47,.36,3-.24,8.6,3.17,9.57,4.31,.08,.1,.21,.15,.34,.15h0Zm3.89-2.01c.1,0,.19-.03,.27-.09,.18-.13,.22-.37,.09-.54,0,0-.01-.02-.02-.03-1.22-1.43-7.07-4.88-10.33-4.61-.23,.01-.4,.2-.39,.43,0,0,0,0,0,.01,.03,.23,.23,.4,.46,.37,0,0,0,0,0,0,3-.25,8.6,3.17,9.57,4.3,.08,.1,.21,.16,.34,.16Zm3.61-2.32c.1,0,.19-.02,.27-.08,.18-.13,.22-.37,.09-.54,0,0-.01-.02-.02-.03-1.22-1.43-7.09-4.88-10.33-4.61-.23,.01-.4,.2-.39,.43,0,0,0,0,0,.01,.03,.23,.23,.4,.46,.37,0,0,0,0,0,0,3-.25,8.6,3.16,9.57,4.3,.08,.1,.21,.15,.34,.15Zm3.53-2.33c.1,0,.2-.02,.28-.08,.18-.12,.22-.36,.1-.54,0,0-.01-.02-.02-.03-1.68-2-7.83-4.93-11.08-4.66-.23,.01-.41,.21-.4,.44,0,0,0,0,0,0,.04,.23,.25,.39,.48,.37,2.93-.25,8.81,2.54,10.3,4.34,.09,.1,.21,.16,.34,.16Z"/><path class="cls-19" d="M435.51,268.8l-3.69-13.22,16.48-2.53,.74,12.83s1.75,4.57,.75,6.26-12,3.6-13,2.5-1.28-5.84-1.28-5.84Z"/><path class="cls-25" d="M437.21,297.69c.53,4.11,1.44,6.76,3.27,9s5,2.54,8.2,1.39,7.13-3.59,7.82-7.29,.35-6.12-.62-9.87l-18.67,6.77Z"/><path class="cls-24" d="M449.04,265.85c1.32-.09,1.06,5.55,2.18,11,1.19,5.86,3.38,8,4.42,12.85,1.19,5.47,1,8-1,11.7s-9.71,8.07-13.91,3.75c-3.43-3.52-3.84-7.88-3.91-13.5,.07-4.76-.13-9.52-.61-14.25-.52-4.15-1.79-7.84-.68-8.46,.13,.6,.26,1.37,.4,2s.37,2.71,1.11,2.63c.03-.53,0-1.06-.08-1.58-.11-.48-.01-.99,.27-1.4,.63-.5,1.35-.88,2.12-1.1,1.28-.4,3.58-.91,4.89-1.19,.65-.14,1.31-.26,2-.34,.56-.08,1.12-.08,1.68,0,.31,.03,.59,.21,.75,.47,.08,.2,.12,.41,.11,.63,.03,.39,.11,.77,.24,1.13,.06,.16,.2,.34,.39,.28,.14-.07,.21-.22,.19-.37,0-.68-.16-1.15-.25-1.93,0-.36-.14-.85-.17-1.21s-.09-.76-.14-1.11h0Z"/><path class="cls-23" d="M455.24,288.17c.18,.78,1.29,6-.3,7.21s-3-2.79-3-2.79c0,0-4.28-.56-10.26,2.62,.37,.82-.39,3.81-2.11,3.43s-2.75-6.41-2.77-6.49c.09,5.39,.57,9.6,3.9,13,4.2,4.32,11.89-.07,13.91-3.75s2.2-6.23,1-11.7c-.09-.53-.2-1.04-.37-1.53h0Z"/><path class="cls-23" d="M451.5,293.02c.16,2,2.39,1,2.31-1.84s-2.3-9.4-2.59-14.31c-.48-6.75-.86-11.11-2.18-11v.2l.35,2.81c.08,.4,.13,.8,.15,1.2,.3,4.12,.46,12.12,1.11,15.84,.43,2.35,.72,4.72,.85,7.1h0Zm-9.09,2.04c-.71-2.27-1.29-4.58-1.71-6.92-.69-3.68-3-11-4.18-15-.3-.72-.5-1.47-.6-2.24-.13-.55-.25-1.25-.37-1.83v-.12c-.8,.46-.48,3.65,0,5.3s1,3.41,1.57,5.77c1.43,4.66,1.66,11.68,2.58,14.36s3.27,2.61,2.71,.68h0Z"/><path class="cls-25" d="M441.58,295.39c.06-.01,.12-.04,.18-.07,3.08-1.72,6.58-2.52,10.1-2.29,.26,.03,.5-.14,.58-.39,.04-.22-.1-.43-.31-.47-.02,0-.05,0-.07,0-3.76-.26-7.52,.6-10.8,2.46-.21,.11-.3,.37-.19,.58,0,.01,.01,.02,.02,.03,.12,.15,.31,.21,.49,.16h0Zm-1.37-4.24l.16-.06c3.48-1.82,7.37-2.71,11.3-2.56,.26,.01,.5-.16,.57-.41,.03-.22-.12-.42-.34-.46-.02,0-.04,0-.06,0-4.15-.16-8.27,.77-11.95,2.71-.22,.11-.31,.37-.2,.59,0,0,0,.01,.01,.02,.12,.16,.32,.22,.51,.17Zm10.88-6.75c.18-.04,.33-.17,.4-.34,.06-.22-.08-.44-.29-.5-.02,0-.04,0-.06-.01-6-1-11.69,2.47-11.93,2.62-.21,.09-.3,.34-.2,.54,0,.02,.02,.04,.03,.06,.17,.2,.45,.24,.67,.1,.05,0,5.57-3.36,11.17-2.46,.07,.01,.14,0,.21-.01Zm-.59-3.88c.18-.04,.33-.17,.39-.34,.07-.2-.04-.43-.25-.49-.03,0-.05-.01-.08-.02-4.23-.62-8.55,.31-12.15,2.62-.2,.11-.27,.36-.15,.56,.01,.02,.02,.03,.03,.05,.18,.18,.47,.2,.68,.05,3.38-2.12,7.39-2.98,11.34-2.43,.06,.01,.13,.01,.19,0h0Zm-.68-4.36c.18-.04,.32-.16,.39-.33,.07-.2-.03-.43-.23-.5-.03-.01-.06-.02-.09-.02-6.22-1.18-12,2.58-12.26,2.75-.2,.1-.28,.35-.18,.55,.01,.02,.02,.04,.04,.06,.17,.19,.46,.22,.67,.06,.06,0,5.66-3.66,11.44-2.57,.07,.02,.15,.02,.22,0Z"/><path class="cls-1" d="M438.96,128.86c3.1,32.49,4.53,77,4.53,77,.27,2.47,2.06,6.67,3.45,18.84,1.47,12.84,1.51,31,1.51,31,0,0-8.64,5-15.87,2.66,0,0-7.18-28.43-11.13-43.52-3.74-14.28-9-36-9-36l-2.93,22.94s-.31,8-.46,14.46c-.19,7.55-4.46,36.51-4.46,36.51,0,0-8.52,5.67-16.08,0,0,0-2.24-42.33-2.61-51.4-.73-17.81-.6-52.37-.36-75.37l53.41,2.88Z"/><path class="cls-14" d="M438.96,128.86c3.1,32.49,4.53,77,4.53,77,.27,2.47,2.06,6.67,3.45,18.84,1.47,12.84,1.51,31,1.51,31,0,0-8.64,5-15.87,2.66,0,0-7.18-28.43-11.13-43.52-3.74-14.28-9-36-9-36l-2.93,22.94s-.31,8-.46,14.46c-.19,7.55-4.46,36.51-4.46,36.51,0,0-8.52,5.67-16.08,0,0,0-2.24-42.33-2.61-51.4-.73-17.81-.6-52.37-.36-75.37l53.41,2.88Z"/><path class="cls-3" d="M412.41,178.82l-4.1-23.09s-8.69-1.15-13.23-5.15c0,0,3,5.33,11.22,7.28l4.05,21-.84,22.85,2.9-22.89Z"/><path class="cls-1" d="M448.66,256.08c-1.76,2.45-9.72,5-16.19,2.91l-1.2-5c4.88,1.47,13.29-.15,17.2-3.38l.19,5.47Zm-44.02-2.58c-2.15,2.08-10.23,3.26-16.23,.08l-.33-5.13c4.56,2.31,12.88,2.3,17.28-.19l-.72,5.24Z"/><path class="cls-19" d="M332.41,102.44c2.36,1.34,4.94,3.59,9,6s12.53,7.67,18.23,10,8,2.8,13.95-4.57c7.84-9.68,15.8-21.49,15.8-21.49l5.17-24.46c-9.81,.7-12,3.34-16.81,10.51-6.7,10-14.71,22.19-14.71,22.19,0,0-20.77-6.83-23-8-1.67-.84-3.01-2.22-3.8-3.92-.65-1.42-1.4-2.79-2.22-4.12-.85-1.42-1.17-2-2.18-3.75s-2-4.91-2.36-5.58c-.56-.73-1.74-.49-2.46,1.61-.29,1.3-.25,2.64,.12,3.92,.23,1.15,.79,2.52,.47,2.76s-2.11-.36-3.83-.51-3.31-.66-5.07,.17c-1.13,.46-1.67,1.74-1.21,2.87,.03,.08,.07,.16,.12,.24,.29,.43,.68,.78,1.15,1-.65,.03-1.26,.32-1.69,.81-.65,1.04-.47,2.4,.43,3.23-.72,.12-1.25,.76-1.23,1.49,0,1.12,.24,2.18,1.39,2.45,0,0-.87,.34-.85,.88-.03,.92,.43,1.78,1.2,2.28,1.05,.3,2.15,.39,3.24,.28,0,0,.22,.37,1.34,.76,1.21,.55,2.47,1.01,3.75,1.37,1.46,.31,4.19,.52,6.06,1.58h0Z"/><path class="cls-6" d="M363.04,100.58c2.49,1.06,3.46,4.43,4.69,8-.22-4.76-1.53-8.07-4.15-9.23l-.54,1.23Z"/><path class="cls-5" d="M388.87,95.76l7.2-31.57c-5.59,.49-12.15,4.2-16,10-7.76,11.72-17.09,25.94-17.09,25.94-.29-.11-20.18-6.32-20.18-6.32,0,0,1,3,.27,8.38s-2.61,7-2.61,7c0,0,12.6,6.93,16.67,8.79,6.59,3,9.36,2.94,10.33,2.59,1.85-.66,4-2.33,7.95-7.21,5.28-6.62,13.46-17.6,13.46-17.6h0Z"/><path class="cls-21" d="M388.87,95.76l3.36-14.56,3.64-17.06,.21,.25c-4.18,.5-8.12,2.19-11.36,4.87-1.8,1.54-3.37,3.33-4.64,5.33l-3.37,5.14-13.49,20.59-.12,.19-.24-.07-20.15-6.36,.33-.34c.34,1.31,.53,2.65,.54,4,.02,1.34-.06,2.67-.23,4-.15,1.34-.42,2.66-.82,3.95-.36,1.33-1.02,2.57-1.94,3.6v-.37c4.58,2.52,9.16,5,13.8,7.42,2.3,1.22,4.69,2.27,7.14,3.15,1.22,.43,2.47,.75,3.75,.95,.63,.1,1.27,.1,1.9,0,.61-.18,1.19-.45,1.73-.79,2.11-1.51,4-3.32,5.6-5.37,1.67-2,3.27-4.07,4.88-6.12,3.19-4.09,6.35-8.22,9.48-12.4h0Zm0,0c-3.11,4.2-6.25,8.37-9.42,12.52-1.59,2.07-3.18,4.14-4.83,6.18-1.59,2.09-3.47,3.94-5.59,5.49-.56,.37-1.17,.65-1.82,.84-.66,.11-1.34,.11-2,0-1.3-.19-2.59-.51-3.83-.94-2.47-.87-4.87-1.92-7.19-3.14-4.66-2.38-9.25-4.87-13.84-7.36l-.26-.15,.22-.23c.84-.98,1.45-2.14,1.78-3.39,.38-1.26,.64-2.56,.79-3.87,.16-1.31,.22-2.63,.19-3.95-.01-1.31-.19-2.61-.53-3.88l-.14-.49,.48,.15,20.2,6.29-.36,.12,13.59-20.52,3.4-5.13c1.25-2,2.81-3.79,4.62-5.3,3.37-2.73,7.43-4.46,11.73-5h.28l-.07,.28-3.75,17-3.65,14.48Z"/><path class="cls-6" d="M323.86,95.72c.1,.28,.05,.58-.11,.82-.2,.31-.43,.61-.67,.89-.11,.15-.24,.29-.37,.42-.12,.12-.26,.23-.42,.31l-1,.54c.39-.03,.78-.12,1.15-.26,.2-.07,.39-.17,.55-.31,.15-.14,.29-.28,.43-.43,.25-.31,.47-.64,.64-1,.08-.2,.1-.42,.07-.64-.02-.13-.09-.25-.18-.35,.29-.13,.56-.29,.83-.46,.44-.23,.82-.58,1.09-1,.09-.24,.14-.49,.15-.75,0-.08,0-.16,0-.24l.26-.54c.45,.94,1.11,1.76,1.94,2.39,.99,.8,2.16,1.35,3.41,1.59-3.22-1.11-5.09-4.46-4.36-7.78h.07c.14-.13,.24-.3,.29-.48,.09-.34,.05-.69-.11-1-.14-.29-.34-.56-.58-.78-.94-.83-2.15-1.3-3.4-1.35-.15-.23-.33-.43-.55-.6-.22-.18-.46-.33-.71-.46,.23,.16,.45,.34,.65,.53,.2,.19,.36,.41,.49,.65,1.19,.13,2.31,.63,3.2,1.43,.43,.35,.65,.89,.57,1.44-.1,.28-.19,.37-.48,.37h-.91c-.63,0-1.23,.07-1.83,.09-.6,0-1.19-.06-1.77-.2-.59-.14-1.16-.34-1.74-.53-.58-.18-1.15-.41-1.7-.67,1.06,.63,2.18,1.13,3.36,1.49,.6,.18,1.22,.27,1.85,.27,.63,0,1.23-.07,1.83-.06h.36c.24,.14,.41,.37,.49,.64,.12,.48-.05,.99-.44,1.29-.37,.36-.77,.67-1.21,.94-.42,.26-.89,.44-1.38,.54-1.02-.01-2.03-.17-3-.47-1-.22-2.05-.44-3.09-.62,1,.35,2,.64,3,.93,.51,.15,1,.28,1.53,.41,.53,.14,1.08,.2,1.63,.16,.34-.08,.68-.19,1-.34,.33,.03,.64,.17,.88,.4,.15,.15,.22,.35,.21,.56-.02,.22-.08,.43-.17,.63-.27,.35-.61,.63-1,.84-.36,.27-.78,.44-1.22,.52-.46,0-.91-.08-1.35-.2-.48-.07-.96-.1-1.45-.09-.95,0-1.9,0-2.86,.12,1,.08,1.91,.13,2.85,.19,.47,.02,.94,.07,1.4,.15,.47,.15,.96,.23,1.45,.24,.15-.05,.29-.11,.43-.18h0Z"/><path class="cls-1" d="M423.3,62.27c3.24,.67,7.36,1.51,11.49,2.66s6.88,1.88,10.61,4c-.15,10.07-1.2,20.11-3.14,30-.71,3.29-3.1,12.37-3.51,19.34-.52,7.24-.32,14.52,.58,21.72,0,0-10.73,8-33.65,6.23-18-1.35-20.34-8-20.34-8,0,0,.33-30,.8-43.27,.61-17.44,5.89-27.5,9.78-30.54l11.81-2,15.57-.14Z"/><path class="cls-7" d="M407.33,61.06v1.42c-4.38,2.04-7.81,5.69-9.59,10.18-2.51,6.3-5.3,20.82-5.91,37.66-1.24,34.14-1.92,61.15-1.92,61.15-2.57,.1-5.13-.26-7.57-1.07,0,0,.37-25.89,1-44.58,.72-22.3,2.16-37.14,3.62-46.21,1.59-9.92,5.86-13.49,8.36-15.43,4.09-1.11,9.51-2.42,12.01-3.12h0Z"/><path class="cls-21" d="M383.32,125.82l.15-8.05c.09-2.69,.19-5.37,.32-8.05,.26-5.37,.63-10.73,1.12-16.08,.26-2.67,.55-5.34,.89-8s.68-5.32,1.26-8c.55-2.65,1.5-5.2,2.82-7.57,1.36-2.33,3.21-4.35,5.42-5.91-2.13,1.63-3.89,3.7-5.15,6.06-1.24,2.36-2.13,4.9-2.62,7.52-.94,5.26-1.51,10.61-2,15.94-.49,5.33-.9,10.69-1.26,16l-.5,8-.45,8.14Z"/><path class="cls-23" d="M427.3,26.25s2.68,.2,4.44,3.58c.88,1.7,1.51,4.8-.91,13.65-.92,3.46-2.35,6.75-4.26,9.78-.56,.96-1.47,1.68-2.54,2l.18-6.81,.25-4.74s-3.82-3.48-4.15-6.88c-.34-2.37,.11-4.79,1.29-6.88l5.7-3.7Z"/><path class="cls-23" d="M428.22,26.47c-.66-3.82-5.51-8.39-14.88-8.89-7.67-.41-12,3.62-14.66,8.09-1.57,2.58-1.74,5.78-.45,8.52l23.48-1.22,6.51-6.5Z"/><path class="cls-19" d="M430.41,50.47c-3.53,1.72-5.14-1.07-5.14-1.07v14.36c-6.77,9.06-25.4,5.46-18-1.33v-3.2c-1.03-.03-2.05-.13-3.06-.3-2.97-.22-5.43-2.4-6-5.33-.55-2.33-.9-4.7-1.06-7.09-.21-3.55-.24-6.82,.64-9.28,.63-1.74-.1-4,.37-6.18,.37-1.65,1.08-3.44,2.59-4.19,3.74-1.85,7.21,.82,12.43,2.86,2.16,.84,7.41,1.21,8.79,.56-1.82,2-1.8,8.37,.88,10.94,.33,.66,.79,1.26,1.34,1.76,1.15,1,2.08-1.57,3-2.58,1.64-1.44,4.13-1.27,5.56,.36,.27,.31,.5,.67,.66,1.05,1.58,3.16,.31,7.01-2.85,8.59-.05,.02-.1,.05-.15,.07Z"/><path class="cls-6" d="M407.35,59.23c3.45,.11,6.89-.42,10.15-1.55,2.42-1,4.56-4.29,5.26-7.53,0,2.61-1.14,7.24-4.81,9.16s-7.93,2-10.61,2.09v-2.17Z"/><path class="cls-23" d="M413.63,34.06l3.46,1.46c.37-.97-.06-2.07-1-2.52-.92-.41-1.99,0-2.4,.92-.02,.05-.04,.09-.06,.14Zm-14.02,.64l3.52-1.4c-.33-.95-1.36-1.46-2.31-1.13-.03,.01-.06,.02-.09,.03-.98,.41-1.47,1.5-1.12,2.5Z"/><path class="cls-25" d="M415.16,38.23c-.03,.84-.75,1.5-1.59,1.47s-1.5-.75-1.47-1.59c.03-.84,.74-1.5,1.58-1.47,.84,.03,1.51,.73,1.48,1.58,0,0,0,0,0,.01Zm-11.98-.33c-.03,.84-.75,1.5-1.59,1.47s-1.5-.75-1.47-1.59c.03-.84,.74-1.5,1.59-1.47,.84,.03,1.5,.74,1.47,1.59,0,0,0,0,0,0Z"/><path class="cls-6" d="M409.17,34.91l-1.27,9.75-5.14-1.9c1.52-3.06,3.71-5.75,6.41-7.85Z"/><path class="cls-22" d="M410.03,47.71l-4,1.32c.27,1.07,1.35,1.72,2.42,1.46,.06-.02,.12-.03,.18-.06,1.12-.38,1.73-1.59,1.39-2.72Z"/><path class="cls-6" d="M409.61,48.43c.17-.02,.34-.02,.51,0-.02,.91-.6,1.71-1.46,2-.21,.07-.44,.11-.66,.1-.11-1.02,.6-1.95,1.61-2.1Z"/><path class="cls-7" d="M425.32,60.52v3.24s-1.19,5.5-2.06,10c-1.52,7.88-1.52,18.71-1.58,26.47s3.42,72.24,3.42,72.24c0,0,12.74-.09,18.88-2.93-.21-6.59-1.81-28.5-2.85-44.55-.48-7.47,2.65-18.11,3.59-29.95,1.08-13.57,1.07-26.25,1.07-26.25-4.72-2.14-9.59-3.91-14.59-5.28-4.04-2.03-5.88-2.99-5.88-2.99h0Z"/><path class="cls-23" d="M405.55,40.12c.75,.13,1.57,.8,3.47,1.48,3,1.08,7.26,1.22,9.52,2.67s4.34,5.15,2.89,8.51-3.13,4.87-5.57,5.74c-3.24,.98-6.61,1.45-10,1.38-2.55-.08-4.96-1.2-6.67-3.09-2.27-2.27-3.06-7.71-2.87-11.37s.23-3.8,1.68-3.89c1.91-.2,3.79-.6,5.61-1.19,.61-.25,1.28-.34,1.94-.24h0Z"/><path class="cls-25" d="M418.54,44.27c-2.26-1.45-6.48-1.59-9.52-2.67-1.9-.68-2.72-1.35-3.47-1.48-.65-.09-1.32-.01-1.93,.24-1.82,.6-3.7,1.01-5.61,1.22-1,.07-1.34,.15-1.52,1.52,.16-.58,.17-.79,2.16-1,1.66-.19,3.29-.55,4.87-1.08,.77-.3,1.63-.2,2.32,.25,1.96,.81,4.01,1.41,6.11,1.76,3.17,.6,6,.8,7.9,3.23,1.76,2.34,1.89,5.52,.34,8-1.51,2.2-2.23,3.28-5.89,4.4-2.75,.75-5.58,1.18-8.43,1.28,3.39,.07,6.76-.4,10-1.38,2.44-.87,4.07-2.27,5.57-5.74s-.67-7.13-2.9-8.55Z"/><path class="cls-28" d="M401.41,50.9c.1-2.29,0-4.95,.8-6,.71-1.41,2.05-3.32,2.48-4l.36-.79h-.37l-.39,.07h-.12l-.52,.15c-1.83,.62-3.72,1.03-5.64,1.25-1.45,.09-1.5,.28-1.68,3.89s.6,9.1,2.87,11.37c1,1.12,2.26,1.97,3.66,2.49-1.72-1.33-1.58-6.11-1.45-8.43Z"/><path class="cls-20" d="M415.9,55.33c2.18-.25,4.28-1.78,6.16-2.86l3.22-1.89v-.72l-3.56,2c-1.83,1-3.85,2.61-5.91,2.84l.09,.63Z"/><path class="cls-21" d="M415.14,55.58l1.15-.19c.19,0,.36-.16,.36-.29v-.27c0-.13-.14-.21-.34-.17l-1.15,.18c-.2,0-.36,.16-.37,.29v.27c-.01,.09,.15,.18,.35,.18Z"/><path class="cls-20" d="M417.29,48.11c2.17-.26,6.52-4.22,7.82-5,.29-.13,.53-.34,.69-.61-2.32,0-6,4.87-8.59,5l.08,.61Z"/><path class="cls-21" d="M416.7,48.27l1.07-.14c.16,0,.3-.11,.34-.27v-.28c0-.13-.13-.21-.31-.19l-1.07,.13c-.17,0-.31,.12-.35,.28v.26c.03,.14,.13,.23,.32,.21Z"/><path class="cls-19" d="M438.89,156.58c-.26,.24-.48,.52-.66,.83-.18,.32-.14,.72,.1,1,.13,.11,.28,.18,.45,.22,1.09,.25,2.23,.03,3.14-.62,.89-.64,1.66-1.44,2.26-2.36,.19-.32,.46-.6,.78-.79,1.48-.72,.76,1.76,.65,2.34-.31,1.64-.78,3.25-1.4,4.8-.37,1.21-3.38,4-4.07,5.12s-.66,2.43-.11,2.94,1.72-.26,3.17-1.68c1.07-.93,2.07-1.93,3-3l1.12-1.63c-.3,1.01-.69,1.99-1.17,2.93-.52,.82-2.52,2.88-3.14,3.91-.46,.82-.36,1.84,.24,2.56,.36,.39,.55,1,2.46-1,.95-.94,1.85-1.94,2.67-3,1.03,.25,2.1-.1,2.79-.9,1.13-1.35,2.14-2.8,3-4.33,1.03-.32,1.89-1.04,2.38-2,.77-1.61,1.78-4.17,2.53-6.24s.3-7.31,.69-10.95c.11-1.11,1.19-13.69,1.7-21.52,.38-5.86,.06-12.54-.64-15.56-1.65-7.13-1.54-6.24-4.15-16.1-1.69-6.37-3.06-10.93-4.19-14-1.72-4.71-2.82-6.81-9.58-9.26-3.72,3-5.09,10.33-2.71,24.3,1.79,6.64,4.07,13.13,6.84,19.43,0,0,1,30.41,1,30.95,.06,.99-.39,1.93-1.18,2.52-.79,.69-1.7,1.25-2.46,2-2.49,2.39-3,6.27-5.29,8.83l-.22,.26Z"/><path class="cls-6" d="M448.41,169.2c1.1-1.29,2.02-2.72,2.73-4.26,.73-1.53,1.28-3.14,1.65-4.79-.61,1.58-1.22,3.14-2,4.64-.69,1.52-1.49,3-2.38,4.41h0Zm5.74-5.23c.52-.67,.95-1.4,1.26-2.19,.33-.77,.58-1.58,.74-2.41-.4,.74-.71,1.52-1,2.28l-1,2.32Zm-6.82-.25c.81-1.21,1.51-2.5,2.08-3.85-.26,1.97-1.16,3.81-2.55,5.23l.47-1.38Z"/><path class="cls-5" d="M442.74,67.44c6.93,2.8,8.16,3.78,9.69,6.23,1.86,3,2.73,6.53,6.08,18.08,3.35,11.55,4.44,16.56,4.53,19,.21,4.59-.04,9.18-.76,13.72-.62,4.94-1.46,11.06-2.38,18.59-3.43,1.33-11.08-.07-12.77-2.31,0-5.1-.19-9.47-.28-15.23-.11-7.18-.48-12.77-.48-12.77l-7.19-21.57s-3.86-18.15,3.56-23.74h0Z"/><path class="cls-21" d="M456.46,143.9c-3.73,0-8.29-1.23-9.58-2.95l-.06-.08v-.1c0-3.06-.07-5.87-.14-8.85,0-2-.1-4.07-.14-6.38-.1-6.77-.45-12.2-.48-12.71l-7.17-21.54c-.17-.78-3.83-18.46,3.66-24.1l.14-.11,.17,.07c6.93,2.81,8.25,3.82,9.83,6.35s2.52,5.68,4.88,13.88c.38,1.3,.79,2.72,1.24,4.28,3.08,10.62,4.44,16.33,4.54,19.1,.21,4.6-.04,9.22-.76,13.77-.23,1.82-.49,3.8-.77,6-.48,3.69-1,7.88-1.61,12.63v.19l-.18,.06c-1.15,.38-2.36,.54-3.57,.49Zm-9-3.24c1.69,2,8.85,3.34,12.16,2.2,.58-4.68,1.12-8.8,1.59-12.45,.28-2.16,.54-4.14,.77-6,.72-4.52,.97-9.1,.76-13.67-.1-2.71-1.45-8.38-4.52-18.94l-1.24-4.22c-2.35-8.14-3.23-11.19-4.82-13.73-1.48-2.37-2.75-3.35-9.37-6-7,5.53-3.34,23.16-3.3,23.34l7.19,21.62c0,.05,.38,5.68,.48,12.78,0,2.3,.09,4.38,.14,6.38,.11,2.88,.11,5.67,.11,8.69h.05Z"/><path class="cls-1" d="M335.51,15.39l4.9-2.81c.19-.11,.47,0,.81,.22,.17,.14,.35,.27,.54,.39,.06,.05,.13,.09,.2,.13l.35,.23,.26,.14,.32,.18,.29,.14,.29,.14,.33,.14,.27,.12,.34,.17,.25,.09,.39,.11,.22,.07,.42,.1h.2l.44,.09h.18l.46,.07h2.58l.56-.08,.47-.09c.1-.11,.21-.2,.33-.28h.06l4.77-2.76c.4-.22,.77-.06,1,.52,3.12,7.76,9.78,15.62,14.21,17.59l.26,.13,.15,.11h.07c.07,.05,.13,.11,.19,.17,.07,.06,.13,.12,.18,.19,.32,.35,.5,.8,.5,1.27l-.64,17.42c0,5.08-2.16,10.44-6.57,13l-4.85,2.79h-.06c-2.24,1.25-4.81,1.75-7.35,1.44-.95-.15-1.84-.59-2.53-1.26-9.7-10-14.41-23.57-14.41-31.07l-.64-18.22c-.01-.25,.09-.49,.26-.59h0Z"/><path class="cls-28" d="M360.41,65.14l4.72-2.72c4.4-2.57,6.57-7.93,6.57-13l.64-17.42c-.01-.61-.3-1.19-.79-1.56,.1,.09,.2,.19,.29,.29l-4.84,2.8c.32,.34,.5,.79,.5,1.26l-.64,17.43c-.03,5.02-2.16,10.36-6.45,12.92Z"/><path class="cls-12" d="M335.52,15.39c.19-.1,.47,0,.8,.23,4.36,3.33,10.87,3.33,14.18-.52l.06-.07c-3.3,.64-6.72-.16-9.39-2.2-.34-.27-.62-.34-.81-.23l-4.84,2.79Z"/><path class="cls-14" d="M350.96,14.72c.37-.18,.71,0,.93,.54,3.12,7.76,9.77,15.63,14.21,17.59,.34,.15,.63,.38,.87,.66l4.84-2.8c-.09-.1-.19-.2-.29-.29l-.11-.08-.11-.09-.12-.07c-.08,0-.16-.09-.24-.12-4.43-2-11.09-9.83-14.21-17.59-.17-.41-.4-.61-.67-.61-.12,0-.23,.03-.33,.09l-4.77,2.77Z"/><path class="cls-1" d="M371.91,42.99l-4.85,2.79-.53,7s5.57,1.91,9.65-.48l5-2.92c.44-.22,.85-.49,1.23-.8-3,.79-8.55-2.24-10.5-5.59Z"/><path class="cls-14" d="M371.91,42.99l-4.84,2.79c1.95,3.36,7.5,6.38,10.46,5.58-.4,.38-.85,.72-1.33,1l5-2.92c.43-.24,.84-.53,1.21-.86-3,.79-8.55-2.23-10.5-5.59Z"/><path class="cls-1" d="M382.41,48.58c-.35,.33-.74,.62-1.15,.87l-5,2.92c.48-.28,.93-.62,1.33-1l4.82-2.79Z"/><path class="cls-28" d="M382.41,48.58c-.35,.33-.74,.62-1.15,.87l-5,2.92c.48-.28,.93-.62,1.33-1l4.82-2.79Z"/><path class="cls-10" d="M351.6,45.43c-1.3-.75-2.12,.17-2.46,1.82-.26,1.68-.35,3.38-.29,5.08,0,1-.81,1.08-1.68-.58-.99-2.03-1.58-4.23-1.76-6.48-.31-3.35,.09-4.31-.23-6.39-.35-2.23-1.39-4.58-1.39-7.21s1-5.13,3.36-4.38,3.18,2.83,4.43,3.56,2.06-.43,4.43,1.56,3.4,5.63,3.4,8.26-1,3.77-1.39,5.6,.09,3.14-.23,6.12c-.24,2.25-.87,3.82-1.74,4.48s-1.71-.38-1.68-1.36c.06-1.81-.04-3.62-.29-5.41-.36-2.06-1.18-3.92-2.48-4.67h0Zm-53.85,21.07c-.08,6.23-2.54,12.19-6.86,16.67l-2.06,1.91c-10.49,8.57-25.94,7.01-34.52-3.48-7.53-9.22-7.36-22.5,.41-31.52l2-2c10-9.14,25.52-8.43,34.66,1.57,4.21,4.61,6.5,10.65,6.41,16.89l-.04-.04Z"/><path class="cls-24" d="M273.2,39.58c-14.71,0-26.63,11.93-26.63,26.63,0,13,9.39,24.1,22.21,26.26l3,7.71c.31,.8,1.21,1.19,2.01,.88,.41-.16,.73-.48,.88-.88l3-7.72c14.5-2.48,24.24-16.24,21.77-30.73-2.18-12.79-13.26-22.14-26.24-22.15Zm24.56,26.63c0,6.23-2.38,12.22-6.64,16.76l-2,1.94c-10.24,8.87-25.74,7.75-34.6-2.5-7.97-9.21-7.98-22.88,0-32.09l1.93-2c9.88-9.27,25.4-8.78,34.67,1.09,4.27,4.55,6.65,10.56,6.65,16.81h0Z"/><path class="cls-1" d="M268.41,81.96c-1.07,0-2.08-.44-2.81-1.22l-8.72-9.32c-1.49-1.52-1.47-3.95,.04-5.44,1.52-1.49,3.95-1.47,5.44,.04,.05,.05,.09,.09,.13,.14l5.66,6,13.41-17c1.16-1.78,3.54-2.29,5.33-1.13,1.78,1.16,2.29,3.54,1.13,5.33-.13,.21-.29,.4-.46,.57l-16.18,20.49c-.69,.88-1.74,1.42-2.86,1.46l-.12,.08Zm135.64,249.71l-131.16,75.82c-1.54,.78-3.37,.78-4.91,0l-173.4-100.1c-1.45-.94-2.36-2.52-2.44-4.25v-.56c.1-1.73,1.01-3.3,2.46-4.25l131.25-75.75c1.54-.78,3.37-.78,4.91,0l173.31,100c1.45,.94,2.36,2.52,2.45,4.25v.58c-.1,1.73-1.02,3.31-2.47,4.26Z"/><path class="cls-32" d="M404.05,331.67l-131.16,75.82c-1.54,.78-3.37,.78-4.91,0l-173.4-100.1c-1.45-.94-2.36-2.52-2.44-4.25v-.56c.1-1.73,1.01-3.3,2.46-4.25l131.25-75.75c1.54-.78,3.37-.78,4.91,0l173.31,100c1.45,.94,2.36,2.52,2.45,4.25v.58c-.1,1.73-1.02,3.31-2.47,4.26Z"/><path class="cls-1" d="M230.61,222.46c-1.87-1.08-3.82-.46-5.69,.63l-129.37,74.69c-1.86,1.08-1.87,2.83,0,3.92l171.52,99c2.09,1.21,4.66,1.21,6.75,0l129.4-74.68c1.08-.62,1.46-2,.83-3.09-.2-.35-.49-.64-.83-.83l-172.61-99.64Z"/><path class="cls-29" d="M230.61,222.46c-1.87-1.08-3.82-.46-5.69,.63l-129.37,74.69c-1.86,1.08-1.87,2.83,0,3.92l171.52,99c2.09,1.21,4.66,1.21,6.75,0l129.4-74.68c1.08-.62,1.46-2,.83-3.09-.2-.35-.49-.64-.83-.83l-172.61-99.64Z"/><path class="cls-1" d="M404.07,322.58l-.83-.48c1.08,.63,1.45,2.02,.81,3.11-.2,.34-.48,.62-.81,.81l-129.4,74.68c-1.02,.6-2.19,.91-3.37,.91h-.06v6.47c.87,.02,1.73-.19,2.5-.6l131.17-75.81c1.45-.94,2.36-2.52,2.46-4.25v-.57c-.08-1.74-1-3.33-2.47-4.27h0Z"/><path class="cls-30" d="M404.07,322.58l-.83-.48c1.08,.63,1.45,2.02,.81,3.11-.2,.34-.48,.62-.81,.81l-129.4,74.68c-1.02,.6-2.19,.91-3.37,.91h-.06v6.47c.87,.02,1.73-.19,2.5-.6l131.17-75.81c1.45-.94,2.36-2.52,2.46-4.25v-.57c-.08-1.74-1-3.33-2.47-4.27h0Z"/><path class="cls-31" d="M242.07,232.58c-1.92-1.11-3.93-.46-5.86,.65l-122.27,70.6c-1.92,1.11-1.93,2.92,0,4l152.88,88.26c2.17,1.25,4.83,1.25,7,0l122.26-70.51c1.1-.66,1.46-2.09,.8-3.2-.2-.33-.47-.61-.8-.8l-2.24-1.3-151.77-87.7Z"/><path class="cls-9" d="M271.31,395.14l121.83-70.34c.6-.41,.97-1.08,1-1.81v-1.35c-.03-.73-.4-1.4-1-1.81l-154.45-89.16c-.65-.33-1.43-.33-2.08,0l-121.83,70.34c-.6,.41-.97,1.08-1,1.8v1.36c.03,.73,.4,1.4,1,1.81l154.45,89.16c.65,.33,1.43,.33,2.08,0h0Z"/><path class="cls-21" d="M114.56,301.17c-.1,.08-.2,.18-.28,.28l-.12,.16c-.12,.17-.22,.36-.3,.56-.05,.13-.08,.26-.1,.39,0,.09,0,.17,0,.26v1.35c.03,.73,.4,1.39,1,1.8l154.44,89.16c.31,.17,.65,.26,1,.25v-3.8c-.35,0-.69-.09-1-.25l-154.42-89.12c-.49-.28-.57-.71-.22-1.04Z"/><path class="cls-7" d="M393.41,320.02c.31,.32,.22,.74-.25,1l-121.85,70.35c-.31,.17-.65,.25-1,.25v3.76c.35,0,.69-.08,1-.25l121.83-70.33c.6-.41,.97-1.08,1-1.8v-1.36c-.01-.62-.28-1.2-.73-1.62h0Z"/><path class="cls-1" d="M276.11,252.28l-37.42-21.61c-.65-.33-1.43-.33-2.08,0l-121.83,70.34c-.6,.41-.97,1.08-1,1.8v1.36c.03,.73,.4,1.4,1,1.81l34.16,19.72,127.17-73.42Z"/><path class="cls-16" d="M276.11,252.28l-37.42-21.61c-.65-.33-1.43-.33-2.08,0l-121.83,70.34c-.6,.41-.97,1.08-1,1.8v1.36c.03,.73,.4,1.4,1,1.81l34.16,19.72,127.17-73.42Z"/><path class="cls-1" d="M152.2,323.82l-37.42-21.61c-.49-.28-.57-.71-.22-1-.1,.08-.2,.18-.28,.28l-.12,.16c-.12,.17-.22,.36-.3,.56-.05,.13-.08,.26-.1,.39,0,.09,0,.17,0,.26v1.35c.03,.73,.4,1.39,1,1.8l37.44,21.57v-3.76Zm-.66-33.66c-4.88,2.41-10.33,3.45-15.76,3,1.07,2.94-1.29,6.59-5.12,9.1,6.72,4.45,13.35,7.88,22.46,8.95,4.54,.52,9.13,.47,13.66-.15,1.06-2.51,1.15-5.32,.26-7.89-1.84-5.3-7.79-9.13-15.5-13.01Z"/><path class="cls-10" d="M153.16,303.15c1.19-.47,2.53-.41,3.68,.14,1.17,.48,2.3,1.05,3.38,1.72,.58,.36,1.5,.21,1.4-.55-.35-1.1-1.1-2.04-2.1-2.61-1.69-1.23-2.7-1.49-3.62-2.28s-1.32-1.88-2.9-2.79c-1.85-1.12-4.08-1.43-6.17-.86-2,.74-1.62,1.63-2.49,2.14s-2.42,.26-3.7,1.44-.11,2.64,1.48,3.56,3.37,1.1,4.84,1.67,1.81,1.12,3.94,2.09c1.42,.68,2.96,1.1,4.53,1.22,1.31,.05,1.57-.48,.94-.81-1.06-.56-2.06-1.21-3-1.95-.85-.79-1.12-1.61-.21-2.13h0Z"/><path class="cls-23" d="M197.06,251.31c.65-.45,.99-1.22,.89-2-.12-2.12-1.23-4.05-3-5.22-.62-.45-1.44-.53-2.14-.2l-48.1,27.77,4.26,7.38,48.09-27.73Z"/><path class="cls-24" d="M146.82,275.37l50.24-29c.55,.91,.86,1.94,.89,3,0,.11,0,.21,0,.32l-49.45,28.55-1.68-2.87Z"/><path class="cls-25" d="M149.85,277.12c0,1.92-1.35,2.7-3,1.74-1.77-1.16-2.89-3.1-3-5.22,0-1.92,1.35-2.7,3-1.74,1.77,1.16,2.89,3.1,3,5.22Z"/><path class="cls-30" d="M153.07,292.93c-.93,0-1.85-.22-2.66-.67l-12.79-7.39c-.78-.37-1.31-1.13-1.37-2,.04-.71,.44-1.34,1.07-1.67l9.09-5.22c.39-.17,.84,0,1.02,.39,.15,.33,.04,.72-.26,.94l-9.09,5.27c-.19,.11-.31,.24-.31,.35s.19,.42,.61,.66l12.79,7.39c1.01,.55,2.22,.62,3.28,.17l24.62-14.22c1.9-1.11,3.51-2.64,4.73-4.47,1.11-1.69,2.57-3.12,4.29-4.18,1.04-.66,2.25-1.01,3.48-1,2.74,.05,5.45-.67,7.8-2.08l22.35-12.9c.2-.12,.32-.25,.32-.36s-.19-.42-.61-.66l-12.8-7.39c-1.01-.55-2.22-.61-3.28-.17l-8,4.61c-.22-.46-.48-.9-.79-1.31l8-4.62c1.54-.71,3.32-.65,4.8,.17l12.8,7.39c.79,.37,1.31,1.13,1.37,2-.03,.71-.45,1.35-1.08,1.68l-22.35,12.91c-2.6,1.55-5.59,2.35-8.62,2.28-.94,0-1.86,.28-2.65,.78-1.52,.95-2.82,2.22-3.8,3.72-1.35,2.02-3.13,3.7-5.22,4.93l-24.6,14.17c-.66,.35-1.4,.52-2.14,.5Z"/><path class="cls-24" d="M153.07,291.58c-.93,0-1.85-.22-2.66-.67l-12.79-7.39c-.78-.37-1.31-1.13-1.37-2,.04-.71,.44-1.34,1.07-1.67l9.09-5.27c.39-.17,.84,0,1.02,.39,.15,.33,.04,.72-.26,.94l-9.07,5.23c-.19,.11-.31,.25-.31,.35s.19,.42,.61,.66l12.77,7.43c1.01,.55,2.22,.62,3.28,.17l24.62-14.17c1.9-1.11,3.51-2.64,4.73-4.47,1.11-1.69,2.57-3.12,4.29-4.18,1.04-.66,2.25-1.01,3.48-1,2.74,.05,5.45-.67,7.8-2.08l22.35-12.9c.2-.12,.32-.25,.32-.36s-.19-.42-.61-.66l-12.8-7.39c-1.01-.55-2.22-.61-3.28-.17l-8,4.61c-.22-.46-.48-.9-.79-1.31l8-4.62c1.54-.71,3.32-.65,4.8,.17l12.8,7.39c.79,.37,1.31,1.13,1.37,2-.03,.72-.44,1.36-1.08,1.69l-22.35,12.9c-2.6,1.55-5.59,2.35-8.62,2.28-.94,0-1.86,.28-2.65,.78-1.52,.95-2.82,2.22-3.8,3.72-1.35,2.02-3.13,3.7-5.22,4.93l-24.6,14.16c-.66,.35-1.39,.53-2.14,.51h0Z"/><path class="cls-1" d="M57.61,306.31l8.07-4.66s4.8-19.94,2.88-37.88c-2.69-25.22-19.29-34.71-25.6-32.54s-8.14,9.52,2.3,24.54c6.15,8.86,13.74,27.33,12.35,50.54Z"/><g class="cls-34"><path class="cls-10" d="M57.61,306.31l8.07-4.66s4.8-19.94,2.88-37.88c-2.69-25.22-19.29-34.71-25.6-32.54s-8.14,9.52,2.3,24.54c6.15,8.86,13.74,27.33,12.35,50.54Z"/></g><path class="cls-10" d="M60.96,296.51h-.08c-.3-.06-.5-.35-.45-.65,4.42-23.28-3.7-49.42-13.77-60.28-.22-.22-.22-.57,0-.79,.22-.22,.57-.22,.79,0,10.25,11.07,18.54,37.64,14.05,61.25-.04,.27-.27,.47-.54,.47Z"/><path class="cls-1" d="M37.33,318.02c-1.21,.62-4.41-2.13-5.3-2.79-1.53-1.16-2.74-2.69-3.5-4.45-.86-2-1.08-4.21-.62-6.34,.25-1.12,.59-2.23,1-3.3,.36-1.07,.73-2.13,1.09-3.2,.43-1.03,.65-2.13,.64-3.25-.17-2.23-2.06-3.89-3.78-5.32-1.91-1.58-3.87-3.64-3.73-6.31,.25-2.06,1.16-3.99,2.61-5.48,1.36-1.55,3-2.9,4.19-4.55,.97-1.15,1.51-2.59,1.55-4.09-.08-.92-.34-1.82-.77-2.64-1-1.71-1.87-3.49-2.58-5.34-.55-1.9-.35-4.22,1.18-5.49,1.37-.91,3.05-1.24,4.66-.91,1.51,.27,2.94,.86,4.2,1.72,4.12,2.57,6.29,7.72,10.7,9.76,1.76,.65,3.55,1.19,5.38,1.61,1.84,.44,3.42,1.64,4.33,3.3,1.49,3.38-1.78,7.3-.8,10.86,.87,3.15,3.83,4.49,5.38,7.37,.63,1.27,.83,2.71,.58,4.1-.25,2.36-.92,4.65-2,6.77-1.23,2.17-2.6,4.26-4.08,6.26,0,0-20.15,11.62-20.33,11.71h0Z"/><g class="cls-33"><path class="cls-10" d="M37.33,318.02c-1.21,.62-4.41-2.13-5.3-2.79-1.53-1.16-2.74-2.69-3.5-4.45-.86-2-1.08-4.21-.62-6.34,.25-1.12,.59-2.23,1-3.3,.36-1.07,.73-2.13,1.09-3.2,.43-1.03,.65-2.13,.64-3.25-.17-2.23-2.06-3.89-3.78-5.32-1.91-1.58-3.87-3.64-3.73-6.31,.25-2.06,1.16-3.99,2.61-5.48,1.36-1.55,3-2.9,4.19-4.55,.97-1.15,1.51-2.59,1.55-4.09-.08-.92-.34-1.82-.77-2.64-1-1.71-1.87-3.49-2.58-5.34-.55-1.9-.35-4.22,1.18-5.49,1.37-.91,3.05-1.24,4.66-.91,1.51,.27,2.94,.86,4.2,1.72,4.12,2.57,6.29,7.72,10.7,9.76,1.76,.65,3.55,1.19,5.38,1.61,1.84,.44,3.42,1.64,4.33,3.3,1.49,3.38-1.78,7.3-.8,10.86,.87,3.15,3.83,4.49,5.38,7.37,.63,1.27,.83,2.71,.58,4.1-.25,2.36-.92,4.65-2,6.77-1.23,2.17-2.6,4.26-4.08,6.26,0,0-20.15,11.62-20.33,11.71h0Z"/></g><path class="cls-10" d="M48.99,311.94c-.29-.03-.51-.29-.49-.58,1.93-20.92-6.78-44.57-13.62-51.66-.2-.19-.21-.52-.02-.72,0,0,.01-.01,.02-.02,.21-.21,.54-.21,.75,0,0,0,0,0,0,0,7,7.23,15.87,31.27,13.92,52.49-.03,.29-.27,.5-.56,.49Z"/><path class="cls-10" d="M46.92,286.14c-.05,.01-.11,.01-.16,0-4.9-1.62-9.96-2.7-15.09-3.22-.29-.03-.5-.29-.48-.58,.02-.29,.27-.5,.56-.48,0,0,.02,0,.02,0,5.22,.53,10.37,1.64,15.35,3.29,.27,.09,.42,.39,.32,.66,0,0,0,0,0,0-.09,.21-.3,.34-.52,.32h0Z"/><path class="cls-21" d="M92.66,340.96c10.8-3.17,22.34-2.82,32.93,1,5.2,1.89,10.04,4.67,14.3,8.21,4.3,3.62,8,8.17,9.87,13.55,1.67,4.87,1.61,10.17-.19,15-1.93,4.84-5.31,8.95-9.69,11.77-4.3,2.93-9.91,5.49-15.23,4.38-2.03-.29-3.74-1.64-4.51-3.54-.57-1.84-.41-3.82,.46-5.54,2.19-4.6,7.91-6.64,12.59-7.43,5.61-.81,11.33-.28,16.69,1.55,5.42,1.59,10.34,4.55,14.29,8.59,1.87,2.02,3.42,4.32,4.59,6.82,1.08,2.56,2.01,5.18,2.76,7.86,1.52,4.8,3.57,9.37,7.88,12.27,3.66,2.37,7.93,3.61,12.29,3.56,4.31,.08,8.53-1.2,12.07-3.66,4-2.91,6.84-8.34,5.13-13.27-.78-2.17-2.32-3.98-4.33-5.09-1.99-1.19-4.43-1.36-6.56-.45-2.18,1.14-1.8,3.79-.71,5.58,1.4,2.01,3.36,3.56,5.64,4.45,5.34,2.34,11.25,1.76,16.84,.81,2.95-.5,5.89-1.09,8.87-1.39l1.79-.14,1.07-.06h.24c4.36,0,6.41,0,10.06,.82l.68,.16c1.19,.3,2.35,.68,3.49,1.14,2.49,.98,4.79,2.41,6.77,4.22,.22,.21,.28-.26,.12-.41-4.03-3.64-9.1-5.91-14.5-6.48-5.56-.57-11.17-.29-16.64,.85-6.09,1.07-12.65,2.26-18.54-.35-2.29-1-5-2.8-5.61-5.38-.48-1.27,.17-2.69,1.44-3.17,.01,0,.03,0,.04-.01,1.35-.45,2.83-.41,4.15,.13,2.45,1,4.26,3.13,4.84,5.71,.5,2.85-.17,5.79-1.85,8.15-2.68,4-7.32,6.12-12,6.68-4.6,.59-9.26-.34-13.28-2.65-2.08-1.24-3.84-2.95-5.14-5-1.43-2.43-2.53-5.05-3.26-7.77-.75-2.71-1.71-5.36-2.87-7.93-1.23-2.49-2.83-4.78-4.74-6.8-3.98-4.01-8.88-6.97-14.28-8.63-5.4-1.9-11.16-2.54-16.84-1.88-2.77,.34-5.48,1.13-8,2.33-2.26,1-4.22,2.59-5.67,4.59-2,3.12-2.32,7.72,.83,10.22,1.99,1.36,4.38,2,6.78,1.8,2.73-.16,5.41-.84,7.88-2,4.95-2.12,9.24-5.54,12.41-9.89,2.97-4.25,4.41-9.38,4.09-14.55-.71-11.39-9.75-20.32-19.26-25.51-9.88-5.41-21.26-7.41-32.39-5.71-2.69,.43-5.34,1.1-7.92,2-.2,.07-.09,.51,.11,.45l.02,.04Z"/><path class="cls-7" d="M36.41,351.21c-4.71,22.92,16,35.2,38.36,36.69,1.51,.1,3.01-.25,4.32-1l40.64-23.47c1.5-.87,2.43-2.47,2.43-4.21v-10.36c0-1.14-.26-2.26-.75-3.28-13.38-28.55-78.39-26.69-85,5.63Z"/><path class="cls-20" d="M120.11,348.49l-40.94,23.64c-10.14-.07-20.24-2.35-28-6.82-15.77-9.11-15.77-23.86,0-33,15.77-9.14,41.33-9.1,57.1,0,7.76,4.5,11.7,10.33,11.84,16.18h0Z"/><path class="cls-21" d="M79.74,326.58c10.61,0,20.57,2.38,28,6.69,6.9,4,10.88,9.18,11.28,14.69l-40.12,23.15c-10.29-.12-19.94-2.49-27.2-6.69s-11.29-9.75-11.29-15.59,4-11.39,11.31-15.6c7.48-4.31,17.43-6.69,28-6.69m0-1c-10.33,0-20.66,2.27-28.55,6.82-15.77,9.11-15.77,23.86,0,33,7.74,4.47,17.84,6.75,28,6.82l40.94-23.64c-.14-5.85-4.08-11.68-11.82-16.15s-18.21-6.82-28.55-6.82l-.02-.03Z"/><path class="cls-21" d="M39.55,371.03c-.11-1.66-.11-3.34,0-5l.13-1.25c.05-.41,.14-.82,.21-1.23,.14-.82,.33-1.64,.56-2.44,.97-3.21,2.44-6.24,4.35-9,1.91-2.75,4.13-5.28,6.61-7.53,2.48-2.23,5.1-4.31,7.82-6.24,5.41-3.95,11.46-6.95,17.87-8.89,3.21-.93,6.48-1.6,9.8-2,3.33-.43,6.7-.35,10,.26-3.29-.42-6.62-.35-9.89,.2-3.27,.47-6.5,1.21-9.65,2.21-3.15,.99-6.2,2.25-9.13,3.76-2.92,1.53-5.73,3.28-8.4,5.21-2.71,1.88-5.31,3.91-7.79,6.09-2.46,2.23-4.68,4.71-6.63,7.4-1.94,2.66-3.45,5.61-4.5,8.73-.26,.78-.47,1.58-.65,2.38-.09,.4-.2,.8-.27,1.21l-.17,1.22c-.18,1.63-.27,3.27-.27,4.91Zm37.59,5.07v9.68c0,.72,.59,1.29,1.31,1.29,.22,0,.44-.06,.63-.17l40.63-23.46c1.5-.87,2.43-2.47,2.43-4.21v-10.32c0-.51-.42-.92-.93-.91-.16,0-.32,.04-.45,.12l-41.19,23.78c-1.5,.87-2.43,2.47-2.43,4.2Z"/><ellipse class="cls-1" cx="79.74" cy="347.76" rx="17.12" ry="9.89"/><ellipse class="cls-16" cx="79.74" cy="347.76" rx="17.12" ry="9.89"/><path class="cls-16" d="M66.04,353.67c.51,.39,1.04,.75,1.59,1.08,1.85,1.03,3.84,1.78,5.91,2.22l19.68-3.14c1.79-1.16,3.06-2.98,3.54-5.06l-30.72,4.9Zm-3.21-4.4c.18,.66,.47,1.29,.84,1.87l32.88-5.23c-.22-.66-.53-1.29-.94-1.86l-32.78,5.22Z"/><path class="cls-24" d="M381.92,386.58c-.56,.26-1.21,.2-1.71-.16-1.43-.92-2.33-2.48-2.43-4.18-.07-.61,.21-1.21,.71-1.57l68.63-41.21c.79-.43,1.76-.36,2.48,.17,2,1.3,3.26,3.47,3.39,5.85,.11,.89-.31,1.76-1.08,2.23l-69.99,38.87Z"/><path class="cls-23" d="M377.78,382.22c0-1.55,1.08-2.17,2.42-1.4,1.43,.93,2.33,2.48,2.42,4.18,0,1.54-1.07,2.17-2.41,1.4-1.43-.92-2.33-2.48-2.43-4.18h0Z"/><path class="cls-1" d="M357.82,398.31c-.86-.56-1.41-1.5-1.47-2.53-.05-.37,.12-.74,.43-.95l22.39-13c.33-.14,.71-.1,1,.1,.86,.56,1.41,1.5,1.47,2.53,.03,.37-.13,.73-.43,.95l-22.39,13c-.33,.15-.71,.11-1-.1h0Z"/><path class="cls-30" d="M357.82,398.31c-.86-.56-1.41-1.5-1.47-2.53-.05-.37,.12-.74,.43-.95l22.39-13c.33-.14,.71-.1,1,.1,.86,.56,1.41,1.5,1.47,2.53,.03,.37-.13,.73-.43,.95l-22.39,13c-.33,.15-.71,.11-1-.1h0Z"/><path class="cls-30" d="M360.63,393.49l-.68-.5-3.16,1.83c1.28,.77,2.46,1.69,3.51,2.74l2.89-1.67c-.08-.09-.15-.18-.24-.27-.71-.78-1.49-1.49-2.32-2.13h0Z"/><path class="cls-28" d="M381.33,381.8l69.51-41.22c-.37-.39-.78-.72-1.24-1-.72-.53-1.69-.6-2.48-.17l-68.63,41.21c.56-.26,1.21-.2,1.71,.16,.43,.27,.82,.62,1.13,1.02h0Z"/><path class="cls-1" d="M363.15,402.79c0-.08,0-.16,0-.24,0-.1,0-.19,0-.29,0-.23-.03-.47-.07-.7v-.26c-.06-.34-.14-.67-.24-1,0-.09-.05-.18-.08-.26-.09-.24-.18-.47-.28-.7,0-.08-.07-.16-.12-.24l-.1-.22-.17-.31c-.06-.1-.11-.2-.18-.3l-.19-.3c-.36-.5-.77-.96-1.21-1.39-.56-.61-1.17-1.16-1.82-1.66-.73-.57-1.5-1.08-2.3-1.53-9-5.12-23.44-5.12-32.31,0l-.65,.39c-.79,.49-1.54,1.05-2.25,1.66-.2,.18-.4,.36-.58,.54-.47,.45-.9,.94-1.29,1.46l-.2,.27-.25,.38c-.11,.17-.22,.35-.31,.52s-.21,.39-.3,.58l-.12,.26c-.05,.12-.1,.24-.14,.36s-.07,.18-.1,.26c-.21,.62-.35,1.26-.41,1.91v4.19c0,3.39,2.23,6.79,6.73,9.38,8.92,5.15,23.39,5.15,32.31,0,4.51-2.6,6.73-6,6.66-9.41-.03-.42-.02-2.56-.03-3.35h0Zm-37.74-7.21c4.56-2.42,9.67-3.62,14.83-3.5,5.19-.12,10.33,1.09,14.93,3.5,3.52,2,5.46,4.52,5.47,7.09s-1.91,5-5.39,7c-9.36,4.69-20.38,4.69-29.74,0-3.51-2-5.44-4.55-5.44-7.12s1.85-4.97,5.34-6.97Z"/><path class="cls-18" d="M363.15,402.79c0-.08,0-.16,0-.24,0-.1,0-.19,0-.29,0-.23-.03-.47-.07-.7v-.26c-.06-.34-.14-.67-.24-1,0-.09-.05-.18-.08-.26-.09-.24-.18-.47-.28-.7,0-.08-.07-.16-.12-.24l-.1-.22-.17-.31c-.06-.1-.11-.2-.18-.3l-.19-.3c-.36-.5-.77-.96-1.21-1.39-.56-.61-1.17-1.16-1.82-1.66-.73-.57-1.5-1.08-2.3-1.53-9-5.12-23.44-5.12-32.31,0l-.65,.39c-.79,.49-1.54,1.05-2.25,1.66-.2,.18-.4,.36-.58,.54-.47,.45-.9,.94-1.29,1.46l-.2,.27-.25,.38c-.11,.17-.22,.35-.31,.52s-.21,.39-.3,.58l-.12,.26c-.05,.12-.1,.24-.14,.36s-.07,.18-.1,.26c-.21,.62-.35,1.26-.41,1.91v4.19c0,3.39,2.23,6.79,6.73,9.38,8.92,5.15,23.39,5.15,32.31,0,4.51-2.6,6.73-6,6.66-9.41-.03-.42-.02-2.56-.03-3.35h0Zm-37.74-7.21c4.56-2.42,9.67-3.62,14.83-3.5,5.19-.12,10.33,1.09,14.93,3.5,3.52,2,5.46,4.52,5.47,7.09s-1.91,5-5.39,7c-9.36,4.69-20.38,4.69-29.74,0-3.51-2-5.44-4.55-5.44-7.12s1.85-4.97,5.34-6.97Z"/><path class="cls-1" d="M363.15,402.79h-2.56c0,2.54-1.91,4.94-5.39,6.94-4.42,2.36-9.36,3.57-14.37,3.52v6.13c5.46,.04,10.84-1.29,15.66-3.86,4.51-2.6,6.73-6,6.66-9.41,0-.39,.01-2.53,0-3.32Z"/><path class="cls-1" d="M363.15,402.58c0-.1,0-.19,0-.29,0-.23-.03-.47-.07-.7v-.26c-.06-.34-.14-.67-.24-1,0-.09-.05-.18-.08-.26-.09-.24-.18-.47-.28-.7,0-.08-.07-.16-.12-.24l-.1-.22-.17-.31c-.06-.1-.11-.2-.18-.3l-.19-.3c-.36-.51-.77-.98-1.21-1.42-.56-.61-1.17-1.16-1.82-1.66-.73-.57-1.5-1.08-2.3-1.53-9-5.12-23.44-5.12-32.31,0l-.65,.39c-.79,.49-1.54,1.05-2.25,1.66-.2,.18-.4,.36-.58,.54-.47,.45-.9,.94-1.29,1.46l-.2,.27-.25,.38c-.11,.17-.22,.35-.31,.52s-.21,.39-.3,.58l-.12,.26c-.05,.12-.1,.24-.14,.36s-.07,.18-.1,.26c-.21,.62-.35,1.26-.41,1.91v.66c0,3.38,2.24,6.77,6.73,9.35,8.92,5.15,23.39,5.15,32.31,0,4.4-2.54,6.62-5.85,6.66-9.17,0-.08-.01-.16-.03-.24h0Zm-7.95,7.18c-9.36,4.69-20.38,4.69-29.74,0-3.51-2-5.44-4.55-5.44-7.12s1.9-5,5.34-7c4.56-2.42,9.67-3.62,14.83-3.5,5.19-.12,10.33,1.09,14.93,3.5,3.52,2,5.46,4.52,5.47,7.09s-1.91,5-5.39,7v.03Z"/><path class="cls-17" d="M363.15,402.58c0-.1,0-.19,0-.29,0-.23-.03-.47-.07-.7v-.26c-.06-.34-.14-.67-.24-1,0-.09-.05-.18-.08-.26-.09-.24-.18-.47-.28-.7,0-.08-.07-.16-.12-.24l-.1-.22-.17-.31c-.06-.1-.11-.2-.18-.3l-.19-.3c-.36-.51-.77-.98-1.21-1.42-.56-.61-1.17-1.16-1.82-1.66-.73-.57-1.5-1.08-2.3-1.53-9-5.12-23.44-5.12-32.31,0l-.65,.39c-.79,.49-1.54,1.05-2.25,1.66-.2,.18-.4,.36-.58,.54-.47,.45-.9,.94-1.29,1.46l-.2,.27-.25,.38c-.11,.17-.22,.35-.31,.52s-.21,.39-.3,.58l-.12,.26c-.05,.12-.1,.24-.14,.36s-.07,.18-.1,.26c-.21,.62-.35,1.26-.41,1.91v.66c0,3.38,2.24,6.77,6.73,9.35,8.92,5.15,23.39,5.15,32.31,0,4.4-2.54,6.62-5.85,6.66-9.17,0-.08-.01-.16-.03-.24h0Zm-7.95,7.18c-9.36,4.69-20.38,4.69-29.74,0-3.51-2-5.44-4.55-5.44-7.12s1.9-5,5.34-7c4.56-2.42,9.67-3.62,14.83-3.5,5.19-.12,10.33,1.09,14.93,3.5,3.52,2,5.46,4.52,5.47,7.09s-1.91,5-5.39,7v.03Z"/><path class="cls-1" d="M360.59,402.68c0,.44-.06,.87-.17,1.29-.53-2.11-2.37-4.14-5.3-5.81-4.6-2.41-9.74-3.62-14.93-3.5-5.16-.12-10.27,1.08-14.83,3.5-2.86,1.65-4.65,3.64-5.17,5.73-.11-.42-.17-.85-.17-1.28,0-2.55,1.9-5,5.34-7,4.56-2.42,9.67-3.62,14.83-3.5,5.19-.12,10.33,1.09,14.93,3.5,3.52,1.97,5.46,4.5,5.47,7.07h0Z"/><path class="cls-18" d="M360.59,402.68c0,.44-.06,.87-.17,1.29-.53-2.11-2.37-4.14-5.3-5.81-4.6-2.41-9.74-3.62-14.93-3.5-5.16-.12-10.27,1.08-14.83,3.5-2.86,1.65-4.65,3.64-5.17,5.73-.11-.42-.17-.85-.17-1.28,0-2.55,1.9-5,5.34-7,4.56-2.42,9.67-3.62,14.83-3.5,5.19-.12,10.33,1.09,14.93,3.5,3.52,1.97,5.46,4.5,5.47,7.07h0Z"/><path class="cls-15" d="M360.55,403.35c-.31,2.3-2.17,4.56-5.35,6.38-9.36,4.69-20.38,4.69-29.74,0-3.21-1.85-5.1-4.13-5.4-6.47,.3-2.32,2.15-4.56,5.3-6.37,4.56-2.42,9.67-3.62,14.83-3.5,5.19-.12,10.33,1.09,14.93,3.5,3.23,1.84,5.13,4.11,5.43,6.46h0Z"/><ellipse class="cls-27" cx="272.32" cy="318.4" rx="83.71" ry="48.33"/><path class="cls-21" d="M348.09,327.75c-8.61,0-12.57-16.57-22.89-34.45-3.9-6.75-10.16-13.71-15.08-13.67,0,0-3.39,.4-3.93,1.83s-2.35,8.85-3.06,22.23c-.49,9.09-1.49,16-4.54,16-4.74,0-6.12-5.77-11.5-20.84-7.23-20.22-19.92-28.62-35.39-28.62s-22.64,8.15-29.46,17.68c-4.55,6.41-8.67,13.11-12.35,20.06-5.74,11.09-9.68,18.61-14.28,18.61,0,0-6.19-30.84,2.42-54.78s37.93-33,68.07-33,81.99,16.32,81.99,88.95h0Z"/><path class="cls-30" d="M348.09,327.75c-8.61,0-12.57-16.57-22.89-34.45-3.9-6.75-10.16-13.71-15.08-13.67,0,0-3.39,.4-3.93,1.83s-2.35,8.85-3.06,22.23c-.49,9.09-1.49,16-4.54,16-4.74,0-6.12-5.77-11.5-20.84-7.23-20.22-19.92-28.62-35.39-28.62s-22.64,8.15-29.46,17.68c-4.55,6.41-8.67,13.11-12.35,20.06-5.74,11.09-9.68,18.61-14.28,18.61,0,0-6.19-30.84,2.42-54.78s37.93-33,68.07-33,81.99,16.32,81.99,88.95h0Z"/><path class="cls-7" d="M271.83,114.24c20.95,0,26.83,7.57,38.17,17.78s18.51,9.82,28.34,11.71,21.92,12.92,18.89,31.4-6.82,26.45-8.31,43.06,.63,25.95,6,38.48,5.71,35.66,0,57.05-9.38,13.57-11.27,7.57-6.81-24.76-17-35.22-18.51-10.27-28.72,5.89-15.52,30.05-18.52,45.96-4.16,31.13-9.07,33-25.7-17.42-31.74-38.59-10.19-48.61-11.74-54.36-5.29-5.42-10.58,4.42-13.23,28-16.25,37.63-6.8,8.73-10.2-3.29-7.56-34.06,0-54.6,8.69-31.24,6.8-40.24-7.18-19.23-9.45-35.09,1.14-30.22,13.23-37,25.67-7,34.62-14.91c9.8-8.71,15.85-20.65,36.8-20.65h0Z"/><path class="cls-21" d="M208.73,278.7c2.45-5.64,5-11.37,5.55-17.48,.8-8.43-2.23-16.81-6.47-24.13-3.41-5.9-7.6-11.29-11.56-16.85-2.14-8.61-6.94-18.54-9.07-33.44-1.49-10.44-.5-20.22,3.78-27.63,2.7-3.12,6.06-5.6,9.83-7.27,7-3,14-2.93,21.32-1.65,2.41,.5,4.86,.77,7.32,.79,2.85-.11,5.66-.67,8.34-1.65,2.84-.98,5.5-2.41,7.89-4.23,4.05-3.17,5.42-7.77,8.22-11.83,7.27-10.55,21.72-13.2,32.27-5.93,.23,.16,.45,.32,.67,.48,5,3.72,8.44,9.4,13.89,12.42,4.15,2.29,9,2.8,13.51,4.35s9,4.8,9.57,9.51c.67,5.49-5.47,7.09-9.44,8.57-8.48,3.17-15.95,10.52-16.79,19.54-9.19-14.02-28.01-17.93-42.02-8.73-3.2,2.1-5.97,4.78-8.18,7.91-2.93,4.4-5.03,9.3-6.2,14.46-3.56,14.14-3,29.01,1.61,42.85,2.12,6.34,5.08,12.4,6.86,18.85,5.41,19.6-.59,40.37-.35,60.7,.14,11.89,2.41,23.66,6.73,34.74,2.35,6,5.43,12,9.81,16.62-8-4.58-22.38-20.35-27.24-37.37-6-21.17-10.21-48.58-11.72-54.33s-5.29-5.42-10.58,4.42-13.23,28-16.25,37.63c-1,3.06-2,5.05-3.07,6-1.58-8.68,.59-18.24,3.56-26.8,2.41-6.99,5.27-13.78,8.21-20.52h0Z"/><path class="cls-20" d="M334.96,143.14c1.1,.18,2.22,.37,3.38,.59,9.82,1.89,21.92,12.92,18.89,31.4s-6.82,26.45-8.31,43.06,.63,25.95,6,38.48,5.71,35.66,0,57.05c-.87,3.63-2.1,7.17-3.65,10.57,3.06-17.78,6.26-35.78,1.33-52.92-2.84-9.89-8.3-19-10.33-29-2.49-12.32,.32-25,3.3-37.23s7-27.47,5.25-39.91c-1.41-9.87-6.41-17.73-15.86-22.09h0Zm-63.55,227.04c2.89-6.4,2.34-34.4,7.33-50.28,8.21-26.1,16.88-34.31,29.24-39.23-3.25,2-6.57,5.66-10.12,11.28-10.2,16.15-15.49,30.05-18.51,46-2.74,14.63-3.94,28.63-7.94,32.23Z"/><path class="cls-20" d="M346.13,175.87c.46,3.66,.17,7.37-.85,10.91-.75,2.83-4,6.78-6,2.17-.41-1.24-.62-2.53-.62-3.84-.21-3.17-1.36-6.2-3.31-8.71-1.99-2.5-4.97-4.01-8.16-4.14-3.22,0-10.26,4.25-11.85,.41-1.39-3.35,3.38-6.69,5.75-8,9.7-5.16,21-3.07,24.46,8.45,.26,.9,.45,1.82,.58,2.75h0Zm-50.07,22.71c.21,5-.26,17.3-5.8,19.79-7.86,3.54-3.07-9.41-2.85-12.61,.35-5.18-.84-10.83-4.72-14.28-2.86-2.54-6.75-3.53-10.07-5.45-4.82-2.77,.24-8.91,4.26-9.28,11.64-1.03,18.77,12,19.18,21.83h0Zm-39.3,146.69c-1.59-16.76-1.08-33.65,1.5-50.28,1-6.28,2.57-13.68-.33-19.69-.18,10.7-4.5,20.44-5.5,31.06-.62,6.61-.56,13.27,.18,19.87,.71,6.47,2.11,12.86,4.15,19.04Z"/><path class="cls-21" d="M296.82,153.03c-4.03,2.17-8.4,3.65-12.93,4.35-4.74,.44-9.51-.01-14.08-1.34-5.29-1.35-10.45-3.19-15.75-4.5-5.41-1.32-10.94-2.16-16.5-2.5-3.18-.25-6.38-.29-9.57-.12-3.13,.27-6.23,.77-9.29,1.49-.16,0-.17,.45,0,.46,11.76,.25,23.5,1.21,34.88,4.36,10.44,2.89,20.77,7.79,31.87,5.88,4.8-.83,8.65-3.15,12.52-5.95,3.64-2.64,7.37-5.36,11.75-6.62-3.16,.06-6.26,.91-9,2.49l-3.9,2Z"/><path class="cls-30" d="M296.82,153.03c-4.03,2.17-8.4,3.65-12.93,4.35-4.74,.44-9.51-.01-14.08-1.34-5.29-1.35-10.45-3.19-15.75-4.5-5.41-1.32-10.94-2.16-16.5-2.5-3.18-.25-6.38-.29-9.57-.12-3.13,.27-6.23,.77-9.29,1.49-.16,0-.17,.45,0,.46,11.76,.25,23.5,1.21,34.88,4.36,10.44,2.89,20.77,7.79,31.87,5.88,4.8-.83,8.65-3.15,12.52-5.95,3.64-2.64,7.37-5.36,11.75-6.62-3.16,.06-6.26,.91-9,2.49l-3.9,2Z"/><path class="cls-21" d="M269.57,371.58c-1.13-.09-2.22-.43-3.19-1-8.49-4.29-23.37-20.86-28.3-38.13-4.16-14.55-7.4-31.93-9.55-43.43-1-5.1-1.7-9.13-2.17-10.91-.38-1.46-1.11-3.23-2.38-3.38-.84-.09-3.24,.48-7.24,7.92-5.57,10.37-13.3,28.26-16.22,37.54-1.45,4.65-3.07,6.91-4.94,6.91-2.25,0-4.28-3.38-6.22-10.22-3.28-11.59-7.64-34.13,0-54.92,8-21.77,8.51-31.72,6.78-40-.87-3.7-1.95-7.34-3.24-10.92-2.85-7.85-4.93-15.95-6.21-24.2-2.56-17.88,2.23-31.22,13.49-37.55,5.31-3,10.87-4.69,16.24-6.35,6.85-2.1,13.32-4.09,18.28-8.49,2-1.79,3.91-3.75,5.75-5.65,7.16-7.43,14.57-15.11,31.4-15.11,19,0,25.84,6.26,35.24,14.92,1,1,2.13,2,3.27,3,9.45,8.51,16,9.58,23.64,10.82,1.44,.23,2.91,.47,4.46,.77,9.88,1.9,22.4,13.08,19.3,32-1.3,8-2.72,13.87-4.08,19.58-2.05,7.69-3.48,15.53-4.27,23.45-1.54,17,.8,26.18,6,38.23,5.56,13,5.57,36.61,0,57.4-3.43,12.86-5.92,14.4-7.49,14.43h-.05c-2.27,0-3.72-3.66-4.73-6.86-.18-.57-.39-1.26-.63-2.05-2.3-7.66-7.11-23.59-16.25-33-5-5.17-9.3-7.39-13.36-7-4.68,.49-9.43,4.67-14.55,12.76-9.77,15.47-15.28,29.16-18.44,45.79-.69,3.64-1.28,7.21-1.85,10.65-1.94,11.84-3.48,21.18-7.55,22.7-.29,.16-.61,.26-.94,.3h0Zm-45.78-97.86h.31c1.49,.18,2.59,1.57,3.26,4.14,.48,1.83,1.2,5.67,2.19,11,2.14,11.48,5.38,28.83,9.52,43.34,4.79,16.74,19.65,33.38,27.78,37.48,1.46,.74,2.63,1,3.29,.76,3.5-1.31,5.07-10.85,6.89-21.89,.57-3.46,1.16-7,1.85-10.68,3.18-16.77,8.74-30.57,18.59-46.15,5.36-8.5,10.23-12.7,15.31-13.24,4.4-.46,8.92,1.85,14.21,7.27,9.32,9.55,14.17,25.64,16.51,33.38,.23,.78,.44,1.47,.62,2,1.59,5.06,2.91,6.13,3.74,6.13,1.08,0,3.36-1.83,6.52-13.67,5.49-20.59,5.5-43.91,0-56.72-5.22-12.21-7.59-21.56-6-38.73,.79-7.95,2.22-15.83,4.27-23.56,1.36-5.69,2.77-11.57,4.07-19.5,3-18.23-9-29-18.48-30.81-1.53-.3-3-.54-4.43-.77-7.77-1.27-14.48-2.36-24.16-11.07-1.14-1.03-2.23-2.03-3.28-3-9.23-8.5-15.9-14.65-34.54-14.65-16.39,0-23.64,7.53-30.66,14.8-1.84,1.91-3.75,3.89-5.8,5.7-5.13,4.55-11.71,6.58-18.67,8.72-5.32,1.63-10.82,3.32-16,6.26-10.85,6.1-15.46,19.06-13,36.49,1.27,8.18,3.34,16.22,6.16,24,1.3,3.6,2.4,7.27,3.28,11,2.11,10.08,.2,21.45-6.83,40.53-7.54,20.51-3.23,42.81,0,54.28,2.4,8.51,4.46,9.45,5.23,9.46,.76,0,2.27-.81,4-6.18,2.93-9.33,10.69-27.31,16.28-37.72,3.03-5.6,5.7-8.45,7.97-8.45v.05Z"/><path class="cls-9" d="M225.17,20.89c-.35,7.16-.17,10.1-7.57,11.25,6.32,.75,7.18,4.76,7.57,10.93,.2-6.17,1.54-10.21,6.87-10.93-6.29-1.05-6.5-4.15-6.87-11.25Zm233.43-2.11c-.34,7.74-1.06,10.61-7.95,11.82,6.62,.68,7.55,5,7.95,11.48,.22-6.48,1.53-11.14,7.92-11.45-6.61-1.05-7.34-4.14-7.92-11.85ZM230.13,90.9c.07,6.19-.2,11.83-9.15,13.22,8,.72,8.69,6.16,9.15,13.62,.25-7.46,1.41-13.27,8.78-13.62-7.62-1.27-7.83-4.34-8.78-13.22Zm137.13,37.47c0,5.12-.13,10.05-7.53,11.21,7.82-.11,7.23,4.82,7.61,11,.21-6.17,1-11.07,7.11-11.36-6.3-1.05-6.4-3.51-7.19-10.85h0Zm-50.58-96.65c0,2.15,0,4.22-3.16,4.71,3.28,0,3,2,3.19,4.62,.09-2.6,.32-4.46,2.88-4.58-2.65-.44-2.58-1.66-2.91-4.75ZM146.51,1.58c0,4.42-.19,8.67-6.58,9.61,6.74,0,6.2,4.21,6.48,9.53,.23-5.32,1.45-9.3,6.7-9.51-5.42-.93-5.98-3.27-6.6-9.63h0ZM26.84,28.58c0,4.42-.18,8.67-6.57,9.6,6.74,0,6.19,4.22,6.47,9.54,.23-5.32,1.45-9.3,6.71-9.51-5.43-.93-5.98-3.27-6.61-9.63Z"/><path class="cls-5" d="M348.34,125.49c0,2.53-.51,5.08-4.17,5.65,3.87-.05,4,2.28,4.21,5.34,.1-3.06,.94-5.41,3.95-5.56-3.11-.51-3.6-1.8-3.99-5.43ZM242.25,16.68c0,2.21-.44,4.42-3.63,4.91,3.37,0,3.5,2,3.67,4.65,.09-2.66,.81-4.71,3.43-4.83-2.71-.45-3.13-1.57-3.47-4.73h0Zm202.6-4.19c0,2.9-.59,5.82-4.78,6.47,4.43-.06,4.6,2.61,4.82,6.11,.12-3.5,1.08-6.19,4.53-6.36-3.57-.59-4.13-2.06-4.57-6.22ZM210.86,85.41c0,3.18-.64,6.38-5.24,7.09,4.86-.06,5.06,2.87,5.29,6.71,.13-3.84,1.18-6.8,5-7-3.95-.63-4.56-2.24-5.05-6.8h0Z"/><path class="cls-21" d="M302.21,20.01c0,4.14-.11,8.13-6.09,9.06,6.32-.08,5.84,3.9,6.15,8.89,.17-5,.61-8.57,5.54-8.81-5.1-.84-4.96-3.2-5.6-9.14Zm-173.38,8.28c0-3.43-.08-6.49-5-7.26,5.23,.07,4.83-3.46,5.09-7.59,.14,4.13,.77,7.66,4.84,7.86-4.24,.7-4.35,2.08-4.93,6.99Z"/></svg>