<?xml version="1.0" encoding="utf-8"?>
<!-- Generator: Adobe Illustrator 26.5.0, SVG Export Plug-In . SVG Version: 6.00 Build 0)  -->
<svg version="1.1" xmlns="http://www.w3.org/2000/svg" xmlns:xlink="http://www.w3.org/1999/xlink" x="0px" y="0px"
	 viewBox="0 0 1200 900" style="enable-background:new 0 0 1200 900;" xml:space="preserve">
<style type="text/css">
	.st0{fill:#E5E5E5;}
	.st1{fill:none;}
	.st2{opacity:0.25;enable-background:new    ;}
	.st3{font-family:'ArimaKoshi-Regular';}
	.st4{font-size:28.8821px;}
	.st5{font-size:15.1287px;}
	.st6{fill:#F0F0F0;}
	.st7{fill:#E0E0E0;}
	.st8{fill:#455A64;}
	.st9{fill:#0096A1;}
	.st10{opacity:0.1;}
	.st11{fill:#263238;}
	.st12{fill:#37474F;}
	.st13{opacity:0.2;}
	.st14{fill:#EBEBEB;}
	.st15{fill:#FAFAFA;}
	.st16{opacity:0.5;fill:#FFFFFF;enable-background:new    ;}
	.st17{opacity:0.8;fill:#FFFFFF;enable-background:new    ;}
	.st18{opacity:0.65;fill:#FFFFFF;enable-background:new    ;}
	.st19{opacity:0.85;}
	.st20{fill:#FFFFFF;}
	.st21{opacity:0.5;}
	.st22{opacity:0.25;}
	.st23{opacity:0.2;enable-background:new    ;}
	.st24{fill:#FFA8A7;}
	.st25{opacity:0.15;enable-background:new    ;}
	.st26{fill:#F28F8F;}
	.st27{opacity:0.1;enable-background:new    ;}
	.st28{fill:#E6E6E6;}
	.st29{fill:#B16668;}
	.st30{opacity:0.4;fill:#FFFFFF;enable-background:new    ;}
	.st31{fill:#9A4A4D;}
	.st32{opacity:0.35;enable-background:new    ;}
	.st33{opacity:0.8;}
	.st34{opacity:0.3;enable-background:new    ;}
</style>
<g id="Layer_2">
	<rect class="st0" width="1200" height="900"/>
	
		<image style="overflow:visible;" width="400" height="161" xlink:href="../origin/sol-400.png"  transform="matrix(0.7671 0 0 0.7671 33.0028 636.4122)">
	</image>
	<rect x="1034.1" y="136.5" class="st1" width="78.4" height="34.6"/>
	<text transform="matrix(1 0 0 1 1034.118 157.5605)" class="st2 st3 st4">1.0</text>
	<rect x="1034.1" y="751.3" class="st1" width="131.8" height="17.3"/>
	<text transform="matrix(1 0 0 1 1034.1182 762.3096)" class="st2 st3 st5">DICM | NDD@2022</text>
</g>
<g id="Layer_1">
	<g id="freepik--Floor--inject-29">
		<ellipse id="freepik--floor--inject-29" class="st6" cx="667.4" cy="570.8" rx="327.5" ry="189.1"/>
	</g>
	<g id="freepik--Shadows--inject-29">
		<ellipse id="freepik--Shadow--inject-29" class="st7" cx="469.5" cy="552.6" rx="102.7" ry="56.9"/>
		<path id="freepik--shadow--inject-29" class="st7" d="M406.8,646.4l160.9,92.9c1.7,0.8,3.6,0.8,5.3,0L857.5,575
			c0.8-0.3,1.3-1.2,1-2.1c-0.2-0.5-0.5-0.8-1-1l-160.9-92.9c-1.7-0.8-3.6-0.8-5.3,0L406.8,643.4c-0.8,0.3-1.3,1.2-1,2.1
			C405.9,645.9,406.3,646.3,406.8,646.4z"/>
		
			<ellipse id="freepik--shadow--inject-29_00000008864289954701313290000008427332755312727730_" class="st7" cx="852.7" cy="642.2" rx="87.8" ry="50.7"/>
	</g>
	<g id="freepik--Chair--inject-29">
		<g id="freepik--chair--inject-29">
			<path class="st8" d="M479.4,599.2c-1.3,0-2.3-1-2.3-2.3c0,0,0,0,0,0V450c0-1.3,1-2.3,2.3-2.3c1.3,0,2.3,1,2.3,2.3c0,0,0,0,0,0
				v146.8C481.6,598.1,480.6,599.2,479.4,599.2z"/>
			<path class="st8" d="M570.2,545.7c-0.9,0-1.8-0.5-2.1-1.4l-45-114c-0.5-1.2,0.1-2.5,1.3-3c1.2-0.5,2.5,0.1,3,1.3l0,0l45,113.9
				c0.5,1.2-0.1,2.5-1.3,3C570.8,545.7,570.5,545.7,570.2,545.7z"/>
			<path class="st8" d="M564.8,532c-0.6,0-1.2-0.3-1.7-0.7l-83.8-88.7l-83.6,88.3c-0.8,0.9-2.3,1-3.2,0.2c-0.9-0.8-1-2.3-0.2-3.2
				c0,0,0.1-0.1,0.1-0.1l85.3-90c0.4-0.5,1-0.7,1.7-0.7l0,0c0.6,0,1.2,0.3,1.7,0.7l85.4,90.4c0.9,0.9,0.8,2.3-0.1,3.2c0,0,0,0,0,0
				C565.9,531.8,565.4,532,564.8,532z"/>
			<path class="st8" d="M388.5,545.7c-0.3,0-0.6-0.1-0.8-0.2c-1.2-0.5-1.8-1.8-1.3-2.9c0,0,0,0,0,0l45-114c0.5-1.2,1.8-1.7,3-1.3
				c1.2,0.5,1.7,1.8,1.3,3l-45,114C390.3,545.1,389.4,545.7,388.5,545.7z"/>
			<path class="st9" d="M567.1,528.5l6,15.7c0,0.1,0,0.3,0,0.4v0.3c-0.2,0.4-0.5,0.8-0.9,1c-1.1,0.6-2.5,0.6-3.6,0
				c-0.3-0.2-0.6-0.4-0.7-0.7l0,0v-0.2l-5.5-14.7L567.1,528.5z"/>
			<path class="st9" d="M391.6,528.5l-6,15.7c0,0.1,0,0.3,0,0.4c0,0.1,0,0.2,0,0.3c0.2,0.4,0.5,0.8,0.9,1c1.1,0.6,2.5,0.6,3.6,0
				c0.3-0.1,0.6-0.4,0.7-0.7l0,0v-0.2l5.6-14.7L391.6,528.5z"/>
			<path class="st9" d="M482,585.5v13c-0.1,0.5-0.3,0.9-0.8,1.1c-1.2,0.6-2.6,0.6-3.7,0c-0.4-0.2-0.7-0.6-0.8-1.1v-13
				C478.4,584.6,480.3,584.6,482,585.5z"/>
			<path class="st9" d="M565.3,435.6c0-3.5-3-7.1-9.4-11.3c-11.8-7.6-38.1-23-54.6-32.1c0-0.1-0.1-0.1-0.1-0.1
				c-12.7-7.7-24.5-44.4-33.3-72.2c-3-9.5-6.7-14.9-11-17.4c-1-0.6-4.8-2.7-5.7-3.2c-8.6-5.2-19.9,1-34,8.7
				c-13,7.1-23.1,16.2-25.2,40.3c-1.3,14.7-0.1,42.8,2.9,64l0,0c4.3,35.6,9.6,35.6,17.3,41.5c13.3,10.3,43.1,24.6,55.7,29.5
				c22.8,9,41.5-4.9,55.3-11.7c12.7-6.4,25-13.7,36.8-21.8c3.5-2.5,5.3-5.1,5.2-7.8C565.3,441.1,565.3,436.8,565.3,435.6z"/>
			<path class="st2" d="M565.3,435.6c0-3.5-3-7.1-9.4-11.3c-11.8-7.6-38.1-23-54.6-32.1c0-0.1-0.1-0.1-0.1-0.1
				c-12.7-7.7-24.5-44.4-33.3-72.2c-3-9.5-6.7-14.9-11-17.4c-1-0.6-4.8-2.7-5.7-3.2c-8.6-5.2-19.9,1-34,8.7
				c-13,7.1-23.1,16.2-25.2,40.3c-1.3,14.7-0.1,42.8,2.9,64l0,0c4.3,35.6,9.6,35.6,17.3,41.5c13.3,10.3,43.1,24.6,55.7,29.5
				c22.8,9,41.5-4.9,55.3-11.7c12.7-6.4,25-13.7,36.8-21.8c3.5-2.5,5.3-5.1,5.2-7.8C565.3,441.1,565.3,436.8,565.3,435.6z"/>
			<path class="st9" d="M456.4,302.2c-8.5-4.5-19.6,1.6-33.4,9.1c-8.8,4.8-16.3,10.5-20.8,21.2l-5.7-3.4c4.6-10.6,12-16.4,20.8-21.2
				c14.1-7.7,25.4-13.9,34-8.7L456.4,302.2z"/>
			<path class="st9" d="M556,424.4c-7.6-5-7.8-6.2-55-32.4c0.1,0,0.2,0.1,0.2,0.1c-12.7-7.7-24.5-44.4-33.3-72.2
				c-8.9-28.3-23.8-20.1-44.9-8.6c-13,7.1-23.1,16.2-25.2,40.3c-2.1,24.1,2.4,83.9,10.6,91.2c9,9.9,45,28.4,59.4,34.1
				c22.8,9,41.5-4.9,55.3-11.7c12.8-6.4,25.1-13.7,36.9-21.8C568,437.6,567.3,431.7,556,424.4z"/>
			<path class="st9" d="M501.2,392.1L501.2,392.1z"/>
			<g class="st10">
				<path d="M423,311.3c21.1-11.6,36-19.7,44.9,8.6c8.8,27.9,20.6,64.5,33.3,72.2c0,0-21.8,0-53.3,17c-32.8,17.7-37.8,35-39.3,33.8
					c-8.3-6.9-12.8-67.1-10.7-91.3S410,318.4,423,311.3z"/>
			</g>
		</g>
	</g>
	<g id="freepik--Desk--inject-29">
		<g id="freepik--desk--inject-29">
			<polygon class="st8" points="570.5,552.4 426,469 667.3,329.8 811.7,413.1 			"/>
			<polygon class="st11" points="426,469 426,635.7 433.6,640.1 433.6,526 562.9,600.6 562.9,714.7 570.5,719.1 570.5,552.4 			"/>
			<polygon points="433.6,640.1 441.3,635.7 441.3,530.4 433.6,526 			"/>
			<polygon class="st12" points="570.5,719.1 578.1,714.7 578.1,600.6 804.1,470.2 804.1,584.3 811.7,579.9 811.7,413.1 
				570.5,552.4 			"/>
			<polygon class="st11" points="804.1,584.3 796.5,579.9 796.5,474.6 804.1,470.2 			"/>
			<g class="st13">
				<path d="M557.4,519.5c-7.4,4.2-7.4,11.2,0,15.4s19.3,4.2,26.7,0c7.4-4.2,7.4-11.2,0-15.4C576.7,515.2,564.8,515.2,557.4,519.5z"
					/>
			</g>
			<g class="st13">
				<path d="M450.7,468.9l53,30.6c0.9,0.5,2,0.5,3,0l39-22.5c0.5-0.2,0.7-0.7,0.6-1.2c-0.1-0.3-0.3-0.5-0.6-0.6l-53-30.6
					c-0.9-0.5-2-0.5-3,0l-39,22.6C449.9,467.6,449.9,468.4,450.7,468.9z"/>
			</g>
			<g class="st13">
				<path d="M450.7,474.3l53,30.6c0.9,0.5,2,0.5,3,0l39-22.5c0.8-0.5,0.8-1.3,0-1.7l-53-30.6c-0.9-0.5-2-0.5-3,0l-39,22.5
					c-0.5,0.2-0.7,0.7-0.6,1.2C450.3,474,450.5,474.2,450.7,474.3z"/>
			</g>
			<path class="st14" d="M450.7,472.6l53,30.6c0.9,0.5,2,0.5,3,0l39.1-22.5c0.8-0.5,0.8-1.3,0-1.7l-53.1-30.7c-0.9-0.5-2-0.5-3,0
				l-39,22.5c-0.5,0.2-0.7,0.7-0.6,1.2C450.3,472.3,450.5,472.5,450.7,472.6z"/>
			<path class="st7" d="M489.8,448.3l-37.1,21.4l51,29.5c0.9,0.5,2,0.5,3,0l37.1-21.4l-51.1-29.5
				C491.8,447.8,490.7,447.8,489.8,448.3z"/>
			<path class="st15" d="M450.7,467.2l53,30.6c0.9,0.5,2,0.5,3,0l39.1-22.6c0.5-0.2,0.7-0.7,0.6-1.2c-0.1-0.3-0.3-0.5-0.6-0.6
				l-53.1-30.6c-0.9-0.5-2-0.5-3,0l-39,22.5c-0.5,0.2-0.7,0.7-0.6,1.2C450.3,466.9,450.5,467.1,450.7,467.2z"/>
			<g class="st13">
				<path d="M510.6,441.6l28.7,16.6c1.1,0.6,2.4,0.6,3.5,0l92.5-53.5c0.6-0.2,0.9-0.8,0.7-1.4c-0.1-0.3-0.4-0.6-0.7-0.7l-28.7-16.6
					c-1.1-0.6-2.4-0.6-3.5,0l-92.5,53.5c-0.6,0.2-0.9,0.8-0.7,1.4C510,441.3,510.3,441.5,510.6,441.6z"/>
			</g>
			<path class="st7" d="M511.6,437.7v-0.6c0.1-1.1,0.7-2.1,1.6-2.8l85-49.1c1-0.5,2.2-0.5,3.2,0l26.3,15.2c0.9,0.6,1.5,1.6,1.6,2.8
				v0.6c-0.1,1.1-0.7,2.1-1.6,2.8l-85,49.1c-1,0.5-2.2,0.5-3.2,0l-26.3-15.2C512.3,439.9,511.7,438.9,511.6,437.7z"/>
			<path class="st15" d="M513.2,436.2l26.3,15.2c1,0.5,2.2,0.5,3.2,0l85-49.1c0.5-0.2,0.8-0.7,0.6-1.3c-0.1-0.3-0.3-0.5-0.6-0.6
				l-26.4-15.2c-1-0.5-2.2-0.5-3.2,0l-85,49.1c-0.5,0.2-0.8,0.8-0.6,1.3C512.7,435.9,512.9,436.1,513.2,436.2z"/>
			<path class="st14" d="M582.9,528.3c6.5-6.6,10.3-23.2,4-28.5h-32.3c-6.4,5.3-2.5,21.9,4,28.5l0.2,0.2l0.2,0.2l0.6,0.5l0.2,0.1
				l0.5,0.4c0.3,0.2,0.6,0.4,0.8,0.5c6.1,3.1,13.3,3.1,19.4,0l0,0c0.3-0.2,0.6-0.3,0.8-0.6l0.5-0.3l0.2-0.2c0.2-0.2,0.4-0.3,0.6-0.5
				l0.3-0.2L582.9,528.3z"/>
			<path class="st15" d="M557.4,497.6c-7.4,4.2-7.4,11.2,0,15.4s19.3,4.2,26.7,0c7.4-4.2,7.4-11.2,0-15.4S564.8,493.4,557.4,497.6z"
				/>
			<path class="st14" d="M562.6,500.6c-4.5,2.6-4.5,6.8,0,9.4c5.1,2.6,11.1,2.6,16.2,0c4.5-2.6,4.5-6.8,0-9.4
				C573.7,498.1,567.7,498.1,562.6,500.6z"/>
			<path class="st7" d="M578.9,505.1c-5.1-2.6-11.1-2.6-16.2,0c-1.1,0.6-2.1,1.4-2.8,2.5c0.7,1,1.6,1.9,2.8,2.5
				c5.1,2.6,11.1,2.6,16.2,0c1.1-0.6,2.1-1.4,2.8-2.5C580.9,506.5,580,505.7,578.9,505.1z"/>
			<path class="st9" d="M563.6,507.6c-2.3-2.3-4.3-5-5.9-7.8c-2.8-4.8-3.2-11.2-1.8-12s7.1,5.6,7.1,5.6c-0.5-2.7-0.7-5.5-0.6-8.3
				c0.2-4.3,1.3-8.2,2.5-8.9s4,4.6,5.1,8.5c1.2,3.9,1.9,7.1,1.9,7.1c0.5-3,1.2-6.1,2.1-9c1.4-4.1,2.8-5,3.7-4.6c1,0.4,1.7,2.3,2,7.7
				c0.1,2.6,0,5.2-0.2,7.7c0,0,2-2.2,4.2-4.4c2.5-2.4,3.5-2.8,4.2-2.2s0.9,4.1-2.9,11c-1.9,3.5-4.3,6.7-7.2,9.4
				C577.9,507.5,572.6,511,563.6,507.6z"/>
			<path class="st9" d="M704.5,429l6.9-82.9c0.1-2.7-1.2-5.3-3.4-6.9c-2.5-1.2-5.4-1.2-7.8,0.1l-90.8,52.4c-2.4,1.6-4,4.1-4.4,7
				l-6.9,82.8c-0.1,2.7,1.2,5.3,3.4,6.9c2.5,1.2,5.4,1.1,7.9-0.2l90.8-52.4C702.5,434.4,704.1,431.8,704.5,429z"/>
			<path class="st16" d="M704.5,429l6.9-82.9c0.1-2.7-1.2-5.3-3.4-6.9c-2.5-1.2-5.4-1.2-7.8,0.1l-90.8,52.4c-2.4,1.6-4,4.1-4.4,7
				l-6.9,82.8c-0.1,2.7,1.2,5.3,3.4,6.9c2.5,1.2,5.4,1.1,7.9-0.2l90.8-52.4C702.5,434.4,704.1,431.8,704.5,429z"/>
			<path class="st9" d="M704.5,429l6.9-82.9c0.1-2.7-1.2-5.3-3.4-6.9c-2.5-1.2-5.4-1.2-7.8,0.1l-90.8,52.4c-1.2,0.7-2.2,1.8-2.9,3
				l14.1,8.1v79l79.6-45.9C702.5,434.4,704.1,431.8,704.5,429z"/>
			<path class="st17" d="M704.5,429l6.9-82.9c0.1-2.7-1.2-5.3-3.4-6.9c-2.5-1.2-5.4-1.2-7.8,0.1l-90.8,52.4c-1.2,0.7-2.2,1.8-2.9,3
				l14.1,8.1v79l79.6-45.9C702.5,434.4,704.1,431.8,704.5,429z"/>
			<path class="st9" d="M605.7,486l6.9-82.8c0.4-2.9,2-5.4,4.4-7l90.8-52.4c2.2-1.3,3.9-0.2,3.7,2.3l-6.9,82.9c-0.4,2.9-2,5.4-4.4,7
				l-90.8,52.4C607.1,489.6,605.5,488.6,605.7,486z"/>
			<path class="st18" d="M605.7,486l6.9-82.8c0.4-2.9,2-5.4,4.4-7l90.8-52.4c2.2-1.3,3.9-0.2,3.7,2.3l-6.9,82.9
				c-0.4,2.9-2,5.4-4.4,7l-90.8,52.4C607.1,489.6,605.5,488.6,605.7,486z"/>
			<path class="st9" d="M652.5,419.6c0.4-4.2,3.3-9.2,6.6-11.2c3.3-1.9,5.7,0,5.4,4.2c-0.4,4.2-3.3,9.2-6.6,11.2
				C654.5,425.7,652.1,423.8,652.5,419.6z"/>
			<polygon class="st9" points="654.6,444.6 676.9,431.7 673.1,429.5 650.8,442.4 			"/>
			<g class="st19">
				<polygon class="st20" points="654.6,444.6 676.9,431.7 673.1,429.5 650.8,442.4 				"/>
			</g>
			<path class="st9" d="M687.3,469.7l-27.1,15.7c-0.5,0.3-1.1,0.4-1.7,0.4c-0.5,0-1-0.1-1.5-0.4l0,0l-12-6.9h-0.1
				c-0.9-0.6-1.5-1.6-1.5-2.8v-0.6c0-1,0.7-1.5,1.6-0.9l7.2,4.1l1.6,0.9l-0.4-1.8l-2.5-35l3.8,2.2l22.3-13l11.6,35.3
				C688.7,468,688.2,469.1,687.3,469.7z"/>
			<g class="st21">
				<path class="st20" d="M687.3,469.7l-27.1,15.7c-0.5,0.3-1.1,0.4-1.7,0.4c-0.5,0-1-0.1-1.5-0.4l0,0l-12-6.9h-0.1
					c-0.9-0.6-1.5-1.6-1.5-2.8v-0.6c0-1,0.7-1.5,1.6-0.9l7.2,4.1l1.6,0.9l-0.4-1.8l-2.5-35l3.8,2.2l22.3-13l11.6,35.3
					C688.7,468,688.2,469.1,687.3,469.7z"/>
			</g>
			<polygon class="st9" points="643.8,473.9 653,468.6 654.9,481.1 			"/>
			<g class="st22">
				<polygon points="643.8,473.9 653,468.6 654.9,481.1 				"/>
			</g>
			<path class="st9" d="M654.6,444.6l-3.8-2.2l2.5,34.9c0.2,1-0.4,1.4-1.3,0.9l-7.2-4.1c-0.9-0.5-1.6-0.1-1.6,0.9v0.6
				c0.1,1.1,0.6,2.1,1.5,2.8h0.1l12,6.9l0,0c0.5,0.2,1,0.4,1.5,0.4L654.6,444.6z"/>
			<g class="st22">
				<path class="st20" d="M654.6,444.6l-3.8-2.2l2.5,34.9c0.2,1-0.4,1.4-1.3,0.9l-7.2-4.1c-0.9-0.5-1.6-0.1-1.6,0.9v0.6
					c0.1,1.1,0.6,2.1,1.5,2.8h0.1l12,6.9l0,0c0.5,0.2,1,0.4,1.5,0.4L654.6,444.6z"/>
			</g>
			<g id="freepik--Pencil--inject-29">
				<polygon id="freepik--shadow--inject-29_00000040558588357435178900000000880497510899657657_" class="st23" points="553,467.5 
					557.2,469.9 590.2,450.6 593.8,446.3 586.2,448.3 				"/>
				<path class="st24" d="M586.5,445.4l7-1.4c0.1,0,0.2,0.1,0.3,0.2c0,0.1,0,0.1,0,0.2l-4.8,5.4L586.5,445.4z"/>
				<path class="st11" d="M593.8,444.4c0.1-0.1,0.1-0.2,0-0.3c0,0-0.1-0.1-0.2,0l-1.4,0.3l0,0c0.4,0.2,0.6,0.7,0.6,1.1v0.1
					L593.8,444.4z"/>
				<path class="st9" d="M562.9,464.8l0.6-0.3l0.7-0.4l24.9-14.3c0.2-0.8,0.2-1.6-0.2-2.3c-0.4-1-1.2-1.8-2.3-2l-24.9,14.3l-1.4,0.8
					C561.2,460.1,563.7,464.3,562.9,464.8z"/>
				<path class="st14" d="M565,463.6l1.3-0.7c0.4-0.2,0.2-1.1-0.3-2.1c-0.6-1.3-1.7-2.5-2.2-2.3l-0.9,0.6l-0.3,0.2
					c0.5-0.3,1.7,1,2.2,2.3C565.1,462.4,565.4,463.3,565,463.6L565,463.6L565,463.6z"/>
				<path class="st9" d="M565.3,463.4c0.9-0.5-1.6-4.8-2.5-4.3l-1.3,0.7c0.9-0.5,3.4,3.9,2.5,4.3L565.3,463.4z"/>
				<path class="st14" d="M562.9,464.8l1.3-0.7c0.9-0.5-1.5-4.7-2.4-4.4l0,0l-1.3,0.7C561.2,460.1,563.7,464.3,562.9,464.8z"/>
				<path class="st25" d="M593.8,444.1l-0.2-0.1l-5.1,2.8l-26.4,15.1c0-0.1-0.1-0.1-0.1,0c0.7,1.2,1.3,2.6,0.8,2.9l0.6-0.3l0.7-0.4
					l24.9-14.3l0,0l4.8-5.4C593.8,444.3,593.8,444.2,593.8,444.1z"/>
				<path class="st26" d="M557.4,467.9l5.4-3.1c0.4-0.2,0.2-1.1-0.3-2.1c-0.6-1.3-1.7-2.5-2.2-2.3l0,0l-5.4,3.1
					c-1.1,0.6-0.1,3,1.1,4C556.4,467.9,556.9,468.1,557.4,467.9z"/>
				<path class="st27" d="M557.7,466.2c-0.3-1.2-1.1-2.2-2.2-2.7c-0.3-0.1-0.6-0.1-0.8,0.1c-0.8,0.7,0.1,2.9,1.3,3.9
					c0.3,0.4,0.9,0.5,1.4,0.4C557.8,467.7,557.9,467,557.7,466.2z"/>
			</g>
		</g>
	</g>
	<g id="freepik--speech-bubble--inject-29">
		<g id="freepik--speach-bubble--inject-29">
			<path class="st8" d="M748.6,210.9c-0.3-0.1-0.6-0.2-0.9-0.2H732l-6.5,3.7v22.5l6.5-3.7l5.6-6.5v15.8l6.5-3.7l17-18.3
				c0.6-0.7,0.5-1.8-0.2-2.4c-0.1-0.1-0.2-0.1-0.2-0.2L748.6,210.9z"/>
			<path class="st12" d="M737.7,242.5l6.5-3.7l17-18.3c0.6-0.7,0.5-1.8-0.2-2.4c-0.3-0.3-0.7-0.4-1.1-0.4h-15.7l-6.5,3.8V242.5z"/>
			<path class="st12" d="M744.2,199.1c-0.2-4.4-2.5-8.4-6.2-10.8l0,0c-3.9-2-8.5-2-12.5,0l-47.3,27.1c-3.7,2.4-6,6.4-6.2,10.8v51.1
				c0.2,4.4,2.6,8.4,6.2,10.8l0,0c3.9,2,8.5,2,12.5,0l47.9-27.5c5.6-3.2,5.7-6.4,5.7-10.4L744.2,199.1z"/>
			<path class="st11" d="M672,277.3c0.2,4.4,2.6,8.4,6.2,10.8l0,0c3.6,1.8,7.7,2,11.4,0.5c-2.9,1.1-5.2-0.6-5.2-4.1v-51.1
				c0.1-2.2,0.7-4.3,1.8-6.1l-12.5-7.2c-1.1,1.9-1.7,4-1.8,6.1L672,277.3z"/>
			<path class="st8" d="M744,197.4c-0.7-2.7-3.1-3.5-6-1.8l-47.3,27c-1.8,1.1-3.4,2.7-4.4,4.6l-12.4-7.2c1-1.9,2.5-3.5,4.4-4.7
				l47.3-27.1c3.9-2,8.6-2,12.5,0l0,0C741.2,190.4,743.3,193.7,744,197.4z"/>
			<polygon class="st9" points="720.5,260.7 709.3,267.2 709.3,222.5 720.5,216 			"/>
			<polygon class="st9" points="731.7,224.5 731.7,239.4 698.2,258.7 698.2,243.8 			"/>
		</g>
	</g>
	<g id="freepik--Character--inject-29">
		<g id="freepik--character--inject-29">
			<path class="st28" d="M845.3,261.6c11,0.3,14.1,4.7,20.8,14.2c6.6,9.5,29.2,45.4,29.2,45.4l31.9,12.3l-4.2,18.6
				c0,0-42.7-7.2-45.5-8.9c-2.8-1.6-23.6-35.9-23.6-35.9L845.3,261.6z"/>
			<path class="st6" d="M836.9,261.9c10.4-2.6,15,3.2,18.5,9.6c15.7,28.9,22.1,202.2,22.1,202.2s-35.1,14-61.2-2.4L836.9,261.9z"/>
			<path class="st29" d="M870.4,559.8l-6.6,25c0,0-7.6,4.5-14.1,0.1c-5.2-3.5-4.9-7.6-4.9-7.6l0.3-3.8l0.7-29.1L870.4,559.8z"/>
			<path class="st11" d="M838.7,590.7c-1.8,4-2.8,15.7-2.8,15.7s1.1,4.3,7.1,8.1l5.8-15.5L838.7,590.7z"/>
			<polygon points="843,614.6 858.1,612.5 863.8,600.5 846.3,605.7 			"/>
			<path class="st11" d="M864.9,580.4l0.8-3.1c2.3,0.1,2.1,4.7,2.3,6c0.5,3.8,0.9,7.6,1.5,11.3c0.6,4.2,1.6,8.3,2.9,12.3
				c1.4,3.8,2.2,7.9,4.5,11.2c2.3,3.4,6.4,5.4,9.7,7.6c0.9,0.5,1.6,1.2,2.1,2.1c0.8,1.7-0.3,3.6-1.6,4.9c-2.3,2.2-5.2,3.6-8.4,4
				c-3.1,0.5-6.3,0.5-9.4,0c-5.5-0.6-10.9-2.6-15.5-5.7c-4.4-3.2-5.4-9.4-6.1-14.5c-0.6-4.1-0.2-8.9-1.9-12.8
				c-1.7-3.9-6.6-8.9-7-13.1c-0.2-3.5,0.6-7.1,2.2-10.2c1.8-3.4,3.1-7.7,4.2-7.1l-0.2,2.5c0-0.2,1.1,4.8,8.3,6.5
				C856.5,583.3,862.8,583.2,864.9,580.4z"/>
			<path class="st29" d="M854.2,607.5c0.2,4.6,0,6.5,0,8.6c0.2,3.8,1.2,6.5,2.1,10.2c0.4,1.5,0.9,3,1.6,4.4c0.7,1.7,2,3.9,1.3,5.5
				c-0.4,0.7-0.9,1.4-1.6,1.9c-2.9,2.4-6.6,3.7-10.3,3.5c-2,0-3.9-0.6-5.6-1.6c-3.3-2.2-4.6-6.1-6.4-9.5c-1.9-3.6-0.8-5.5-1.1-9.5
				c-0.4-5.3-1.1-10.5-2-15.7C839.2,597.3,845.2,605.2,854.2,607.5z"/>
			<path class="st9" d="M865.1,378.9c10.7,37.4,28.9,101.1,23.8,120.9c-3.9,14.8-20.6,69-20.6,69c-6.5,0.9-19.7,2.4-24.9-9
				c-1.3-18.4-5.8-143.5-5.8-143.5L865.1,378.9z"/>
			<path class="st30" d="M865.1,378.9c10.7,37.4,28.9,101.1,23.8,120.9c-3.9,14.8-20.6,69-20.6,69c-6.5,0.9-19.7,2.4-24.9-9
				c-1.3-18.4-5.8-143.5-5.8-143.5L865.1,378.9z"/>
			<path class="st2" d="M837.6,416.3c6.8-6.4,13.2-13.4,19-20.7c0,0-1.4,8.9-13.6,21.1c0,0,20.5,78.9,20.4,91.5s-6.9,57.8-6.9,57.8
				L837.6,416.3z"/>
			<path class="st9" d="M865.1,378.9c-8.8,18.2-12.2,25.4-27.5,37.4c0,0,18.7,77.8,19.5,92.9c1.4,25.1-1.9,81.3-3,98.4
				c-2.9,3.8-17,4.4-21.5,1.2c-2-7.9-8.9-35.7-12.1-60.6c-2.4-18.4,0.7-34.9,1-39.7c-9.9-25.3-32.2-62.2-40.3-88.7
				c-1.3-4.6-2.2-9.3-2.5-14c-1.8-16.8,5-29.6,9.1-38.5L865.1,378.9"/>
			<g class="st21">
				<path class="st20" d="M865.1,378.9c-8.8,18.2-12.2,25.4-27.5,37.4c0,0,18.7,77.8,19.5,92.9c1.4,25.1-1.9,81.3-3,98.4
					c-2.9,3.8-17,4.4-21.5,1.2c-2-7.9-8.9-35.7-12.1-60.6c-2.4-18.4,0.7-34.9,1-39.7c-9.9-25.3-32.2-62.2-40.3-88.7
					c-1.3-4.6-2.2-9.3-2.5-14c-1.8-16.8,5-29.6,9.1-38.5L865.1,378.9"/>
			</g>
			<path class="st11" d="M830.5,633.8c-1.1,4.2-0.1,15.9-0.1,15.9s1.8,4,8.3,6.8l3.1-16.2L830.5,633.8z"/>
			<polygon points="838.7,656.5 853.2,651.9 856.8,639.1 840.5,647.2 			"/>
			<path class="st12" d="M854.1,619.2l0.1-3c2,1,6.1,16.8,11.9,27.8c5.3,10,15.8,15.6,19.2,19.9c4.5,5.8-4.5,13.2-18.8,10
				c-7.1-1.6-17.9-6.2-20.7-11.1c-2.8-4.8-3.8-13.7-6.1-17.2s-8-7.7-9.2-11.7c-0.9-3.6-0.9-7.5,0.1-11.1c1.2-3.6,1.1-7.4,2.9-7.7
				l0.3,2.9c0.9,2,4.7,4.2,11.9,4.7C849.2,622.8,852.5,622.4,854.1,619.2z"/>
			<path class="st11" d="M828.8,230.6l-7.2,24.4c-20.1,0-32.5-19.6-32.5-39.6l0,0c0-20.2,12.8-37,33-37h6.5
				c20.2,0,36.5,13.4,36.5,33.6l0,0C865.1,225,848.8,230.6,828.8,230.6z"/>
			<path class="st11" d="M868.9,193.3c1.5-2.5,2.3-5.4,2.1-8.4c-0.2-3-1.8-5.7-4.2-7.4c-3.8-2.4-9-1.3-12.4,1.5
				c-0.6-5.5-5.4-9.5-10.9-9.1c-3.3,0.3-6.3,2.1-9.2,3.8c-4.9,2.5-10.2,4.1-15.7,4.8l6.1,2.4c-1.7,2.6-2.1,5.9-1.1,8.8
				c0.3,0.6,0.6,1.2,1,1.7c8.3,12.4,22.7,19.4,37.6,18.2c2.1,0,4.1-0.6,5.8-1.7c1-0.7,1.9-1.7,2.6-2.8c1.3-1.9,1.9-4.1,1.8-6.4
				C872.4,196.4,871,194.3,868.9,193.3z"/>
			<path class="st8" d="M813.1,264.8l-13.2,1.4c-8.7,2.1-12.7,6-13.6,13.8c-0.4,3.6-2.6,13.2,0.5,25.2c2.8,10.9,10.2,37.6,10.2,37.6
				s-9.6,24-14,36.2c31.1,20.3,69.4,12.3,82.3,0c-1.1-11.6-5.2-22.4-6.1-32.7c0,0,0.7-16.1,1.9-23.1c9.8-10.7,8.6-21,4.1-29.2
				c-8.1-15.3-20.4-28.7-24.4-28.7L813.1,264.8z"/>
			<path class="st7" d="M836.7,256.1c3.9,1,7,2.6,8.6,5.5c1.6,2.9,14,22.5,14,22.5s-10-13.2-17.6-17.2c-1.5-0.9-3.3-1.5-5-1.7V256.1
				z"/>
			<path class="st15" d="M813.1,264.8c0,0,13.8,28.7,16.2,48c2.4,19.4-2.8,85.4-2.8,106.3c0,25.3,0.1,66.9,0.1,66.9
				s-15.7,0-26.5-3.1c-7.9-2.2-17.2-6.3-22.9-13c0,0-1.5-51.7,1.7-76.3c3.1-23.4,15.5-52.2,15.5-52.2l-16-60.8
				c0,0,0.7-10.5,10.6-13.4C798.4,264.4,813.1,264.8,813.1,264.8z"/>
			<path class="st14" d="M800.1,277.3l-16.3,23.8l10.6,40.3c0,0-9.8,20.7-13.4,40.8c9.8-27.7,18.7-36.1,18.7-36.1l-5.7-23.5
				c0,0,2-7.4,4.8-20C801.6,290.1,801.1,282.8,800.1,277.3z"/>
			<path class="st9" d="M809,299.8c0-1.2-0.1-3.8-0.3-7.1c-1-16-1.5-30.4,3.9-31.6l0.5,2.2c-3.9,0.9-2.6,21.5-2.1,29.2
				c0.2,3.3,0.4,6,0.3,7.3L809,299.8z"/>
			<path class="st14" d="M813.1,256.1c-2,0-3.9,1.2-4.9,3c-1.3,2.2-4,5.9-4,5.9s-0.1,14.7,1.4,18.5c1.3,3.3,16.8,15.5,16.8,15.5
				s-1.5,12.9-1.6,17.5s7.9,20.9,8.8,29.7c0,0,1.7-21.3,0.4-31.3c-2.3-17.3-13-43.1-16.9-50.1V256.1z"/>
			<path class="st8" d="M805.8,353.2h-0.2v-1.6c1.9-0.2,3.7-0.8,5.2-1.9c-1.6-1.1-3.1-2.4-4.3-3.9c-2.5-3.3-8.1-26.7-6.4-32.2
				c1.4-4.6,5.9-14.7,9.9-14.9h0.1c4,0,9.3,9.5,11.1,13.9c2.2,5.3-1.4,29.1-3.6,32.6c-1.1,1.6-2.4,3-3.9,4.2c1.6,1,3.4,1.5,5.3,1.5
				l0.2,1.6c-2.4,0-4.8-0.7-6.9-2C810.4,352,808.1,352.9,805.8,353.2z M810.2,300.3L810.2,300.3c-2.4,0.1-6.6,7.6-8.5,13.8
				c-1.6,5,3.8,27.7,6.1,30.8c1.2,1.5,2.7,2.8,4.4,3.9c1.6-1.2,3-2.6,4.1-4.2c2.1-3.2,5.5-26.3,3.5-31.2
				C817.4,307.4,812.6,300.3,810.2,300.3z"/>
			<path class="st11" d="M821.4,351.7c0.1,1.3-0.9,2.4-2.2,2.4c-1.3,0.1-2.4-0.9-2.4-2.2c-0.1-1.3,0.9-2.3,2.2-2.4
				C820.3,349.4,821.4,350.4,821.4,351.7z"/>
			<path class="st11" d="M807.9,352.3c0.1,1.3-0.9,2.4-2.2,2.4c-1.3,0.1-2.4-0.9-2.4-2.2c-0.1-1.3,0.9-2.3,2.2-2.4
				C806.8,350,807.9,351,807.9,352.3C807.9,352.3,807.9,352.3,807.9,352.3z"/>
			<path class="st9" d="M821.6,323l-1.4-0.1c-0.3,0-0.5-0.2-0.5-0.5c0,0,0,0,0,0c0.3-4.4,0.1-7.6-0.4-8.9
				c-2.3-5.7-7.2-12.8-9.3-12.7c-2.1,0.1-6.3,7.6-8.2,13.5c-0.4,1.4-0.3,4.6,0.4,8.9c0,0.3-0.1,0.5-0.4,0.6l-1.4,0.2
				c-0.3,0-0.6-0.2-0.6-0.4c0,0,0,0,0,0c-0.7-4.9-0.8-8.3-0.3-10c1-3.1,5.6-14.9,10.3-15.1c4.7-0.2,10.3,11.2,11.6,14.2
				c0.7,1.7,0.9,5,0.6,10C822.1,322.8,821.9,323,821.6,323z"/>
			<path class="st29" d="M767.4,442.9c2.4,2.2,3.7,5.3,6.2,9.7s14.6,4.9,15.6-7.6c0.7-9.4-2.6-12.6-9.2-20c-6.9-7.7-9.6-9-9.3-16.2
				c0.2-3.5,5.5-54.7,5.5-54.7l17.5-48.2c0,0,6.3-22.5,3.1-38.2c0,0-11.3-0.9-19.4,7.1c-9.4,9.4-20,55.6-22.3,64.9
				c-3.4,11.8-4.8,24.1-4.4,36.4c0.6,15,0.6,46.4,2.6,53.3S761,436.8,767.4,442.9z"/>
			<path class="st6" d="M797.6,265.6c0,0-12.1-0.8-19.1,5c-7.1,5.8-11.4,21.9-16.6,38.1c-5.2,16.1-9.8,31.9-11.5,43.2
				c-1.4,9.5,1.4,59.4,1.4,59.4s8,2.9,18.9-2.4l6.8-54.6l20.2-54.8C801.4,288.4,801.3,276.5,797.6,265.6z"/>
			<path class="st29" d="M844.6,196.8c9.2,0.9,16.9,10.7,16.4,32.9c-0.4,18.8-6.5,23.4-9.6,24.8c-3.1,1.4-9,1.6-14.7,0.6v10.2
				c0,0,6.6,14.6,3.8,19.7c-15.7-6.5-27.4-20.2-27.4-20.2v-23.2c0,0-3.9,4.6-10.2,0.4c-6.3-4.2-6.6-14.6-2.9-18.3s11.6-2.5,13.1,2.6
				c0,0,5.5-0.1,15.6-7.4C836.4,213.6,842.1,205.8,844.6,196.8z"/>
			<path class="st11" d="M835.4,222.4c0.1,1.4-0.9,2.6-2.3,2.7c0,0,0,0-0.1,0c-1.4,0.1-2.7-0.9-2.8-2.4c-0.1-1.4,0.9-2.7,2.4-2.8
				C834,219.9,835.3,220.9,835.4,222.4C835.4,222.4,835.4,222.4,835.4,222.4z"/>
			<path class="st31" d="M838.1,240l7.5,2.4c-0.6,2-2.7,3.3-4.7,2.7c0,0-0.1,0-0.1,0C838.6,244.3,837.5,242.1,838.1,240z"/>
			<path class="st11" d="M857.6,216.6l-5.1-3.5c0.9-1.4,2.7-1.8,4.1-0.9c0,0,0.1,0.1,0.1,0.1C858.2,213.3,858.5,215.2,857.6,216.6z"
				/>
			<path class="st11" d="M855.8,222c0,1.4-1.1,2.5-2.5,2.5c-1.4,0-2.5-1.1-2.5-2.5c0-1.3,1-2.5,2.4-2.5
				C854.6,219.4,855.8,220.5,855.8,222C855.8,221.9,855.8,221.9,855.8,222z"/>
			<polygon class="st31" points="843.1,220.5 843.5,235.6 851.4,233.1 			"/>
			<path class="st31" d="M836.7,255c-6.1-0.8-18.5-5.4-20.4-10.3c0.8,2.5,2.3,4.7,4.4,6.3c3.7,3.2,16.1,6.8,16.1,6.8L836.7,255z"/>
			<polygon class="st9" points="937.7,314.9 877.9,343.4 861.5,414.6 862.8,416 919.6,387.4 939,316.4 			"/>
			<polygon class="st32" points="879.3,344.8 862.8,416 861.5,414.6 877.9,343.4 			"/>
			<polygon class="st2" points="939,316.4 879.3,344.8 862.8,416 919.6,387.4 			"/>
			<g class="st13">
				<path d="M910.8,372.9c0.6,1.4,5.1,4.5,11.8,3.9l1.1-4.1L910.8,372.9z"/>
			</g>
			<g class="st10">
				<path d="M921,330.9l0.5-2.4c0.3-1.4-3.2-0.6-7.8,1.5l-8.8,4.1c-4.6,2.2-8.6,5-8.8,6.3l-0.5,2.4L921,330.9z"/>
			</g>
			<path class="st12" d="M924.7,319.8c0.2-0.8-1.3-0.7-3.2,0.2l-3.5,1.7c0,0,1-5.2-6.7-1.8c-7.7,3.4-9.4,9.3-9.4,9.3l-3.7,1.9
				c-2.1,1-3.9,2.5-4.1,3.4l-0.4,1.5l30.8-14.6C924.4,321.3,924.5,320.6,924.7,319.8z"/>
			<path class="st12" d="M921.4,324.7c-2.8,1.3-4,1.9-4.4,3.9c-0.5,2.3-0.7,4-0.7,4l-13.6,6.5c0,0,0.7-2.9,0.9-4.1
				c0.2-1.2-0.2-1.7-2.4-0.7l-0.9-2.4l22-10.3L921.4,324.7z"/>
			<path class="st12" d="M921.8,331c0,0,0.2-1.1,0.5-2.4s-3.2-0.6-7.8,1.5l-8.8,4.1c-4.6,2.2-8.5,5-8.8,6.3l-0.5,2.4L921.8,331z"/>
			<path class="st29" d="M932.4,340.7c0,0-2.1,7.8-2.7,9.8c-0.6,2-10.3,6.5-15.3,7.1c-9.4,1.2-10.4,3.2-8.2,9.9
				c2.1,6.1,8.2,8.5,16.7,7.5c4-0.5,9.4-4,11.6-10.1c2.8-7.8,1.3-16.2,2.4-20.8S934.8,338,932.4,340.7z"/>
		</g>
	</g>
	<g id="freepik--Certificates--inject-29">
		<g id="freepik--Diploma--inject-29">
			<g id="freepik--Window--inject-29">
				<polygon class="st8" points="393.6,260.2 396.4,261.8 466.2,221.5 463.4,219.9 				"/>
				<polygon class="st9" points="463.4,219.9 396.4,258.6 396.4,200.5 463.4,161.8 				"/>
				<g class="st33">
					<polygon class="st20" points="463.4,219.9 396.4,258.6 396.4,200.5 463.4,161.8 					"/>
				</g>
				<path class="st12" d="M469,155.4l-75.3,43.5v67.8l75.4-43.5L469,155.4z M466.3,221.5l-69.8,40.3v-61.3l69.8-40.3L466.3,221.5z"
					/>
				<polygon class="st11" points="466.2,221.5 463.4,219.9 463.4,161.8 466.2,160.2 				"/>
				<polygon class="st8" points="469,155.4 466.2,153.8 390.8,197.3 393.6,198.9 				"/>
				<polygon class="st11" points="390.8,197.3 393.6,198.9 393.6,266.7 390.8,265.1 				"/>
			</g>
			<path class="st9" d="M450.3,210.2c2.6-1.5,4.7-0.3,4.7,2.8c-0.2,3.3-1.9,6.3-4.7,8.2c-2.6,1.5-4.7,0.3-4.7-2.8
				C445.8,215,447.5,212,450.3,210.2z"/>
			<path class="st23" d="M412.2,197.9l35.5-20.5c1-0.6,1.8-0.1,1.8,1v0.1c-0.1,1.3-0.7,2.4-1.8,3.1l-35.5,20.5c-1,0.6-1.8,0.1-1.8-1
				V201C410.5,199.7,411.2,198.6,412.2,197.9z"/>
			<g class="st13">
				<path d="M406.6,214l46.8-27c1-0.6,1.8-0.3,1.8,0.6c-0.1,1.1-0.8,2.1-1.8,2.6l-46.8,27c-1,0.6-1.8,0.3-1.8-0.6
					C405,215.6,405.6,214.6,406.6,214z"/>
				<path d="M406.6,220.5l46.8-27c1-0.6,1.8-0.3,1.8,0.6c-0.1,1.1-0.8,2.1-1.8,2.7l-46.8,27c-1,0.6-1.8,0.3-1.8-0.6
					C405,222,405.6,221,406.6,220.5z"/>
				<path d="M406.6,226.9l46.8-27c1-0.6,1.8-0.3,1.8,0.6c-0.1,1.1-0.8,2.1-1.8,2.6l-46.8,27c-1,0.6-1.8,0.3-1.8-0.6
					C405,228.5,405.6,227.5,406.6,226.9z"/>
			</g>
			<path class="st34" d="M441.9,223.9c-0.4,0.2-0.8,0.3-1.2,0.3c-1,0-0.9-1-0.9-1.7c0-0.3-0.4-0.8-0.6-0.4c-0.6,1.1-1.4,2.1-2,3.2
				c-0.4,0.6-1.2,2.1-2.1,1.9c-0.4-0.1-0.5-0.5-0.5-1c0.5-0.9,0.7-1.9,0.6-2.9c0-0.3-0.6-0.7-0.7-0.3c-0.3,0.9-0.6,1.8-0.6,2.8
				c-0.4,0.8-1,1.5-1.5,2.2c-0.3,0.4-0.6,0.9-1,1.4c-0.1,0.1-0.3,0.3-0.4,0.4c-0.1,0-0.3-0.1-0.3-0.4c0-0.3,0-0.6,0.2-0.9l0,0
				c0,0,0,0,0-0.1l0,0c0-0.3-0.4-0.8-0.6-0.4c-0.6,1.7-1.6,3.2-2.8,4.6l-0.2,0.2c0-0.2,0-0.4,0-0.6c0-0.4-0.1-0.9-0.2-1.3
				c-0.1-0.2-0.4-0.5-0.6-0.2c-0.9,1.6-1.9,3-3.1,4.3c-0.2,0.2-0.4,0.3-0.6,0.5c-0.2-0.1,0.1-1.3,0.2-1.4c0.1-0.5,0.3-1,0.5-1.5
				c0.2-0.4,0.3-0.8,0.4-1.2c0-0.4-0.6-1-0.7-0.5c0,0.2-0.2,0.7-0.4,1.4c-0.8,1.5-1.7,2.9-2.7,4.2c-0.9,1.5-2.2,2.7-3.6,3.5
				c-0.4,0.2-1.2,0.6-1.7,0.2s-0.4-0.9-0.4-1.4c0-1.1,0.1-2.2,0.4-3.2c1.5-0.8,2.8-1.7,4-2.9c1.2-1,2.2-2.1,3.1-3.4
				c0.4-0.8,0.7-2-0.3-2.4c-0.7-0.3-1.6,0.2-2.2,0.5c-0.8,0.5-1.5,1.1-2.2,1.8c-1.3,1.5-2.2,3.2-2.8,5.1c-0.1,0.3-0.2,0.7-0.3,1.1
				c-1.6,0.8-3.4,1.1-5.1,0.9c-0.1,0-0.1,0.2,0,0.2c1.7,0.4,3.4,0.2,5-0.5c-0.5,2-0.7,4.5,1.1,5c1.8,0.5,4-1.8,5-3.1
				c0.7-1,1.4-2,2-3.1c0.1-0.1,0.1-0.2,0.2-0.2c0,0.9,0.2,1.6,1.1,1.4c0.9-0.2,1.7-1.4,2.2-2.1s0.9-1.4,1.4-2c0.1,0.8,0.2,1.7,1,1.6
				c0.8-0.2,1.4-1.5,1.8-2.1c0.4-0.6,0.6-1,0.9-1.5c0.1,0.1,0.1,0.2,0.2,0.3c0.6,0.7,1.4,0,1.8-0.6c0.6-0.8,1.3-1.6,1.8-2.5
				c0.1,0.4,0.4,0.7,0.8,0.9c1,0.5,1.9-0.4,2.5-1.1c0.7-1,1.3-2,1.9-3c0.1,0.4,0.3,0.8,0.7,1c0.8,0.4,1.7,0.3,2.4-0.2
				C442.5,224.4,442.2,223.8,441.9,223.9z M420.1,227.8c0.5-0.2,1.4-0.6,1.5,0.2c-0.1,0.5-0.3,1-0.6,1.4c-0.8,1.1-1.7,2-2.8,2.9
				c-1.1,1-2.2,1.8-3.4,2.6C415.5,231.9,417.4,229.3,420.1,227.8z"/>
		</g>
		<g id="freepik--diploma--inject-29">
			<g id="freepik--window--inject-29">
				<polygon class="st8" points="503.7,260.2 506.5,261.8 576.3,221.5 573.5,219.9 				"/>
				<polygon class="st9" points="573.5,219.9 506.5,258.6 506.5,200.5 573.5,161.8 				"/>
				<g class="st33">
					<polygon class="st20" points="573.5,219.9 506.5,258.6 506.5,200.5 573.5,161.8 					"/>
				</g>
				<path class="st12" d="M579,155.4l-75.3,43.5v67.8l75.4-43.5L579,155.4z M576.3,221.5l-69.8,40.3v-61.3l69.8-40.3L576.3,221.5z"
					/>
				<polygon class="st11" points="576.3,221.5 573.5,219.9 573.5,161.8 576.3,160.2 				"/>
				<polygon class="st8" points="579,155.4 576.3,153.8 500.9,197.3 503.7,198.9 				"/>
				<polygon class="st11" points="500.9,197.3 503.7,198.9 503.7,266.7 500.9,265.1 				"/>
			</g>
			<path class="st9" d="M560.3,210.2c2.6-1.5,4.7-0.3,4.7,2.8c-0.2,3.3-1.9,6.3-4.7,8.2c-2.6,1.5-4.7,0.3-4.7-2.8
				C555.8,215,557.5,212,560.3,210.2z"/>
			<path class="st23" d="M522.2,197.9l35.5-20.5c1-0.6,1.8-0.1,1.8,1v0.1c-0.1,1.3-0.7,2.4-1.8,3.1l-35.5,20.5c-1,0.6-1.8,0.1-1.8-1
				V201C520.5,199.7,521.2,198.6,522.2,197.9z"/>
			<g class="st13">
				<path d="M516.6,214l46.8-27c1-0.6,1.8-0.3,1.8,0.6c-0.1,1.1-0.8,2.1-1.8,2.6l-46.8,27c-1,0.6-1.8,0.3-1.8-0.6
					C515,215.6,515.7,214.6,516.6,214z"/>
				<path d="M516.6,220.5l46.8-27c1-0.6,1.8-0.3,1.8,0.6c-0.1,1.1-0.8,2.1-1.8,2.7l-46.8,27c-1,0.6-1.8,0.3-1.8-0.6
					C515,222,515.7,221,516.6,220.5z"/>
				<path d="M516.6,226.9l46.8-27c1-0.6,1.8-0.3,1.8,0.6c-0.1,1.1-0.8,2.1-1.8,2.6l-46.8,27c-1,0.6-1.8,0.3-1.8-0.6
					C515,228.5,515.7,227.5,516.6,226.9z"/>
			</g>
			<path class="st34" d="M551.9,223.9c-0.4,0.2-0.8,0.3-1.2,0.3c-1,0-0.9-1-0.9-1.7c0-0.3-0.4-0.8-0.6-0.4c-0.6,1.1-1.4,2.1-2,3.2
				c-0.4,0.6-1.2,2.1-2.1,1.9c-0.4-0.1-0.5-0.5-0.5-1c0.5-0.9,0.7-1.9,0.6-2.9c0-0.3-0.5-0.7-0.7-0.3c-0.3,0.9-0.6,1.8-0.6,2.8
				c-0.4,0.8-1,1.5-1.5,2.2c-0.3,0.4-0.6,0.9-1,1.4c-0.1,0.1-0.3,0.3-0.4,0.4c-0.1,0-0.3-0.1-0.3-0.4c0-0.3,0-0.6,0.2-0.9l0,0
				c0,0,0-0.1,0-0.1l0,0c0-0.3-0.4-0.8-0.6-0.4c-0.6,1.7-1.6,3.2-2.8,4.6l-0.2,0.2c0-0.2,0-0.4,0-0.6c0-0.4-0.1-0.9-0.2-1.3
				c-0.1-0.2-0.4-0.5-0.6-0.2c-0.8,1.6-1.9,3-3.1,4.3c-0.2,0.2-0.4,0.3-0.6,0.5c-0.2-0.1,0.1-1.3,0.2-1.4c0.1-0.5,0.3-1,0.5-1.5
				c0.2-0.4,0.3-0.8,0.4-1.2c0-0.4-0.6-1-0.7-0.5c0,0.2-0.2,0.7-0.4,1.4c-0.8,1.5-1.7,2.9-2.7,4.2c-0.9,1.5-2.2,2.7-3.6,3.5
				c-0.4,0.2-1.2,0.6-1.7,0.2c-0.5-0.3-0.4-0.9-0.4-1.4c0-1.1,0.1-2.2,0.4-3.2c1.5-0.8,2.8-1.7,4-2.9c1.2-1,2.2-2.1,3.1-3.4
				c0.4-0.8,0.7-2-0.3-2.4c-0.7-0.3-1.6,0.2-2.2,0.5c-0.8,0.5-1.6,1-2.2,1.7c-1.3,1.5-2.2,3.2-2.8,5.1c-0.1,0.3-0.2,0.7-0.3,1.1
				c-1.6,0.8-3.4,1.1-5.1,0.9c-0.1,0-0.1,0.2,0,0.2c1.7,0.4,3.4,0.2,5-0.5c-0.5,2-0.7,4.5,1.1,5s4-1.8,5-3.1c0.7-1,1.4-2,2-3.1
				c0.1-0.1,0.1-0.2,0.2-0.2c0,0.9,0.2,1.6,1.1,1.4c0.9-0.2,1.7-1.4,2.2-2.1c0.5-0.7,0.9-1.4,1.4-2c0.1,0.8,0.2,1.7,1,1.6
				c0.8-0.2,1.4-1.5,1.8-2.1c0.4-0.6,0.6-1,0.9-1.5c0.1,0.1,0.1,0.2,0.2,0.3c0.6,0.7,1.4,0,1.8-0.6c0.6-0.8,1.3-1.6,1.8-2.5
				c0.1,0.4,0.4,0.7,0.8,0.9c1,0.5,1.9-0.4,2.5-1.1c0.7-1,1.3-2,1.9-3c0.1,0.4,0.3,0.8,0.7,1c0.8,0.4,1.7,0.3,2.4-0.2
				C552.6,224.4,552.3,223.8,551.9,223.9z M530.1,227.8c0.5-0.2,1.4-0.6,1.5,0.2c-0.1,0.5-0.3,1-0.6,1.4c-0.8,1.1-1.7,2-2.8,2.9
				c-1.1,1-2.2,1.8-3.4,2.6C525.5,231.9,527.4,229.3,530.1,227.8z"/>
		</g>
	</g>
</g>
</svg>
