<?xml version="1.0" encoding="utf-8"?>
<!-- Generator: Adobe Illustrator 26.5.0, SVG Export Plug-In . SVG Version: 6.00 Build 0)  -->
<svg version="1.1" id="Layer_1" xmlns="http://www.w3.org/2000/svg" xmlns:xlink="http://www.w3.org/1999/xlink" x="0px" y="0px"
	 viewBox="0 0 163.2 50.9" style="enable-background:new 0 0 163.2 50.9;" xml:space="preserve">
<style type="text/css">
	.st0{fill:#FFFFFF;}
</style>
<g>
	<path class="st0" d="M45,37c0-0.7-0.3-1-0.9-1c-0.6,0-0.9,0.3-0.9,1c0,0.7,0.3,1,0.9,1C44.7,37.9,45,37.6,45,37z M44.8,48.2v-8
		h-1.4v8.1c0,0.8,0.4,1.2,1.2,1.2c0.4,0,0.8-0.1,1.2-0.3v-0.4C45.4,49,45.3,49,45.2,49C45,49,44.8,48.7,44.8,48.2z M60.2,3v19.2
		c0,0.6,0.2,1.1,0.6,1.5c0.4,0.4,0.9,0.6,1.5,0.6c0.6,0,1.2-0.1,1.9-0.4V23c-0.6,0.1-0.9,0.1-0.9,0.1c-0.5,0-0.7-0.4-0.7-1.3V3h6.2
		c-0.1-0.3-0.1-0.6-0.1-0.9c0-0.3,0-0.6,0.1-0.8H54.1c0.1,0.3,0.1,0.6,0.1,0.8c0,0.3,0,0.6-0.1,0.9H60.2z M51.6,49.1
		c-1.1,0-1.9-0.5-2.5-1.4c-0.5-0.8-0.8-1.8-0.8-2.9c0-1,0.2-1.9,0.5-2.5c0.4-0.9,1.1-1.3,2.1-1.3c0.4,0,0.9,0.1,1.4,0.3
		c0.5,0.2,0.8,0.5,1,0.9l0.4-1.3c-0.5-0.3-0.9-0.5-1-0.6c-0.3-0.1-0.7-0.2-1.2-0.2c-1.4,0-2.5,0.4-3.4,1.3c-0.8,0.9-1.3,2-1.3,3.4
		c0,1.4,0.4,2.5,1.2,3.4c0.8,1,1.9,1.5,3.2,1.5c1,0,2-0.3,2.8-1l-0.3-0.9C52.9,48.7,52.2,49.1,51.6,49.1z M38.5,41.3v-1.1
		c-0.2,0.1-0.4,0.2-0.6,0.2c-0.2,0-0.5-0.1-0.7-0.2v8c0,0.5-0.1,0.8-0.4,0.8c0,0-0.2,0-0.6-0.1v0.4c0.4,0.2,0.8,0.2,1.1,0.2
		c0.4,0,0.7-0.1,0.9-0.3c0.2-0.2,0.3-0.5,0.3-0.9v-5.1c0-0.6,0.2-1.1,0.6-1.6c0.4-0.5,0.9-0.8,1.4-0.8c0.6,0,1.1,0.4,1.4,1.1v-1.3
		c-0.5-0.3-1-0.5-1.5-0.5C39.7,40.2,39,40.6,38.5,41.3z M59,36.5l-0.7,2.5H59l2-2.5c-0.3,0.1-0.6,0.2-0.9,0.2
		C59.7,36.6,59.3,36.6,59,36.5z M36.6,5.5l15.3,20.3V1.3c-0.2,0.2-0.5,0.2-0.8,0.2c-0.3,0-0.6-0.1-0.9-0.2v18.1L34.9,0.1v24.3
		c0.3-0.3,0.5-0.4,0.8-0.4c0.3,0,0.6,0.1,0.8,0.4V5.5z M6.1,22.8c-0.8,0-1.6-0.3-2.4-1c-0.8-0.6-1.3-1.4-1.5-2.1L1,22.1
		c0.6,0.7,1.3,1.3,2.2,1.8c0.9,0.5,1.8,0.7,2.7,0.7c2,0,3.7-0.8,5.1-2.3c1.4-1.6,2.1-3.3,2.1-5.4c0-1.7-0.4-3.2-1.3-4.4
		c-0.6-0.8-1.8-1.8-3.5-3C5.5,7.6,4.1,5.9,4.1,4.3c0-0.8,0.2-1.4,0.7-1.9c0.5-0.5,1.1-0.8,1.8-0.8c0.8,0,1.5,0.2,2,0.5
		C9,2.5,9.4,3,9.9,3.8l0.8-2.4C9.8,0.5,8.5,0,6.7,0c-1.4,0-2.5,0.3-3.3,1C2.7,1.6,2.2,2.6,1.9,4c0,0.3-0.1,0.6-0.1,0.9
		c0,2.2,1.7,4.6,5,7.1c1.3,1,2.2,1.8,2.7,2.4c0.7,1,1.1,2.1,1.1,3.3c0,1.3-0.4,2.5-1.3,3.5C8.5,22.3,7.4,22.8,6.1,22.8z M15.6,24.2
		l7-19.4l7,19.4c0.3-0.2,0.8-0.3,1.3-0.3c0.6,0,1.2,0.1,1.7,0.2l-9-22.9c-0.2,0.1-0.5,0.2-0.8,0.2c-0.3,0-0.6-0.1-0.8-0.2l-8.6,22.9
		c0.3-0.1,0.7-0.2,1-0.2C14.8,24,15.2,24,15.6,24.2z M18.7,37.9c0.6,0,0.9-0.3,0.9-1c0-0.7-0.3-1-0.9-1c-0.6,0-0.9,0.3-0.9,1
		C17.8,37.6,18.1,37.9,18.7,37.9z M29.9,47.6c-0.1-0.3-0.2-0.6-0.2-0.8c0-0.5,0.4-1,1.3-1.4c0.8-0.3,1.6-0.7,2.4-1
		c0.8-0.4,1.3-1,1.3-1.7c0-0.8-0.3-1.4-0.8-1.9c-0.5-0.4-1.2-0.7-2-0.7c-1.2,0-2.2,0.5-3,1.6c-0.7,1-1,2.1-1,3.3
		c0,1.3,0.4,2.4,1.2,3.3c0.8,1,1.8,1.5,3.1,1.5c1,0,2.1-0.4,3-1.2l0-1c-0.9,0.9-1.9,1.3-2.9,1.3C31.1,48.9,30.4,48.5,29.9,47.6z
		 M29.2,44.6c0-1,0.2-1.8,0.6-2.5c0.5-0.9,1.2-1.3,2.1-1.3c0.4,0,0.8,0.2,1.1,0.6c0.2,0.3,0.3,0.7,0.3,1.2c0,0.5-0.2,0.9-0.7,1.2
		c-0.5,0.2-1.1,0.4-1.6,0.7c-0.7,0.4-1.2,0.9-1.6,1.6C29.3,45.5,29.2,45.1,29.2,44.6z M19.4,48.2v-8H18v8.1c0,0.8,0.4,1.2,1.2,1.2
		c0.4,0,0.8-0.1,1.2-0.3v-0.4C20,49,19.8,49,19.8,49C19.5,49,19.4,48.7,19.4,48.2z M25.6,44.6c-0.6-0.4-1.2-0.7-1.8-1.1
		c-0.6-0.4-1-1-1-1.6c0-0.7,0.4-1.1,1.2-1.1c0.6,0,1,0.3,1.3,0.8l0.4-1c-0.5-0.3-1.1-0.4-1.7-0.4c-0.7,0-1.2,0.2-1.7,0.6
		c-0.5,0.4-0.7,0.9-0.7,1.6c0,0.9,0.3,1.7,1,2.3c0.6,0.4,1.2,0.7,1.8,1.1c0.6,0.4,1,1,1,1.6c0,0.5-0.1,0.9-0.4,1.3
		c-0.3,0.4-0.7,0.6-1.2,0.6c-0.3,0-0.6-0.1-1-0.4c-0.4-0.2-0.6-0.5-0.8-0.8l-0.4,1.4c0.6,0.3,1.3,0.4,2.2,0.4c0.8,0,1.5-0.3,2-0.9
		c0.5-0.6,0.8-1.3,0.8-2.1C26.5,45.9,26.2,45.1,25.6,44.6z M13.4,35c-0.1,0-0.3,0-0.4-0.1L8,47.3L3.1,35c-0.1,0-0.2,0-0.4,0H2.4
		L0.6,49.6c0.2-0.1,0.4-0.1,0.7-0.1c0.3,0,0.5,0,0.8,0.1l1-11.7L8,50.9l5.3-13.3l1,12c0.2-0.1,0.4-0.2,0.7-0.2
		c0.3,0,0.5,0.1,0.9,0.2l-2.1-14.6C13.7,35,13.6,35,13.4,35z M128.5,37c0-0.7-0.3-1-0.9-1c-0.6,0-0.9,0.3-0.9,1c0,0.7,0.3,1,0.9,1
		C128.2,37.9,128.5,37.6,128.5,37z M134.4,44.6c-0.6-0.4-1.2-0.7-1.8-1.1c-0.6-0.4-1-1-1-1.6c0-0.7,0.4-1.1,1.2-1.1
		c0.6,0,1,0.3,1.3,0.8l0.4-1c-0.5-0.3-1.1-0.4-1.6-0.4c-0.7,0-1.2,0.2-1.7,0.6c-0.5,0.4-0.7,0.9-0.7,1.6c0,0.9,0.3,1.7,1,2.3
		c0.6,0.4,1.2,0.7,1.8,1.1c0.6,0.4,1,1,1,1.6c0,0.5-0.1,0.9-0.4,1.3c-0.3,0.4-0.7,0.6-1.2,0.6c-0.3,0-0.6-0.1-1-0.4
		c-0.4-0.2-0.6-0.5-0.8-0.8l-0.4,1.4c0.6,0.3,1.3,0.4,2.2,0.4c0.8,0,1.5-0.3,2-0.9c0.5-0.6,0.8-1.3,0.8-2.1
		C135.4,45.9,135.1,45.1,134.4,44.6z M128.4,48.2v-8H127v8.1c0,0.8,0.4,1.2,1.2,1.2c0.4,0,0.8-0.1,1.2-0.3v-0.4
		c-0.3,0.1-0.5,0.1-0.6,0.1C128.5,49,128.4,48.7,128.4,48.2z M120.4,48.5V36.1c0-0.4-0.1-0.7-0.4-0.9c-0.3-0.2-0.6-0.4-1-0.4
		c-0.4,0-0.8,0.1-1.2,0.3v0.4c0.4,0,0.6-0.1,0.6-0.1c0.3,0,0.4,0.3,0.4,0.8v13.3h6.6c-0.1-0.2-0.1-0.4-0.1-0.6c0-0.2,0-0.4,0.1-0.5
		H120.4z M108,47.6c-0.2-0.3-0.2-0.6-0.2-0.8c0-0.5,0.4-1,1.3-1.4c0.8-0.3,1.6-0.7,2.4-1c0.8-0.4,1.3-1,1.3-1.7
		c0-0.8-0.3-1.4-0.8-1.9c-0.5-0.4-1.2-0.7-2-0.7c-1.2,0-2.2,0.5-3,1.6c-0.7,1-1,2.1-1,3.3c0,1.3,0.4,2.4,1.2,3.3
		c0.8,1,1.8,1.5,3.1,1.5c1,0,2.1-0.4,3-1.2l0-1c-0.9,0.9-1.9,1.3-2.9,1.3C109.2,48.9,108.5,48.5,108,47.6z M107.3,44.6
		c0-1,0.2-1.8,0.6-2.5c0.5-0.9,1.2-1.3,2.1-1.3c0.4,0,0.8,0.2,1.1,0.6c0.2,0.3,0.3,0.7,0.3,1.2c0,0.5-0.2,0.9-0.7,1.2
		c-0.5,0.2-1.1,0.4-1.6,0.7c-0.7,0.4-1.2,0.9-1.6,1.6C107.4,45.5,107.3,45.1,107.3,44.6z M163.3,49c-0.3,0-0.5-0.3-0.5-0.8v-4.8
		c0-2.1-1-3.2-2.9-3.2c-0.5,0-1.2,0.2-2.2,0.7l0.4,1.5c0.1-0.4,0.4-0.8,0.7-1.1c0.3-0.3,0.7-0.5,1.1-0.5c0.3,0,0.6,0.1,0.9,0.4
		c0.2,0.3,0.4,0.6,0.4,1c0,0.5-0.4,1-1.2,1.4c-1.4,0.7-2.1,1.2-2.3,1.3c-0.8,0.7-1.3,1.5-1.3,2.5c0,0.7,0.2,1.3,0.6,1.7
		c0.4,0.4,0.9,0.6,1.6,0.6c1.2,0,2.2-0.5,2.9-1.4c0.1,0.8,0.5,1.2,1.2,1.2c0.4,0,0.7-0.1,1.1-0.2v-0.4C163.5,48.9,163.4,49,163.3,49
		z M161.4,47.6c-0.5,0.9-1.2,1.4-2.1,1.4c-0.5,0-0.9-0.2-1.2-0.6c-0.3-0.4-0.4-0.8-0.4-1.3c0-0.6,0.3-1.2,0.9-1.7
		c0.6-0.4,1.1-0.8,1.7-1.2c0.7-0.5,1-1,1.2-1.5V47.6z M59.1,40.2c-1.3,0-2.4,0.5-3.2,1.4c-0.8,0.9-1.2,2.1-1.2,3.4l0,0.2
		c0,0.6,0.1,1.2,0.3,1.8c0.3,0.9,0.8,1.6,1.5,2.1c0.7,0.5,1.5,0.8,2.4,0.8c1.3,0,2.4-0.5,3.2-1.5c0.8-0.9,1.2-2.1,1.2-3.4
		c0-1.3-0.4-2.4-1.1-3.3C61.4,40.7,60.4,40.2,59.1,40.2z M60.2,48.8c-0.4,0.3-0.8,0.4-1.3,0.4c-0.9,0-1.6-0.5-2-1.4
		c-0.4-0.7-0.6-1.6-0.6-2.6c0-1.9,0.5-3.3,1.5-4c0.4-0.3,0.8-0.4,1.3-0.4c0.9,0,1.6,0.5,2.1,1.5c0.4,0.8,0.6,1.7,0.6,2.7
		C61.7,46.8,61.2,48,60.2,48.8z M141.6,40.2c-1.4,0-2.3,0.7-2.8,2V35c-0.2,0-0.4,0-0.7,0.1c-0.3-0.1-0.5-0.1-0.7-0.1v13.3
		c0,0.5-0.1,0.8-0.4,0.8c0,0-0.2,0-0.6-0.1v0.4c0.4,0.2,0.8,0.3,1.1,0.3c0.7,0,1.2-0.5,1.3-1.4c0.4,0.6,0.8,1,1.1,1.2
		c0.4,0.3,0.9,0.4,1.5,0.4c1.3,0,2.3-0.5,3-1.6c0.7-1,1-2.1,1-3.4c0-1.2-0.3-2.2-1-3.1C143.7,40.7,142.7,40.2,141.6,40.2z
		 M142.4,48.8c-0.4,0.3-0.8,0.4-1.2,0.4c-0.8,0-1.4-0.4-1.9-1.3c-0.4-0.7-0.5-1.5-0.5-2.4c0-2.1,0.5-3.5,1.5-4.2
		c0.4-0.3,0.7-0.4,1.1-0.4c0.8,0,1.4,0.5,1.9,1.4c0.4,0.7,0.5,1.6,0.5,2.5C143.8,46.7,143.3,48,142.4,48.8z M151,40.2
		c-1.3,0-2.4,0.5-3.2,1.4c-0.8,0.9-1.2,2.1-1.2,3.4l0,0.2c0,0.6,0.1,1.2,0.3,1.8c0.3,0.9,0.8,1.6,1.5,2.1c0.7,0.5,1.5,0.8,2.4,0.8
		c1.3,0,2.4-0.5,3.2-1.5c0.8-0.9,1.2-2.1,1.2-3.4c0-1.3-0.4-2.4-1.1-3.3C153.3,40.7,152.3,40.2,151,40.2z M152.1,48.8
		c-0.4,0.3-0.8,0.4-1.3,0.4c-0.9,0-1.6-0.5-2.1-1.4c-0.4-0.7-0.6-1.6-0.6-2.6c0-1.9,0.5-3.3,1.5-4c0.4-0.3,0.8-0.4,1.3-0.4
		c0.9,0,1.6,0.5,2.1,1.5c0.4,0.8,0.6,1.7,0.6,2.7C153.6,46.8,153.1,48,152.1,48.8z M104.2,48.2V35c-0.2,0-0.5,0-0.7,0.1
		c-0.2-0.1-0.5-0.1-0.7-0.1v7.2c-0.5-1.3-1.5-2-2.8-2c-1.2,0-2.1,0.5-2.8,1.4c-0.6,0.9-1,1.9-1,3.1c0,3.4,1.3,5.1,4,5.1
		c0.6,0,1.1-0.1,1.5-0.4c0.3-0.2,0.7-0.6,1.1-1.2c0.1,1,0.5,1.4,1.2,1.4c0.3,0,0.7-0.1,1.1-0.3v-0.4c-0.3,0.1-0.5,0.1-0.6,0.1
		C104.4,49,104.2,48.7,104.2,48.2z M101.2,48.8c-0.4,0.3-0.8,0.4-1.2,0.4c-0.8,0-1.4-0.4-1.9-1.3c-0.4-0.7-0.5-1.5-0.5-2.4
		c0-2.1,0.5-3.5,1.5-4.2c0.4-0.3,0.7-0.4,1.1-0.4c0.8,0,1.4,0.5,1.9,1.4c0.4,0.7,0.5,1.6,0.5,2.5C102.7,46.7,102.2,48,101.2,48.8z
		 M82.2,37c0-0.7-0.3-1-0.9-1c-0.6,0-0.9,0.3-0.9,1c0,0.7,0.3,1,0.9,1C81.9,37.9,82.2,37.6,82.2,37z M66.3,41.3v-1.1
		c-0.2,0.1-0.4,0.2-0.6,0.2c-0.2,0-0.5-0.1-0.7-0.2v8c0,0.5-0.1,0.8-0.4,0.8c0,0-0.2,0-0.6-0.1v0.4c0.4,0.2,0.8,0.2,1.1,0.2
		c0.4,0,0.7-0.1,0.9-0.3c0.2-0.2,0.3-0.5,0.3-0.9v-5.1c0-0.6,0.2-1.1,0.6-1.6c0.4-0.5,0.9-0.8,1.4-0.8c0.6,0,1.1,0.4,1.4,1.1v-1.3
		c-0.5-0.3-1-0.5-1.5-0.5C67.5,40.2,66.8,40.6,66.3,41.3z M78.1,48.2V35c-0.2,0-0.5,0-0.7,0.1C77.1,35,76.9,35,76.7,35v7.2
		c-0.5-1.3-1.5-2-2.8-2c-1.2,0-2.1,0.5-2.8,1.4c-0.6,0.9-1,1.9-1,3.1c0,3.4,1.3,5.1,4,5.1c0.6,0,1.1-0.1,1.5-0.4
		c0.3-0.2,0.7-0.6,1.1-1.2c0.1,1,0.5,1.4,1.2,1.4c0.3,0,0.7-0.1,1.1-0.3v-0.4C78.8,49,78.6,49,78.5,49C78.2,49,78.1,48.7,78.1,48.2z
		 M75.1,48.8c-0.4,0.3-0.8,0.4-1.2,0.4c-0.8,0-1.5-0.4-1.9-1.3c-0.4-0.7-0.5-1.5-0.5-2.4c0-2.1,0.5-3.5,1.5-4.2
		c0.4-0.3,0.7-0.4,1.1-0.4c0.8,0,1.4,0.5,1.9,1.4c0.4,0.7,0.5,1.6,0.5,2.5C76.5,46.7,76.1,48,75.1,48.8z M90.7,48.2v-4.8
		c0-2.1-1-3.2-2.9-3.2c-0.5,0-1.2,0.2-2.2,0.7l0.4,1.5c0.1-0.4,0.4-0.8,0.7-1.1c0.4-0.3,0.7-0.5,1.1-0.5c0.3,0,0.6,0.1,0.9,0.4
		c0.2,0.3,0.4,0.6,0.4,1c0,0.5-0.4,1-1.3,1.4c-1.4,0.7-2.1,1.2-2.3,1.3c-0.8,0.7-1.3,1.5-1.3,2.5c0,0.7,0.2,1.3,0.6,1.7
		c0.4,0.4,0.9,0.6,1.6,0.6c1.2,0,2.2-0.5,2.9-1.4c0.1,0.8,0.5,1.2,1.2,1.2c0.4,0,0.7-0.1,1.1-0.2v-0.4c-0.2,0-0.4,0.1-0.5,0.1
		C90.9,49,90.7,48.7,90.7,48.2z M89.3,47.6c-0.5,0.9-1.2,1.4-2.1,1.4c-0.5,0-0.9-0.2-1.2-0.5c-0.3-0.4-0.4-0.8-0.4-1.3
		c0-0.6,0.3-1.2,0.9-1.7c0.6-0.4,1.1-0.8,1.7-1.2c0.7-0.5,1-1,1.2-1.5V47.6z M82,48.2v-8h-1.4v8.1c0,0.8,0.4,1.2,1.2,1.2
		c0.4,0,0.8-0.1,1.2-0.3v-0.4C82.6,49,82.4,49,82.4,49C82.1,49,82,48.7,82,48.2z M86.4,24.2l-9-22.9c-0.2,0.1-0.5,0.2-0.8,0.2
		c-0.3,0-0.6-0.1-0.8-0.2l-8.6,22.9c0.3-0.1,0.7-0.2,1-0.2c0.4,0,0.8,0.1,1.2,0.2l7-19.4l7,19.4c0.3-0.2,0.8-0.3,1.3-0.3
		C85.3,23.9,85.9,24,86.4,24.2z"/>
	<path class="st0" d="M145.4,24.7l2-5.8h9.9l2,5.8c0.3-0.2,0.7-0.3,1.3-0.3c0.6,0,1.2,0.1,1.7,0.3l-9-22.9c-0.3,0.1-0.6,0.1-0.8,0.1
		c-0.2,0-0.5,0-0.8-0.1l-8.5,22.9c0.3-0.1,0.6-0.2,1-0.2C144.6,24.5,145,24.6,145.4,24.7z M152.4,5.4l4.4,12.2H148L152.4,5.4z
		 M135.8,23.2c-0.8,0-1.6-0.3-2.4-1c-0.8-0.6-1.3-1.3-1.5-2.1l-1.2,2.3c0.6,0.7,1.3,1.3,2.2,1.7c0.9,0.5,1.8,0.7,2.6,0.7
		c2,0,3.7-0.8,5.1-2.3c1.4-1.5,2.1-3.3,2.1-5.3c0-1.7-0.4-3.2-1.3-4.3c-0.6-0.8-1.8-1.8-3.5-2.9c-2.7-1.9-4.1-3.6-4.1-5.2
		c0-0.8,0.2-1.4,0.7-1.9c0.5-0.5,1-0.8,1.8-0.8c0.8,0,1.5,0.2,2,0.5c0.4,0.3,0.9,0.8,1.3,1.6l0.8-2.4c-0.9-0.9-2.2-1.4-3.9-1.4
		c-1.4,0-2.5,0.3-3.3,1c-0.8,0.6-1.3,1.7-1.5,3.1c0,0.3-0.1,0.6-0.1,0.9c0,2.2,1.6,4.6,4.9,7.1c1.3,0.9,2.2,1.8,2.7,2.4
		c0.7,1,1.1,2.1,1.1,3.3c0,1.3-0.4,2.4-1.2,3.4C138.2,22.7,137.1,23.2,135.8,23.2z M0.6,30.5V31h163.2v-0.5H0.6z M112.7,24.7l2-5.8
		h9.9l2,5.8c0.3-0.2,0.7-0.3,1.3-0.3c0.6,0,1.2,0.1,1.7,0.3l-9-22.9c-0.3,0.1-0.6,0.1-0.8,0.1c-0.2,0-0.5,0-0.8-0.1l-8.5,22.9
		c0.3-0.1,0.6-0.2,1-0.2C112,24.5,112.4,24.6,112.7,24.7z M119.8,5.4l4.4,12.2h-8.8L119.8,5.4z M102.8,25.1c2.3,0,4.5-1,6.6-2.9
		l-0.1-2.5c-0.6,1.1-1.5,2-2.6,2.8c-1.2,0.9-2.4,1.3-3.5,1.3c-2.6,0-4.7-1.2-6.2-3.5c-1.3-2-1.9-4.4-1.9-7.1c0-2.8,0.7-5.2,2-7.2
		c1.5-2.3,3.6-3.4,6.3-3.4c1.4,0,2.5,0.4,3.1,1.2l1.1-1.7c-1.2-0.5-2.6-0.8-4.1-0.8c-3.4,0-6.2,1.1-8.3,3.4
		c-2.1,2.3-3.1,5.2-3.1,8.6c0,3.3,0.9,6,2.8,8.2C97,23.9,99.6,25.1,102.8,25.1z"/>
</g>
</svg>
