<?xml version="1.0" encoding="UTF-8"?><svg id="Layer_1" xmlns="http://www.w3.org/2000/svg" viewBox="0 0 100 40.3"><defs><style>.cls-1{fill:#fff;}.cls-2{fill:#00a19b;}</style></defs><g><g><g><path class="cls-2" d="M55.47,26.91c-.11,.09-.16,.21-.16,.35s.07,.26,.2,.35c.13,.09,.44,.19,.91,.31,.48,.12,.85,.29,1.11,.53,.26,.23,.39,.58,.39,1.03s-.17,.81-.51,1.09c-.34,.28-.78,.42-1.33,.42-.79,0-1.51-.29-2.15-.88l.67-.82c.54,.47,1.04,.71,1.5,.71,.21,0,.37-.04,.48-.13,.12-.09,.18-.21,.18-.36s-.06-.27-.19-.36c-.12-.09-.37-.18-.74-.27-.58-.14-1.01-.32-1.28-.54-.27-.22-.41-.57-.41-1.05s.17-.84,.51-1.1c.34-.26,.77-.39,1.28-.39,.33,0,.67,.06,1,.17s.63,.28,.88,.49l-.57,.82c-.44-.33-.89-.5-1.35-.5-.19,0-.33,.04-.44,.13Z"/><path class="cls-2" d="M62.58,30.93l-.47-1.08h-2.1l-.47,1.08h-1.19l2.17-5.02h1.08l2.17,5.02h-1.19Zm-1.51-3.52l-.63,1.46h1.26l-.62-1.46Z"/><path class="cls-2" d="M65.86,29.63c.19,.23,.44,.35,.75,.35s.57-.12,.75-.35c.18-.23,.28-.55,.28-.95v-2.77h1.12v2.81c0,.73-.2,1.29-.6,1.68-.4,.39-.92,.59-1.54,.59s-1.14-.2-1.55-.59c-.4-.39-.61-.95-.61-1.67v-2.81h1.12v2.77c0,.4,.09,.72,.28,.95Zm1.26-4.24h-1.03l.91-1.27,1.11,.47-1,.8Z"/><path class="cls-2" d="M73.93,26.57c.48,.44,.72,1.05,.72,1.83s-.23,1.4-.7,1.85c-.47,.45-1.18,.68-2.14,.68h-1.72v-5.02h1.77c.89,0,1.58,.22,2.06,.66Zm-.82,2.98c.28-.26,.41-.63,.41-1.13s-.14-.87-.41-1.14c-.28-.27-.7-.4-1.27-.4h-.62v3.05h.71c.51,0,.91-.13,1.18-.39Z"/><path class="cls-2" d="M79.42,25.91v1h-2.5v1.03h2.25v.95h-2.25v1.04h2.58v.99h-3.7v-5.02h3.62Z"/></g><path class="cls-2" d="M82.4,21.61v13.59h-30.84v-13.59h30.84m.73-.72H50.84v15.04h32.3v-15.04h0Z"/></g><g><rect class="cls-2" x="83.86" y="20.89" width="16.14" height="15.04"/><g><path class="cls-1" d="M86.64,27.16v.05h10.76v-.05h-10.76Zm4.14,.65s-.08,0-.12-.02l-1.33,3.57s.1-.03,.16-.03c.06,0,.12,.01,.18,.03l.32-.91h1.54l.32,.91s.11-.04,.2-.04c.09,0,.18,.01,.26,.04l-1.4-3.57c-.05,.01-.09,.02-.12,.02Zm-.71,2.45l.69-1.91,.69,1.91h-1.38Zm-1.34,.76c-.19,.13-.37,.2-.54,.2-.41,0-.73-.18-.96-.54-.2-.31-.3-.68-.3-1.11s.1-.81,.31-1.12c.24-.35,.57-.53,.99-.53,.22,0,.39,.06,.49,.18l.17-.27c-.19-.08-.41-.12-.64-.12-.54,0-.97,.18-1.29,.54-.33,.36-.49,.81-.49,1.35s.15,.94,.44,1.29c.31,.36,.72,.55,1.22,.55,.36,0,.71-.15,1.03-.45l-.02-.39c-.1,.17-.24,.31-.41,.44Zm4.88-1.95c-.43-.3-.64-.56-.64-.8,0-.12,.04-.22,.11-.3,.07-.08,.16-.12,.28-.12,.13,0,.23,.03,.31,.08,.06,.05,.13,.13,.21,.25l.13-.37c-.14-.15-.35-.22-.62-.22-.22,0-.39,.05-.51,.15-.12,.1-.2,.26-.23,.48,0,.04-.01,.09-.01,.14,0,.35,.26,.71,.77,1.1,.2,.15,.34,.27,.42,.38,.11,.15,.17,.32,.17,.52s-.06,.38-.19,.53c-.14,.16-.31,.24-.51,.24-.13,0-.25-.05-.37-.15-.12-.1-.2-.21-.24-.33l-.18,.36c.09,.1,.2,.2,.35,.27,.15,.08,.28,.12,.41,.12,.31,0,.57-.12,.79-.36,.22-.24,.32-.52,.32-.83,0-.27-.07-.49-.21-.67-.09-.13-.27-.28-.54-.46Zm2.27-1.26s-.08,0-.12-.02l-1.33,3.57s.1-.03,.16-.03c.06,0,.12,.01,.18,.03l.32-.91h1.55l.32,.91s.11-.04,.2-.04c.09,0,.18,.01,.26,.04l-1.4-3.57c-.05,.01-.09,.02-.12,.02Zm-.71,2.45l.69-1.91,.69,1.91h-1.38Z"/><path class="cls-1" d="M87.29,26.38c-.1,0-.2-.04-.3-.12-.1-.08-.16-.17-.19-.27l-.15,.29c.07,.09,.16,.16,.28,.22,.12,.06,.23,.09,.34,.09,.25,0,.47-.1,.64-.29,.18-.2,.26-.42,.26-.68,0-.22-.06-.4-.17-.55-.08-.1-.22-.23-.44-.37-.35-.24-.52-.46-.52-.65,0-.1,.03-.18,.09-.24,.06-.06,.13-.1,.23-.1,.11,0,.19,.02,.25,.07,.05,.04,.11,.11,.17,.21l.11-.3c-.11-.12-.28-.18-.5-.18-.18,0-.32,.04-.42,.12-.1,.08-.16,.21-.19,.39,0,.03,0,.07,0,.11,0,.28,.21,.58,.62,.9,.16,.12,.27,.22,.34,.31,.09,.12,.14,.26,.14,.42s-.05,.31-.16,.44c-.11,.13-.25,.2-.41,.2Zm2.28,6.02s-.02-.06-.06-.06-.06,.02-.06,.06,.02,.06,.06,.06,.06-.02,.06-.06Zm.85-5.88c.08,0,.15,.01,.21,.03l-1.13-2.88c-.06,.04-.16,.04-.21,0l-1.08,2.88c.08-.04,.19-.03,.28,0l.89-2.44,.88,2.44s.1-.03,.16-.03Zm.03,6.01h.05l.13-.16s-.04,.01-.06,.01c-.03,0-.05,0-.07-.01l-.05,.16Zm-.44,.67c-.07,0-.12-.03-.16-.09-.03-.05-.05-.12-.05-.19,0-.07,.01-.12,.03-.17,.03-.06,.07-.09,.14-.09,.03,0,.06,0,.09,.02,.03,.02,.05,.03,.06,.06l.03-.09s-.06-.03-.07-.04c-.02,0-.05-.01-.08-.01-.09,0-.17,.03-.22,.09-.06,.06-.08,.13-.08,.23s.03,.16,.08,.22c.05,.06,.13,.1,.21,.1,.07,0,.13-.02,.19-.07l-.02-.06c-.05,.05-.1,.08-.14,.08Zm-.45-.06v-.52h-.09v.53c0,.05,.03,.08,.08,.08,.02,0,.05,0,.08-.02v-.03s-.04,0-.04,0c-.02,0-.03-.02-.03-.05Zm-1.72-.68s.06-.02,.06-.06-.02-.06-.06-.06-.06,.02-.06,.06,.02,.06,.06,.06Zm1.31,.22v-.07s-.03,.01-.04,.01c-.01,0-.03,0-.05-.01v.53s0,.05-.03,.05c0,0-.01,0-.04,0v.03s.05,.02,.07,.02,.04,0,.06-.02c.02-.01,.02-.03,.02-.06v-.33s.01-.07,.04-.11c.03-.03,.06-.05,.09-.05s.07,.02,.09,.07v-.09s-.07-.03-.1-.03c-.05,0-.1,.02-.13,.07Zm1.99-6.12v-2.36l1.93,2.55v-3.09c-.06,.04-.15,.04-.22,0v2.27l-1.92-2.43v3.05c.06-.06,.15-.06,.21,0Zm-3.64,5.71s-.02,0-.02,0l-.33,.81-.32-.81s-.01,0-.02,0-.02,0-.02,0l-.12,.97s.03,0,.05,0c.02,0,.04,0,.05,0l.07-.77,.33,.86,.35-.88,.07,.79s.03-.01,.05-.01c.02,0,.04,0,.06,.01l-.14-.97s-.02,0-.03,0Zm1.08,.83s-.01-.04-.01-.05c0-.04,.03-.07,.08-.09,.05-.02,.11-.04,.16-.07,.06-.03,.08-.07,.08-.11,0-.05-.02-.09-.05-.12-.04-.03-.08-.04-.13-.04-.08,0-.14,.03-.2,.1-.05,.06-.07,.14-.07,.22s.03,.16,.08,.22c.05,.07,.12,.1,.2,.1,.07,0,.14-.03,.2-.08v-.07c-.05,.06-.12,.09-.19,.09s-.12-.03-.15-.09Zm-.03-.11s-.01-.05-.01-.09c0-.06,.01-.12,.04-.17,.03-.06,.08-.09,.14-.09,.03,0,.05,.01,.07,.04,.01,.02,.02,.05,.02,.08,0,.04-.02,.06-.05,.08-.04,.01-.07,.03-.11,.04-.05,.02-.08,.06-.1,.1Zm-.66,.15v-.52h-.09v.53c0,.05,.03,.08,.08,.08,.02,0,.05,0,.08-.02v-.03s-.04,0-.04,0c-.02,0-.03-.02-.03-.05Zm.29-.31s-.06-.06-.06-.11c0-.05,.03-.07,.08-.07,.04,0,.07,.02,.08,.05l.03-.07s-.07-.03-.11-.03c-.04,0-.08,.01-.11,.04-.03,.03-.05,.06-.05,.1,0,.06,.02,.11,.06,.15,.04,.02,.08,.05,.12,.07,.04,.03,.06,.06,.06,.1,0,.03,0,.06-.03,.08-.02,.02-.04,.04-.08,.04-.02,0-.04,0-.07-.02-.03-.02-.04-.03-.05-.05l-.03,.09s.09,.03,.14,.03c.05,0,.1-.02,.13-.06,.04-.04,.05-.09,.05-.14,0-.06-.02-.11-.06-.15-.04-.02-.08-.05-.12-.07Zm6.94-6.31s.1,0,.14,.03l.89-2.44,.88,2.44c.1-.05,.27-.03,.38,0l-1.13-2.88c-.06,.04-.15,.04-.21,0l-1.08,2.88s.08-.03,.13-.03Zm-.04,5.88s-.02-.06-.06-.06-.06,.02-.06,.06,.02,.06,.06,.06,.06-.02,.06-.06Zm.27,.43s-.06-.06-.06-.11c0-.05,.03-.07,.08-.07,.04,0,.07,.02,.08,.05l.03-.07s-.07-.03-.11-.03c-.04,0-.08,.01-.11,.04-.03,.03-.05,.06-.05,.1,0,.06,.02,.11,.06,.15,.04,.02,.08,.05,.12,.07,.04,.03,.06,.06,.06,.1,0,.03,0,.06-.03,.08-.02,.02-.05,.04-.08,.04-.02,0-.04,0-.07-.02-.02-.02-.04-.03-.05-.05l-.03,.09s.09,.03,.14,.03c.05,0,.1-.02,.13-.06,.04-.04,.05-.09,.05-.14,0-.06-.02-.11-.06-.15-.04-.02-.08-.05-.12-.07Zm-.28,.31v-.52h-.09v.53c0,.05,.03,.08,.08,.08,.02,0,.05,0,.08-.02v-.03s-.04,0-.04,0c-.02,0-.03-.02-.03-.05Zm-.46-6.65v-.09c-.17,.02-.2,.03-.21-.15v-2.37h.78c-.02-.07-.02-.14,0-.22h-1.83c.02,.07,.02,.14,0,.22h.76v2.41c0,.27,.3,.3,.5,.2Zm-.06,6.67v-.82s0-.05-.03-.06c-.02-.02-.04-.02-.06-.02s-.05,0-.08,.02v.03s.04,0,.04,0c.02,0,.03,.02,.03,.05v.88h.44s0-.02,0-.04,0-.02,0-.04h-.34Zm2.79-.02v-.32c0-.14-.06-.21-.19-.21-.03,0-.08,.02-.14,.05l.02,.1s.02-.05,.05-.07c.02-.02,.05-.03,.07-.03,.02,0,.04,0,.06,.03,.02,.02,.02,.04,.02,.06,0,.03-.03,.06-.08,.09-.09,.05-.14,.08-.15,.09-.06,.04-.08,.1-.08,.17,0,.05,.01,.08,.04,.11,.03,.03,.06,.04,.11,.04,.08,0,.14-.03,.19-.09,0,.05,.03,.08,.08,.08,.02,0,.05,0,.07-.02v-.03s-.03,0-.03,0c-.02,0-.03-.02-.03-.05Zm-.09-.03c-.04,.06-.08,.09-.14,.09-.03,0-.06-.01-.08-.04-.02-.02-.03-.05-.03-.09,0-.04,.02-.08,.06-.11,.04-.03,.07-.05,.11-.08,.04-.03,.07-.06,.08-.1v.31Zm-1.31-.49c-.09,0-.15,.04-.19,.13v-.48s-.03,0-.05,0c-.02,0-.03,0-.05,0v.87s0,.05-.03,.05c0,0-.02,0-.04,0v.03s.05,.02,.07,.02c.05,0,.08-.03,.08-.09,.03,.04,.05,.06,.07,.08,.03,.02,.06,.03,.1,.03,.08,0,.15-.04,.2-.11,.04-.06,.06-.14,.06-.23,0-.08-.02-.15-.06-.2-.05-.06-.11-.09-.19-.09Zm.05,.57s-.05,.03-.08,.03c-.05,0-.1-.03-.12-.08-.02-.04-.04-.1-.04-.16,0-.14,.03-.23,.1-.28,.02-.02,.05-.03,.07-.03,.05,0,.1,.03,.12,.09,.02,.05,.04,.1,.04,.16,0,.13-.03,.22-.1,.26Zm.57-.57c-.09,0-.16,.03-.21,.1-.05,.06-.08,.14-.08,.22h0c0,.05,0,.09,.02,.13,.02,.06,.05,.1,.1,.14,.05,.03,.1,.05,.16,.05,.09,0,.16-.03,.21-.1,.05-.06,.08-.14,.08-.23s-.02-.16-.07-.22c-.05-.06-.12-.09-.2-.09Zm.07,.57s-.06,.03-.09,.03c-.06,0-.1-.03-.14-.09-.02-.05-.04-.1-.04-.17,0-.13,.03-.22,.1-.27,.03-.02,.05-.03,.08-.03,.06,0,.11,.03,.14,.1,.03,.05,.04,.11,.04,.18,0,.12-.03,.2-.1,.25Zm-4.62-.04v-.52h-.09v.53c0,.05,.03,.08,.08,.08,.02,0,.05,0,.08-.02v-.03s-.04,0-.04,0c-.02,0-.03-.02-.03-.05Zm.01-.74s-.02-.06-.06-.06-.06,.02-.06,.06,.02,.06,.06,.06,.06-.02,.06-.06Zm-.27,.74v-.87s-.03,0-.05,0c-.02,0-.03,0-.05,0v.48c-.04-.09-.1-.13-.19-.13-.08,0-.14,.03-.18,.09-.04,.06-.06,.13-.06,.2,0,.22,.09,.34,.26,.34,.04,0,.07,0,.1-.03,.02-.01,.05-.04,.07-.08,0,.06,.03,.09,.08,.09,.02,0,.04,0,.07-.02v-.03s-.03,0-.04,0c-.02,0-.03-.02-.03-.05Zm-.2,.04s-.05,.03-.08,.03c-.05,0-.1-.03-.12-.08-.02-.04-.04-.1-.04-.16,0-.14,.03-.23,.1-.28,.02-.02,.05-.03,.07-.03,.05,0,.1,.03,.12,.09,.02,.05,.04,.1,.04,.16,0,.13-.03,.22-.1,.26Zm-.58-.49v-.07s-.03,.01-.04,.01c-.01,0-.03,0-.05-.01v.53s0,.05-.03,.05c0,0-.01,0-.04,0v.03s.05,.02,.07,.02,.04,0,.06-.02c.02-.01,.02-.03,.02-.06v-.33s.01-.07,.04-.11c.03-.03,.06-.05,.09-.05s.07,.02,.09,.07v-.09s-.07-.03-.1-.03c-.05,0-.1,.02-.13,.07Zm-.48-.07c-.09,0-.16,.03-.21,.1-.05,.06-.08,.14-.08,.22h0c0,.05,0,.09,.02,.13,.02,.06,.05,.1,.1,.14,.05,.03,.1,.05,.16,.05,.09,0,.16-.03,.21-.1,.05-.06,.08-.14,.08-.23s-.02-.16-.07-.22c-.05-.06-.12-.09-.2-.09Zm.07,.57s-.06,.03-.09,.03c-.06,0-.1-.03-.14-.09-.02-.05-.04-.1-.04-.17,0-.13,.03-.22,.1-.27,.03-.02,.05-.03,.08-.03,.06,0,.11,.03,.14,.1,.03,.05,.04,.11,.04,.18,0,.12-.03,.2-.1,.25Zm2.9-.04v-.87s-.03,0-.05,0c-.02,0-.03,0-.05,0v.48c-.04-.09-.1-.13-.19-.13-.08,0-.14,.03-.18,.09-.04,.06-.06,.13-.06,.2,0,.22,.09,.34,.26,.34,.04,0,.07,0,.1-.03,.02-.01,.05-.04,.07-.08,0,.06,.03,.09,.08,.09,.02,0,.04,0,.07-.02v-.03s-.03,0-.04,0c-.02,0-.03-.02-.03-.05Zm-.2,.04s-.05,.03-.08,.03c-.05,0-.1-.03-.12-.08-.02-.04-.04-.1-.04-.16,0-.14,.03-.23,.1-.28,.02-.02,.05-.03,.08-.03,.05,0,.1,.03,.12,.09,.02,.05,.04,.1,.04,.16,0,.13-.03,.22-.1,.26Zm.45-.08s-.01-.04-.01-.05c0-.04,.03-.07,.08-.09,.05-.02,.11-.04,.16-.07,.06-.03,.08-.07,.08-.11,0-.05-.02-.09-.05-.12-.04-.03-.08-.04-.13-.04-.08,0-.14,.03-.2,.1-.04,.06-.07,.14-.07,.22s.03,.16,.08,.22c.05,.07,.12,.1,.2,.1,.07,0,.14-.03,.2-.08v-.07c-.05,.06-.12,.09-.19,.09s-.12-.03-.15-.09Zm-.03-.11s-.01-.05-.01-.09c0-.06,.01-.12,.04-.17,.03-.06,.08-.09,.14-.09,.03,0,.05,.01,.07,.04,.01,.02,.02,.05,.02,.08,0,.04-.02,.06-.05,.08-.04,.01-.07,.03-.11,.04-.05,.02-.08,.06-.1,.1Zm-1.11,.15v-.32c0-.14-.06-.21-.19-.21-.03,0-.08,.02-.14,.05l.02,.1s.02-.05,.05-.07c.02-.02,.05-.03,.07-.03,.02,0,.04,0,.06,.03,.02,.02,.02,.04,.02,.06,0,.03-.03,.06-.08,.09-.09,.05-.14,.08-.15,.09-.06,.04-.08,.1-.08,.17,0,.05,.01,.08,.04,.11,.02,.03,.06,.04,.11,.04,.08,0,.14-.03,.19-.09,0,.05,.03,.08,.08,.08,.02,0,.05,0,.07-.02v-.03s-.03,0-.03,0c-.02,0-.03-.02-.03-.05Zm-.09-.03c-.04,.06-.08,.09-.14,.09-.03,0-.06-.01-.08-.04-.02-.02-.03-.05-.03-.09,0-.04,.02-.08,.06-.11,.04-.03,.07-.05,.11-.08,.04-.03,.07-.06,.08-.1v.31Z"/></g></g></g><g><path class="cls-2" d="M42.76,7.29c-.3-1.99-1.09-3.96-2.68-5.27-1.89-1.55-4.66-1.96-7.04-1.78-2.68,.19-5.31,.98-7.91,1.61-1.25,.31-2.52,.54-3.81,.57s-2.44-.19-3.62-.51c-1.34-.37-2.63-.9-3.96-1.3S11.16-.02,9.82,0C7.66,.04,5.51,.66,3.69,1.82c-.7,.45-1.36,1.01-1.95,1.6-.25,.25-.48,.51-.71,.78-.11,.13-.26,.27-.35,.42-.07,.12-.04,.21-.06,.33-.04,.17-.22,.38-.3,.54-.18,.38-.56,1.7-.14,2.04,.2,.16,.5,.18,.73,.07s.32-.37,.43-.59c.36-.72,.8-1.35,1.37-1.91,1.33-1.32,3.02-2.33,4.88-2.66,.98-.18,1.98-.2,2.97-.09,.51,.05,1.02,.22,1.51,.36,.62,.18,1.24,.39,1.85,.62,2.37,.9,4.86,1.7,7.42,1.69,1.14,0,2.32-.09,3.44-.34,1.27-.29,2.53-.67,3.78-1.01,.67-.18,1.35-.36,2.03-.51,.61-.14,1.21-.19,1.83-.23,1.3-.09,2.64-.11,3.92,.2,1.12,.27,2.23,.87,2.93,1.81,.59,.8,.9,1.82,1.08,2.79,.23,1.25,.24,2.55,.25,3.82,0,1.36-.12,2.71-.14,4.06s-.2,2.67-.38,4-.38,2.59-.69,3.87c-.12,.51-.17,1.03-.29,1.53-.07,.31-.15,.62-.24,.93-.04,.14-.11,.29-.12,.43,0,.11,0,.19-.02,.29-.09,.42-.26,.83-.41,1.23-.05,.13-.13,.27-.13,.41,0,.12,.04,.24,.12,.33,.05,.06,.19,.11,.2,.17,0,.06-.11,.23-.13,.28-.05,.11-.1,.22-.14,.33-.07,.22-.07,.42,.11,.59,.42,.38,.85,.06,1.13-.28,.07-.08,.14-.16,.2-.25s.12-.17,.18-.25c.09-.13,.2-.2,.3-.32,.16-.2,.23-.46,.32-.69,.12-.36,.24-.73,.34-1.1,.69-2.45,1.25-4.9,1.58-7.42,.34-2.62,.53-5.78,.55-8.42,0-1.33-.02-2.66-.19-3.98Z"/><path class="cls-2" d="M35.42,35.48c-.16-.18-.47-.22-.69-.13-.25,.09-.34,.36-.49,.55-.33,.41-.61,.84-1.05,1.17-.22,.16-.47,.28-.67,.45-.26,.23-.5,.41-.85,.47-.25,.05-.47,.14-.72,.18-.36,.05-.68,.01-1.03-.03-.21-.03-.38-.07-.57-.15-.15-.06-.24-.08-.37-.2-.14-.13-.27-.26-.4-.41-.11-.12-.22-.25-.32-.38-.17-.23-.36-.42-.51-.65-.28-.45-.56-.9-.95-1.25-.11-.1-.21-.15-.3-.28-.07-.09-.14-.18-.23-.25s-.2-.14-.3-.2c-.57-.37-1.2-.66-1.88-.67-.32,0-.65,.02-.96,.09s-.65,.12-.95,.28c-.27,.14-.5,.34-.74,.53-.18,.15-.32,.37-.46,.56-.18,.24-.33,.5-.48,.75-.07,.12-.15,.23-.23,.35-.08,.14-.1,.25-.21,.38-.32,.37-.7,.64-1.04,.98-.44,.43-1,.65-1.58,.83s-1.22,.05-1.8-.11c-.51-.14-.98-.32-1.46-.56-.29-.14-.57-.29-.83-.47-.1-.07-.19-.15-.29-.22-.1-.08-.23-.11-.33-.19-.22-.17-.44-.42-.61-.63-.09-.11-.15-.24-.24-.34s-.2-.17-.28-.29c-.1-.13-.22-.21-.31-.34-.21-.27-.48-.17-.75-.23s-.53-.14-.75,.09c-.14,.15-.09,.33-.14,.51-.07,.25-.17,.37,0,.61,.14,.2,.29,.38,.42,.59,.25,.4,.57,.74,.91,1.06,.65,.62,1.39,1.11,2.2,1.5,.5,.24,1.05,.44,1.59,.59,.49,.14,1.01,.27,1.52,.28,.65,.02,1.37,.03,2-.17s1.22-.49,1.74-.89c.24-.19,.46-.4,.7-.6,.26-.22,.54-.37,.78-.62,.47-.5,.78-1.08,1.15-1.65,.23-.36,.52-.82,.99-.88,.2-.03,.53,.04,.71,.1,.26,.08,.44,.2,.63,.39,.17,.17,.33,.3,.46,.51,.19,.3,.4,.59,.6,.89,.25,.38,.51,.74,.81,1.09,.33,.38,.68,.75,1.13,.98,.58,.3,1.15,.43,1.79,.52,.46,.06,.94,0,1.41-.02,.66-.03,1.3-.19,1.89-.5,.54-.28,1.07-.71,1.45-1.18,.18-.23,.33-.49,.49-.73,.19-.28,.29-.6,.47-.87,.06-.09,.15-.18,.17-.29s-.04-.21-.06-.31c-.03-.17-.01-.44-.14-.58Z"/><path class="cls-2" d="M18.72,10.51c-.22-.7-.7-1.38-1.32-1.85-.62-.45-1.34-.7-2.03-.77-.68-.07-1.32,0-1.91,.13-.59,.14-1.13,.34-1.65,.59-.26,.13-.51,.26-.75,.41-.25,.15-.45,.3-.67,.45-.52,.38-.92,.69-1.28,.97-.12,.17-.35,.41-.59,.7-.25,.29-.5,.62-.68,.94-.07,.2-.2,.43-.33,.66-.12,.23-.21,.47-.19,.65-.08,.25-.14,.14-.2,.35,0,.33-.07,.66-.1,1.07-.04,.4-.05,.88,.11,1.45,.08,.3,.11,.43,.13,.56,.02,.13,.04,.25,.16,.49,.21,.25,.36,.54,.55,.82,.09,.15,.2,.28,.31,.42,.11,.14,.24,.26,.38,.38,.17,.18,.06,.18,.2,.33-.07-.24,.54,.31,.28,.25,.28,.2,.6,.39,.89,.58,.7,.45,1.15,.72,1.54,.99,.39,.26,.72,.5,1.13,.8,.16,.14,.23,.15,.3,.17,.07,.02,.15,.03,.29,.17,.44,.43,.9,.89,1.27,1.43,.36,.53,.61,1.16,.57,1.76,.05,.17,.05,.36-.01,.59-.06,.23-.18,.51-.4,.83-.07,.29-.23,.46-.41,.65-.26,.25-.43,.28-.66,.38-.01,.09-.05,.11-.11,.13-.06,.02-.15,.04-.28,.07-.26,.09-.34,.18-.5,.25,.13,0,.31-.06,.33-.01-.16,.08-.34,.04-.47,.02-.13-.03-.2-.04-.21,.07-.22,.03-.16,.05-.04,.08,.12,.02,.29,.02,.28,.05-.57,.11-1.34,.05-2.02-.34-.2-.13,.21-.02-.12-.24-.24,0-.58-.25-.76-.57-.03-.04-.04-.08-.06-.12-.01-.04-.04-.08-.05-.13-.03-.09-.05-.19-.06-.28-.02-.09-.01-.19-.03-.27,0-.09,0-.18,0-.26-.03,.13-.04,.31-.09,.33,.05-.26,.02-.33-.03-.38-.05-.05-.13-.08-.09-.26,.06-.11,.27-.42,.1-.4-.06,.14-.15,.32-.1,.11,.1-.14,.22-.39,.38-.66,.16-.28,.34-.58,.52-.82-.1-.02,.04-.22,.06-.33-.09-.09-.22,.15-.15-.12-.12-.04,.32-.5,.12-.49-.19-.02-.22-.35-.27-.65-.06-.3-.15-.57-.45-.52-.21,.17-.54,.65-.74,.78-.22,.29-.45,.6-.66,.94-.21,.34-.41,.7-.58,1.12-.17,.42-.31,.88-.35,1.41-.04,.53,.02,1.08,.2,1.62,.19,.56,.52,1.04,.89,1.42,.37,.38,.79,.69,1.24,.91,.88,.46,1.85,.68,2.9,.66,2.05-.09,3.89-1.32,4.82-3.07,.23-.44,.41-.91,.51-1.41,.11-.49,.14-1.03,.1-1.52-.08-.99-.44-1.9-.91-2.67-.52-.88-1.18-1.6-1.91-2.19-.72-.59-1.44-1.03-2.11-1.45-.66-.42-1.3-.81-1.81-1.22-.27-.2-.48-.42-.68-.63-.19-.21-.33-.43-.45-.65-.21-.42-.27-.92-.18-1.45,.09-.53,.33-1.05,.72-1.55,.38-.5,.89-.97,1.47-1.38,.14-.1,.3-.21,.45-.3,.14-.09,.29-.17,.45-.25,.31-.15,.63-.28,.95-.37,.54-.14,1.09-.15,1.46-.03,.38,.14,.55,.32,.66,.66,.04,.17,.06,.37,.02,.58-.02,.11-.04,.19-.08,.31-.04,.12-.09,.24-.16,.36-.26,.49-.71,1.02-1.22,1.56-.17,.57,.24,.62,.57,.56,.24,.27,.79,.26,.83,.61,.35-.14,.5-.02,.66,.09,.15,.11,.3,.23,.64,.05,.31-.37,.62-.78,.91-1.26,.14-.24,.28-.5,.39-.79,.06-.14,.11-.29,.16-.44,.05-.16,.09-.33,.12-.49,.13-.67,.1-1.39-.13-2.09Zm-9.34,9.01c-.05-.08,.14,.04,.17,.08,.05,.08-.14-.04-.17-.08Zm4.38,8.65c-.22,.11-.48,.19-.42,.15-.22,.1-.34,.23-.56,.17,.11-.13,.5-.22,.62-.38,.12-.04,.08,.02,.01,.04,.11,.03,.31,0,.56-.16,.17-.08,0,.06-.21,.18Zm.18-.26c-.09,.05-.22,.11-.31,.16,.02-.04,.07-.09,.13-.14,.06-.05,.14-.1,.23-.16,.08,.03,.04,.08-.04,.14Zm.25-.23c.06-.02-.03,.1-.07,.11-.06,.01,.03-.1,.07-.11Zm-.04,.15c.09-.07,.19-.13,.28-.21l.06,.07c-.18,.17-.3,.22-.34,.14Zm.37-.29c.09-.3,.45-.21,0,0h0Zm.29-.37c-.03-.05,.06-.1,.07-.09,.03,.05-.06,.11-.07,.09Zm.13-.33c-.05,.18-.03,.09-.01,0,.01-.09,.03-.18,.01,0Zm.32-1.24s-.05-.08-.04-.1c.03-.05,.06,.08,.04,.1Z"/><path class="cls-2" d="M18.84,23.02c-.06,1.23,.18,2.43,.71,3.57,.68,1.45,1.99,2.03,3.6,2.14,.02,0,.04,0,.06,0,.44,0,.86-.09,1.27-.23,.81-.35,1.28-.95,1.39-1.72,.02-.3,.11-.58,.26-.82,.59-.93,.9-1.95,1-3.01,.02-.11,.07-.27,.02-.37-.14-.36-.08-.69-.1-1.04-.03-1.04-.11-2.07-.44-3.07-.14-.46-.35-.91-.67-1.29-.3-.41-.73-.71-1.26-.82-.45-.11-1.68,.03-1.9,.06-.02,0-.04,0-.06,.01-.15,.05-.32,.08-.49,.11-.59,.12-1.07,.38-1.44,.79-.22,.26-.39,.5-.59,.76h.02c-.06,.05-.09,.1-.13,.15l.02-.02s-.11,.02-.16,.03v.02c-.05,.14-.15,.24-.2,.4-.52,1.4-.88,2.86-.92,4.35Zm2.54-.31c.13-1.43,.5-2.83,1.17-4.13,.09-.18,.17-.36,.27-.53,.18-.3,.62-.29,.78,.02,.34,.68,.55,1.38,.64,2.11,.17,.92,.21,1.9,.19,2.84-.02,.93-.18,1.82-.58,2.69-.01,.03-.02,.06-.03,.09-.06,.32-.11,.74-.3,1.15-.15,.31-.38,.44-.76,.43-.25,0-.47-.2-.5-.24-.35-.42-.35-.55-.53-1.05-.38-1.1-.44-2.26-.35-3.38Z"/><path class="cls-2" d="M36.13,26.89q.2-.36-.02-1c-.1-.06-.26-.14-.38-.24-.14,.02-.26,.02-.4,.06-1.16,.24-2.35,.48-3.51,.72-.14,0-.28,0-.44,.02,.02-.2,.02-.38,.06-.56,.08-.68,.2-2.23,.32-2.93,.1-.58,.18-1.14,.26-1.73,.28-1.57,.56-3.11,.74-4.66,.08-.68,.22-1.34,.36-2.03,.04-.34,.32-1.06,.24-1.38-.02-.3,0-.58-.04-.86,0-.14-.06-.28-.1-.38-.44-.48-.98-.26-1.5-.2-.38,.52-.72,1.06-.96,1.67-.44,.94-.74,1.89-1,2.89-.08,.28-.12,.56-.16,.82-.02,.08-.06,.2,.04,.24,.04-.1,.1-.22,.14-.3-.3,1.57-.58,3.13-.78,4.7-.2,1.59-.48,6.72-.42,7.02,.12,.04,.26,.08,.4,.14-.06,.1-.1,.22-.12,.34,.08,.02,.18,.04,.26,.06,.74-.46,1.57-.72,2.37-.88,1.4-.32,2.83-.62,4.25-.92,.14-.04,.28-.08,.4-.14,.08,0,.16-.1,.24-.18-.08-.12-.16-.22-.24-.28Z"/></g><g><path class="cls-2" d="M52.24,5.16c.53,0,1.01,.14,1.43,.42l-.22,.48c-.38-.25-.79-.38-1.24-.38-.29,0-.52,.05-.7,.16-.17,.1-.26,.25-.26,.44s.06,.33,.19,.45c.12,.12,.28,.21,.47,.27,.19,.06,.39,.12,.61,.2s.42,.15,.61,.23c.19,.08,.34,.21,.47,.39,.12,.18,.19,.39,.19,.65,0,.37-.15,.67-.45,.9-.3,.22-.69,.34-1.17,.34-.32,0-.63-.06-.94-.19s-.56-.29-.78-.5l.23-.46c.21,.2,.44,.36,.71,.47,.27,.11,.53,.17,.79,.17,.33,0,.58-.06,.77-.19,.19-.12,.28-.29,.28-.51,0-.16-.05-.29-.14-.4-.09-.11-.21-.2-.36-.26-.15-.06-.31-.12-.49-.17-.18-.05-.36-.11-.54-.17-.18-.06-.34-.14-.49-.22-.15-.09-.27-.21-.36-.37s-.14-.34-.14-.56c0-.35,.14-.63,.43-.84s.66-.32,1.13-.32Z"/><path class="cls-2" d="M57.62,8.53h-2.45l-.5,1.14h-.55l2.02-4.49h.53l2.01,4.49h-.56l-.5-1.14Zm-.22-.49l-1.01-2.28-1,2.28h2.02Z"/><path class="cls-2" d="M62.93,5.18v2.64c0,.59-.17,1.05-.5,1.38-.33,.33-.79,.5-1.38,.5s-1.05-.17-1.39-.5c-.34-.33-.5-.79-.5-1.38v-2.64h.51v2.64c0,.43,.12,.77,.37,1.01,.25,.24,.58,.37,1.01,.37s.76-.12,1-.36c.24-.24,.36-.58,.36-1.02v-2.64h.51Zm-.95-1.19l-.8,.63h-.48l.77-.87,.51,.24Z"/><path class="cls-2" d="M64.19,5.18h1.82c.65,0,1.2,.22,1.65,.65,.44,.43,.66,.96,.66,1.6s-.22,1.17-.67,1.6-1,.65-1.66,.65h-1.8V5.18Zm.51,.49v3.51h1.31c.51,0,.93-.17,1.27-.5,.34-.33,.51-.75,.51-1.25s-.17-.92-.52-1.26c-.35-.34-.78-.5-1.28-.5h-1.29Z"/><path class="cls-2" d="M72.3,5.67h-2.54v1.48h2.27v.49h-2.27v1.54h2.62v.49h-3.13V5.18h3.05v.49Z"/><path class="cls-2" d="M77.12,5.16c.65,0,1.21,.22,1.67,.65,.46,.44,.68,.97,.68,1.6s-.23,1.17-.68,1.61c-.46,.44-1.01,.66-1.67,.66s-1.22-.22-1.67-.66c-.46-.44-.68-.98-.68-1.61s.23-1.17,.68-1.6c.46-.44,1.01-.65,1.67-.65Zm0,.49c-.51,0-.94,.17-1.3,.52-.36,.34-.54,.76-.54,1.26s.18,.91,.54,1.26c.36,.35,.79,.52,1.3,.52s.93-.17,1.29-.52c.36-.35,.54-.77,.54-1.26s-.18-.91-.54-1.26c-.36-.34-.79-.52-1.29-.52Z"/><path class="cls-2" d="M83.35,9.67l-.93-1.43c-.13,0-.23,.01-.3,.01h-1.19v1.42h-.51V5.18h1.71c.56,0,1,.13,1.31,.39,.31,.26,.47,.63,.47,1.11,0,.37-.09,.68-.26,.92-.17,.25-.42,.43-.75,.53l1.05,1.53h-.58Zm-2.43-1.91h1.19c.41,0,.73-.09,.95-.27,.22-.18,.33-.44,.33-.79s-.11-.59-.33-.77c-.22-.17-.54-.26-.95-.26h-1.19v2.09Z"/><path class="cls-2" d="M87.89,8.53h-2.45l-.5,1.14h-.55l2.02-4.49h.53l2.01,4.49h-.56l-.5-1.14Zm-.22-.49l-1.01-2.28-1,2.28h2.02Z"/><path class="cls-2" d="M90.17,9.18h1.97v.49h-2.48V5.18h.51v4.01Z"/><path class="cls-2" d="M53.95,12.62h-2.54v1.48h2.27v.49h-2.27v1.54h2.62v.49h-3.13v-4.49h3.05v.49Z"/><path class="cls-2" d="M59.63,16.62h-.47v-3.7s-1.64,3.23-1.64,3.23h-.31l-1.63-3.23v3.7h-.49v-4.49h.64l1.64,3.24,1.64-3.24h.63v4.49Z"/><path class="cls-2" d="M63.27,16.14h1.97v.49h-2.48v-4.49h.51v4.01Z"/><path class="cls-2" d="M66.59,16.62h-.51v-4.49h.51v4.49Z"/><path class="cls-2" d="M69.28,12.11c.53,0,1.01,.14,1.43,.42l-.22,.48c-.38-.25-.79-.38-1.24-.38-.29,0-.52,.05-.7,.16-.17,.1-.26,.25-.26,.44s.06,.33,.19,.45c.12,.12,.28,.21,.47,.27,.19,.06,.39,.12,.61,.2s.42,.15,.61,.23c.19,.08,.34,.21,.47,.39,.12,.18,.19,.39,.19,.65,0,.37-.15,.67-.45,.9-.3,.22-.69,.34-1.17,.34-.32,0-.63-.06-.94-.19s-.56-.29-.78-.5l.23-.46c.21,.2,.44,.36,.71,.47,.27,.11,.53,.17,.79,.17,.33,0,.58-.06,.77-.19,.19-.12,.28-.29,.28-.51,0-.16-.05-.29-.14-.4-.09-.11-.21-.2-.36-.26-.15-.06-.31-.12-.49-.17-.18-.05-.36-.11-.54-.17-.18-.06-.34-.14-.49-.22-.15-.09-.27-.21-.36-.37s-.14-.34-.14-.56c0-.35,.14-.63,.43-.84s.66-.32,1.13-.32Z"/><path class="cls-2" d="M71.87,12.13h1.89c.45,0,.81,.1,1.07,.3,.26,.2,.39,.47,.39,.82,0,.27-.07,.49-.22,.66-.15,.18-.35,.29-.61,.35,.33,.05,.58,.17,.76,.37,.18,.2,.27,.46,.27,.76,0,.38-.14,.68-.43,.9-.29,.22-.68,.32-1.19,.32h-1.93v-4.49Zm.51,.49v1.44h1.35c.3,0,.54-.06,.71-.19,.17-.13,.25-.31,.25-.54s-.08-.4-.25-.53-.4-.19-.71-.19h-1.35Zm0,1.93v1.58h1.35c.37,0,.65-.07,.85-.21,.2-.14,.3-.34,.3-.59s-.1-.43-.3-.57c-.2-.14-.49-.21-.85-.21h-1.35Z"/><path class="cls-2" d="M78.4,12.12c.65,0,1.21,.22,1.67,.65,.46,.44,.68,.97,.68,1.6s-.23,1.17-.68,1.61c-.46,.44-1.01,.66-1.67,.66s-1.22-.22-1.67-.66c-.46-.44-.68-.98-.68-1.61s.23-1.17,.68-1.6c.46-.44,1.01-.65,1.67-.65Zm0,.49c-.51,0-.94,.17-1.3,.52-.36,.34-.54,.76-.54,1.26s.18,.91,.54,1.26c.36,.35,.79,.52,1.3,.52s.93-.17,1.29-.52c.36-.35,.54-.77,.54-1.26s-.18-.91-.54-1.26c-.36-.34-.79-.52-1.29-.52Z"/><path class="cls-2" d="M84.42,15.49h-2.45l-.5,1.14h-.55l2.02-4.49h.53l2.01,4.49h-.56l-.5-1.14Zm-.22-.49l-1.01-2.28-1,2.28h2.02Z"/><path class="cls-2" d="M88.09,12.7c.32-.39,.78-.58,1.37-.58s1.05,.19,1.37,.58c.32,.39,.48,.95,.48,1.68s-.16,1.29-.48,1.68c-.32,.39-.78,.58-1.37,.58s-1.05-.19-1.37-.58c-.32-.39-.48-.95-.48-1.68s.16-1.29,.48-1.68Zm2.71,1.68c0-1.22-.45-1.82-1.34-1.82s-1.34,.61-1.34,1.82,.45,1.82,1.34,1.82,1.34-.61,1.34-1.82Z"/><path class="cls-2" d="M93.57,14.86h-1.51v-.37h1.51v.37Z"/><path class="cls-2" d="M95.51,16.62h-.51v-4.01h-.91v-.49h1.42v4.49Z"/><path class="cls-2" d="M98.34,12.11c.45,0,.8,.1,1.06,.3,.26,.2,.39,.48,.39,.83,0,.46-.24,.79-.73,.98,.3,.09,.53,.23,.69,.43,.17,.2,.25,.43,.25,.71,0,.4-.15,.71-.44,.94-.3,.23-.7,.34-1.21,.34s-.92-.11-1.22-.34c-.3-.23-.45-.54-.45-.93,0-.28,.09-.52,.26-.72s.41-.34,.71-.43c-.24-.09-.42-.23-.56-.4-.13-.17-.2-.37-.2-.6,0-.35,.13-.62,.39-.82,.26-.2,.61-.3,1.05-.3Zm0,2.36c-.36,0-.65,.08-.86,.23-.21,.15-.31,.36-.31,.63,0,.28,.1,.5,.31,.66,.21,.16,.5,.23,.86,.23s.65-.08,.86-.23c.21-.16,.31-.38,.31-.66,0-.27-.1-.47-.31-.63-.21-.15-.5-.23-.86-.23Zm0-1.96c-.32,0-.56,.07-.74,.2s-.26,.32-.26,.56,.09,.43,.26,.56c.18,.13,.42,.2,.74,.2s.56-.07,.73-.2c.18-.13,.26-.32,.26-.56s-.09-.43-.26-.56c-.18-.13-.42-.2-.73-.2Z"/></g></svg>